<?xml version="1.0" encoding="UTF-8"?><svg id="Ebene_1" xmlns="http://www.w3.org/2000/svg" viewBox="0 0 217.98 124.84"><defs><style>.cls-1{letter-spacing:-.01em;}.cls-2{letter-spacing:0em;}.cls-3{font-family:Lato-Black, Lato;font-size:7px;font-weight:800;}.cls-4{letter-spacing:0em;}.cls-5{letter-spacing:0em;}.cls-6{letter-spacing:0em;}.cls-7{fill:none;stroke:#010101;stroke-miterlimit:10;}.cls-8,.cls-9,.cls-10,.cls-11,.cls-12{stroke-width:0px;}.cls-9{fill:#1d1d1b;}.cls-10{fill:#e50051;}.cls-11{fill:#fc0;}.cls-12{fill:#fff;}</style></defs><circle class="cls-12" cx="55.45" cy="68.56" r="28.35"/><path class="cls-11" d="M76.19,59.58c-1.16-1.43-7.01-2.82-14.99-1.7-1.48.21-3.01.5-4.56.86-13.65,3.18-15.57,14.6-15.82,16.85-.3,2.76-.25,6.42,2.84,10.34,3.18,3.82,6.75,4.63,9.51,4.91.56.06,1.13.08,1.72.08.88,0,1.78-.06,2.66-.19,3.93-.55,11.15-2.83,15.39-11.87,5.21-11.12,4.18-18.13,3.24-19.3v.02ZM71.75,78.32c-3.97,8.47-10.71,10.6-14.37,11.12-1.37.19-2.78.23-4.07.1-2.51-.25-5.75-.99-8.61-4.43-2.79-3.53-2.83-6.86-2.56-9.37.23-2.1,2.02-12.73,14.8-15.71,1.51-.35,3.01-.63,4.44-.83,1.93-.27,3.8-.41,5.57-.41,5.15,0,7.79,1.12,8.21,1.63.39.49,1.85,6.68-3.41,17.91h0Z"/><path class="cls-10" d="M67.31,51.45c-1.17-.79-4.19-.44-5.09-.31-2.92.41-7.69,1.65-13.85,5.23-12.13,7.04-10.62,18.51-10.2,20.74.52,2.72,1.64,6.22,5.75,9.06,2.32,1.52,4.7,2.26,7.29,2.26.69,0,1.4-.05,2.13-.15.36-.05.73-.11,1.11-.19,2.23-.44,13.43-3.35,15.41-17.23,1.73-12.16-1.3-18.57-2.54-19.4h-.01ZM68.54,70.67c-1.85,12.99-12.28,15.7-14.36,16.12-.36.07-.7.13-1.04.18-3.15.44-5.85-.16-8.49-1.89-3.7-2.56-4.71-5.74-5.19-8.21-.4-2.08-1.79-12.76,9.56-19.35,5.98-3.47,10.58-4.67,13.38-5.06.82-.12,1.62-.18,2.3-.18,1.07,0,1.66.14,1.86.28.52.35,3.72,5.85,1.97,18.12h0Z"/><path class="cls-8" d="M64.56,64.09c-1.9-12.14-6.67-17.37-8.1-17.81-.33-.1-.72-.11-1.25-.04-2.51.35-8.59,2.92-15.42,10.27-9.54,10.27-4.75,20.81-3.69,22.82,1.29,2.45,3.39,5.46,8.14,6.98,1.37.4,2.66.6,3.94.6.57,0,1.14-.04,1.71-.12,1.63-.23,3.21-.78,4.97-1.72,2-1.07,11.87-7.12,9.7-20.98ZM54.23,83.9c-1.62.87-3.06,1.37-4.54,1.58-1.64.23-3.3.09-5.08-.43-4.28-1.37-6.18-4.11-7.36-6.34-.99-1.87-5.45-11.68,3.49-21.3,6.58-7.09,12.3-9.54,14.64-9.87.16-.02.31-.03.42-.03.14,0,.22.02.26.03.6.18,5.27,4.51,7.19,16.75,2.03,12.97-7.16,18.61-9.02,19.61Z"/><path class="cls-9" d="M102.21,55.63c0,.58-.1,1.12-.29,1.61-.2.49-.47.91-.83,1.26s-.79.63-1.29.83-1.06.3-1.67.3h-3.07v-7.98h3.07c.61,0,1.17.1,1.67.3s.93.47,1.29.83c.36.35.63.78.83,1.26s.29,1.02.29,1.6h0ZM100.52,55.63c0-.42-.05-.79-.17-1.13-.11-.33-.27-.62-.47-.85-.21-.23-.46-.41-.75-.53s-.63-.19-1-.19h-1.41v5.4h1.41c.37,0,.71-.06,1-.18s.54-.3.75-.53.36-.52.47-.85.17-.71.17-1.13h0Z"/><path class="cls-9" d="M104.42,57.02c.05.53.2.92.45,1.17s.59.37,1,.37c.21,0,.39-.02.54-.07s.29-.1.4-.17.22-.12.31-.17.19-.07.28-.07c.12,0,.21.04.27.13l.44.55c-.16.19-.34.34-.53.46s-.4.22-.6.29-.42.12-.63.15-.42.04-.62.04c-.4,0-.76-.06-1.11-.2-.34-.13-.64-.32-.9-.58s-.46-.57-.6-.95c-.15-.38-.22-.82-.22-1.31,0-.38.06-.75.19-1.09.13-.34.31-.64.55-.89s.53-.45.87-.6.73-.22,1.16-.22c.36,0,.7.06,1,.17.31.12.57.28.79.5s.39.49.52.81c.12.32.18.69.18,1.1,0,.11,0,.21-.02.28s-.03.13-.05.18c-.03.04-.06.07-.1.09s-.1.03-.17.03c0,0-3.4,0-3.4,0ZM106.8,56.11c0-.16-.02-.31-.06-.45s-.11-.27-.2-.38-.21-.2-.35-.26c-.14-.06-.31-.1-.5-.1-.36,0-.65.1-.85.31s-.34.5-.4.88h2.37-.01Z"/><path class="cls-9" d="M114.13,53.95v5.67h-.94c-.19,0-.32-.09-.37-.26l-.1-.4c-.11.11-.23.21-.35.3-.12.09-.25.17-.39.24-.14.07-.29.12-.45.15-.16.04-.33.05-.52.05-.31,0-.58-.05-.82-.16s-.44-.25-.6-.45c-.16-.19-.28-.42-.37-.68s-.13-.55-.13-.87v-3.6h1.52v3.6c0,.32.07.56.22.73s.36.26.65.26c.21,0,.41-.05.6-.14.19-.09.37-.22.53-.38v-4.08h1.52v.02Z"/><path class="cls-9" d="M117.4,59.71c-.26,0-.48-.04-.68-.11s-.37-.18-.5-.32-.24-.31-.31-.51-.1-.42-.1-.67v-3.06h-.53c-.08,0-.15-.03-.21-.08-.06-.05-.09-.13-.09-.23v-.59l.91-.17.31-1.47c.04-.17.15-.25.33-.25h.79v1.73h1.46v1.06h-1.46v2.96c0,.16.04.28.11.37s.18.14.32.14c.07,0,.14,0,.19-.02s.09-.04.13-.06.07-.04.1-.05.06-.02.1-.02.08,0,.11.03c.03.02.06.05.09.1l.46.73c-.21.17-.45.29-.71.37-.26.08-.54.13-.82.13h0Z"/><path class="cls-9" d="M123.18,55.11c-.04.06-.08.11-.12.13s-.1.04-.17.04-.15-.02-.23-.05c-.08-.04-.16-.08-.26-.12s-.2-.08-.33-.12c-.12-.04-.26-.05-.43-.05-.25,0-.44.05-.57.15-.14.1-.2.23-.2.4,0,.11.04.21.12.29s.18.14.3.2c.13.06.27.11.43.16s.33.1.5.16.34.13.5.2.3.17.43.29c.13.12.23.25.31.42.08.16.12.36.12.59,0,.28-.05.53-.15.76s-.25.43-.44.6c-.2.17-.44.3-.73.4-.29.1-.62.14-1,.14-.19,0-.39-.02-.58-.05s-.37-.08-.54-.15c-.17-.06-.33-.14-.48-.22s-.28-.18-.39-.27l.35-.57c.04-.07.09-.12.15-.15.06-.04.14-.06.23-.06s.18.02.25.07c.08.05.16.1.26.15s.21.1.34.15c.13.05.29.07.49.07.15,0,.27-.02.38-.05s.19-.08.26-.13c.07-.06.12-.12.15-.19s.05-.15.05-.22c0-.12-.04-.23-.12-.31s-.18-.15-.31-.21c-.13-.06-.27-.11-.44-.16-.17-.05-.33-.1-.5-.16s-.34-.13-.5-.21c-.16-.08-.31-.18-.43-.3-.13-.12-.23-.27-.31-.45s-.12-.4-.12-.65.05-.46.14-.67.23-.4.41-.56.41-.29.68-.39c.27-.09.59-.14.95-.14.4,0,.77.07,1.1.2s.6.3.81.52l-.35.54v-.02Z"/><path class="cls-9" d="M128.69,55.21c-.04.06-.09.1-.13.13-.04.03-.11.05-.19.05-.07,0-.14-.02-.21-.06s-.15-.09-.23-.14c-.09-.05-.19-.1-.31-.14s-.27-.06-.45-.06c-.23,0-.42.04-.59.12-.17.08-.3.2-.42.35-.11.15-.19.34-.24.56-.05.22-.08.47-.08.74,0,.58.12,1.02.35,1.33.23.31.55.46.95.46.14,0,.26,0,.36-.04.1-.02.19-.05.26-.09.08-.04.14-.08.2-.12s.11-.08.16-.12c.05-.04.1-.07.15-.09.05-.02.11-.04.17-.04.12,0,.21.04.28.13l.43.55c-.16.19-.33.34-.52.46-.18.12-.37.22-.57.29-.2.07-.39.12-.6.15-.2.03-.4.04-.6.04-.35,0-.68-.06-.99-.2-.31-.13-.58-.32-.82-.57s-.42-.55-.56-.92-.21-.78-.21-1.24c0-.41.06-.8.18-1.16s.3-.66.53-.92c.23-.26.53-.46.87-.61.35-.15.75-.22,1.2-.22s.81.07,1.14.21c.33.14.62.34.88.61l-.4.54v.02Z"/><path class="cls-9" d="M131.47,54.5c.11-.1.22-.18.33-.26.12-.08.24-.15.37-.2.13-.06.27-.1.42-.13s.31-.05.48-.05c.31,0,.58.05.82.16s.44.25.6.45c.16.19.29.42.37.68.08.26.12.55.12.87v3.6h-1.51v-3.6c0-.32-.07-.56-.22-.73s-.36-.26-.65-.26c-.21,0-.41.05-.6.14s-.37.22-.53.38v4.08h-1.52v-8.2h1.52v3.09-.02Z"/><path class="cls-9" d="M137.45,57.02c.05.53.2.92.45,1.17s.59.37,1,.37c.21,0,.39-.02.54-.07s.29-.1.4-.17.22-.12.31-.17.19-.07.28-.07c.12,0,.21.04.27.13l.44.55c-.16.19-.34.34-.53.46s-.4.22-.6.29-.42.12-.63.15-.42.04-.62.04c-.4,0-.76-.06-1.11-.2-.34-.13-.64-.32-.9-.58-.25-.25-.46-.57-.6-.95-.15-.38-.22-.82-.22-1.31,0-.38.06-.75.19-1.09s.31-.64.55-.89.53-.45.87-.6.73-.22,1.16-.22c.36,0,.7.06,1,.17.31.12.57.28.79.5.22.22.39.49.52.81.12.32.18.69.18,1.1,0,.11,0,.21-.02.28s-.03.13-.05.18c-.03.04-.06.07-.1.09-.04.02-.1.03-.17.03h-3.4,0ZM139.84,56.11c0-.16-.02-.31-.06-.45s-.11-.27-.2-.38-.21-.2-.35-.26c-.14-.06-.31-.1-.5-.1-.36,0-.65.1-.85.31s-.34.5-.4.88h2.37,0Z"/><path class="cls-9" d="M149.39,53.17c-.05.08-.1.15-.16.18-.05.04-.12.06-.21.06s-.17-.03-.26-.08c-.09-.06-.2-.12-.33-.18-.12-.07-.27-.13-.43-.18-.16-.06-.35-.09-.57-.09-.38,0-.67.09-.86.26s-.29.39-.29.67c0,.18.05.32.16.44s.24.22.41.3c.17.08.36.16.58.23s.44.14.67.22.45.17.67.28.41.24.58.4.31.36.41.59.16.52.16.85c0,.36-.06.7-.19,1.02s-.31.59-.55.83-.53.42-.88.56c-.35.14-.75.2-1.19.2-.25,0-.51-.03-.76-.08s-.49-.12-.73-.21c-.23-.09-.45-.2-.66-.33s-.39-.27-.54-.43l.48-.78c.04-.06.09-.11.16-.15s.14-.06.21-.06c.1,0,.2.04.31.11s.24.15.38.24.31.17.5.24.42.11.68.11c.38,0,.68-.09.89-.26.21-.18.32-.44.32-.79,0-.2-.05-.36-.16-.49s-.24-.23-.41-.31-.36-.16-.58-.22-.44-.13-.67-.2-.45-.16-.67-.26-.41-.24-.58-.41-.31-.38-.41-.63-.16-.56-.16-.93c0-.3.06-.58.18-.86s.29-.53.52-.74c.23-.22.51-.39.84-.52s.71-.2,1.14-.2c.48,0,.92.07,1.33.22s.75.35,1.04.62l-.41.78.04-.02Z"/><path class="cls-9" d="M153.16,59.71c-.26,0-.48-.04-.68-.11-.2-.08-.36-.18-.5-.32s-.24-.31-.31-.51c-.07-.2-.1-.42-.1-.67v-3.06h-.53c-.08,0-.15-.03-.21-.08-.06-.05-.08-.13-.08-.23v-.59l.91-.17.31-1.47c.04-.17.15-.25.34-.25h.79v1.73h1.46v1.06h-1.46v2.96c0,.16.04.28.11.37s.18.14.32.14c.07,0,.14,0,.19-.02s.1-.04.13-.06c.04-.02.07-.04.1-.05s.06-.02.1-.02.08,0,.11.03c.03.02.06.05.09.1l.46.73c-.21.17-.45.29-.71.37-.26.08-.54.13-.82.13h-.02Z"/><path class="cls-9" d="M157.37,52.34c0,.13-.03.25-.08.36s-.12.21-.21.29c-.09.08-.19.15-.3.2-.12.05-.24.07-.37.07-.12,0-.24-.02-.36-.07-.11-.05-.21-.11-.29-.2-.08-.08-.15-.18-.2-.29s-.08-.23-.08-.36.03-.25.08-.36.12-.21.2-.29.18-.15.29-.2.23-.07.36-.07.26.02.37.07.22.11.3.2c.09.08.15.18.21.29.05.11.08.23.08.36ZM157.19,53.95v5.67h-1.52v-5.67h1.52Z"/><path class="cls-9" d="M158.73,59.62v-4.58l-.44-.08c-.11-.02-.21-.06-.28-.12s-.11-.14-.11-.25v-.6h.83v-.37c0-.32.05-.62.15-.88.1-.26.25-.48.43-.67.19-.18.42-.32.69-.42s.58-.15.92-.15c.13,0,.26,0,.38.03.12.02.24.04.36.07l-.03.75c0,.11-.06.19-.15.22-.09.03-.19.05-.3.05-.15,0-.29.02-.42.05s-.23.09-.31.17c-.08.08-.15.18-.19.32s-.07.3-.07.5v.33h1.41v1.06h-1.36v4.58h-1.51Z"/><path class="cls-9" d="M164.54,59.71c-.26,0-.48-.04-.68-.11-.2-.08-.36-.18-.5-.32s-.24-.31-.31-.51c-.07-.2-.1-.42-.1-.67v-3.06h-.53c-.08,0-.15-.03-.21-.08-.06-.05-.08-.13-.08-.23v-.59l.91-.17.31-1.47c.04-.17.15-.25.34-.25h.79v1.73h1.46v1.06h-1.46v2.96c0,.16.04.28.11.37s.18.14.32.14c.07,0,.14,0,.19-.02s.1-.04.13-.06c.04-.02.07-.04.1-.05s.06-.02.1-.02.08,0,.11.03c.03.02.06.05.09.1l.46.73c-.21.17-.45.29-.71.37-.26.08-.54.13-.82.13h-.02Z"/><path class="cls-9" d="M171.76,53.95v5.67h-.93c-.19,0-.32-.09-.37-.26l-.1-.4c-.11.11-.23.21-.35.3s-.25.17-.39.24c-.14.07-.29.12-.45.15-.16.04-.33.05-.52.05-.31,0-.58-.05-.82-.16s-.44-.25-.6-.45c-.16-.19-.28-.42-.37-.68-.08-.26-.13-.55-.13-.87v-3.6h1.52v3.6c0,.32.07.56.22.73.14.17.36.26.65.26.21,0,.41-.05.6-.14s.37-.22.53-.38v-4.08h1.52v.02Z"/><path class="cls-9" d="M174.48,54.61c.11-.11.23-.21.35-.3s.25-.17.39-.24.29-.12.45-.15c.16-.04.33-.05.52-.05.31,0,.58.05.82.16s.44.25.6.45c.16.19.29.42.37.68.08.26.12.55.12.87v3.6h-1.51v-3.6c0-.32-.07-.56-.22-.73s-.36-.26-.65-.26c-.21,0-.41.05-.6.14s-.37.22-.53.38v4.08h-1.52v-5.67h.93c.19,0,.32.09.38.26l.09.4v-.02Z"/><path class="cls-9" d="M184.2,54.13v.55c0,.09-.02.16-.07.21s-.13.09-.25.12l-.46.09c.06.18.09.37.09.58,0,.28-.06.54-.17.76-.12.23-.27.42-.48.58-.2.16-.44.28-.71.37s-.57.13-.89.13c-.2,0-.39-.02-.57-.05-.15.1-.23.2-.23.31s.05.18.16.23.24.08.41.1.37.03.58.04c.22,0,.44.02.67.04s.45.05.67.1.41.12.58.23c.17.1.31.24.41.42.1.17.16.39.16.67,0,.25-.06.5-.19.74-.12.24-.3.45-.54.64-.24.19-.53.34-.87.45s-.74.17-1.18.17-.82-.04-1.14-.12-.59-.19-.8-.33-.37-.3-.47-.48-.15-.37-.15-.56c0-.25.08-.47.23-.64.15-.18.37-.32.64-.42-.14-.08-.26-.19-.34-.32-.09-.13-.13-.3-.13-.51,0-.17.06-.35.18-.53.12-.19.31-.34.57-.47-.29-.15-.52-.36-.69-.62s-.25-.56-.25-.9c0-.28.06-.54.17-.76.12-.23.28-.42.48-.58s.45-.28.73-.37c.28-.08.58-.13.91-.13.48,0,.91.09,1.28.29h1.66v-.03ZM182.69,59.85c0-.1-.03-.18-.09-.24s-.15-.11-.25-.15-.23-.06-.37-.08-.3-.03-.46-.04c-.16,0-.33-.02-.5-.02s-.34-.02-.51-.04c-.13.08-.23.17-.32.27-.08.1-.12.22-.12.36,0,.09.02.18.06.25.04.08.11.14.21.2s.23.1.39.13c.16.03.36.05.61.05s.46-.02.63-.05.31-.08.42-.14c.11-.06.18-.13.23-.22.05-.08.07-.18.07-.28h0ZM181.26,56.57c.31,0,.54-.08.69-.24.15-.16.22-.36.22-.61s-.07-.46-.22-.61-.38-.22-.69-.22-.54.07-.69.22-.22.35-.22.61.07.45.22.61.38.24.68.24h.01Z"/><path class="cls-9" d="M95.26,72.62v-4.58l-.44-.08c-.11-.02-.21-.06-.28-.12s-.11-.14-.11-.25v-.6h.83v-.37c0-.32.05-.62.15-.88.1-.26.24-.48.43-.67.19-.18.42-.32.69-.42.27-.1.58-.15.92-.15.13,0,.26,0,.38.03s.24.04.36.07l-.03.75c0,.11-.06.19-.15.22-.09.03-.19.05-.3.05-.15,0-.29.02-.42.05-.12.03-.23.09-.31.17-.08.08-.15.18-.19.32s-.07.3-.07.5v.33h1.41v1.06h-1.36v4.58h-1.51Z"/><path class="cls-9" d="M103.86,66.95v5.67h-.93c-.19,0-.32-.09-.37-.26l-.1-.4c-.11.11-.23.21-.35.3s-.25.17-.39.24c-.14.07-.29.12-.45.15-.16.04-.33.05-.52.05-.31,0-.58-.05-.82-.16s-.44-.25-.6-.45c-.16-.19-.28-.42-.37-.68-.08-.26-.13-.55-.13-.87v-3.6h1.52v3.6c0,.32.07.56.22.73s.36.26.65.26c.21,0,.41-.05.6-.14.19-.09.36-.22.53-.38v-4.08h1.52v.02ZM101.05,65.5c0,.11-.02.21-.07.31-.04.1-.1.18-.18.25s-.16.13-.26.17c-.1.04-.21.06-.32.06s-.21-.02-.31-.06-.18-.1-.26-.17c-.07-.07-.13-.16-.18-.25-.04-.09-.07-.2-.07-.31s.02-.21.07-.31.1-.19.18-.26.16-.13.26-.18c.1-.04.2-.06.31-.06s.22.02.32.06.19.1.26.18.13.16.18.26.07.2.07.31ZM103.33,65.5c0,.11-.02.21-.07.31-.04.1-.1.18-.18.25-.07.07-.16.13-.26.17-.1.04-.21.06-.32.06s-.21-.02-.31-.06-.19-.1-.26-.17-.13-.16-.17-.25-.06-.2-.06-.31.02-.21.06-.31c.04-.1.1-.19.17-.26s.16-.13.26-.18c.1-.04.2-.06.31-.06s.22.02.32.06.19.1.26.18.13.16.18.26.07.2.07.31Z"/><path class="cls-9" d="M106.59,67.88c.18-.32.39-.58.62-.76.24-.19.51-.28.83-.28.26,0,.47.06.63.18l-.1,1.12c-.02.07-.05.12-.08.15-.04.03-.09.04-.16.04-.06,0-.14,0-.25-.02s-.21-.02-.31-.02c-.14,0-.26.02-.37.06s-.2.1-.29.17c-.08.07-.16.16-.23.27s-.13.23-.19.36v3.47h-1.52v-5.67h.9c.15,0,.26.03.32.08.06.05.1.15.13.29l.08.57h0Z"/><path class="cls-9" d="M113.68,65.93v2.05h2.66v1.25h-2.66v2.1h3.42v1.29h-5.08v-7.98h5.08v1.29h-3.42Z"/><path class="cls-9" d="M119.49,67.61c.11-.11.23-.21.35-.3s.25-.17.39-.24.29-.12.45-.15c.16-.04.33-.05.52-.05.31,0,.58.05.82.16s.44.25.6.45c.16.19.29.42.37.68.08.26.12.55.12.87v3.6h-1.51v-3.6c0-.32-.07-.56-.22-.73s-.36-.26-.65-.26c-.21,0-.41.05-.6.14-.19.09-.37.22-.53.38v4.08h-1.52v-5.67h.93c.19,0,.32.09.38.26l.09.4v-.02Z"/><path class="cls-9" d="M129.43,67.13v.55c0,.09-.03.16-.07.21-.05.05-.13.09-.25.12l-.46.09c.06.18.09.37.09.58,0,.28-.06.54-.17.76s-.27.42-.48.58c-.2.16-.44.28-.71.37-.28.09-.57.13-.89.13-.2,0-.39-.02-.57-.05-.15.1-.23.2-.23.31s.05.18.16.23.24.08.41.1c.17.02.36.03.58.04.22,0,.44.02.67.04s.45.05.67.1c.22.05.41.12.58.23.17.1.31.24.41.42.1.17.16.39.16.67,0,.25-.06.5-.19.74s-.3.45-.54.64c-.24.19-.53.34-.87.45s-.74.17-1.18.17-.81-.04-1.14-.12c-.32-.08-.59-.19-.8-.33s-.37-.3-.47-.48-.15-.37-.15-.56c0-.25.08-.47.23-.64.15-.18.37-.32.64-.42-.14-.08-.26-.19-.34-.32-.09-.13-.13-.3-.13-.51,0-.17.06-.35.18-.53.12-.19.31-.34.57-.47-.29-.15-.52-.36-.69-.62-.17-.26-.25-.56-.25-.9,0-.28.06-.54.17-.76s.28-.42.48-.58c.21-.16.45-.28.73-.37.28-.08.58-.13.91-.13.48,0,.91.09,1.28.29h1.66v-.03ZM127.92,72.85c0-.1-.03-.18-.09-.24s-.15-.11-.25-.15-.23-.06-.37-.08-.29-.03-.46-.04c-.16,0-.33-.02-.5-.02s-.34-.02-.51-.04c-.13.08-.23.17-.32.27-.08.1-.12.22-.12.36,0,.09.02.18.06.25s.11.14.21.2.23.1.39.13.36.05.61.05.46-.02.63-.05.31-.08.42-.14.18-.13.23-.22c.05-.08.07-.18.07-.28ZM126.48,69.57c.31,0,.54-.08.69-.24s.22-.36.22-.61-.07-.46-.22-.61-.38-.22-.69-.22-.54.07-.69.22-.22.35-.22.61.07.45.22.61.38.24.68.24h.01Z"/><path class="cls-9" d="M130.28,67.73c.33-.3.7-.53,1.11-.67s.84-.22,1.31-.22c.34,0,.64.05.91.16s.49.26.68.46c.19.2.33.43.43.7s.15.57.15.89v3.56h-.69c-.14,0-.25-.02-.33-.06s-.14-.12-.18-.25l-.12-.36c-.14.12-.28.23-.42.33s-.27.17-.42.24c-.14.06-.3.11-.46.15-.16.03-.35.05-.55.05-.25,0-.48-.03-.68-.1-.21-.07-.38-.16-.53-.29s-.26-.29-.34-.49c-.08-.19-.12-.42-.12-.67,0-.21.05-.42.16-.63s.29-.4.55-.57c.26-.17.6-.31,1.03-.42.43-.11.97-.17,1.62-.19v-.29c0-.36-.08-.62-.23-.78s-.37-.25-.65-.25c-.21,0-.38.03-.52.07-.14.05-.26.1-.37.16s-.2.11-.29.16-.2.07-.32.07c-.11,0-.2-.03-.27-.08-.07-.05-.13-.12-.18-.19l-.27-.48h-.01ZM133.37,70.25c-.37.02-.68.05-.92.1-.25.05-.44.11-.59.18s-.25.16-.31.25-.09.2-.09.31c0,.22.06.38.18.47s.29.14.51.14c.25,0,.47-.04.66-.13.18-.09.37-.23.55-.42v-.9Z"/><path class="cls-9" d="M141.14,67.13v.55c0,.09-.02.16-.07.21s-.13.09-.25.12l-.46.09c.06.18.09.37.09.58,0,.28-.06.54-.17.76-.12.23-.27.42-.48.58-.2.16-.44.28-.72.37-.27.09-.57.13-.89.13-.2,0-.39-.02-.57-.05-.15.1-.23.2-.23.31s.05.18.16.23.24.08.41.1c.17.02.37.03.58.04.22,0,.44.02.67.04s.45.05.67.1.41.12.58.23c.17.1.31.24.41.42.1.17.16.39.16.67,0,.25-.06.5-.19.74-.12.24-.31.45-.54.64-.24.19-.53.34-.87.45s-.74.17-1.18.17-.82-.04-1.14-.12-.59-.19-.8-.33-.37-.3-.47-.48-.15-.37-.15-.56c0-.25.08-.47.23-.64.15-.18.37-.32.64-.42-.14-.08-.26-.19-.34-.32s-.13-.3-.13-.51c0-.17.06-.35.18-.53.12-.19.31-.34.57-.47-.29-.15-.52-.36-.69-.62s-.25-.56-.25-.9c0-.28.06-.54.17-.76.12-.23.28-.42.48-.58.21-.16.45-.28.73-.37.28-.08.58-.13.91-.13.48,0,.91.09,1.28.29h1.66v-.03ZM139.64,72.85c0-.1-.03-.18-.09-.24s-.15-.11-.25-.15-.23-.06-.37-.08-.3-.03-.46-.04c-.16,0-.33-.02-.5-.02s-.34-.02-.51-.04c-.13.08-.23.17-.32.27-.08.1-.12.22-.12.36,0,.09.02.18.06.25s.11.14.21.2.23.1.39.13c.16.03.36.05.6.05s.46-.02.63-.05.31-.08.42-.14.18-.13.23-.22c.04-.08.07-.18.07-.28h0ZM138.2,69.57c.31,0,.54-.08.69-.24.15-.16.22-.36.22-.61s-.07-.46-.22-.61-.38-.22-.69-.22-.54.07-.69.22-.22.35-.22.61.07.45.22.61.38.24.68.24h.01Z"/><path class="cls-9" d="M143.1,70.02c.05.53.2.92.45,1.17s.59.37,1,.37c.21,0,.39-.02.54-.07s.29-.1.4-.17c.12-.06.22-.12.31-.17s.19-.07.28-.07c.12,0,.21.04.28.13l.44.55c-.16.19-.34.34-.53.46s-.4.22-.61.29-.42.12-.63.15c-.21.03-.42.04-.62.04-.4,0-.77-.06-1.11-.2-.34-.13-.64-.32-.9-.58s-.46-.57-.6-.95c-.15-.38-.22-.82-.22-1.31,0-.38.06-.75.19-1.09s.31-.64.55-.89.53-.45.87-.6c.34-.15.73-.22,1.15-.22.36,0,.7.06,1,.17.31.12.57.28.79.5s.39.49.52.81c.12.32.18.69.18,1.1,0,.11,0,.21-.02.28,0,.07-.03.13-.05.18-.03.04-.06.07-.1.09-.04.02-.1.03-.17.03h-3.4.01ZM145.48,69.11c0-.16-.02-.31-.06-.45s-.11-.27-.2-.38-.21-.2-.35-.26c-.14-.06-.31-.1-.5-.1-.36,0-.65.1-.85.31-.21.21-.34.5-.4.88h2.37,0Z"/><path class="cls-9" d="M147.84,72.62v-5.67h.93c.19,0,.32.09.38.26l.09.37c.1-.1.2-.2.31-.29s.22-.16.34-.23c.12-.06.25-.11.39-.15s.29-.05.46-.05c.35,0,.64.09.86.28.23.19.4.43.52.74.09-.18.21-.33.34-.46s.28-.24.44-.32c.16-.08.33-.14.51-.18s.36-.06.54-.06c.32,0,.6.05.85.14.25.1.45.24.62.42.17.19.29.41.38.68s.13.57.13.91v3.6h-1.52v-3.6c0-.66-.28-1-.85-1-.13,0-.25.02-.35.06-.11.04-.2.11-.29.19-.08.08-.15.19-.19.31-.05.12-.07.27-.07.43v3.6h-1.52v-3.6c0-.36-.07-.62-.21-.77s-.35-.23-.62-.23c-.18,0-.34.04-.5.12-.16.08-.3.2-.44.34v4.13h-1.52v.03Z"/><path class="cls-9" d="M158.38,70.02c.05.53.2.92.45,1.17s.59.37,1,.37c.21,0,.39-.02.54-.07s.29-.1.4-.17c.12-.06.22-.12.31-.17s.19-.07.28-.07c.12,0,.21.04.28.13l.44.55c-.16.19-.34.34-.53.46s-.4.22-.61.29-.42.12-.63.15c-.21.03-.42.04-.62.04-.4,0-.77-.06-1.11-.2-.34-.13-.64-.32-.9-.58s-.46-.57-.6-.95c-.15-.38-.22-.82-.22-1.31,0-.38.06-.75.19-1.09s.31-.64.55-.89.53-.45.87-.6c.34-.15.73-.22,1.15-.22.36,0,.7.06,1,.17.31.12.57.28.79.5s.39.49.52.81c.12.32.18.69.18,1.1,0,.11,0,.21-.02.28,0,.07-.03.13-.05.18-.03.04-.06.07-.1.09-.04.02-.1.03-.17.03h-3.4.01ZM160.77,69.11c0-.16-.02-.31-.06-.45s-.11-.27-.2-.38-.21-.2-.35-.26c-.14-.06-.31-.1-.5-.1-.36,0-.65.1-.85.31-.21.21-.34.5-.4.88h2.37,0Z"/><path class="cls-9" d="M164.53,67.61c.11-.11.23-.21.35-.3s.25-.17.39-.24.29-.12.45-.15c.16-.04.33-.05.52-.05.31,0,.58.05.82.16s.44.25.6.45c.16.19.29.42.37.68.08.26.12.55.12.87v3.6h-1.51v-3.6c0-.32-.07-.56-.22-.73s-.36-.26-.65-.26c-.21,0-.41.05-.6.14s-.37.22-.53.38v4.08h-1.52v-5.67h.93c.19,0,.32.09.38.26l.09.4v-.02Z"/><path class="cls-9" d="M171.3,72.71c-.26,0-.48-.04-.68-.11-.2-.08-.37-.18-.5-.32s-.24-.31-.31-.51c-.07-.2-.1-.42-.1-.67v-3.06h-.53c-.08,0-.15-.03-.21-.08-.06-.05-.08-.13-.08-.23v-.59l.91-.17.31-1.47c.04-.17.15-.25.33-.25h.79v1.73h1.46v1.06h-1.46v2.96c0,.16.04.28.11.37s.18.14.32.14c.07,0,.14,0,.19-.02s.09-.04.13-.06c.04-.02.07-.04.1-.05s.06-.02.1-.02.08,0,.11.03c.03.02.06.05.09.1l.46.73c-.21.17-.45.29-.71.37-.26.08-.54.13-.82.13h-.01Z"/><path class="cls-9" d="M99.71,79.9v5.67h-.94c-.19,0-.32-.09-.37-.26l-.1-.4c-.11.11-.23.21-.35.3-.12.09-.25.17-.39.24s-.29.12-.45.15-.33.05-.52.05c-.31,0-.58-.05-.82-.16s-.44-.25-.6-.45c-.16-.19-.28-.42-.37-.68-.08-.26-.13-.55-.13-.87v-3.6h1.52v3.6c0,.32.07.56.22.73.15.17.36.26.65.26.21,0,.41-.05.6-.14.19-.09.36-.22.53-.38v-4.08h1.52v.02Z"/><path class="cls-9" d="M102.43,80.56c.11-.11.23-.21.35-.3.12-.09.25-.17.39-.24.14-.07.29-.12.45-.15.16-.04.33-.05.52-.05.31,0,.58.05.82.16s.44.25.6.45c.16.19.29.42.37.68.08.26.12.55.12.87v3.6h-1.51v-3.6c0-.32-.07-.56-.22-.73s-.36-.26-.65-.26c-.21,0-.41.05-.6.14s-.37.22-.53.38v4.08h-1.52v-5.67h.94c.19,0,.32.09.38.26l.09.4v-.02Z"/><path class="cls-9" d="M112.33,77.37v8.2h-.93c-.19,0-.32-.09-.37-.26l-.13-.49c-.11.12-.23.24-.36.34s-.26.19-.41.27c-.15.08-.3.13-.47.17s-.35.06-.55.06c-.3,0-.58-.06-.84-.19-.25-.13-.47-.32-.66-.56s-.33-.55-.43-.91-.15-.77-.15-1.23c0-.42.06-.81.17-1.18.12-.36.28-.68.49-.94s.47-.47.77-.62.63-.23,1-.23c.31,0,.57.05.78.14s.4.22.58.37v-2.93h1.52,0ZM110.82,81.38c-.14-.17-.3-.28-.46-.35s-.34-.1-.53-.1-.35.04-.5.1c-.15.07-.28.18-.39.33-.11.15-.19.34-.25.57s-.09.51-.09.83.02.58.07.8.12.4.21.53c.09.14.2.23.33.29.13.06.27.09.43.09.27,0,.49-.05.67-.16s.35-.26.51-.45v-2.49h0Z"/><path class="cls-9" d="M118.19,78.89v2.05h2.66v1.25h-2.66v2.1h3.42v1.29h-5.08v-7.98h5.08v1.29h-3.42Z"/><path class="cls-9" d="M124.19,80.46c.11-.1.22-.18.33-.26.12-.08.24-.15.37-.2.13-.06.27-.1.42-.13.15-.03.31-.05.48-.05.31,0,.58.05.82.16s.44.25.6.45c.16.19.29.42.37.68.08.26.12.55.12.87v3.6h-1.51v-3.6c0-.32-.07-.56-.22-.73s-.36-.26-.65-.26c-.21,0-.41.05-.6.14-.19.09-.37.22-.53.38v4.08h-1.52v-8.2h1.52v3.09-.02Z"/><path class="cls-9" d="M130.39,80.84c.18-.32.39-.58.62-.76s.51-.28.83-.28c.26,0,.47.06.63.18l-.1,1.12c-.02.07-.05.12-.09.15-.04.03-.09.04-.16.04-.06,0-.14,0-.25-.02s-.21-.02-.31-.02c-.14,0-.26.02-.37.06s-.2.1-.29.17c-.08.07-.16.16-.23.27-.07.11-.13.23-.19.36v3.47h-1.52v-5.67h.9c.15,0,.26.03.32.08.06.05.1.15.13.29l.08.57h0Z"/><path class="cls-9" d="M134.25,82.97c.05.53.2.92.45,1.17s.59.37,1,.37c.21,0,.39-.02.54-.07s.29-.1.4-.17.22-.12.31-.17.19-.07.28-.07c.12,0,.21.04.28.13l.44.55c-.16.19-.34.34-.53.46s-.4.22-.6.29c-.21.07-.42.12-.63.15s-.42.04-.62.04c-.4,0-.77-.06-1.11-.2-.34-.13-.64-.32-.9-.58-.25-.25-.46-.57-.6-.95-.15-.38-.22-.82-.22-1.31,0-.38.06-.75.19-1.09.13-.34.31-.64.55-.89s.53-.45.87-.6.73-.22,1.16-.22c.36,0,.7.06,1,.17.31.12.57.28.79.5.22.22.39.49.52.81.12.32.18.69.18,1.1,0,.11,0,.21-.02.28,0,.07-.03.13-.06.18-.03.04-.06.07-.1.09-.04.02-.1.02-.17.02h-3.4,0ZM136.63,82.07c0-.16-.02-.31-.06-.45s-.11-.27-.2-.38-.21-.2-.35-.26-.31-.1-.5-.1c-.36,0-.65.1-.85.31-.21.21-.34.5-.4.88,0,0,2.36,0,2.36,0Z"/><path class="cls-9" d="M140.4,80.56c.11-.11.23-.21.35-.3s.25-.17.39-.24c.14-.07.29-.12.45-.15s.33-.05.52-.05c.31,0,.58.05.82.16s.44.25.6.45c.16.19.29.42.37.68.08.26.12.55.12.87v3.6h-1.51v-3.6c0-.32-.07-.56-.22-.73s-.36-.26-.65-.26c-.21,0-.41.05-.6.14s-.37.22-.53.38v4.08h-1.52v-5.67h.93c.19,0,.32.09.38.26l.09.4v-.02Z"/><path class="cls-9" d="M145.15,80.69c.33-.3.7-.53,1.11-.67.4-.15.84-.22,1.31-.22.34,0,.64.05.9.16.27.11.49.26.68.46.19.2.33.43.43.7.1.27.15.57.15.89v3.56h-.69c-.14,0-.25-.02-.33-.06s-.14-.12-.18-.25l-.12-.36c-.14.12-.28.23-.42.33-.13.1-.27.18-.42.24-.14.06-.3.11-.46.15-.16.03-.35.05-.55.05-.25,0-.48-.03-.68-.1-.21-.07-.38-.16-.53-.29s-.26-.29-.34-.49c-.08-.19-.12-.42-.12-.67,0-.21.05-.42.16-.63s.29-.4.55-.57c.26-.17.6-.31,1.03-.42s.97-.18,1.62-.19v-.29c0-.36-.08-.62-.23-.78s-.37-.25-.65-.25c-.21,0-.38.02-.52.07s-.26.1-.37.16c-.1.06-.2.11-.29.16s-.2.07-.32.07c-.11,0-.2-.03-.27-.08-.07-.05-.13-.12-.18-.19l-.27-.48h0ZM148.24,83.2c-.37.02-.68.05-.92.1-.25.05-.44.11-.59.18s-.25.16-.31.25-.09.2-.09.31c0,.22.06.38.18.47.12.09.29.14.51.14.25,0,.47-.04.66-.13.18-.09.37-.23.55-.42v-.9Z"/><path class="cls-9" d="M150.97,85.57v-5.67h.93c.19,0,.32.09.38.26l.09.37c.1-.1.2-.2.31-.29.1-.09.22-.16.34-.23s.25-.11.39-.15.29-.05.46-.05c.35,0,.64.09.86.28.23.19.4.43.52.74.09-.18.2-.33.34-.46.13-.13.28-.24.44-.32.16-.08.33-.14.51-.18s.36-.06.54-.06c.32,0,.6.05.85.14.25.1.45.24.62.42s.29.41.38.68.13.57.13.91v3.6h-1.52v-3.6c0-.66-.28-1-.85-1-.13,0-.25.02-.35.06s-.2.11-.29.19c-.08.08-.15.19-.19.31-.05.12-.07.27-.07.43v3.6h-1.52v-3.6c0-.36-.07-.62-.21-.77s-.35-.23-.62-.23c-.18,0-.34.04-.5.12-.16.08-.3.2-.44.34v4.13h-1.52v.03Z"/><path class="cls-9" d="M162.18,85.66c-.26,0-.48-.04-.68-.11-.2-.08-.37-.18-.5-.32-.14-.14-.24-.31-.31-.51-.07-.2-.1-.42-.1-.67v-3.06h-.53c-.08,0-.15-.03-.21-.08-.06-.05-.08-.13-.08-.23v-.59l.91-.17.31-1.47c.04-.17.15-.25.33-.25h.79v1.73h1.46v1.06h-1.46v2.96c0,.16.04.28.11.37s.18.14.32.14c.07,0,.14,0,.19-.02s.09-.03.13-.06c.04-.02.07-.04.1-.05.03-.02.06-.02.1-.02s.08.01.11.03.06.05.09.1l.46.73c-.21.17-.45.29-.71.37-.26.08-.54.13-.82.13h-.01Z"/><line class="cls-7" x1="94.52" y1="42.76" x2="145.83" y2="42.76"/><text class="cls-3" transform="translate(94.35 39.26)"><tspan class="cls-4" x="0" y="0">G</tspan><tspan class="cls-5" x="5.02" y="0">e</tspan><tspan class="cls-1" x="8.72" y="0">f</tspan><tspan x="11.21" y="0">ö</tspan><tspan class="cls-6" x="15.28" y="0">r</tspan><tspan x="17.89" y="0">dert du</tspan><tspan class="cls-2" x="40.67" y="0">r</tspan><tspan x="43.28" y="0">ch</tspan></text></svg>