<?xml version="1.0" encoding="UTF-8" standalone="no"?>
<svg version="1.1" viewBox="0 0 280 280" xmlns="http://www.w3.org/2000/svg">
  <style id="style2">.st3,.st4,.st5,.st6{opacity:.8;fill:maroon;enable-background:new}.st4,.st5,.st6{opacity:.3;fill:none;stroke:#fff;stroke-width:2.5;stroke-miterlimit:10}.st5,.st6{stroke-dasharray:7.3762,7.3762}.st6{stroke-dasharray:7.0775,7.0775}.st10{fill:#231f20}.st11{fill:#5a5758}</style>
  <path
   id="path3193"
   d="m 100.78081,114.06908 c 10.9,-10.9 12.2,-27.7 3.9,-40 -9.5,4 -18.4,9.9 -26.2,17.6 -7.8,7.8 -13.6,16.7 -17.6,26.2 12.2,8.3 29.1,7 39.9,-3.8 m -45.4,48.9 c 2.6,16.6 10.3,32.5 23.1,45.3 12.8,12.8 28.7,20.5 45.3,23.1 9.7,-19.1 6.6,-43.1 -9.3,-59.1 -16,-15.9 -40,-19 -59.1,-9.3 m 139.7,-71.3 c -12.8,-12.8 -28.7,-20.5 -45.3,-23.1 -9.7,19.1 -6.6,43.1 9.3,59.1 16,16 40,19.1 59.1,9.3 -2.6,-16.6 -10.3,-32.5 -23.1,-45.3"
   style="fill:#4d8d54" /><path
   id="path3181"
   d="m 159.08081,55.76908 c -19.9,19.9 -19.9,52.1 0,71.9 19.9,19.9 52.1,19.9 71.9,0 19.9,-19.9 19.9,-52.1 0,-71.9 -19.8,-19.9 -52,-19.9 -71.9,0"
   style="opacity:0.9;fill:#800000;enable-background:new" /><path
   id="path3185"
   d="m 42.48081,172.36908 c -19.9,19.9 -19.9,52.1 0,71.9 19.9,19.9 52.1,19.9 71.9,0 19.9,-19.9 19.9,-52.1 0,-71.9 -19.8,-19.9 -52,-19.9 -71.9,0"
   style="opacity:0.7;fill:#800000;enable-background:new" /><path
   id="path3177"
   d="m 195.08081,91.66908 c 32.2,32.2 32.2,84.4 0,116.6 -32.2,32.2 -84.4,32.2 -116.6,0 -32.2,-32.2 -32.2,-84.4 0,-116.6 32.2,-32.2 84.4,-32.2 116.6,0"
   class="st3" /><path
   id="path3189"
   d="m 56.18081,69.36908 c -12.3,12.3 -12.3,32.3 0,44.7 12.3,12.4 32.3,12.3 44.7,0 12.4,-12.3 12.3,-32.3 0,-44.7 -12.3,-12.4 -32.4,-12.4 -44.7,0"
   class="st3" /><path
   id="path3225"
   d="m 58.78081,161.36908 c -1.1,0.5 -2.3,1 -3.4,1.6 0.2,1.2 0.4,2.5 0.7,3.7"
   class="st4" /><path
   id="path3229"
   d="m 57.88081,173.86908 c 3.8,12.6 10.7,24.5 20.6,34.5 10.9,10.9 24.1,18.1 38,21.6"
   class="st5" /><path
   id="path3233"
   d="m 120.08081,230.76908 c 1.2,0.3 2.5,0.5 3.7,0.7 0.6,-1.1 1.1,-2.3 1.6,-3.4"
   class="st4" /><path
   id="path3237"
   d="m 127.68081,221.26908 c 4.5,-16.9 0.1,-35.7 -13.2,-49 -14.2,-14.2 -34.6,-18.2 -52.3,-12.2"
   class="st6" /><path
   id="path3241"
   d="m 153.48081,69.26908 c -1.2,-0.3 -2.5,-0.5 -3.7,-0.7 -0.6,1.1 -1.1,2.3 -1.6,3.4"
   class="st4" /><path
   id="path3245"
   d="m 145.88081,78.66908 c -4.5,16.9 -0.1,35.7 13.2,49 14.2,14.2 34.6,18.2 52.3,12.2"
   class="st6" /><path
   id="path3249"
   d="m 214.78081,138.56908 c 1.1,-0.5 2.3,-1 3.4,-1.6 -0.2,-1.2 -0.4,-2.5 -0.7,-3.7"
   class="st4" /><path
   id="path3253"
   d="m 215.68081,126.16908 c -3.8,-12.6 -10.7,-24.5 -20.6,-34.5 -10.9,-10.9 -24.1,-18.1 -38,-21.6"
   class="st5" /><path
   id="path3257"
   d="m 62.38081,114.46908 c -0.5,1.1 -1.1,2.3 -1.5,3.4 1,0.7 2.1,1.3 3.2,1.9"
   class="st4" /><path
   id="path3261"
   d="m 70.78081,122.36908 c 10.4,2.6 21.9,-0.2 30,-8.3 9,-9 11.5,-22.2 7.2,-33.5"
   style="opacity:0.3;fill:none;stroke:#ffffff;stroke-width:2.5;stroke-miterlimit:10;stroke-dasharray:7.2325, 7.2325;enable-background:new" /><path
   id="path3265"
   d="m 106.58081,77.26908 c -0.6,-1.1 -1.2,-2.2 -1.9,-3.2 -1.1,0.5 -2.3,1 -3.4,1.5"
   class="st4" /><path
   id="path3273"
   d="m 206.18081,80.66908 c -6.1,-6.1 -16,-6.1 -22.1,0 -5.1,5.1 -5.9,12.9 -2.5,18.9 l -36.9,36.9 c -4.8,-2.8 -10.9,-2.8 -15.7,0 l -36.9,-36.9 c 3.5,-6 2.7,-13.8 -2.5,-18.9 -6.1,-6.1 -16,-6.1 -22.1,0 -6.1,6.1 -6.1,16 0,22.1 5.1,5.1 12.9,5.9 18.9,2.5 l 36.9,36.9 c -2.8,4.8 -2.8,10.9 0,15.7 l -36.9,36.9 c -6,-3.5 -13.8,-2.7 -18.9,2.5 -6.1,6.1 -6.1,16 0,22.1 6.1,6.1 16,6.1 22.1,0 5.1,-5.1 5.9,-12.9 2.5,-18.9 l 36.9,-36.9 c 6,3.5 13.8,2.7 18.9,-2.5 5.1,-5.1 5.9,-12.9 2.5,-18.9 l 36.9,-36.9 c 6,3.5 13.8,2.7 18.9,-2.5 6.1,-6.1 6.1,-16 0,-22.1"
   style="fill:#ffffff" />
  <g
   id="layer2"
   transform="translate(-77.61919 -546.73092)">
    <path
   id="path3209"
   d="M298.9 676.2c-1.4-1.4-2.1-2.9-2-3.4.1-.6.9-1.4 1.8-1.7.9-.3 2.5-.6 3.4-.6 1.1 0 3.1-.8 4.5-1.9 1.3-1 3.4-2.3 4.7-3 1.3-.6 3.5-1.3 4.9-1.5h.3c.2-.4.4-.7.6-1.1-.3 0-.7.1-1 .1-1.5.2-3.9.9-5.3 1.6-1.4.7-3.5 2-4.9 3.1-1.4 1-3.1 1.7-3.9 1.7-1 0-2.7.3-3.8.6-1.2.4-2.2 1.5-2.4 2.5-.2 1.2 1 3.1 2.2 4.4l1.2 1.2c.7.7 1.6 1.4 2.5 1.9.3-.2.6-.4.9-.7-.9-.5-1.9-1.2-2.7-2l-1-1.2zm11-5.1c-.9.7-1.3 1.5-1.2 2.4 0 .2.1.5.2.7l.9-.9c0-.5.3-1 .9-1.4.3-.2.7-.5 1-.7.6-.7 1.2-1.4 1.7-2.1-1.2.4-2.5 1.2-3.5 2m-59.2-73.9.5 2.3c.4 2 .7 3.6.7 3.8v.6l-.3 2.7c-.2 1.5-.6 4.2-.9 6l-.1.5c-.3 1.8-1.3 4.3-2.3 5.5-1 1.3-2.5 3.4-3.3 4.5-.8 1.1-2.4 3-3.6 4.1l-3.9 3.9c-1 1-2.2 1.7-2.6 1.7-.6 0-2.7-.2-4.5-.5l-.5-.1c-1.9-.3-4.1-.4-5-.3l-1.5.3-1.8.6c-1.1.4-2.5 1.7-3 3l-.9 2-2.1 2.7c-1.1 1.5-2.9 3.4-3.8 4.4-1 1-2.5 3.1-3.4 4.6-.8 1.4-2.3 3.4-3.2 4.4-1 1-2.8 2.6-4.1 3.6-1.3 1-3.3 2.2-4.4 2.6l-2 .9h-1.1c-.8 0-2.7.5-4.1.9-1.6.5-3.6 2.3-4.5 3.8-.8 1.4-1.5 3.5-1.3 4.6l.3 1.5.9 3.3c.5 1.8 1 3.7 1.2 4.2.2.5 1 2.3 1.9 4l1 1.8c.9 1.6 2.3 4.3 3.1 6l.6 1.1c.9 1.8 3.3 3.5 5.3 3.7l2.9.4c1.7.2 3.6 1.7 4.3 3.2l.9 2.2c.7 1.7 1.6 4.1 1.9 5.4.3 1.3 1 3.4 1.5 4.6.5 1.2 1.7 3.4 2.8 5l.6.9c1 1.6 2.7 4.1 3.7 5.7l1 1.5c.9 1.4 1 3.5.1 4.6-1 1.3-2.5 3.6-3.3 5.2-.9 1.6-1.5 4.4-1.3 6.4l.1 1c.1 1.9.7 4.9 1.2 6.8l.5 1.9c.5 1.9 2.2 4.4 3.7 5.7l1.3 1.1c1.4 1.2 2.4 2.8 2.4 3.5 0 .9-.6 2.5-1.4 3.6-.8 1.1-2.6 2.7-4 3.5-1.4.8-3.4 1.7-4.4 2.1-1 .3-2.4.7-3.2.9-.9.2-2.6 1-3.8 1.9-1.3.9-2.4 2.6-2.6 3.9-.1.4 0 .8.1 1.3.4.1.7.1 1.1.2-.2-.5-.2-1-.2-1.3.1-1 1.2-2.5 2.2-3.3 1.1-.8 2.6-1.6 3.4-1.7.9-.2 2.4-.6 3.4-.9 1-.3 3.1-1.3 4.6-2.1 1.5-.9 3.5-2.5 4.4-3.8.9-1.3 1.6-3.1 1.6-4.2 0-1.3-1.4-3.2-2.8-4.3l-1.3-1.1c-1.4-1.1-2.9-3.5-3.4-5.2l-.5-1.9c-.5-1.8-1-4.7-1.2-6.5l-.1-1c-.1-1.8.4-4.4 1.2-5.8.8-1.5 2.3-3.7 3.3-5 1.1-1.5 1.1-4.1-.1-5.8l-1-1.5c-1-1.5-2.7-4.1-3.7-5.7l-.6-.9c-1-1.6-2.2-3.8-2.7-4.9-.5-1.1-1.1-3.1-1.5-4.4-.3-1.4-1.2-3.9-2-5.6l-.9-2.2c-.8-1.9-3.1-3.6-5.1-3.8l-2.9-.4c-1.7-.2-3.7-1.7-4.5-3.2l-.6-1.1c-.8-1.7-2.2-4.4-3.1-6l-1-1.8c-.9-1.7-1.7-3.4-1.9-3.8-.2-.5-.7-2.3-1.2-4.1l-.9-3.3-.3-1.5c-.1-.6.3-2.4 1.1-3.8s2.6-2.9 3.9-3.4c1.6-.5 3.2-.9 3.7-.9H194.8l2.1-.9c1.2-.5 3.3-1.7 4.6-2.8 1.3-1 3.2-2.6 4.3-3.7 1-1 2.5-3.1 3.4-4.6.8-1.4 2.3-3.4 3.2-4.4 1-1 2.8-3 3.9-4.5l2.1-2.7v-.2l.9-2.1c.4-1 1.5-2.1 2.4-2.4l1.8-.6 1.5-.3c.7-.1 2.7-.1 4.7.3l.5.1c1.9.3 3.9.6 4.6.6.9 0 2.4-1 3.4-2l3.9-3.9c1.2-1.2 2.8-3.1 3.7-4.3.8-1.2 2.3-3.2 3.3-4.5 1-1.4 2.1-4.1 2.5-6l.1-.5c.3-1.8.7-4.6.9-6.1l.3-2.7v-.6c0-.4-.3-2.4-.7-4l-.5-2.3c-.3-1.7-.8-3.7-1-4.3v-.2c-.3.2-.6.3-.9.5.1.4.6 2.3.9 4.1m-48.2 120.3c.7 1.6 1.3 4.5 1.3 6.3v1.6c0 1.8-.4 4.2-.9 5.3-.5 1.2-1.1 3.7-1.4 5.6l-.2 1.7c-.3 1.9-.4 4.4-.2 5.6.2 1.2.7 3.4 1.2 4.9.5 1.5 1 3.6 1.2 4.7.2 1.1.2 3 0 4.1-.2 1.1-1 3.2-1.7 4.6-.8 1.5-2.3 3.4-3.2 4.4l-3.9 3.9c-1.1 1.1-3 2.7-4.1 3.5-1.3.9-2.3 3.1-2.3 4.9 0 1.7.4 4.1.9 5.3.4 1 .3 3.2-.3 4.7-.7 1.6-1.8 3.9-2.6 5s-1.7 2.5-1.9 3.1c-.1.2-.2.5-.4.8.6-.4 1.1-.8 1.7-1.2.3-.6.8-1.4 1.4-2.2.8-1.2 2.1-3.5 2.8-5.2.7-1.8.8-4.2.3-5.5-.5-1.1-.9-3.3-.9-4.9 0-1.5.9-3.4 1.9-4.1 1.2-.8 3.1-2.5 4.3-3.7l3.9-3.9c1-1 2.5-3.1 3.4-4.6.9-1.5 1.7-3.8 1.9-5 .2-1.2.2-3.1 0-4.3-.2-1.2-.7-3.4-1.2-4.9-.5-1.5-1-3.6-1.2-4.7-.2-1.1-.1-3.5.2-5.3l.2-1.7c.3-1.8.9-4.2 1.3-5.3.5-1.2.9-3.8.9-5.7v-1.6c0-1.9-.6-4.9-1.4-6.7l-.9-2.2c-.8-1.8-2.7-4.1-4.4-5.2l-.9-.6c-1.6-1-4.1-2.7-5.7-3.7l-1.6-1c-1.5-1-3.2-3.2-3.8-4.8l-.6-1.5c-.7-1.7-1.8-4.3-2.4-5.6-.6-1.3-1.4-3.2-1.8-4.1-.3-1-1.6-3.1-2.8-4.6l-2.6-3.3-.6-2.9c-.3-1.7-.9-3.9-1.2-4.9-.3-1-.8-3.3-1.1-5.1l-.1-.5c-.3-1.8-.1-4.4.3-5.8.4-1.3 2.1-3 3.6-3.6 1.7-.7 4.2-1.6 5.7-2.1s4.1-1.5 5.7-2.1c1.7-.7 3.7-1.6 4.6-2.1.8-.5 2-1.2 2.7-1.5.7-.4 2.1-1.5 3.1-2.5l7.8-7.8c.9-.9 2-2.2 2.2-2.9.2-.5.7-1.8 1.2-3s1.2-3.5 1.5-5.2c.3-1.6 1.4-3.9 2.3-5.2 1-1.3 2.8-3.1 4.1-4.1 1.4-1 3.2-2.8 4-4 .1-.2.3-.5.5-.7-.4 0-.8-.1-1.2-.1 0 .1-.1.2-.1.2-.8 1.1-2.5 2.8-3.8 3.8-1.4 1-3.3 3-4.3 4.3-1 1.4-2.1 3.9-2.5 5.6-.3 1.6-1 3.9-1.5 5-.5 1.2-1.1 2.5-1.2 3-.1.3-.9 1.4-2 2.5l-7.8 7.8c-.9.9-2.3 2-2.9 2.3-.7.3-1.9 1-2.7 1.5-.8.5-2.8 1.4-4.4 2.1-1.6.7-4.2 1.6-5.7 2.1s-4.1 1.4-5.7 2.1c-1.8.7-3.7 2.6-4.2 4.2s-.7 4.4-.4 6.3l.1.5c.3 1.9.8 4.2 1.2 5.2.3 1 .9 3.1 1.2 4.7l.6 3v.2l2.7 3.3c1.1 1.4 2.3 3.4 2.6 4.3.3 1 1.2 2.9 1.8 4.3.7 1.3 1.7 3.8 2.4 5.5l.6 1.5c.7 1.8 2.6 4.2 4.2 5.3l1.6 1c1.6 1 4.1 2.7 5.7 3.7l.9.6c1.5.9 3.3 3.1 4 4.7l1 2.6zm91.2-16.8c-.8 0-2.5-.9-3.8-2.2l-.6-.6c-1.3-1.3-3.3-3.5-4.5-5l-1.1-1.3c-1.2-1.5-3.8-3.2-5.6-3.9l-2.6-.8c-1.8-.6-4.8-1.3-6.7-1.5l-2.9-.4c-1.9-.2-4.9-.3-6.8-.1-1.7.2-4.3 0-5.5-.3-1.2-.3-3.3-1.6-4.6-2.9l-.6-.6c-1.3-1.3-2.2-3.1-2.2-3.8 0-.7 1-2.1 2.4-2.9 1.5-.8 3.4-1.9 4.2-2.4.8-.5 1.9-1 2.3-1.2.7-.2 2.1-1.5 3.2-2.5 1.1-1.2 3.1-2.9 4.5-3.9s3.2-2.8 4-4c.8-1.2 1.8-2.7 2.1-3.4.3-.6 1-1.8 1.5-2.7.5-.8 1.2-1.5 1.5-1.6.4-.1 1.8-.3 3.1-.3s3.6.1 5 .3c1.5.2 3.8.7 5.3 1.2s3.7 1.1 4.9 1.2c1.2.2 3.1 0 4.1-.3 1-.3 2.9-1.2 4.3-1.8 1.4-.7 3.4-2.4 4.4-3.8 1-1.4 2.3-3.7 2.8-5.2.4-1.3 2.2-2.4 3.8-2.4h1.6c1.9 0 3.8.3 4.4.5.7.4 2.8.9 4.7 1.3l2.3.5c.1 0 .3.1.5.1 0-.3.1-.7.1-1-.1 0-.3 0-.4-.1l-2.3-.5c-2-.4-3.8-.9-4.4-1.2-.8-.4-3.1-.7-4.8-.6h-1.6c-2.1 0-4.2 1.4-4.8 3.1-.5 1.4-1.7 3.7-2.6 5-.9 1.2-2.8 2.8-4 3.5-1.3.7-3.2 1.5-4.1 1.8-.9.3-2.6.4-3.7.3-1.1-.2-3.2-.7-4.7-1.2s-4-1.1-5.5-1.2c-1.5-.2-3.8-.3-5.2-.3-1.2 0-2.8.1-3.5.3-.7.2-1.6 1.2-2.1 2-.5.9-1.2 2.1-1.5 2.7-.3.6-1.3 2.1-2.1 3.2s-2.5 2.8-3.8 3.8c-1.3 1-3.4 2.8-4.6 4-1.2 1.2-2.5 2.2-2.8 2.3-.6.2-1.7.8-2.5 1.2-.8.5-2.7 1.6-4.2 2.4-1.5.8-3 2.4-3 3.8 0 1.3 1.3 3.3 2.5 4.6l.6.6c1.4 1.4 3.6 2.8 5 3.1 1.4.3 4 .5 5.9.3 1.8-.2 4.7-.1 6.6.1l2.9.4c1.8.2 4.7.9 6.5 1.5l2.6.8c1.7.6 4 2.2 5.1 3.5l1.1 1.3c1.2 1.5 3.3 3.7 4.6 5.1l.6.6c1.3 1.3 3.3 2.5 4.6 2.5.6 0 1.7 0 3-.1 0-.3 0-.7.1-1-1.2 0-2.4.1-3 .1m21.2-49-1 .1c-2 .2-4.6 1.3-5.8 2.5l-3.9 3.9c-.9.9-3.1 2.3-4.6 2.9-1.6.6-4.4 1-6.1.8l-2.9-.4c-1.9-.2-4.9-.6-6.7-.9l-1.7-.2c-1.9-.3-4.6-.2-6 .1-1.4.3-3.3 1.3-4.1 2.2-.9.9-1.8 2.1-2.2 2.8-.3.7-1.2 2.6-1.8 4.2-.7 1.8-.7 4.4 0 5.8.7 1.3 1.9 2.7 2.9 2.7.6 0 2.7.2 4.5.5l1.7.2c1.9.3 4.9.7 6.7.9l2.9.4c1.7.2 4.1 1.5 5.2 2.9l1.1 1.3c1 1.2 2.3 2.5 3.4 3.4-.1-.5-.1-1-.2-1.5-.8-.8-1.7-1.7-2.4-2.5l-1.1-1.3c-1.3-1.5-3.9-3-5.9-3.2l-2.9-.4c-1.9-.2-4.9-.6-6.7-.9l-1.7-.2c-1.9-.3-3.9-.5-4.6-.5-.3 0-1.3-.7-1.9-2.1-.6-1.2-.6-3.5 0-5 .6-1.6 1.5-3.5 1.8-4.2.3-.6 1.2-1.8 2-2.6s2.4-1.7 3.7-2c1.2-.3 3.8-.4 5.6-.1l1.7.2c1.9.3 4.9.7 6.7.9l2.9.4c1.9.2 4.9-.1 6.6-.8 1.7-.7 3.9-2.1 5-3.1l3.9-3.9c1.1-1.1 3.4-2.1 5.2-2.2l1-.1c1.8-.1 4.6-.1 6.4.2.1-.3.2-.7.3-1-2.1-.3-5.1-.3-7-.2m2.2-5.7c-1.8-.6-4-1.2-4.8-1.4-1.3-.3-3.1.7-4.2 1.8-1 1-2.7 3-3.7 4.3-1 1.3-2.6 3.1-3.5 4.1-.8.8-3 1.8-4.6 2.1l-.5.1c-1.8.3-4.1.5-5 .5-.8 0-2.9-.3-4.9-.9-1.9-.5-4-1-4.8-1.2-.9-.2-2.7-.3-4.1-.3-1.6 0-3.9 1.1-5.2 2.4-1.2 1.2-2.9 3.1-3.7 4.3-.8 1.1-2.4 3-3.5 4.1l-8.1 8.1c-1.1 1.1-2.2 3.1-2.4 4.5-.1.9.1 1.7.7 2.3.6.6 1.4.8 2.3.7 1.1-.2 3.4 0 5.1.3l.5.1c1.9.3 3.7.7 4.1.8.8.3 3.2.4 4.6.3h1.6c1.8 0 4.8.3 6.6.6l3.5.6c1.6.3 3.7 1.6 4.5 3l1 1.6c1.1 1.7 3.4 3.8 5.1 4.9l.2.1c.8.5 1.8.9 2.9 1.3 0-.8 0-1.5-.1-2.2-.7-.3-1.3-.6-1.8-.9l-.2-.1c-1.5-.9-3.5-2.8-4.5-4.3l-1-1.6c-1.2-1.8-3.8-3.5-5.9-3.9l-3.5-.6c-1.9-.3-5-.6-6.9-.6h-1.6c-1.9 0-3.6-.1-4-.2-.6-.2-2.7-.6-4.4-.9l-.5-.1c-2-.3-4.5-.4-5.8-.3-.2 0-.4 0-.5-.1-.1-.1-.1-.3-.1-.5.1-.9 1-2.5 1.8-3.3l8.1-8.1c1.2-1.2 2.9-3.1 3.7-4.3.8-1.1 2.4-3 3.5-4.1 1-1 2.7-1.8 3.8-1.8 1.3 0 3 .1 3.7.3.8.2 2.9.7 4.8 1.2s4.3.9 5.3.9 3.4-.3 5.3-.6l.5-.1c2.1-.3 4.6-1.5 5.7-2.6 1-1 2.7-3 3.7-4.3 1-1.3 2.5-3.1 3.5-4.1.9-.9 2-1.3 2.4-1.2.8.2 2.9.8 4.6 1.3l2.6.9c.9.3 2.1.6 3.3.8.2-.7.3-1.3.4-2-1.1-.2-2.2-.4-3-.7l-2.6-1zm1.1 10.9c-1.7-.3-4.1-.3-5.2.3-.9.5-2 1.4-2.5 1.9s-1.8 1.6-2.9 2.3c-1.1.8-3.4 2-5 2.6-1.6.6-4.4 1.3-6.2 1.5-1.8.2-4.7.1-6.6-.1l-2.9-.4c-1.9-.2-5 0-6.9.5-2 .5-4 2.3-4.5 3.9-.6 1.7.5 3.8 2.5 4.7l2.2.9c1.6.7 3.7 1.4 4.5 1.4.5 0 2.4.4 4.4.9 1.7.5 4.2 1.9 5.4 3.2l1.2 1.2c.4.4.9.8 1.5 1.2.3-.2.7-.4 1-.6-.6-.4-1.2-.9-1.7-1.4l-1.2-1.2c-1.4-1.4-4-2.9-6-3.4-1.6-.4-3.8-.9-4.6-.9-.5 0-2.3-.5-4.1-1.3l-2.2-.9c-1.5-.6-2.3-2.2-1.9-3.4.4-1.3 2.2-2.8 3.9-3.3 1.7-.5 4.7-.7 6.4-.5l2.9.4c1.9.2 4.9.3 6.8.1 1.9-.2 4.8-.9 6.4-1.5 1.7-.7 4-1.9 5.2-2.8 1.2-.8 2.5-1.9 3.1-2.5.5-.5 1.5-1.3 2.3-1.7.6-.4 2.6-.5 4.5-.2l1.5.3c.1-.3.3-.6.4-1l-1.7-.2zm-127.5-32.7c-.6 1.3-2.1 3.3-3.2 4.4-1.1 1.1-3.1 2.6-4.4 3.2-1.3.7-3.7 1.7-5.4 2.4-1.7.7-4.3 1.9-5.8 2.7-1.4.8-4.1 1.6-5.8 1.7-1.9.2-4.6.7-6.1 1.2s-4 1.6-5.5 2.4c-1.5.8-3.7 2.5-4.9 3.7-1.2 1.2-2.6 3.2-3.1 4.4-.5 1.2-1 2.5-1.2 3-.2.5-.6 2.3-.9 4l-1.2 6c-.3 1.7-.1 4.6.5 6.5l.9 2.6c.6 1.8 1.6 4.4 2.3 5.7.6 1.3 1.3 3 1.5 3.8.2 1 1.5 3 2.6 4.4l1.1 1.3c1.2 1.5 3.4 3.6 4.8 4.8l4 3.2 3 3c1.3 1.3 3.2 3.6 4.2 5.1l1 1.6c1 1.5 2.2 3.9 2.7 5.4.5 1.5 1 3.3 1.2 4.1.2 1.1 1.8 2.8 3.1 3.9l1.3 1.1c1.4 1.2 3.4 3.3 4.3 4.9l.6.9c1 1.6 2.2 4 2.7 5.5s1 3.6 1.2 4.7c.2 1.1.3 3.1.3 4.4 0 1.3.1 3.6.3 5.2.2 1.5.3 3.5.3 4.4 0 1-.3 3.1-.6 4.7s-1.4 3.9-2.3 5.2c-1 1.3-2.6 3.2-3.6 4.1-1 1-2.5 3.1-3.4 4.6-.9 1.5-1.8 4.3-2.1 6.2l-.1.5c-.3 1.8-.7 4.8-.9 6.7-.2 1.8-.8 4.5-1.5 6.2-.6 1.6-1.8 3.9-2.6 5s-2.4 3-3.6 4.1c-1.2 1.2-2.8 3.1-3.7 4.3-.8 1.1-2.1 2.9-3.1 4.2.5 0 .9-.1 1.4-.1.9-1.2 1.9-2.6 2.6-3.5.8-1.1 2.4-3 3.5-4.1 1.2-1.2 2.8-3.1 3.7-4.3.9-1.2 2.1-3.5 2.8-5.2.7-1.7 1.4-4.6 1.5-6.4.2-1.8.6-4.8.9-6.6l.1-.5c.3-1.8 1.2-4.4 2-5.9s2.3-3.4 3.2-4.4c1-1 2.6-2.9 3.7-4.3 1-1.4 2.1-3.9 2.5-5.6.3-1.7.6-3.9.6-4.9 0-1-.1-3-.3-4.6-.2-1.5-.3-3.8-.3-5 0-1.3-.1-3.4-.3-4.6-.2-1.2-.7-3.4-1.2-4.9s-1.7-4.1-2.8-5.7l-.6-.9c-1-1.6-3.1-3.9-4.6-5.1l-1.3-1.1c-1.5-1.2-2.6-2.7-2.7-3.3-.2-.8-.7-2.8-1.2-4.3s-1.8-4.1-2.8-5.6l-1-1.6c-1.1-1.6-3-4-4.3-5.3l-3-3-4-3.3c-1.4-1.2-3.5-3.3-4.7-4.7l-1.1-1.3c-1.2-1.5-2.2-3.2-2.3-3.9-.2-.9-.9-2.7-1.5-4-.6-1.3-1.7-3.8-2.2-5.5l-.9-2.6c-.6-1.7-.8-4.4-.5-6l1.2-6c.3-1.6.7-3.4.9-3.8.2-.5.7-1.8 1.2-3 .5-1.1 1.8-2.9 2.9-4 1.1-1.1 3.2-2.7 4.7-3.5 1.5-.8 3.9-1.9 5.3-2.4 1.5-.5 4.1-1 5.9-1.2 1.9-.2 4.7-1 6.2-1.9 1.5-.8 4-2 5.6-2.7 1.7-.7 4.1-1.8 5.4-2.4 1.4-.7 3.4-2.2 4.6-3.4 1.2-1.2 2.7-3.3 3.4-4.6.7-1.3 2-3.4 3-4.7.7-1 1.5-2.4 2.2-3.7-.4.1-.9.2-1.3.3-.5 1-1.1 2.1-1.7 2.8-1.3 1.4-2.7 3.5-3.3 4.9m-4.8-4.8c-.6 1.2-2.2 3.1-3.5 4-1.3 1-3.4 2.3-4.7 3-1.3.7-3.6 1.9-5.1 2.7-1.5.8-3.7 2-5.1 2.7-1.3.6-3.8 1.3-5.6 1.4l-1 .1c-1.9.1-4.8.8-6.5 1.5-1.7.7-4 1.9-5.2 2.8-1.2.8-3.1 2.5-4.3 3.7-1.1 1.1-3.1 2.9-4.4 3.9-.3.2-.6.5-.9.8-1.2 1.2-2.2 2.8-2.6 4-.5 1.5-1.2 4.3-1.5 6.1l-.1.5c-.2 1.4-.7 3.3-1.1 4.8.3.3.6.5.8.8.5-1.6 1-3.8 1.3-5.4l.1-.5c.3-1.8.9-4.5 1.4-6 .4-1.3 1.9-3.4 3.1-4.3 1.3-1 3.4-2.8 4.6-4 1.1-1.1 3-2.7 4.1-3.5 1.1-.8 3.4-2 5-2.6 1.6-.6 4.4-1.3 6.2-1.4l1-.1c1.9-.1 4.6-.8 6-1.5 1.3-.7 3.6-1.9 5.1-2.7 1.5-.8 3.8-2 5.1-2.7 1.3-.7 3.5-2 4.9-3.1.4-.3.8-.7 1.3-1.1 1.1-1.1 2-2.3 2.5-3.3.1-.3.3-.6.5-1-.5 0-1 .2-1.4.4M251.6 766c0-.8-.6-3-1.1-4.6l-.3-.8c-.5-1.5.1-3.4 1.4-4.1 1.5-.8 4-2 5.6-2.7 1.6-.6 4.1-1.7 5.4-2.4 1.3-.7 3.5-2 4.9-3.1 1.3-1 3.4-2.3 4.7-3 1.4-.7 3.4-2.2 4.6-3.4l4.2-4.2c1.1-1.1 2.3-2.8 2.5-3.9.2-1.2-1.1-3-2.5-4.1l-.7-.6c-1.4-1.1-3.6-3.2-4.7-4.7l-1.1-1.3c-1.2-1.4-2.8-3.9-3.6-5.6l-.6-1.1c-.9-1.8-3.3-3.2-5.3-3-1.8.2-4.6.3-6.3.3-1.6 0-4.1-.7-5.4-1.4-1.4-.8-3.1-1.6-3.7-1.8-.4-.1-2-1-3.6-2.1l-1.6-1c-1.5-1-3.7-3-4.9-4.4l-1.1-1.3c-1.3-1.5-3.9-2.9-5.8-3.1-1.9-.2-3.8-.6-4.3-.8-.6-.3-1.4-1.2-1.9-1.9-.5-.8-1.4-2.6-2.1-3.9-.6-1.2-1.3-3.8-1.4-5.5-.2-1.8-.4-4-.6-4.9-.2-.8-.5-3-.9-4.8l-.1-.5c-.3-1.7-.8-3.9-1.2-4.7-.3-.5-.5-2.3-.5-4 0-1.5.8-3.9 1.7-5.1.9-1.2 2.9-2.7 4.3-3.1 1.5-.5 3.6-1 4.7-1.2 1.2-.2 2.8-.4 3.6-.6l4.5-.9c1.7-.3 4.3-1.3 5.9-2.2 1.5-.8 3.8-2.3 5.2-3.3 1.3-1 3.3-2.5 4.5-3.3 1.2-.9 2.8-3 3.5-4.7.6-1.6 1.8-3.9 2.6-5s2.8-2.4 4.5-3l.8-.3c1.8-.6 4.6-1.2 6.4-1.4 1.8-.2 4.8-.7 6.7-1.2 1.8-.5 4.5-1.3 6-1.8s3.7-1.6 4.9-2.5c1.2-.9 3-2.7 4-4 1-1.4 2.4-3.8 3.1-5.5.7-1.8.6-4.7-.3-6.5l-.6-1.1c-.9-1.7-2.7-4.2-4-5.6l-1.2-1.2c-1.4-1.4-3.9-3.2-5.6-4l-1.1-.6c-1.6-.8-3.6-2.7-4.4-4.3l-1-1.8c-.9-1.6-2.2-4.2-3-5.9h-1.2l.2.3c.8 1.7 2.2 4.4 3.1 6l1 1.8c.9 1.7 3.1 3.8 4.9 4.7l1.1.6c1.6.8 4 2.5 5.3 3.8l1.2 1.2c1.3 1.3 3 3.7 3.8 5.3l.6 1.1c.8 1.5.9 4.1.3 5.6-.6 1.6-2 4-2.9 5.3-1 1.3-2.7 3-3.8 3.8-1.1.8-3.2 1.8-4.7 2.3-1.5.5-4.1 1.3-6 1.8-1.8.5-4.7 1-6.5 1.2-1.8.2-4.8.8-6.6 1.4l-.8.3c-1.9.6-4.1 2.1-5 3.4-.9 1.2-2.1 3.5-2.8 5.2-.6 1.6-2.1 3.5-3.1 4.3-1.2.8-3.2 2.3-4.5 3.3-1.3 1-3.6 2.4-5 3.3-1.5.8-3.9 1.7-5.6 2l-4.5.9c-.8.2-2.4.4-3.6.6-1.2.2-3.4.7-4.9 1.2-1.6.5-3.7 2.1-4.8 3.5-1.1 1.4-1.9 4-1.9 5.7 0 1.5.2 3.6.7 4.4.3.5.8 2.4 1.1 4.4l.1.5c.3 1.9.7 4 .9 4.9.2.8.4 3 .6 4.7.2 1.9.9 4.5 1.5 5.9.7 1.3 1.6 3.1 2.1 3.9.5.9 1.6 1.9 2.3 2.3.8.4 3 .8 4.7 1 1.7.1 4 1.4 5.1 2.7l1.1 1.3c1.2 1.5 3.5 3.5 5.1 4.6l1.6 1c1.4.9 3.2 2 3.8 2.2.4.1 1.9.9 3.5 1.8s4.2 1.6 6 1.6c1.7 0 4.5-.1 6.4-.3 1.6-.1 3.6 1 4.3 2.4l.6 1.1c.9 1.7 2.5 4.3 3.7 5.8l1.1 1.3c1.2 1.5 3.4 3.6 4.9 4.8l.7.6c1.5 1.2 2.3 2.6 2.2 3.1-.1.6-1.1 2.2-2.3 3.3l-4.2 4.2c-1.1 1.1-3.1 2.6-4.4 3.2-1.3.7-3.5 2-4.9 3.1-1.3 1-3.4 2.3-4.7 3-1.4.7-3.8 1.7-5.4 2.4-1.7.7-4.3 1.9-5.8 2.7-1.7.9-2.5 3.3-1.9 5.3l.3.8c.6 1.9 1 3.7 1 4.3 0 .5-.4 2.4-.9 4.4-.1.3-.2.6-.2.9l1.2-.6v-.2c.6-1.2 1.1-3.4 1.1-4.2m6.2-3.4c-.2-2-.1-3.5 0-3.8.1-.2.5-.7 1-.9.6-.3 1.9-.8 2.9-1.1 1-.3 3-1.2 4.3-1.9 1.4-.7 3.7-1.9 5.1-2.7 1.5-.8 3.7-2.2 4.9-3.1 1.2-.9 3.1-2.5 4.3-3.7.5-.5 1.1-1.1 1.8-1.7 1.2-1.7 2.2-3.3 3.3-5.1-.7.4-1.3.8-1.9 1.3-1.4 1-3.4 2.8-4.6 4-1.1 1.1-3 2.7-4.1 3.5-1.1.8-3.2 2.1-4.7 2.9-1.5.8-3.7 2-5.1 2.7-1.3.6-3.1 1.4-4.1 1.7-1 .3-2.4.9-3.1 1.3-.8.4-1.7 1.2-2 2.1-.3.9-.2 3.4-.1 4.6.2 1.7-.1 4.2-.6 5.6.8-.5 1.6-.9 2.4-1.4.3-1.4.4-3 .3-4.3m-138.7 18.3c.2-1.9.3-4.7.3-6.4 0-1.7.1-3.3.2-3.6.2-.6.6-2.7.9-4.4l.1-.5c.3-1.8.9-4.5 1.4-5.9.5-1.4 1.5-3.8 2.3-5.2.5-.9 1.4-2.1 2.3-3 .4-.4.7-.6 1-.8 1.2-.9 3.1-2.8 4.1-4.1 1-1.3 2.5-3.4 3.3-4.5.2-.3.5-.6.8-1 .9-.9 2.1-1.8 3-2.3 1.5-.9 3-1.6 3.4-1.7.4-.1 1.9-.4 3.4-.6 1.3-.1 3.3.1 4.3.5.9.4 2.7 1.8 3.9 3.2l1.1 1.3c1.2 1.5 2.4 3.1 2.6 3.6.3.5.8 2.3 1.1 3.9.3 1.6.6 3.7.6 4.6 0 .9-.2 3.2-.5 5l-.1.5c-.3 1.9-.7 4-.9 4.8-.1.7-.5 1.8-.8 2.4-.4.8-1.1 3-1.6 4.7-.5 1.8-1.3 4.4-1.8 5.9-.5 1.4-1.3 3.2-1.7 4-.5.9-1.2 2.1-1.5 2.8l-1.8 3.6c-.6 1.3-2 3.4-2.9 4.6-1 1.3-2.7 3.3-3.8 4.4l-5.2 5.2c.7.3 1.4.6 2.1.8l4.5-4.5c1.2-1.2 3-3.3 4-4.6 1-1.4 2.4-3.6 3.1-5l1.8-3.6c.3-.6 1-1.8 1.5-2.6.5-.9 1.4-2.8 1.9-4.4.5-1.5 1.3-4.2 1.8-6.1.5-1.9 1.2-3.8 1.4-4.3.4-.8.8-2 1-3 .2-.8.6-3 .9-4.9l.1-.5c.3-1.9.6-4.3.6-5.3 0-1.1-.3-3.3-.6-5-.3-1.5-.9-3.6-1.3-4.5-.4-.8-1.8-2.7-2.9-4l-1.1-1.3c-1.3-1.6-3.3-3.3-4.6-3.8-1.3-.6-3.7-.9-5.3-.7-1.4.2-3.2.4-3.8.6-.6.2-2.4 1.1-3.8 1.9-1.6.9-3.6 2.6-4.5 3.9-.8 1.2-2.3 3.2-3.3 4.5-.9 1.2-2.7 3-3.7 3.7-1.3.9-3 3-3.9 4.5-.9 1.5-2 4-2.5 5.6-.5 1.5-1.2 4.3-1.5 6.2l-.1.5c-.3 1.9-.7 3.7-.8 4.1-.3.8-.4 3-.4 4.2 0 1.6-.1 4.4-.3 6.2-.1 1.5-.8 3.7-1.4 5.1.5.6.9 1.2 1.4 1.8.1-.1.1-.2.2-.3 1-1.4 1.9-4.2 2-6.2m18.1 11c.8-1.5 2.4-3.6 3.5-4.7 1.2-1.2 2.8-3.1 3.7-4.3.8-1.2 1.8-2.7 2.1-3.4.3-.6 1-1.8 1.5-2.7.5-.9 1.3-2.8 1.9-4.3.5-1.5 1.4-4 2.1-5.7.7-1.7 1.4-4 1.5-5.2.2-1.2.2-2.9 0-3.8-.2-.8-.3-3-.3-4.8v-.4c0-1-.4-2-1.1-2.8-.7-.7-1.7-1.1-2.8-1.1h-.4c-1.9 0-4.6.6-6 1.3-1.3.7-3.7 2-5.3 3l-.2.1c-1.6 1-3.8 2.1-4.9 2.6-1.2.5-3 2.3-3.9 3.8-.9 1.5-1.7 4.3-1.9 6.2-.2 1.8-.6 4.8-.9 6.6l-.1.5c-.3 1.9-.6 4.9-.6 6.8v1.6c0 1.8-.5 4.3-1.2 5.6-.7 1.4-1.6 2.8-2 3.2-.3.3-.7 1-1.1 1.6.3.2.5.5.8.7.3-.7.7-1.3 1-1.6.5-.5 1.5-2 2.2-3.4.7-1.4 1.3-4.1 1.3-6v-1.6c0-1.9.2-4.8.6-6.7l.1-.5c.3-1.8.7-4.8.9-6.7.2-1.7 1-4.4 1.7-5.8.7-1.3 2.4-3 3.4-3.4 1.2-.5 3.5-1.7 5.1-2.7l.2-.1c1.6-1 4-2.3 5.3-2.9 1.2-.6 3.8-1.1 5.6-1.1h.4c.8 0 1.5.3 2 .8s.8 1.3.8 2v.4c0 1.9.1 4.1.3 5 .2.8.1 2.3 0 3.4-.2 1.1-.8 3.4-1.5 5s-1.6 4.2-2.1 5.7c-.5 1.4-1.3 3.3-1.8 4.1-.5.9-1.2 2.1-1.5 2.7-.3.6-1.3 2.1-2.1 3.2s-2.4 3-3.6 4.1c-1.2 1.2-2.8 3.4-3.7 4.9-.8 1.4-2.3 3.4-3.2 4.4l-3 3c.3.2.6.4.9.5l2.8-2.8c1.1-.7 2.6-2.8 3.5-4.3m158.3-85.2c-.9 0-1.3.8-1.6 1.4-.4.7-.5.9-.9.8-1-.3-7.9-6.8-13.8-12.8-1.2-1.5-3.8-3.1-5.7-4l-1.1-.6c-1.7-.9-4.7-1.6-6.7-1.6h-1.6c-1.8 0-4-.1-4.8-.3l-4.5-.9c-1.6-.3-3.8-.9-4.7-1.2-.9-.3-2.9-1.5-4.3-2.6l-.7-.6c-1.5-1.2-3.8-3.1-5.3-4.3l-1.3-1.1c-1.3-1.1-2.4-3-2.4-4.2 0-1.1 1.2-2.2 2.6-2.5 1.7-.3 4.4-1.2 6.1-1.8 1.7-.7 4.1-1.8 5.4-2.4 1.3-.7 3.6-1.9 5.1-2.7 1.5-.8 3.8-2.3 5.2-3.3 1.4-1 3.2-2.8 4-4 .8-1.2 2.2-3.4 3-4.9.8-1.4 2.5-3.1 3.7-3.7 1.2-.6 3.1-1.2 4-1.1 1 0 3 .1 4.4.3 1.5.2 3.6.4 4.8.6 1.2.2 3.5.6 5.1.9 1.7.3 4.4.2 6-.3 1.6-.5 3.7-2.1 4.8-3.5 1-1.4 2.3-3.7 2.8-5.2.5-1.4 2-3.2 3.4-3.9 1.5-.8 3.2-1.3 3.8-1.2.8.2 2.9.8 4.7 1.4l4.9 1.6c.5.2 2.1.5 3.8.7v-1c-1.7-.3-3.1-.5-3.5-.7l-4.9-1.6c-1.8-.6-3.9-1.2-4.8-1.4-1.1-.2-3.1.5-4.6 1.3-1.6.9-3.3 2.9-3.8 4.5-.5 1.5-1.7 3.7-2.6 5-.9 1.2-2.9 2.7-4.3 3.1-1.4.5-3.9.6-5.4.3-1.6-.3-3.9-.7-5.1-.9-1.2-.2-3.3-.4-4.8-.6-1.5-.2-3.6-.3-4.6-.3-1.1 0-3 .5-4.4 1.3-1.4.7-3.3 2.5-4.1 4.1-.8 1.5-2.1 3.6-3 4.8-.8 1.1-2.5 2.8-3.8 3.8-1.3 1-3.6 2.5-5 3.3-1.5.8-3.8 2-5.1 2.7-1.3.7-3.7 1.7-5.4 2.4-1.6.7-4.3 1.4-5.9 1.8-1.9.4-3.4 2-3.4 3.5s1.2 3.7 2.8 5l1.3 1.1c1.4 1.2 3.8 3.1 5.3 4.3l.7.6c1.5 1.2 3.6 2.5 4.6 2.8 1 .3 3.2.9 4.9 1.2l4.5.9c.9.2 3.1.3 5 .3h1.6c1.8 0 4.6.7 6.2 1.5l1.1.6c2 1 4.4 2.5 5.4 3.8 2.1 2.1 12.6 12.8 14.3 13.1 1.3.3 1.8-.7 2.1-1.4.3-.6.4-.8.7-.8h.6c0-.3.1-.7.1-1l-.9-.4zm-54.8 62c.6-1.2 1.3-3 1.3-3.8 0-.9-1-2.9-2-4.3l-1-1.6c-1-1.5-2.6-4.1-3.5-5.8l-1-1.8c-.8-1.4-.4-3.3.7-4.1 1.2-.9 3.6-1.4 5.3-1l2.3.5c1.9.4 5 .3 6.9-.3 1.9-.5 4.3-1.6 5.5-2.5 1.2-.9 3-2.7 4-4 1-1.4 2.2-3.9 2.5-5.6.4-1.8-.7-4.2-2.5-5.4l-.9-.6c-1.6-1-4.1-2.7-5.7-3.7l-1.6-1c-1.6-1-4.1-2.7-5.7-3.7l-.9-.6c-1.5-1-3.3-2.3-4-3-.7-.7-2.2-1.9-3.4-2.8-1.1-.8-3.5-2.2-5.1-3.1l-1.8-1c-1.6-.9-4.4-2.3-6-3.1l-1.1-.6c-1.5-.8-3.3-2.8-3.8-4.4l-.9-2.6c-.6-1.8-1.2-3.8-1.4-4.7l-.9-4.5c-.3-1.7-1-4-1.5-5.2-.5-1.1-1.1-3.1-1.5-4.4-.3-1.4-1.6-3.7-2.8-5.2l-.6-.7c-1.2-1.5-1.6-3-1.5-3.3.3-.7 1.3-2.4 2.1-3.9s2.2-3.6 3-4.8c.8-1.2 2.2-3.3 3-4.9.8-1.4 2.4-3.3 3.5-4 1.1-.8 3.5-1.7 5.2-2l.5-.1c1.9-.3 4.8-.8 6.4-1.2 1.7-.3 4.5-1 6.4-1.5 1.9-.5 4.5-1.8 5.9-2.8 1.3-1 3.3-2.6 4.3-3.7 1-1 2.5-3.1 3.4-4.6.8-1.5 2.3-3.4 3.2-4.4 1-1 3-2.5 4.6-3.5l.2-.1c1.5-.9 4.2-2 5.8-2.3l6-1.2c1.7-.3 4.2-1.5 5.6-2.5 1.4-1 3-3.2 3.5-4.8.5-1.6.5-4.2 0-5.7s-1.8-4.1-2.8-5.7l-.6-.9c-1-1.6-2.8-4.1-4-5.5l-1.1-1.3c-1.1-1.4-2.4-3.1-2.7-3.7-.3-.5-.8-2.3-1.2-4.1l-.6-3c0-.1 0-.1-.1-.2l-.5-.8c-.4 0-.8.1-1.1.1l.8 1.2.6 2.9c.3 1.7.9 3.6 1.2 4.3.3.7 1.6 2.4 2.8 3.9l1.1 1.3c1.2 1.4 2.9 3.9 3.9 5.4l.6.9c1 1.6 2.2 4 2.7 5.5.5 1.4.5 3.7 0 5.1-.5 1.4-1.9 3.3-3.1 4.3-1.3.9-3.6 2-5.2 2.3l-6 1.2c-1.7.3-4.4 1.4-6.1 2.4l-.2.1c-1.6 1-3.8 2.6-4.8 3.6s-2.5 3.1-3.4 4.6c-.8 1.4-2.3 3.4-3.2 4.4-1 1-2.8 2.6-4.1 3.6-1.3.9-3.8 2.1-5.6 2.6-1.8.5-4.6 1.2-6.2 1.5-1.6.3-4.4.8-6.3 1.2l-.5.1c-1.9.3-4.5 1.3-5.7 2.1-1.2.9-2.9 2.8-3.8 4.4-.8 1.5-2.2 3.6-3 4.8-.8 1.2-2.2 3.3-3 4.9-.8 1.5-1.8 3.2-2.1 3.9-.5 1 .4 3 1.6 4.4l.6.7c1.1 1.4 2.3 3.6 2.6 4.8.3 1.3 1 3.4 1.5 4.6.5 1.1 1.1 3.4 1.5 5l.9 4.5c.2.8.8 3 1.4 4.8l.9 2.6c.6 1.9 2.6 4.1 4.4 5l1.1.6c1.7.8 4.4 2.2 6 3.1l1.8 1c1.7.9 3.9 2.3 5 3.1 1.1.8 2.6 2 3.2 2.6.7.7 2.5 2.1 4.2 3.1l.9.6c1.6 1 4.1 2.7 5.7 3.7l1.6 1c1.6 1 4.1 2.7 5.7 3.7l.9.6c1.4.9 2.3 2.8 2 4.3-.3 1.6-1.4 3.9-2.3 5.2-1 1.3-2.7 3-3.8 3.8-1.1.8-3.5 1.8-5.3 2.3-1.7.5-4.6.6-6.4.2l-2.3-.5c-2-.4-4.7.2-6.1 1.2-1.5 1.1-1.9 3.6-.9 5.4l1 1.8c.9 1.7 2.5 4.3 3.5 5.9l1 1.6c1.1 1.7 1.8 3.3 1.8 3.7 0 .5-.5 2-1.1 3.4-.7 1.3-2 3.4-3 4.7-.7 1-1.4 2.3-1.7 3.6l1.2-.3c.3-.9.8-1.9 1.3-2.6.9-1.2 2.2-3.4 2.9-4.7m-104.1-2.9 1.8.4c.9.2 1.6-.5 1.5-1.5-.1-.8-.4-1.3-.7-1.5-.1 0-.2-.1-.4 0-.7.4-1.6 1.3-1.9 1.9l-.3.7zm1.5 1.4-2.4-.6c-.2 0-.3-.1-.3-.3-.1-.1-.1-.3 0-.4l.6-1.2c.4-.7 1.4-1.8 2.3-2.3.4-.3.9-.3 1.4-.1.7.3 1.1 1.2 1.2 2.3.1.9-.1 1.6-.6 2.2-.6.4-1.4.6-2.2.4m131.2-10.6c-1.7 1-3.8 2.9-4.9 4.3-.6.7-.6 1.3-.5 1.7.4-.3.8-.6 1.3-1l.1-.1c.9-1.3 3-3.1 4.6-4l.2-.1c.2-.1.3-.2.5-.3.7-.7 1.5-1.4 2.2-2.1l1.2-1.2c-1.1.7-3 1.9-4.4 2.7l-.3.1zm6.4-160.3c-1-1.6-2.1-3.3-2.4-4-.3-.6-1-2.4-1.5-3.8l-.3-.9h-1.1l.4 1.2c.5 1.5 1.2 3.3 1.5 4 .3.7 1.5 2.5 2.5 4.1l1 1.5c1.1 1.6 3.1 3.9 4.6 5.1l.7.6c1.5 1.2 3.7 3.2 5 4.5l1.2 1.2c1.2 1.2 2.4 3.4 2.5 4.8.1 1.4-.5 3.5-1.4 4.7-1 1.3-2.6 3.2-3.6 4.1-.9.9-3.1 2.3-4.6 2.9-1.7.7-4.2 1.6-5.7 2.1s-4.1 1-6 1.1l-1 .1c-1.9.2-4.8 1-6.3 1.8-1.5.9-3.5 2.5-4.4 3.8-.8 1.2-2.2 3.3-3 4.9-.8 1.4-2.3 3.4-3.2 4.4s-3 2.4-4.4 3.2l-5.4 3c-1.4.8-4.1 1.6-5.8 1.7-1.9.2-4.9.6-6.7.9l-.5.1c-1.9.3-4.4 1.3-5.7 2.1-1.2.8-3.1 2.5-4.3 3.7-1.2 1.2-2.4 3.8-2.6 5.7-.2 1.9-.2 4.6 0 6.1s.4 3.7.6 4.8c.2 1.2.7 3.4 1.2 4.9.5 1.4.9 3.7.9 4.9 0 1.4.3 3.6.6 4.9.3 1.3 1.2 3.8 2 5.6l.2.4c.8 1.7 1.5 3.5 1.7 3.9.2.6 1 1.4 1.8 1.8.7.4 2.6.9 4.3 1.2 1.5.3 3.9 1.6 5.1 2.9l1.2 1.2c1.3 1.3 3.7 3.3 5.3 4.3l1.6 1c1.5 1 3.3 2.4 3.9 3 .7.7 2.3 1.7 3.5 2.2 1.2.5 3.6 1.3 5.4 1.8l1.9.5c1.8.5 4.5 1.6 6.2 2.5l1.8 1c1.6.9 4 2.6 5.3 3.9l1.2 1.2c1.2 1.2 2.4 3.2 2.6 4.2.1 1-.5 2.9-1.4 4.1-.9 1.2-2.8 2.8-4 3.5-1.3.7-3.5 2-4.9 3.1-1.3 1-3.3 2.5-4.5 3.3-1.2.9-2.5 1.6-2.9 1.7-.5.2-2 .6-3.3.9-1.3.3-3.9.7-5.7.8l-1 .1c-1.1.1-2 .6-2.6 1.4-.6.8-.8 1.8-.6 2.8l.5 2.3c.4 1.8.8 4.8.9 6.7l.1 2.2c.1 1.7-.4 4.1-1.2 5.2-.5.7-.8 1.7-.8 2.8.4-.1.7-.2 1.1-.4.1-.7.2-1.4.6-1.9.9-1.3 1.5-3.8 1.4-5.8l-.1-2.2c-.1-1.9-.5-4.9-.9-6.8l-.5-2.3c-.1-.7 0-1.5.4-2 .4-.6 1.1-.9 1.8-1l1-.1c1.9-.1 4.5-.5 5.9-.9 1.3-.3 2.8-.7 3.3-.9.6-.2 2.1-1.1 3.1-1.9 1.2-.8 3.2-2.3 4.5-3.3 1.3-1 3.4-2.3 4.7-3 1.4-.7 3.4-2.4 4.4-3.8 1.1-1.4 1.8-3.6 1.6-4.9-.2-1.3-1.4-3.4-2.8-4.8l-1.2-1.2c-1.4-1.4-3.8-3.2-5.5-4.1l-1.8-1c-1.7-.9-4.5-2.1-6.4-2.6l-1.9-.5c-1.8-.5-4.2-1.3-5.3-1.8-1.1-.5-2.5-1.4-3.1-2-.7-.7-2.5-2.1-4.1-3.1l-1.6-1c-1.5-1-3.8-2.9-5.1-4.2l-1.2-1.2c-1.4-1.4-3.9-2.8-5.7-3.1-1.6-.3-3.5-.8-4.1-1.2-.6-.3-1.1-.9-1.2-1.2-.2-.5-.9-2.3-1.7-4l-.2-.4c-.8-1.7-1.6-4.1-2-5.4-.3-1.3-.6-3.4-.6-4.7 0-1.4-.4-3.7-.9-5.3-.5-1.5-1-3.6-1.2-4.7-.2-1.2-.4-3.3-.6-4.8-.2-1.5-.2-4.1 0-5.9.2-1.7 1.2-4 2.3-5.1 1.1-1.1 3-2.7 4.1-3.5 1.1-.8 3.5-1.7 5.2-2l.5-.1c1.8-.3 4.8-.7 6.6-.9 1.9-.2 4.7-1 6.2-1.9l5.4-3c1.5-.8 3.6-2.4 4.6-3.4 1-1 2.5-3.1 3.4-4.6.8-1.5 2.2-3.6 3-4.8.8-1.1 2.6-2.7 4-3.5 1.4-.8 4.1-1.6 5.9-1.7l1-.1c1.9-.2 4.7-.7 6.2-1.2s4-1.4 5.7-2.1c1.7-.7 3.9-2.1 5-3.1 1-1 2.6-2.9 3.7-4.3s1.8-3.8 1.6-5.5c-.2-1.6-1.5-4-2.8-5.4l-1.2-1.2c-1.3-1.3-3.6-3.4-5.1-4.6l-.7-.6c-1.4-1.1-3.4-3.3-4.4-4.8l-.7-.9zm-141.6 89.4c1.1-1.1 2.2-1.7 2.5-1.7.3.1 1.2.9 1.8 1.9.6.9 1.4 2.5 1.7 3.5.3 1 1.5 3.2 2.5 4.7l1 1.6c1.1 1.6 3.4 3.6 5.2 4.3l5.2 2.2 3.7 2.4c1.5 1 3.6 3 4.6 4.5l1 1.5c1 1.5 2.5 4.1 3.4 5.8l.6 1.1c.9 1.7 2.9 4 4.5 5.1l1.6 1c1.5 1 3.2 3.2 3.8 4.8l.6 1.5c.7 1.7 1.3 3.8 1.5 4.6.2.8.4 3 .5 4.8l.1 1c.1 1.9.4 4.9.7 6.8l.4 2.9c.2 1.7-.3 4.4-1 5.8-.8 1.5-2.2 3.6-3 4.8-.8 1.2-2.2 3.4-3 4.9-.8 1.5-2.1 4.1-2.7 5.8-.6 1.5-1.2 3.6-1.2 4.4 0 .6-.1 2.1-.3 3.2-.2 1.1-.7 3.5-1.2 5.4-.5 1.7-1.5 4.1-2.3 5.2-.8 1.1-2.4 3-3.6 4.1-1.2 1.2-2.6 3.2-3.1 4.4-.5 1.1-1.8 3.3-3 4.7-.7.9-1.6 2-2.4 3.1h1.3c.7-.9 1.4-1.8 2-2.6 1.2-1.5 2.5-3.7 3.1-4.9.5-1.1 1.8-2.9 2.9-4 1.2-1.2 2.8-3.1 3.7-4.3.9-1.2 2-3.7 2.5-5.6.5-1.8 1-4.3 1.2-5.4.2-1.2.3-2.7.3-3.4 0-.5.5-2.3 1.2-4 .7-1.6 1.9-4.2 2.7-5.6.8-1.5 2.2-3.6 3-4.8.8-1.2 2.2-3.3 3-4.9.9-1.6 1.4-4.4 1.1-6.4l-.4-2.9c-.2-1.9-.5-4.9-.7-6.7l-.1-1c-.1-1.9-.4-4.1-.6-4.9-.2-.8-.9-3-1.5-4.8l-.6-1.5c-.7-1.8-2.6-4.2-4.2-5.3l-1.6-1c-1.5-1-3.4-3.1-4.2-4.7l-.6-1.1c-.8-1.7-2.4-4.4-3.4-5.9l-1-1.5c-1.1-1.6-3.3-3.8-4.9-4.8l-3.7-2.4-5.3-2.3c-1.6-.7-3.8-2.5-4.8-4l-1-1.5c-1-1.5-2.1-3.6-2.4-4.5-.3-1-1.2-2.7-1.9-3.7-.6-.9-1.7-2.1-2.4-2.3-1-.3-2.7 1.1-3.5 1.9-.2.2-.5.5-.7.8-.1.6-.2 1.3-.2 1.9.5-.7 1.1-1.5 1.6-2m34.4 8.7c1 1.3 2.6 3.7 3.7 5.2l1 1.6c1 1.5 2.5 4.2 3.2 5.8l.2.4c.8 1.7 2.3 4.4 3.4 6l1.5 2.2c1.1 1.6 3 3.9 4.4 5.3l.6.6c1.2 1.2 2.5 3.7 2.8 5.5l.1.5c.3 1.8.7 4 .9 4.9l.9 4.5c.3 1.6.4 3.8.3 4.9-.2 1.2 0 3.3.3 4.7.3 1.3.4 3.8.3 5.5-.2 1.8-.7 4.7-1.2 6.5-.5 1.7-1.8 4.1-2.9 5.1-1.1 1.1-3 2.7-4.1 3.5-1.2.9-2.9 2.8-3.8 4.4-.9 1.6-1.6 4.2-1.6 6v4.2c0 .6-.1 2.6-.3 4.5-.2 1.7-1 4.4-1.7 5.8-.8 1.5-2.2 3.6-3 4.8-.8 1.1-2.4 3-3.6 4.1-1.1 1.1-2.5 2.8-3.4 4 .5-.1 1.1-.2 1.6-.3.8-1 1.8-2.1 2.6-2.9 1.2-1.2 2.8-3.1 3.7-4.3.8-1.2 2.2-3.3 3-4.9.9-1.5 1.7-4.3 1.9-6.2.2-1.8.3-3.9.3-4.5v-4.2c0-1.6.7-4 1.4-5.5.8-1.4 2.4-3.3 3.5-4 1.2-.8 3.1-2.5 4.3-3.7 1.2-1.2 2.6-3.7 3.1-5.7.5-1.8 1-4.8 1.2-6.7.2-1.9 0-4.5-.3-5.9-.3-1.2-.4-3.2-.3-4.3.2-1.2 0-3.6-.3-5.3l-.9-4.5c-.2-.8-.6-3-.9-4.8l-.1-.5c-.3-1.9-1.7-4.6-3.1-6l-.6-.6c-1.3-1.3-3.2-3.6-4.3-5.1l-1.5-2.2c-1.1-1.5-2.5-4.1-3.3-5.8l-.2-.4c-.8-1.7-2.3-4.4-3.3-6l-1-1.6c-1-1.5-2.7-3.9-3.7-5.2-1-1.4-1.9-2.8-2-3.2v-.1c.3-.3.4-.8.1-1.2l-2.9-4.4c-1-1.5-2.3-4.1-2.8-5.8l-.9-2.6c-.7-2-2.4-4.5-4.1-5.8l-.7-.6c-1.3-1-2.6-3.2-2.9-4.8l-.6-3.5c-.3-1.7-.2-4.2.3-5.5.4-1.3 1.8-3.1 2.9-4 1.2-.9 3.4-2.1 4.8-2.5 1.5-.5 4.1-1.3 6-1.8 1.8-.5 4.5-1.5 5.9-2.2 1.4-.7 3.8-1.8 5.5-2.6l.4-.2c1.6-.7 4.3-1.6 5.9-1.9 1.8-.4 4.2-1.4 5.5-2.3 1.2-.9 3.1-2.7 4.1-4.1 1-1.3 2.5-3.4 3.3-4.5.9-1.2 2.2-3.4 3.1-4.9.8-1.5 1.9-3.4 2.4-4.2.5-.8 1.1-2 1.3-2.6.2-.5.6-2 1-3.6-.7.1-1.5.2-2.2.3-.4 1.3-.7 2.3-.8 2.6-.1.4-.6 1.4-1.1 2.2-.5.8-1.6 2.7-2.4 4.2-.8 1.5-2.1 3.6-2.9 4.7-.8 1.2-2.3 3.2-3.3 4.5-.9 1.2-2.6 2.9-3.7 3.7-1 .7-3.2 1.6-4.7 1.9-1.7.3-4.6 1.3-6.3 2.1l-.4.2c-1.7.8-4.2 1.9-5.5 2.6-1.3.6-3.8 1.6-5.5 2-1.8.5-4.5 1.3-6 1.8-1.6.5-4 1.8-5.4 2.9-1.5 1.1-3.1 3.3-3.7 5-.6 1.6-.7 4.5-.4 6.6l.6 3.5c.4 2.1 1.9 4.8 3.6 6.1l.7.6c1.3 1 2.9 3.3 3.4 4.9l.9 2.6c.6 1.8 2 4.7 3.1 6.3l2.9 4.4c.2.2.4.4.7.4v.1c0 .5 1.1 2.1 2 3.3M285.8 724l-1.2-.3c-1.6-.4-3.8-1.8-4.9-3l-1.1-1.3c-1.1-1.4-2.6-3.9-3.2-5.5l-.6-1.5c-.8-2.1-3.1-4.1-5.3-4.5l-4.2-.9c-1.8-.4-4.8-1.1-6.6-1.5l-1.2-.3c-1.9-.4-3.8-1-4.3-1.3-.8-.4-3-1.1-4.7-1.6-1.6-.4-3.8-1.9-4.9-3.2l-1.1-1.3c-1.3-1.6-3.9-3.3-5.9-3.9l-1.9-.5c-1.6-.4-3.5-1.7-4.2-2.6-.8-1.2-2.1-2.7-2.8-3.4-.4-.4-1.1-2.1-1.3-4l-.4-2.9c-.2-1.9-.9-4.9-1.4-6.8l-1.1-3.7c-.4-1.5-.1-3.7.7-4.7.9-1.3 2.2-2.2 2.7-2.3.8-.2 2.2-.3 3.1-.3 1.1 0 3.4-.4 5.4-.9 1.8-.5 4.5-1.3 6-1.8s4-1.6 5.6-2.5c1.5-.8 3.9-2.4 5.2-3.4 1.3-1 3.3-2.5 4.5-3.3 1.3-.9 3-2.9 3.9-4.5.8-1.5 2.1-3.6 2.9-4.7.7-1 2.6-2.4 4-2.9 1.5-.6 4.3-1.3 6.1-1.4l1-.1c1.8-.1 4.7 0 6.5.2l1.7.2c1.5.2 4.1.3 5.2-.2.7-.3 1.9-1 2.8-1.5 1-.6 2.1-1.7 2.5-2.5l1.2-2.4c.3-.5 1.3-2.1 2.3-3.4 1-1.3 2.5-3.4 3.3-4.5.9-1.3 1.9-3.9 2.2-5.9l.1-.5c0-.1.6-3.6.2-4.7-.3-.8-1.8-2.9-2.6-3.9l-.6-.7c-1.2-1.5-3.3-3.8-4.6-5.1l-1.2-1.2c-1.4-1.4-3.8-3.3-5.4-4.4l-1.6-1c-1.4-.9-3.2-3-4-4.5l-.6-1.1c-.2-.4-.4-.9-.7-1.3-.9-.2-1.7-.3-2.6-.4.5 1 1 1.9 1.4 2.7l.6 1.1c.9 1.8 3 4.2 4.7 5.3l1.6 1c1.5 1 3.8 2.9 5.1 4.1l1.2 1.2c1.3 1.3 3.3 3.5 4.4 5l.6.7c1.2 1.5 2.1 2.9 2.2 3.2.1.3 0 1.8-.3 3.8l-.1.5c-.3 1.7-1.1 4-1.9 5-.8 1.2-2.3 3.2-3.3 4.5-1 1.4-2.1 3-2.5 3.8l-1.2 2.4c-.2.4-1 1.3-1.7 1.7-.8.5-2 1.2-2.6 1.5-.3.2-2 .3-4 0l-1.7-.2c-1.9-.3-5.1-.4-7-.2l-1 .1c-2 .2-5 .8-6.7 1.5-1.8.7-4 2.3-5 3.7-.8 1.2-2.2 3.4-3.1 4.9-.8 1.4-2.3 3.1-3.3 3.9-1.2.8-3.2 2.3-4.5 3.3-1.3 1-3.5 2.4-5 3.2-1.4.8-3.8 1.9-5.2 2.3-1.5.5-4.1 1.3-6 1.8-1.9.5-4 .9-4.8.9-1.1 0-2.6.1-3.5.3-1.2.2-2.9 1.7-3.9 3.1-1.2 1.6-1.6 4.5-1 6.6l1.1 3.7c.5 1.8 1.1 4.7 1.3 6.5l.4 2.9c.2 1.8 1 4.2 1.9 5.2.6.6 1.8 2.1 2.6 3.2 1 1.3 3.3 2.8 5.3 3.4l1.9.5c1.6.5 3.8 1.9 4.9 3.2l1.1 1.3c1.3 1.6 3.9 3.3 6 3.9 1.9.5 3.8 1.2 4.3 1.4.8.4 3.1 1.1 4.7 1.4l1.2.3c1.8.4 4.8 1.1 6.6 1.5l4.2.9c1.5.3 3.2 1.9 3.8 3.3l.6 1.5c.7 1.8 2.3 4.6 3.5 6.1l1.1 1.3c1.3 1.6 4 3.3 6 3.7l1.2.3c1.5.3 3.8.9 5.5 1.4.3-.6.5-1.3.7-1.9-1.3-1.1-3.7-1.7-5.3-2.1m2.6-4.1c-1.6-.3-4-1.5-5.4-2.6l-1.3-1.1c-1.4-1.1-3.1-3.5-3.7-5.1l-.6-1.5c-.7-1.8-2.6-4.2-4.2-5.3l-1.6-1c-1.7-1.1-3.8-2-4.9-2-1 0-3.3-.1-5.1-.3-1.8-.2-4-.4-4.7-.6-.8-.2-2.9-.7-4.8-1.2-1.7-.5-4.2-1.9-5.4-3.2l-1.2-1.2c-1.4-1.4-3.4-2.9-4.7-3.4-1.2-.5-2.9-1.2-3.9-1.5-.9-.3-2.7-1.6-4-2.9l-1.2-1.2c-1.3-1.3-2.4-3-2.6-3.6-.2-.9-.7-2.8-1.2-4.3s-1.2-3.8-1.5-5.1c-.3-1.2.1-3.4.9-4.7.7-1.3 2.8-2.6 4.4-2.7 1.8-.2 4-.4 4.9-.6.9-.2 2.4-.6 3.4-.9l4.5-1.5c1.5-.5 3.9-1.8 5.2-2.8l4.8-3.6c1.3-1 3.3-2.5 4.5-3.3 1.2-.9 2.9-2.8 3.8-4.4.8-1.5 2.3-3.4 3.2-4.4.9-.9 3.1-2.3 4.6-2.9 1.6-.6 4.3-.9 6.1-.6l3.5.6c1.9.3 4.9.6 6.8.6h.4c2 0 4.6-1 5.9-2.3 1.2-1.2 2.7-3.3 3.4-4.6.6-1.3 2-3.4 3-4.7.9-1.2 2.8-2.8 4-3.5 1.3-.7 3.5-2 4.9-3 1.5-1.1 2.5-3.6 2.3-5.6-.2-1.9-1.2-4.7-2.3-6.4l-1-1.6c-1-1.6-2.8-4-4-5.5l-.6-.7c-1.2-1.5-3.4-3.7-4.8-4.9l-1.3-1.1c-1.4-1.2-3.4-3.3-4.3-4.9l-.6-.9c-.2-.3-.4-.7-.7-1.1l-1.5-.6c.4.8.9 1.6 1.3 2.2l.6.9c1 1.6 3.1 3.9 4.6 5.1l1.3 1.1c1.4 1.2 3.5 3.3 4.7 4.7l.6.7c1.2 1.5 3 3.9 4 5.4l1 1.5c1 1.5 1.9 4.2 2.1 5.9.1 1.6-.7 3.8-1.9 4.6-1.3 1-3.4 2.3-4.7 3-1.4.7-3.4 2.4-4.4 3.8-1 1.3-2.4 3.5-3.1 4.9-.6 1.3-2.1 3.2-3.2 4.4-1.1 1.1-3.4 2-5.1 2h-.4c-1.9 0-4.8-.3-6.6-.6l-3.5-.6c-1.9-.3-4.9 0-6.6.6-1.7.7-3.9 2.1-5 3.1-1 1-2.5 3.1-3.4 4.6-.8 1.4-2.4 3.3-3.5 4-1.2.8-3.2 2.3-4.5 3.3l-4.8 3.6c-1.3.9-3.5 2.2-5 2.6l-4.5 1.5c-1 .3-2.4.7-3.2.9-.8.2-2.9.4-4.7.6-2 .2-4.3 1.6-5.2 3.3-.9 1.6-1.3 4-1 5.5.3 1.3 1 3.6 1.5 5.1.5 1.4 1 3.3 1.2 4.1.2 1 1.6 2.9 2.8 4.2l1.2 1.2c1.4 1.4 3.3 2.8 4.4 3.1 1 .3 2.7 1 3.9 1.5 1.1.5 3.1 1.9 4.3 3.2l1.2 1.2c1.4 1.4 4 2.9 6 3.4 1.8.5 4 1 4.8 1.2.8.2 3 .4 4.9.6 1.8.2 4.1.3 5.1.3.8 0 2.7.7 4.3 1.8l1.6 1c1.5 1 3.2 3.2 3.8 4.8l.6 1.5c.7 1.8 2.5 4.3 4 5.5l1.3 1.1c1.5 1.2 4.1 2.5 5.9 2.9 1.4.3 3.5.2 5-.1.1-.4.2-.8.3-1.1-1.6.8-3.9.9-5.4.6M136.5 617.2c-1.2 1.2-2.6 3.5-3.1 5s-1.3 4.2-1.8 6.1c-.5 1.7-1.1 3.8-1.5 4.4-.3.7-.9 2.1-1.2 3.1-.3 1-1.1 2.8-1.8 4.1-.5.9-1.3 2.2-2.2 3.2.1.4.1.9.2 1.3 1.1-1.2 2.3-2.9 2.9-4.1.7-1.4 1.5-3.3 1.8-4.3.3-1 .9-2.3 1.2-2.9.3-.7 1-2.7 1.5-4.6.5-1.8 1.3-4.5 1.8-5.9.5-1.4 1.8-3.5 2.9-4.6l3.9-3.9c1-1 2.4-3 3.1-4.3.1-.2.2-.4.4-.7l-1.5.6c-.7 1.2-1.8 2.8-2.7 3.6l-3.9 3.9zm7.5-.3c-1 1-2.6 3.2-3.6 4.8l-1.9 3.1c-.1.2-.1.5.2.7l1.8 1.2c1 .7 3 1.5 4.4 1.9 1.5.4 3.3.2 4.3-.4.8-.5 2.7-1.3 4.1-1.8 1.5-.5 4.2-1.1 6-1.4l7.7-1.3c1.9-.3 4.5-1.1 5.9-1.8 1.4-.7 3.4-2.2 4.6-3.4.5-.5 1.1-1.2 1.6-1.8-.2-.2-.4-.4-.5-.6l-.2-.2c-.5.7-1.1 1.4-1.6 1.9-1.1 1.1-3.1 2.6-4.4 3.2-1.3.6-3.8 1.4-5.6 1.7L159 624c-1.9.3-4.6 1-6.1 1.5s-3.4 1.3-4.3 1.8c-.7.4-2.3.5-3.5.2-1.3-.3-3.1-1.1-4-1.7l-1.4-.9 1.6-2.7c.9-1.5 2.5-3.7 3.5-4.6 1-1 2.5-3.1 3.4-4.6l3-5.4c.1-.1.1-.3.2-.4-.4.1-.9.1-1.3.2l-2.8 5.1c-.9 1.4-2.4 3.4-3.3 4.4m11-7.8c.2-.5.9-1.4 1.7-2.2h-1.4c-.6.7-1 1.3-1.3 1.8-.5 1 .6 2.9 1.9 4.2l3.6 3.6c.1.1.3.2.5.1l1.5-.3c.9-.2 2.6-1 3.8-1.9.2-.2.5-.4.8-.7 1.1-1.1 2.2-2.7 2.7-4.1v-.1c-.3-.1-.6-.3-.9-.4 0 0 0 .1-.1.1-.6 1.5-2.1 3.5-3.1 4.3-1.1.8-2.6 1.6-3.4 1.7l-1.2.2-3.4-3.4c-1.3-1.2-1.9-2.6-1.7-2.9m42 111.5c.8 1.7 1.5 3.5 1.7 3.9.1.3-.1 1.5-.6 2.6-.5 1.2-1.2 3.7-1.5 5.6l-.1.5c-.3 1.9-.6 3.9-.6 4.6 0 .7.3 2.6.6 4.3.3 1.6.6 4 .6 5.3 0 1.4.3 3.6.6 4.9.3 1.2.2 3.7-.3 5.5-.5 1.7-1.3 3.9-1.7 4.6-.5.8-1.9 2.5-3.2 3.8l-.6.6c-1.3 1.3-3.4 2.9-4.7 3.5-1.5.7-2.9 2.2-3.3 3.3-.3 1-.7 2.5-.9 3.4-.2.9-.1 3.1.2 5l.1.5c.3 2 .5 3.9.5 4.5 0 .5-.5 2-1.1 3.4-.6 1.3-1.9 3.6-2.7 5.1-.8 1.5-2 3.8-2.7 5.1-.1.2-.3.5-.4.8.5-.2 1.1-.5 1.6-.7.7-1.4 1.7-3.3 2.5-4.6.8-1.5 2.1-3.8 2.7-5.1.6-1.2 1.3-3 1.3-3.8 0-.7-.3-2.8-.6-4.6l-.1-.5c-.3-1.9-.4-4-.3-4.7.2-.8.6-2.3.9-3.2.3-.9 1.5-2.1 2.7-2.7 1.4-.7 3.6-2.3 4.9-3.7l.6-.6c1.3-1.3 2.9-3.1 3.4-4 .5-.9 1.3-3.1 1.9-5 .5-1.9.6-4.5.3-5.9-.3-1.3-.6-3.4-.6-4.7 0-1.3-.3-3.8-.6-5.5-.3-1.6-.6-3.5-.6-4.1 0-.6.3-2.7.6-4.5l.1-.5c.3-1.8 1-4.2 1.4-5.3.5-1.1.9-2.7.6-3.4-.2-.5-.9-2.3-1.7-4l-.2-.4c-.8-1.8-2.8-4.1-4.5-5.1l-.9-.6c-1.6-1-3.9-2.9-5.2-4.2l-1.2-1.2c-1.3-1.3-3.2-3.6-4.1-5.2l-.6-.9c-1-1.6-2.4-4.2-3.1-5.9l-.9-2.2c-.7-1.7-2.2-4.5-3.2-6.1l-2.4-3.7-2.9-4.4c-1.1-1.6-2-3.5-2.1-4.1-.2-.8-.3-3-.3-4.8v-1.6c0-1.9-.7-4.9-1.6-6.7l-.6-1.1c-.8-1.7-1.1-3.7-.9-4.4.3-.8 1.1-1.6 1.7-1.8.9-.2 2.1-.6 2.8-.9.7-.3 2.6-1.1 4.2-1.8 1.7-.7 4.2-1.6 5.7-2.1 1.4-.5 3.3-1 4.1-1.2.8-.2 2.4-.6 3.4-.9 1-.3 3.1-1.3 4.6-2.1 1.5-.8 3.6-2.4 4.6-3.4l3.9-3.9c1.2-1.2 2.8-3.1 3.7-4.3.8-1.2 2.1-3.5 2.8-5.2.7-1.6 1.6-4.2 2.1-5.7s1.5-3.8 2.4-5.3l2.6-4.6h-1.2l-2.3 4.1c-.8 1.5-1.9 4-2.4 5.5s-1.4 4.1-2.1 5.7c-.6 1.6-1.8 3.9-2.6 5s-2.4 3-3.5 4.1l-3.9 3.9c-.9.9-3 2.4-4.4 3.2-1.4.8-3.5 1.7-4.4 2.1-1 .3-2.4.7-3.2.9-.9.2-2.8.7-4.3 1.2s-4 1.4-5.7 2.1c-1.6.7-3.6 1.5-4.2 1.8-.6.3-1.8.7-2.6.9-1 .2-2.1 1.3-2.5 2.4-.4 1.1 0 3.4.9 5.2l.6 1.1c.8 1.6 1.5 4.4 1.5 6.2v1.6c0 1.9.1 4.1.3 5 .2 1 1.3 3.1 2.3 4.5l2.9 4.4 2.4 3.7c1 1.6 2.4 4.2 3.1 5.9l.9 2.2c.7 1.7 2.2 4.5 3.2 6.1l.6.9c1 1.6 3 4 4.3 5.4l1.2 1.2c1.3 1.3 3.7 3.3 5.4 4.3l.9.6c1.5.9 3.3 3.1 4.1 4.7l-.1.2zm123.6-93.7-1.2-3.7c-.5-1.4-.3-3.2.4-4.2-.1-.4-.3-.7-.5-1.1-1.1 1.1-1.5 3.6-.9 5.5l1.3 4c.1.2.2.3.4.3l2.5.5c-.1-.4-.2-.7-.2-1.1l-1.8-.2zm-131.1 67.6c-.8-1.6-2.1-4.4-2.9-6.1l-.2-.4c-.8-1.7-1.5-3.5-1.7-3.9-.2-.6-1.1-2.5-1.8-4l-2-4.1-.3-2c-.2-1.2-.7-3.4-1.2-4.9-.5-1.5-.7-3.3-.6-3.9.1-.6 1.2-2 2.5-3 1.4-1 2.8-1.9 3.2-2l2.7-.9c1-.3 3.2-1 5.1-1.5 1.8-.5 4.6-1.6 6.1-2.4 1.5-.8 3.6-2.4 4.6-3.4 1-1 2.5-3.1 3.4-4.6.8-1.4 2.3-3.4 3.2-4.4 1-1 2.5-3.1 3.4-4.6.8-1.5 1.9-4 2.4-5.5.5-1.4 1.8-3.5 2.9-4.6 1.1-1.1 3.4-2.1 5.2-2.2l1-.1c1.9-.2 3.8 0 4.3.3l1.2.6h.3l2.4-.6c1.4-.3 3.5-1.6 4.7-2.8 1.2-1.2 2.7-3.3 3.4-4.6.7-1.3 1.4-2.9 1.5-3.4l.3-.9V614.3l-2.3-5.3c-.8-1.8-2.4-4.4-3.6-5.9l-.2-.2c-.2.2-.5.5-.7.8l.1.1c1.2 1.4 2.7 3.9 3.4 5.6l2.2 5.1-.2.7c-.2.5-.8 2-1.5 3.2-.6 1.3-2.1 3.2-3.2 4.4-1.1 1.1-3 2.3-4.3 2.6l-2.2.6-1-.5c-.9-.4-3.1-.5-4.9-.4l-1 .1c-2 .2-4.6 1.3-5.8 2.5-1.2 1.2-2.6 3.5-3.1 5s-1.6 3.9-2.4 5.3c-.8 1.4-2.3 3.4-3.2 4.4-1 1-2.5 3.1-3.4 4.6-.8 1.4-2.3 3.4-3.2 4.4-.9.9-3 2.4-4.4 3.2-1.5.8-4.1 1.9-5.9 2.4-1.8.5-4.1 1.2-5.1 1.5l-2.7.5c-.6.2-2.2 1.3-3.4 2.2-1.3.9-2.7 2.6-2.9 3.6-.2.9.1 2.9.6 4.5.5 1.5 1 3.6 1.2 4.7l.3 2.1v.2l2.1 4.2c.8 1.6 1.6 3.4 1.8 3.9.2.5.9 2.3 1.7 4l.2.4c.8 1.7 2.1 4.5 2.9 6.1l.6 1.1c.9 1.7 2.9 4 4.5 5.1l1.6 1c1.5 1 4 2.8 5.4 4l.7.6c1.4 1.1 3.1 3.4 3.7 5.1l.6 1.5c.7 1.8 1.8 4.6 2.6 6.3l.9 2.2c.8 1.8 1.3 3.6 1.3 4.1 0 .5-.5 2.3-1.2 4-.7 1.7-1.7 4.1-2.4 5.4-.7 1.4-1.4 3.5-1.6 4.7-.2 1.2.1 3.5.6 5l1.5 4.5c.3 1 1.1 3.2 1.8 5l.6 1.5c.6 1.6.5 4.1-.3 5.4-.8 1.5-2.4 3.6-3.5 4.7l-7.8 7.8c-1.3 1.3-1.9 3.9-1.5 5.9l.3 1.2c.2 1 .6 2.1 1 3 .2-.3.5-.7.7-1-.3-.7-.5-1.5-.7-2.2l-.3-1.2c-.4-1.6.2-3.9 1.2-4.9l7.8-7.8c1.2-1.2 2.8-3.4 3.7-4.9.9-1.6 1-4.4.3-6.3l-.6-1.5c-.7-1.7-1.5-4-1.8-4.9l-1.5-4.5c-.5-1.4-.7-3.5-.6-4.6.2-1.1.8-3.1 1.5-4.3.7-1.3 1.7-3.8 2.4-5.4.6-1.5 1.2-3.6 1.2-4.4 0-.8-.7-3-1.4-4.5l-.9-2.2c-.7-1.7-1.9-4.5-2.5-6.3l-.6-1.5c-.7-1.8-2.5-4.3-4-5.5l-.7-.6c-1.5-1.2-3.9-3-5.5-4l-1.6-1c-1.5-1-3.4-3.1-4.2-4.7l-.3-1.3zm7.9-24.7c1.3-.9 3.5-2.2 5-2.6 1.6-.5 3.8-1.9 5-3.1 1.2-1.2 2.8-3.1 3.7-4.3.8-1.2 2.2-3.3 3-4.9.8-1.5 2.4-3.6 3.5-4.7s3.1-2.6 4.4-3.2c1.2-.6 3.8-1.1 5.6-1.1h.4c1.9 0 4.1-.1 5-.3.9-.2 2.4-.6 3.4-.9 1-.3 3-1.5 4.3-2.5 1.3-1 3.2-2.6 4.3-3.7l7.8-7.8c1-1 2.9-2.6 4.1-3.6 1.3-1 3.7-2.3 5.3-2.9 1.7-.7 4.2-1.6 5.7-2.1 1.4-.5 3.1-1.5 3.6-2.4.3-.7.9-2.1 1.2-3.1.4-1.1.2-3.5-.3-5.4-.5-1.9-1.9-4.6-3.1-6.1l-1.1-1.3c-1.3-1.6-2.2-3-2.4-3.4-.2-.5-.8-2.3-1.5-3.9l-1.2-3-1.6-4.8c-.3.1-.7.1-1 .2l1.6 4.9 1.2 3c.6 1.6 1.3 3.4 1.5 3.9.2.6 1.5 2.4 2.5 3.7l1.1 1.3c1.1 1.4 2.5 4 3 5.8.5 1.9.6 4 .3 4.8-.3 1-.9 2.3-1.2 2.9-.2.5-1.6 1.4-3 1.8-1.5.5-4 1.4-5.7 2.1-1.7.7-4.2 2.1-5.5 3.1-1.3 1-3.2 2.6-4.3 3.7l-7.8 7.8c-1 1-2.8 2.6-4.1 3.6-1.3.9-3.1 2-4.1 2.3-1 .3-2.4.7-3.2.9-.8.2-3 .3-4.8.3h-.4c-1.9 0-4.6.6-6 1.3-1.4.7-3.4 2.2-4.6 3.4-1.2 1.2-2.8 3.4-3.7 4.9-.8 1.5-2.2 3.6-3 4.8-.8 1.1-2.4 3-3.5 4.1-1.1 1.1-3.2 2.4-4.6 2.9-1.5.5-3.9 1.8-5.3 2.8-1 .8-2.6 2.2-2.9 3-.4 1.2 2.4 3.2 2.7 3.4l1.6 1c1.6 1 4.2 2.6 5.9 3.4l1.1.6c1.6.8 3.5 2.8 4.2 4.4l.2.4c.8 1.7 1.5 3.5 1.7 3.9.1.4.6 2.2.9 4.2l.5 2.3c.4 1.9 1.2 4.8 1.8 6.6l.9 2.6c.6 1.9 2.5 4.3 4.1 5.3l.9.6c1.6 1 4.2 2.6 5.9 3.4l1.8 1c1.6.9 4.1 2.5 5.5 3.7l1.3 1.1c1.4 1.2 3.8 3.1 5.3 4.3l.7.6c1.4 1.2 3.7 3.2 5 4.5l1.2 1.2c1.4 1.4 2.2 2.8 2.2 3.2 0 .5-.6 1.8-1.4 3-.7 1-2.2 2-3.3 2.2-1.1.2-2.9.3-3.8.3-1 0-3.2-.2-5.1-.5l-.5-.1c-1.7-.3-3.8-.5-4.5-.2-.6.2-2.1 1.1-3.1 1.9-1.1.8-2.3 2.2-2.3 3.1 0 .8.7 3 1.4 4.5l.9 2.2c.7 1.7 1.9 4 2.6 5 .7 1 1.8 2.4 2.5 3.1.5.5 1.3 2.4 1.5 4.3l.2 1.7c.2 1.7-.4 4-1.5 5-1.2 1.2-2.8 3.1-3.7 4.3-.9 1.2-1.9 2.8-2.4 3.6-.2.4-.3.8-.2 1.4.3 0 .7-.1 1-.2 0-.3 0-.5.1-.7.5-.8 1.5-2.4 2.4-3.6.8-1.1 2.4-3 3.5-4.1 1.3-1.3 2.1-3.9 1.8-5.9l-.2-1.7c-.2-1.7-1-4-1.8-4.9-.6-.6-1.7-2-2.3-2.9-.6-1-1.8-3.1-2.5-4.8l-.9-2.2c-.8-1.8-1.3-3.6-1.3-4.1 0-.4.7-1.5 1.9-2.3 1.2-.9 2.5-1.6 2.9-1.7.3-.1 2-.1 4 .3l.5.1c1.9.3 4.2.6 5.2.6s2.8-.1 4-.3c1.3-.2 3-1.3 4-2.6.8-1.1 1.6-2.7 1.6-3.6 0-.9-1.3-2.7-2.5-4l-1.2-1.2c-1.3-1.3-3.6-3.4-5.1-4.6l-.7-.6c-1.5-1.2-3.8-3.1-5.3-4.3l-1.3-1.1c-1.5-1.2-4-2.9-5.7-3.8l-1.8-1c-1.6-.9-4.3-2.4-5.8-3.4l-.9-.6c-1.5-.9-3.2-3.1-3.7-4.8l-.9-2.6c-.6-1.8-1.4-4.7-1.7-6.5l-.5-2.3c-.4-1.9-.8-3.8-1-4.3-.2-.5-.9-2.3-1.7-4l-.2-.4c-.8-1.8-2.9-4-4.7-4.9l-1.1-.6c-1.7-.8-4.3-2.3-5.8-3.4l-1.6-1c-1.5-1-2.3-2-2.3-2.2-.1-.3.9-1.4 2.3-2.5m97.3 43.5c-1.8 0-4.7-.5-6.5-1l-2.6-.9c-1.6-.5-3.8-2.3-4.8-3.7l-.6-.9c-1-1.6-2.8-4.1-4-5.5l-1.1-1.3c-1.2-1.5-3.7-3.1-5.4-3.4l-4.5-.9c-.9-.2-2.7-.3-4-.3-1.3 0-3.8-.1-5.7-.3-1.7-.2-4.3-1.2-5.6-2.3l-1.3-1.1c-1.5-1.2-3.2-2.5-3.9-2.8-.6-.3-2.1-1.3-3.2-2.1-1.2-.8-3.4-2.4-4.9-3.4l-1.6-1c-1.5-1-3.2-3.1-3.8-4.6-.7-1.7-1.2-3.5-1.2-4s.4-1.9.9-3.1c.5-1.1 1.3-1.8 1.6-1.8h3.6c1.4 0 3.9-.6 5.6-1.2 1.7-.7 4.4-2 6-3l.2-.1c1.6-1 3.8-2.3 4.7-3 1-.7 3-1.9 4.5-2.7 1.5-.8 3.6-2.4 4.6-3.4 1-1 2.5-3.1 3.4-4.6.8-1.4 2.4-3.3 3.5-4 1.1-.8 3.5-1.7 5.2-2l.5-.1c2-.3 4-.4 4.7-.3.8.2 3 .5 4.9.9l.5.1c1.9.3 3.9.6 4.6.6h3.6c1.5 0 3.4-1.3 4.4-3 .8-1.5 2.1-3.8 2.7-5.1.6-1.3 2.2-3.4 3.5-4.7 1.2-1.2 3.6-2 5.3-1.7l.5.1c1.8.3 4 .7 4.8.8.8.2 2.9.8 4.7 1.4l2.6.9c.7.2 1.5.4 2.4.6 0-.4 0-.7-.1-1.1-.8-.1-1.5-.3-2-.5l-2.6-.8c-1.8-.6-3.9-1.2-4.8-1.4-.8-.2-3-.5-4.9-.9l-.5-.1c-2-.3-4.8.6-6.2 2-1.4 1.4-3 3.6-3.7 4.9-.7 1.3-1.9 3.6-2.7 5.1-.7 1.3-2.3 2.4-3.5 2.4h-3.6c-.6 0-2.5-.2-4.5-.5l-.5-.1c-1.9-.3-4-.7-4.8-.8-1-.2-3.3 0-5 .3l-.5.1c-1.9.3-4.5 1.3-5.7 2.2-1.2.9-2.9 2.8-3.8 4.4-.8 1.4-2.3 3.4-3.2 4.4-1 1-3 2.4-4.4 3.2-1.5.8-3.5 2-4.5 2.7-1 .6-3.1 2-4.7 2.9l-.2.1c-1.6 1-4.2 2.3-5.8 2.9-1.6.6-4 1.2-5.2 1.2h-3.6c-1 0-2.1 1.2-2.6 2.4s-.9 2.8-.9 3.5c0 .8.6 2.9 1.2 4.4.7 1.7 2.6 4 4.2 5.1l1.6 1c1.5 1 3.7 2.5 4.9 3.4 1.2.8 2.7 1.8 3.4 2.1.6.3 2.2 1.4 3.7 2.7l1.3 1.1c1.5 1.2 4.3 2.4 6.2 2.6 1.9.2 4.4.3 5.7.3 1.3 0 3 .1 3.8.3l4.5.9c1.5.3 3.7 1.7 4.9 3l1.1 1.3c1.2 1.4 2.9 3.9 3.9 5.4l.6.9c1.1 1.7 3.4 3.5 5.3 4.1l2.6.9c1.8.6 4.9 1.1 6.8 1.1h.2c.1-.3.1-.7.2-1l-.4-.2zm-65.6 12.1c1 1.5 1.3 3.2 1.2 3.7-.2.6-1.2 1.7-2.1 2.1-1.1.5-2.5 1-2.9 1.2-.9.3-2.4 1.7-3.1 2.4-.7.7-2.1 2.2-2.4 3.1-.2.7-.5 2.5-.6 3.8-.2 1.6 0 4 .3 5.5.4 1.5 1.7 3.9 2.9 5.4l1.1 1.3c1.2 1.4 2.9 3.8 3.9 5.4l.6.9c.8 1.2.9 3.4.3 4.5-.8 1.4-2.2 3.4-3.1 4.3-.9.9-2.4 1.9-3.2 2.2-1 .3-2.4.9-3.1 1.3-.7.3-2.4 1.3-3.9 2.1-1.6.9-3.2 2.6-3.2 4.2 0 .1 0 .3.1.4h2.2c-.1-.2-.2-.4-.2-.5 0-.5.9-1.7 2.2-2.4 1.5-.8 3.2-1.8 3.9-2.1.6-.3 1.9-.8 2.9-1.1 1.1-.4 2.9-1.5 4-2.7 1.1-1 2.6-3.2 3.5-4.7 1-1.8.9-4.7-.4-6.6l-.6-.9c-1-1.6-2.8-4.1-4-5.6l-1.1-1.3c-1.1-1.3-2.2-3.4-2.5-4.6-.3-1.2-.4-3.4-.3-4.7.2-1.6.4-3.1.6-3.4.1-.3.8-1.3 1.9-2.3 1-1 2-1.8 2.3-1.9.5-.2 1.9-.7 3.1-1.2 1.4-.6 2.9-2 3.3-3.3.5-1.5-.4-4-1.4-5.5l-1-1.5c-1.1-1.7-3.4-3.8-5.2-4.8l-1.8-1c-1.5-.8-3.9-2.6-5.1-3.8l-.6-.6c-1.2-1.2-2.4-3.4-2.7-4.9-.3-1.7-.9-3.9-1.2-4.9-.3-1-1-3.3-1.5-5l-.5-1.9c-.5-1.9-1.9-4.7-2.9-6.4l-1-1.6c-1.2-1.8-3.3-3.5-4.9-3.9-1.4-.3-3.4-.8-4.6-.9-.8-.1-2.5-1.2-3.6-2.6l-1.1-1.3c-1.2-1.5-2.3-3.3-2.6-4.1-.2-.7-.2-2.8.3-4.5.4-1.5 1.8-3.1 2.9-3.5 1.5-.5 4.1-1.4 5.8-2.1 1.7-.7 4.2-2.1 5.6-3.1 1.4-1 3.2-2.9 4.1-4.1.8-1.2 2.2-3.4 3.1-4.9.8-1.4 2.2-3.4 3.1-4.3l3.9-3.9c1-1 3.1-2.3 4.4-2.8l3.6-1.2c.3-.1 1.8-.4 3.4-.6 1.5-.2 4.3-.7 6.2-1.2 2-.5 4.4-1.8 5.5-3l7.8-7.8c1-1 2.8-2.6 4.1-3.5 1.5-1.1 2.7-1.9 3-1.9.7-.2 2-1 3-1.6 1.1-.7 2.8-2.4 3.9-3.8 1.2-1.6 1.5-4.5.6-6.5l-.9-2.2c-.8-1.8-1.4-3.7-1.6-4.4-.2-1-1-2.9-1.6-4.2l-1.2-2.3-1.9-5.7c-.2-.5-.3-1.1-.5-1.8-.7.2-1.3.4-2 .7.2.6.4 1.2.5 1.8l1.9 5.8v.2l1.2 2.4c.7 1.4 1.3 3 1.4 3.6.2 1 1 3.2 1.7 4.8l.9 2.2c.6 1.4.4 3.5-.3 4.5-.9 1.2-2.5 2.8-3.3 3.4-1.1.7-2.1 1.3-2.5 1.4-.8.3-2.6 1.5-3.6 2.3-1.4 1-3.3 2.7-4.3 3.7l-7.8 7.8c-.9.9-3 2-4.7 2.4-1.8.5-4.4 1-5.8 1.2-1.4.2-3.2.4-3.8.6l-3.6 1.2c-1.6.5-3.9 2-5.2 3.3l-3.9 3.9c-1.1 1.1-2.6 3.2-3.5 4.7-.8 1.5-2.1 3.6-2.9 4.7-.8 1.1-2.4 2.8-3.7 3.7-1.3.9-3.6 2.3-5.2 2.9-1.7.7-4.2 1.6-5.6 2.1-1.8.6-3.7 2.8-4.3 4.9-.5 1.7-.7 4.3-.3 5.7.4 1.2 1.8 3.4 2.9 4.8l1.1 1.3c1.2 1.4 3.3 3.1 4.9 3.3 1.1.2 3.1.6 4.4.9 1 .2 2.7 1.5 3.7 3l1 1.6c1 1.5 2.2 4.1 2.7 5.8l.5 1.9c.5 1.8 1.2 4.1 1.5 5.1.3.9.8 3.1 1.2 4.7.4 1.9 1.8 4.5 3.3 5.9l.6.6c1.4 1.4 3.9 3.3 5.6 4.2l1.8 1c1.5.8 3.6 2.7 4.5 4.1l.5 1zm-78.8 79.8c1.2-1.2 2.9-3.2 3.9-4.6 1-1.3 2.4-3.5 3.1-4.9.7-1.3 2-3.4 3-4.7 1-1.3 2.5-3.7 3.3-5.2.9-1.5 1.8-4.2 2.2-5.9.3-1.6 1-4.2 1.5-5.6.5-1.5 1.4-4.1 2.1-5.7l2.4-6c.7-1.7 1.6-4.3 2.1-5.7.5-1.5 1.2-3.8 1.5-5.1.3-1.4.6-3 .6-3.7 0-.8-.4-3-.8-4.6l-.3-1.2c-.4-1.9-1-3.9-1.4-4.6-.3-.6-1-2.4-1.5-3.8-.5-1.6-2.2-3.8-3.7-5.1l-1.3-1.1c-1.4-1.2-3.5-3.3-4.7-4.7l-.6-.7c-1.2-1.5-3.2-3.7-4.6-5.1l-1.2-1.2c-1.4-1.4-3.6-2.8-5-3.1-1.3-.3-3.4-.7-4.6-.9l-2.1-.3h-1.8c-1.2 0-2.9 1.1-4 2.6-1 1.3-2.6 3.2-3.6 4.1-1 1-2.8 2.6-4.1 3.6-1.4 1-3.3 2.9-4.3 4.3-1 1.3-2.6 3.2-3.6 4.1-1 1-2.4 3-3.1 4.3l-1.2 2.3-.2.2c-.2.2-1.1 1.4-1.9 2.5-.8 1.1-2.4 3-3.6 4.1-1.2 1.2-2.6 3.5-3.1 5s-1 4.3-1.2 6.2l-.1 1c-.1 1.8-.7 4.8-1.2 6.6-.3 1-.6 2.4-.9 3.7.2.8.4 1.5.6 2.3.3-1.8.9-4.2 1.3-5.8.5-1.8 1-4.9 1.2-6.8l.1-1c.1-1.8.7-4.5 1.1-6 .5-1.4 1.8-3.5 2.9-4.6 1.2-1.2 2.8-3.1 3.7-4.3.9-1.2 1.6-2.2 1.7-2.3l.3-.3.1-.1 1.2-2.4c.6-1.3 2-3.1 2.9-4.1 1-1 2.6-2.9 3.7-4.3 1-1.3 2.8-3.1 4.1-4.1 1.3-1 3.3-2.7 4.3-3.7s2.6-2.9 3.7-4.3c1-1.3 2.5-2.2 3.2-2.2h1.8l2.1.3c1.1.2 3.1.6 4.4.9 1.2.3 3.3 1.6 4.6 2.9l1.2 1.2c1.3 1.3 3.3 3.6 4.5 5l.6.7c1.2 1.5 3.4 3.7 4.8 4.9l1.3 1.1c1.4 1.1 2.9 3.2 3.4 4.6.5 1.5 1.2 3.3 1.5 4 .3.6.9 2.5 1.3 4.4l.3 1.2c.4 1.9.7 3.8.7 4.4 0 .6-.3 2.2-.6 3.5-.3 1.3-1 3.6-1.5 5.1-.5 1.5-1.4 4-2.1 5.7l-2.4 6c-.7 1.6-1.6 4.2-2.1 5.7s-1.2 4.1-1.5 5.8c-.3 1.6-1.2 4.1-2 5.6s-2.3 3.7-3.3 5c-1 1.3-2.4 3.5-3.1 4.9-.6 1.3-2 3.4-3 4.7-1 1.3-2.7 3.3-3.9 4.4l-.9.9c.4.1.8.1 1.3.2.3 0 .4-.1.5-.2m-41.8-65.7c1.3-1 3.3-2.6 4.3-3.7 1-1 2.5-3.1 3.4-4.6.8-1.5 2-3.5 2.7-4.5.7-1 2.1-3 3.3-4.5 1.1-1.5 3-3.6 4.1-4.7 1.2-1.2 2.6-3.5 3.1-5 .1-.3.2-.7.3-1-.5.3-.9.6-1.4.9-.5 1.4-1.8 3.4-2.8 4.5-1.2 1.2-3.1 3.3-4.3 4.9-1.1 1.5-2.6 3.5-3.3 4.5-.7 1-1.9 3.1-2.7 4.5-.8 1.5-2.3 3.4-3.2 4.4-1 1-2.8 2.6-4.1 3.6-.2.7-.5 1.4-.7 2.1.5-.6.9-1.1 1.3-1.4m41.6 59.2c.3-.6 1-1.8 1.5-2.7.5-.8 1.5-2.6 2.1-3.9.6-1.3 2-3.4 3-4.7 1-1.3 2.4-3.5 3.1-4.9.7-1.3 1.6-3.9 2.1-5.8.5-1.8 1.2-4.7 1.5-6.3.3-1.6 1.2-4.1 2-5.6s1.8-3.9 2.2-5.2c.3-1.4.6-3 .6-3.7v-5c0-1.7-.1-3.8-.3-4.5-.2-.6-1.3-2.5-2.2-3.9l-.6-.9c-1-1.6-2.7-4.1-3.7-5.7l-1-1.6c-1-1.5-2.7-4.1-3.7-5.7l-.6-.9c-1.1-1.7-3.5-3.3-5.5-3.7l-3.5-.6c-2-.4-4.5.2-5.6 1.4-1 1-2.9 2.4-4.4 3.2-1.5.8-3.8 2.3-5.2 3.3-1.3 1-3.3 2.7-4.3 3.7s-2.5 3.1-3.4 4.6c-.8 1.5-2.3 3.7-3.3 5-1 1.3-2.4 3.5-3.1 4.9-.7 1.3-1.6 3.7-2.1 5.2s-1.2 4.2-1.7 6.1l-.3 1.2c-.4 1.8-1 4.6-1.4 6.3l-1.2 6c-.2 1.1-.5 2.3-.8 3.1.2.4.4.8.6 1.3.4-.8.9-2.6 1.2-4.2l1.2-6c.3-1.7 1-4.5 1.4-6.3l.3-1.2c.4-1.8 1.2-4.5 1.7-6s1.4-3.7 2.1-5c.7-1.3 2-3.4 3-4.7 1-1.3 2.5-3.7 3.3-5.2.8-1.5 2.3-3.4 3.2-4.4 1-1 2.8-2.6 4.1-3.6 1.3-1 3.6-2.5 5-3.3 1.5-.8 3.6-2.4 4.6-3.4.9-.9 3-1.4 4.7-1.1l3.5.6c1.7.3 3.9 1.8 4.8 3.2l.6.9c1 1.6 2.7 4.1 3.7 5.7l1 1.6c1 1.5 2.7 4.1 3.7 5.7l.6.9c1.1 1.7 1.9 3.2 2.1 3.7.1.4.3 2.2.3 4.1v5c0 .6-.3 2.2-.6 3.5-.3 1.3-1.3 3.5-2.1 5s-1.8 4.2-2.2 5.9c-.3 1.6-1 4.4-1.5 6.3-.5 1.8-1.4 4.3-2.1 5.6-.6 1.3-2 3.4-3 4.7-1 1.4-2.4 3.6-3.1 4.9-.7 1.3-1.6 3.1-2.1 3.9-.5.9-1.2 2.1-1.5 2.7-.3.5-1.4 1.9-2.6 3.2-.9.9-2.1 2-3.2 2.8.4.1.8.2 1.3.3.9-.8 1.9-1.7 2.7-2.4 1.5-1.1 2.7-2.6 3.1-3.4m-17.9-96.8v.4c0-.4-.1-.8-.1-1.2 0 .3.1.6.1.8"
   style="opacity:.3;fill:#fff;enable-background:new" />
  </g>
</svg>
