<?xml version="1.0" encoding="UTF-8"?>
<svg width="703px" height="133px" viewBox="0 0 703 133" version="1.1" xmlns="http://www.w3.org/2000/svg" xmlns:xlink="http://www.w3.org/1999/xlink">
    <title>FrOSCon-Logo-rgb-dark-blue</title>
    <g id="Assets" stroke="none" stroke-width="1" fill="none" fill-rule="evenodd">
        <g id="Logo-dark-blue" transform="translate(-152.000000, -127.000000)" fill="#1F1FA3" fill-rule="nonzero">
            <g id="FrOSCon-Logo-rgb-dark-blue" transform="translate(152.667295, 127.000000)">
                <path d="M0,125.008922 L0,38.7851534 L0,38.7851534 C0,31.7962357 1.68592314,25.4816872 5.05776941,19.841508 C8.42961568,14.2013288 12.9662816,9.69531601 18.6677671,6.32346974 C24.3692526,2.95162347 30.6531479,1.26570033 37.5194531,1.26570033 L79.0509316,1.26570033 C81.8123554,1.26570033 84.0509316,3.50427658 84.0509316,6.26570033 L84.0509316,19.4394802 C84.0509316,22.2009039 81.8123554,24.4394802 79.0509316,24.4394802 L40.4621553,24.4394802 L40.4621553,24.4394802 C36.5385523,24.4394802 33.1973592,25.849525 30.4385759,28.6696146 C27.6797926,31.4897042 26.3004009,34.8615505 26.3004009,38.7851534 L26.3004009,54.5679877 C26.3004009,57.3294114 28.5389772,59.5679877 31.3004009,59.5679877 L72.7976894,59.5679877 C75.5591132,59.5679877 77.7976894,61.8065639 77.7976894,64.5679877 L77.7976894,77.7417675 C77.7976894,80.5031913 75.5591132,82.7417675 72.7976894,82.7417675 L31.3004009,82.7417675 C28.5389772,82.7417675 26.3004009,84.9803438 26.3004009,87.7417675 L26.3004009,125.008922 C26.3004009,127.770345 24.0618247,130.008922 21.3004009,130.008922 L5,130.008922 C2.23857625,130.008922 -5.50001544e-16,127.770345 0,125.008922 Z" id="Path"></path>
                <path d="M92.0428709,125.008922 L92.0428709,62.8785277 L92.0428709,62.8785277 C92.0428709,54.5408714 94.4031632,48.0117509 99.123748,43.2911661 C103.844333,38.5705814 110.373453,36.210289 118.71111,36.210289 L139.643673,36.210289 C142.405096,36.210289 144.643673,38.4488652 144.643673,41.210289 L144.643673,52.7287988 C144.643673,55.4902226 142.405096,57.7287988 139.643673,57.7287988 L123.125163,57.7287988 L123.125163,57.7287988 C121.531199,57.7287988 120.151808,58.2805555 118.986988,59.3840688 C117.822168,60.4875821 117.239758,61.8976269 117.239758,63.6142032 L117.239758,125.008922 C117.239758,127.770345 115.001182,130.008922 112.239758,130.008922 L97.0428709,130.008922 C94.2814471,130.008922 92.0428709,127.770345 92.0428709,125.008922 Z" id="Path"></path>
                <path d="M298.504438,124.995539 L298.504438,111.821759 C298.504438,109.060336 300.743014,106.821759 303.504438,106.821759 L353.680104,106.821759 L353.680104,106.821759 C356.377581,106.821759 358.829833,106.14739 361.03686,104.798652 C363.243887,103.449913 365.021769,101.641377 366.370508,99.3730444 C367.719246,97.1047115 368.393615,94.6218065 368.393615,91.9243295 C368.393615,89.1042398 367.719246,86.5600286 366.370508,84.2916956 C365.021769,82.0233627 363.243887,80.2148269 361.03686,78.8660884 C358.829833,77.5173499 356.377581,76.8429807 353.680104,76.8429807 L332.161595,76.8429807 C324.927452,76.8429807 318.367678,75.3716296 312.482274,72.4289274 C306.596869,69.4862252 301.906938,65.2254376 298.412479,59.6465647 C294.91802,54.0676918 293.17079,47.3546524 293.17079,39.5074465 C293.17079,31.7828532 294.82606,25.0698138 298.1366,19.3683283 C301.44714,13.6668428 305.9225,9.22213634 311.562679,6.03420896 C317.202858,2.84628157 323.456101,1.25231788 330.322406,1.25231788 L381.233747,1.25231788 C383.995171,1.25231788 386.233747,3.49089413 386.233747,6.25231788 L386.233747,19.4260977 C386.233747,22.1875215 383.995171,24.4260977 381.233747,24.4260977 L332.89727,24.4260977 L332.89727,24.4260977 C330.445018,24.4260977 328.176685,25.0698138 326.092271,26.357246 C324.007857,27.6446782 322.38324,29.3306014 321.218421,31.4150154 C320.053601,33.4994295 319.471191,35.8290687 319.471191,38.4039332 C319.471191,40.9787976 320.053601,43.3084368 321.218421,45.3928509 C322.38324,47.477265 324.007857,49.1325349 326.092271,50.3586609 C328.176685,51.5847868 330.445018,52.1978497 332.89727,52.1978497 L355.151455,52.1978497 C363.121274,52.1978497 370.048885,53.7305071 375.93429,56.7958219 C381.819694,59.8611367 386.387013,64.1525774 389.636247,69.6701441 C392.885481,75.1877107 394.510097,81.6248718 394.510097,88.9816273 C394.510097,97.6871213 392.824174,105.105183 389.452328,111.235813 C386.080482,117.366442 381.543816,122.025721 375.84233,125.213648 C370.140845,128.401575 363.856949,129.995539 356.990644,129.995539 L303.504438,129.995539 C300.743014,129.995539 298.504438,127.756963 298.504438,124.995539 Z" id="Path"></path>
                <path d="M469.331588,129.995539 C459.277355,129.750314 450.204023,127.941778 442.111592,124.569932 C434.019161,121.198086 427.09155,116.600114 421.328758,110.776015 C415.565966,104.951917 411.12126,98.1775716 407.994639,90.4529784 C404.868017,82.7283851 403.304707,74.4520351 403.304707,65.6239285 C403.304707,56.7958219 404.868017,48.519472 407.994639,40.7948787 C411.12126,33.0702854 415.565966,26.2959397 421.328758,20.4718416 C427.09155,14.6477435 434.019161,10.0191182 442.111592,6.58596562 C450.204023,3.15281305 459.277355,1.37493047 469.331588,1.25231788 L484.378746,1.25231788 C487.14017,1.25231788 489.378746,3.49089413 489.378746,6.25231788 L489.378746,19.4260977 C489.378746,22.1875215 487.14017,24.4260977 484.378746,24.4260977 L469.883344,24.4260977 L469.883344,24.4260977 C463.99794,24.5487103 458.602986,25.6522236 453.698482,27.7366377 C448.793978,29.8210518 444.533191,32.7024477 440.916119,36.3808254 C437.299048,40.0592032 434.509611,44.381297 432.54781,49.347107 C430.586009,54.3129169 429.605108,59.7385241 429.605108,65.6239285 C429.605108,71.5093329 430.586009,76.9349401 432.54781,81.9007501 C434.509611,86.86656 437.299048,91.1886539 440.916119,94.8670317 C444.533191,98.5454094 448.793978,101.426805 453.698482,103.511219 C458.602986,105.595633 463.99794,106.699147 469.883344,106.821759 L484.378746,106.821759 C487.14017,106.821759 489.378746,109.060336 489.378746,111.821759 L489.378746,124.995539 C489.378746,127.756963 487.14017,129.995539 484.378746,129.995539 L469.331588,129.995539 L469.331588,129.995539 Z" id="Path"></path>
                <path d="M547.43012,132.202566 C537.743726,132.202566 529.099538,130.026192 521.497557,125.673445 C513.895577,121.320698 507.88756,115.423799 503.473506,107.982747 C499.059453,100.541696 496.852426,92.2461875 496.852426,83.0962229 C496.852426,73.9462582 499.059453,65.65075 503.473506,58.2096984 C507.88756,50.7686467 513.895577,44.8717474 521.497557,40.5190004 C529.099538,36.1662534 537.743726,33.9898799 547.43012,33.9898799 C557.116515,33.9898799 565.760703,36.1662534 573.362684,40.5190004 C580.964664,44.8717474 586.972681,50.743741 591.386735,58.1349813 C595.800788,65.5262216 598.007815,73.8638779 598.007815,83.14795 C598.007815,92.3094096 595.800788,100.59917 591.386735,108.017232 C586.972681,115.435294 580.964664,121.320698 573.362684,125.673445 C565.760703,130.026192 557.116515,132.202566 547.43012,132.202566 Z M547.43012,110.684056 C552.579849,110.684056 557.024556,109.45793 560.76424,107.005678 C564.503924,104.553426 567.38532,101.250071 569.408427,97.0956113 C571.431535,92.9411518 572.443089,88.2823523 572.443089,83.1192127 C572.443089,77.9541573 571.431535,73.2872155 569.408427,69.1183874 C567.38532,64.9495593 564.503924,61.6390193 560.76424,59.1867675 C557.024556,56.7345156 552.579849,55.5083897 547.43012,55.5083897 C542.280392,55.5083897 537.835685,56.7345156 534.096001,59.1867675 C530.356317,61.6390193 527.474921,64.9423749 525.451813,69.0968344 C523.428706,73.2512939 522.417152,77.9100934 522.417152,83.073233 C522.417152,88.2382884 523.428706,92.9052302 525.451813,97.0740583 C527.474921,101.242886 530.356317,104.553426 534.096001,107.005678 C537.835685,109.45793 542.280392,110.684056 547.43012,110.684056 Z" id="Shape"></path>
                <path d="M610.079467,124.995539 L610.079467,76.1073051 L610.079467,76.1073051 C610.079467,68.3827118 611.888003,61.3324878 615.505074,54.9566331 C619.122145,48.5807783 624.363834,43.4923557 631.230139,39.6913654 C638.096444,35.890375 646.311488,33.9898799 655.87527,33.9898799 C665.561665,33.9898799 673.807361,35.890375 680.61236,39.6913654 C687.417359,43.4923557 692.628394,48.5807783 696.245466,54.9566331 C699.862537,61.3324878 701.671073,68.3827118 701.671073,76.1073051 L701.671073,124.995539 C701.671073,127.756963 699.432497,129.995539 696.671073,129.995539 L681.474185,129.995539 C678.712761,129.995539 676.474185,127.756963 676.474185,124.995539 L676.474185,76.1073051 L676.474185,76.1073051 C676.474185,72.3063148 675.554591,68.8425091 673.715402,65.715888 C671.876213,62.5892669 669.393308,60.1063619 666.266687,58.267173 C663.140066,56.4279842 659.67626,55.5083897 655.87527,55.5083897 C652.074279,55.5083897 648.610474,56.4279842 645.483853,58.267173 C642.357232,60.1063619 639.874327,62.5892669 638.035138,65.715888 C636.195949,68.8425091 635.276354,72.3063148 635.276354,76.1073051 L635.276354,124.995539 C635.276354,127.756963 633.037778,129.995539 630.276354,129.995539 L615.079467,129.995539 C612.318043,129.995539 610.079467,127.756963 610.079467,124.995539 Z" id="Path"></path>
                <path d="M220,0 C256.450793,0 286,29.5492065 286,66 C286,102.450793 256.450793,132 220,132 C183.549207,132 154,102.450793 154,66 C154,29.5492065 183.549207,0 220,0 Z M202.998114,18.5684465 L201.060549,21.3999401 L202.599985,24.0686219 L201.968449,29.1472083 L200.163252,26.8439825 L200.508593,23.4544072 L197.438924,21.4389299 L194.046873,22.8008258 L194.030014,26.7136531 L197.005733,28.2298577 L198.465446,34.1573498 L200.61706,40.9723933 L200.586562,48.0553046 L202.931208,50.1263599 L207.542089,50.3475832 L209.400492,51.2944867 L204.887039,60.0737399 L204.466725,67.5835635 L195.714846,58.6875541 L192.312527,56.9539858 L186.704108,59.1051631 L185.697001,61.0817231 L185.33016,71.2689412 L189.940353,84.8929369 L185.57389,81.0138955 L181.786633,74.4242913 L180.619633,70.7709048 L180.98421,68.4662059 L183.172705,66.0359334 L181.79657,62.8906259 L178.504598,62.1909753 L176.544165,65.394341 L178.020449,67.5898753 L177.446545,70.4615654 L175.469868,68.1469687 L175.410013,65.6260104 L171.567433,64.2564815 L169.585582,66.4562044 L170.162528,69.6764924 L172.978625,70.3978777 L174.209132,72.9707067 L171.967902,73.2620396 L169.664025,70.6548594 L166.350807,71.90138 L166.075174,75.0356479 L168.56268,76.6961087 L170.619059,75.9092918 L174.226641,77.7474468 L181.941415,83.5129145 L188.892263,91.4652555 L192.515462,92.8510899 L196.85215,90.0635856 L196.167202,76.2023267 L201.449643,82.6917544 L203.934914,85.108433 L212.581806,89.5142447 L215.997746,90.1043831 L224.352743,90.5635773 L212.736147,98.1568863 L213.03005,103.303795 L216.280877,105.420451 L226.800061,106.369536 L235.999053,109.222063 L239.606635,111.060218 L240.178796,113.186342 L242.984257,114.222783 L245.35792,112.157515 L244.418915,108.744378 L240.955478,108.412965 L239.873809,106.428531 L242.678545,105.911761 L244.917418,107.766011 L247.861807,106.339933 L248.476516,103.443617 L245.109933,101.139894 L243.035253,102.573252 L240.000843,102.334572 L241.986757,100.182337 L244.630719,100.086173 L246.069983,96.6172583 L243.568981,94.3652416 L240.215502,95.1006907 L239.535735,98.2996981 L237.885488,99.9493156 L234.243891,101.152599 L226.686695,101.961916 L220.981942,100.709417 L234.713789,96.431157 L242.739799,90.1464803 L243.746906,88.1699204 L242.1907,82.3681843 L238.78838,80.634616 L226.447132,78.78314 L232.275653,74.0289357 L236.725277,65.2171598 L238.583679,66.1640633 L241.472861,69.7643129 L244.526528,70.4438357 L250.238797,66.2559311 L257.016971,63.990842 L262.67041,61.6876821 L265.646129,63.2038867 L268.801763,60.8903447 L267.909763,57.3456157 L264.474901,56.0468693 L261.935664,58.3185983 L259.011247,58.2119656 L262.748702,54.7159238 L265.812568,54.3927417 L266.964423,51.1609086 L264.913055,48.4939041 L261.458558,49.2868133 L260.821427,52.5385803 L257.652947,55.2097392 L257.762601,50.9800308 L259.423641,48.8424202 L257.184867,45.6004461 L253.635732,45.8933335 L252.387339,49.4365458 L254.015935,51.819826 L252.919171,55.1078979 L249.19987,61.2718862 L244.698755,63.4331387 L240.062207,52.9534877 L243.680316,48.0903281 L243.7252,41.4492085 L245.066128,39.545948 L244.652833,34.4434719 L243.61945,33.2802624 L242.503832,28.9099732 L239.687989,25.818096 L239.718077,25.7599186 L239.625416,25.7500249 L239.562947,25.6808759 L239.532668,25.7389561 L235.377074,25.2787087 L231.185691,26.9449456 L229.637228,26.7926387 L225.266309,29.4574366 L224.514717,31.6609788 L219.16832,35.6008424 L217.360613,41.386448 L206.157102,43.7951857 L205.259904,38.8833551 L208.060525,32.251276 L210.075969,29.4312949 L212.961348,29.3479998 L215.09408,26.2553805 L213.244901,23.211915 L209.306171,23.3062938 L208.553142,25.9065592 L205.195689,28.4814313 L205.494317,24.3480098 L207.750555,21.9212192 L206.36153,18.6604119 L202.998114,18.5684465 Z" id="Shape"></path>
            </g>
        </g>
    </g>
</svg>