<svg xmlns="http://www.w3.org/2000/svg" id="Layer_1" width="1356.782" height="1441.52" data-name="Layer 1" version="1.1"><defs id="defs33"><style id="style31">.cls-1{fill:none}.cls-2{fill:#04065e}.cls-5{fill:#fff;stroke-miterlimit:10;stroke:#231f20;stroke-width:9.41px}</style></defs><path id="path35" d="M680.356 9.42c-86.61 0-170.62 16.96-249.71 50.41-76.39 32.31-145 78.57-203.92 137.49-58.92 58.92-105.18 127.53-137.49 203.92-33.45 79.09-50.41 163.1-50.41 249.71 0 86.61 16.96 170.62 50.41 249.71 32.31 76.39 78.57 145 137.49 203.92 58.92 58.92 127.53 105.18 203.92 137.49 79.09 33.45 163.1 50.41 249.71 50.41 86.61 0 170.62-16.96 249.71-50.41 76.39-32.31 145-78.57 203.92-137.49 58.92-58.92 105.17-127.53 137.48-203.92 33.45-79.09 50.41-163.1 50.41-249.71 0-86.61-16.96-170.62-50.41-249.71-32.31-76.39-78.57-145-137.48-203.92-58.92-58.92-127.53-105.18-203.92-137.49-79.09-33.45-163.1-50.41-249.71-50.41z" style="fill:#1f77b5"/><g id="g75" transform="translate(-520.104 -129)"><path id="path37" d="M689.86 1183.75c-1.47-1.85-2.93-3.72-4.37-5.59 1.45 1.87 2.9 3.73 4.37 5.59z" class="cls-1"/><path id="path39" d="M729.96 1229.76c-.41-.43-.82-.85-1.23-1.28.41.43.82.85 1.23 1.28z" class="cls-1"/><path id="path41" d="M1468.47 1373.33z" class="cls-1"/><path id="path43" d="M1482.98 1366.55c-4.36 2.1-8.76 4.15-13.18 6.16 4.42-2.01 8.82-4.05 13.18-6.16z" class="cls-1"/><path id="path45" d="M719.54 1218.61c-.67-.73-1.34-1.46-2.01-2.2.67.74 1.34 1.47 2.01 2.2z" class="cls-1"/><path id="path47" d="M1546.31 1331.53z" class="cls-1"/><path id="path49" d="M1604.29 1290.53z" class="cls-1"/><path id="path51" d="M709.17 1206.98c-.86-.99-1.72-1.98-2.58-2.98.86 1 1.71 1.99 2.58 2.98z" class="cls-1"/><path id="path53" d="M1511.35 1352.01z" class="cls-1"/><path id="path55" d="M1557.33 1324.44z" class="cls-1"/><path id="path57" d="M1558.56 1323.64a670.09 670.09 0 0 1 0 0z" class="cls-1"/><path id="path59" d="M1629.78 1269.23c1.01-.89 2.02-1.79 3.02-2.68-1.01.89-2.01 1.79-3.02 2.68z" class="cls-1"/><path id="path61" d="M1800.24 526.57c-32.79-77.51-79.72-147.13-139.5-206.91s-129.39-106.71-206.9-139.5c-80.25-33.94-165.5-51.16-253.38-51.16s-173.12 17.21-253.38 51.16c-77.51 32.78-147.13 79.72-206.91 139.5s-106.71 129.39-139.5 206.91c-33.94 80.25-51.16 165.5-51.16 253.37s17.21 173.12 51.16 253.37a650.783 650.783 0 0 0 47.62 91.54c1.87-.32 3.61-.62 5.61-.96l-1.7-6.35c-2.18-.21-2.38-2.21-4.69-2.43v-5.2c2.23-.22 4.12-.41 6.42-.64v-7.83c-1.91-.23-3.8-.46-6.31-.76-.19-1.44-.39-3.05-.64-4.98 2.53-.3 4.6-.55 7.01-.83V1087c-2.16-.35-4.21-.67-6.55-1.05v-4.84c2.23-.4 4.29-.76 6.61-1.18V1072c-2.28-.23-4.36-.43-6.68-.66v-5.01c2.14-.25 4.03-.48 6.46-.76v-7.95c-2.04-.19-3.94-.37-6.18-.58-.23-1.6-.44-3.07-.7-4.91 2.38-.36 4.44-.67 6.94-1.05V1043c-2.15-.28-4.05-.53-6.37-.83v-5.12c2.24-.26 4.14-.48 6.42-.75v-7.84c-2.07-.27-4.13-.55-6.51-.86v-4.89c2.08-.29 4.14-.58 6.55-.92v-7.75c-2.04-.26-3.93-.49-6.41-.81-.14-1.55-.29-3.15-.46-5.02 2.4-.31 4.3-.55 6.71-.86v-8.18c-2.1-.27-4.16-.54-6.41-.83v-4.98c2.17-.28 4.07-.52 6.45-.82v-7.68c-1.85-.28-3.9-.59-6.31-.96-.17-1.48-.34-2.96-.56-4.79 2.37-.32 4.43-.59 6.92-.92v-7.75c-1.94-.37-3.97-.76-6.39-1.23-.12-1.46-.25-2.9-.4-4.66 2.38-.45 4.43-.84 6.84-1.3v-7.8c-2.04-.28-4.12-.55-6.53-.88v-4.81c2.06-.31 4.11-.63 6.52-1v-7.7c-2.03-.24-3.92-.46-6.39-.75-.15-1.54-.3-3.15-.49-5.07 2.4-.25 4.3-.46 6.73-.71v-8.1c-2.07-.34-4.13-.69-6.4-1.06v-4.85c2.18-.32 4.08-.59 6.45-.93v-7.73l-6.37-.93v-5.1c2.17-.17 4.07-.33 6.4-.52v-7.84c-1.83-.27-3.7-.55-6.23-.92-.2-1.38-.43-2.97-.71-4.93 2.55-.38 4.61-.68 7-1.03v-7.98c-2.1-.33-4.16-.65-6.18-.96q-.69-4.87 6.06-5.68v-8.01c-2.05-.18-3.95-.34-6.23-.54l-.63-4.86c2.39-.35 4.44-.66 6.92-1.03v-7.96c-2.19-.31-4.08-.57-6.37-.9-.13-1.54-.24-2.97-.38-4.7 2.43-.36 4.5-.67 6.67-1 .95-6.04-4.52-2.48-6.45-4.93v-5.4c1.24-.38 2.48-.76 4-1.23-.93-4.67-1.83-9.22-2.92-14.69 12.05.07 23.19-.17 34.34-4.85.07-1.62.17-3.66.28-6.18-17.2-3.67-34.03-7.25-51.23-10.92-.13-1.86-.33-3.56-.34-5.26-.02-1.72.15-3.44.26-5.8h26.24c.21-3.89.39-7.16.6-11.18 3.61-.58 7.2-1.58 10.82-1.67 22.4-.57 44.81-1.28 67.21-1.22 12.55.03 25.09 1.43 37.63 2.26.94.06 1.87.42 3.35.78.18 3.48.37 6.91.58 10.96h26.23v11.1l-54.57 11.04v5.31c12.05 4.21 24.06 6.48 36.16 5.37 2.61 5.65-.54 9.99-1.5 14.72 1.61.56 2.84.98 4.35 1.51v5.99c-2.11.31-4.17.61-6.2.9q-.16 3.46 6.11 4.48v4.51c-2.09.33-3.99.64-6.39 1.02v8.07c1.99.18 3.89.35 6.38.57.07 1.61.15 3.2.24 5.12-2.42.22-4.32.39-6.67.6v7.84c1.89.35 3.92.72 6.33 1.16.14 1.46.27 2.9.44 4.67-2.26.28-4.17.51-6.81.83-.13 2.47-.27 5.07-.42 7.96 2.5.43 4.56.79 6.92 1.2v4.75c-2.2.37-4.24.72-6.59 1.12v7.82c2.17.17 4.07.31 6.53.5.1 1.66.2 3.27.32 5.17-2.38.24-4.29.43-6.69.68v8c2.09.25 3.98.48 6.24.75.19 1.59.36 3.04.57 4.82-2.38.43-4.43.8-6.88 1.24v8.12c2.26.21 4.17.38 6.42.58v5.22c-2.27.22-4.17.4-6.44.61v7.86c1.98.22 3.87.44 6.36.72.16 1.48.34 3.09.56 5.05-2.39.23-4.31.4-6.77.64v8.02c1.99.37 4.04.74 6.38 1.17v4.78c-2.1.35-4 .66-6.41 1.06v7.98c1.97.19 3.88.37 6.38.61.08 1.54.17 3.14.27 5.05-2.37.27-4.27.49-6.67.76v7.67c1.82.3 3.86.64 6.26 1.04l.58 4.74c-2.38.37-4.43.69-6.9 1.08v8.14c2.23.26 4.13.48 6.4.75v5.16c-2.27.25-4.17.46-6.44.7v7.88c2.11.24 4.17.48 6.53.75v4.98c-2.12.28-4.18.56-6.57.87v7.79c2.08.27 3.96.51 6.44.83.13 1.59.25 3.17.4 5-2.42.32-4.31.58-6.69.9v8.17c2.03.23 3.93.44 6.29.71v5.1c-2.08.24-3.98.45-6.33.72v7.71c1.92.3 3.96.61 6.36.99.15 1.51.29 2.98.47 4.78-2.37.31-4.45.59-6.9.91v7.8c2.01.39 4.05.79 6.48 1.26.09 1.44.18 2.9.3 4.67-2.37.43-4.41.81-6.41 1.18-1.39 6.02-1.93 7.84 6.28 8.83-.43 3.97 1.8 6.7 4.61 9.34 5.3 4.98 10.34 10.22 15.5 15.35.28.28.6.51.41.34 3.97-.51 7.49-.96 11.48-1.47.08-1.55.17-3.18.27-5.19-3.09-.24-5.77-.45-8.41-.66-1.43-4.07-1.69-15.38-.49-22.98 1.6-.1 3.31-.25 5.02-.3 1.74-.05 3.49-.01 5.96-.01.1-3.09.22-5.74.26-8.4.04-2.51 0-5.02 0-7.94h84.75v26.77h17.72v-35.68h24.03v-74.8c18.52-2.24 36.54-4.42 55.26-6.69v-33.82h48.71v28.55c2.45.36 4.32.63 6.78.98v73.95h9.58c-.46-4.75 1.52-8.85 4.96-13.27l40.03-.43v-14.9h17.84v12.25l22.82.43c.51 1.88.85 3.14 1.28 4.7 2.11.19 4.21.38 7.05.64v14.64l103.71-1.02c.26-25.03-.66-50.02-1.25-75.5 10.55-3.57 20.86-7.06 31.57-10.7.37 2.65.66 4.71.97 6.94 15.27.31 28.02-7.72 42.24-11.35.58.82 1.2 1.69 1.87 2.64.58-.08 1.2-.05 1.71-.26 4.32-1.76 8.64-4.99 12.94-4.96 4.1.03 8.19 3.41 12.26 5.36 7.43 3.56 14.85 7.15 22.27 10.75.32.16.52.56 1.08 1.2-3.17 45.42-6.36 91.17-9.57 137.28h5.82c.22-3.38.44-6.78.67-10.44 2.63-.21 4.92-.39 7.9-.63v-15.21c30.62-1.32 20.03-1.76 50.7-.91v14.14h25.48c.18 3.75.34 6.83.52 10.58h19.36c3.57-6.95 7.66-13.67 10.6-20.87 4.14-10.13 6.24-19.81-.63-30.79-9.15-14.62-14.81-31.07-18.84-48.07-7.58-32-15.78-63.86-23.97-95.71-1.59-6.18-3.99-12.22-6.57-18.07-2.02-4.58-4.09-4.77-8.36-2.44-3.75 2.04-7.57 4.14-11.6 5.45-6.06 1.97-10.11 6.04-13.68 10.96-5.03 6.92-12.42 8.53-19.66 4.14-1.2-.72-2.57-2.9-2.29-4.02 1.62-6.6 3.3-13.26 5.78-19.57 1.74-4.41 4.81-8.3 7.27-12.44 2.11-3.55 4.02-7.24 6.38-10.61 1.78-2.54 2.12-4.67.82-7.62-.68-1.56 0-3.93.61-5.76.43-1.29 1.78-2.28 2.73-3.4-.44.04-.87.09-1.31.13-1.96-5.88-4.2-11.68-5.8-17.66-1.27-4.77-.12-5.98 4.85-4.9 3.73.81 7.23 2.74 11.81 4.57.29-4.41.95-8.74.72-13.02-.15-2.81.82-3.86 3.16-3.67 3.81.3 7.73.57 8.52 5.73.49 3.21 1.51 6.33 2.58 10.63 1.89-2.06 3.38-3.05 3.91-4.42.94-2.39 1.08-5.08 1.96-7.5.56-1.55 1.64-3.8 2.82-4.03 1.86-.37 4.07.52 5.99 1.25.8.3 1.22 1.58 1.76 2.35-4.49 4.82-5.14 10.61-3.82 16.59.33 1.49 2.59 2.55 4.41 4.22.99-4.61.9-8.45 2.63-11.14 1.8-2.8 5.34-4.48 8.12-6.65.49.31.98.62 1.47.94-.53 9.48 3.42 19.29-2.66 28.37-2.01 3-1.58 5.23.08 8.58 10.74 21.64 21.42 43.33 31.3 65.38 10.48 23.39 21.41 46.37 39.64 64.98 1.17 1.19 1.98 2.74 3.17 3.91 3.76 3.68 7.62 7.26 11.44 10.87.95.9 2.23 1.6 2.83 2.69 4.46 8.14 8.2 16.73 13.31 24.44 3.4 5.13 7.04 10.2 11.29 14.65h15.59c.11-19.84.04-38.99.05-58.14.01-19.25 0-38.5 0-57.75V764c3.08-.31 5.71-.58 8.78-.9v-15.54h-14.88v-10.07c2.01-.27 3.89-.51 6.4-.85v-11.17c2.2-.43 3.84-.76 5.84-1.15l.55-11.81c13.09-2.2 25.94-5.77 40.16-4.91.76-2.93 1.44-5.81 2.26-8.65.31-1.09.72-2.28 1.46-3.08 3.59-3.9 7.23-7.77 11.04-11.46 1.01-.98 2.7-1.78 4.08-1.77 21.83.05 43.65.23 65.48.4.17 0 .34.17 1.19.61.4 7.12 4.43 12.03 12.05 13.5.21 2.35.38 4.28.6 6.8 5.29 0 10.56-.04 15.84.02 1.84.02 3.72-.49 5.08 1.88.58 1.01 3.07 1.23 4.71 1.26 7.26.13 14.53.06 22.44.06v16.75c2.2.56 3.85.98 6.11 1.55v11.05c2.4.33 4.28.58 6.63.9v10.1h-14.84v15.47c2.72.31 5.37.61 8.61.98v263.43c-.81 1.96-1.61 3.91-2.44 5.86 33.95-80.25 51.16-165.5 51.16-253.37s-17.21-173.12-51.16-253.37z" class="cls-1"/><path id="path63" d="M651.67 1130.26c.71 1.11 1.45 2.2 2.17 3.31v-2.98c-.71-.11-1.43-.22-2.17-.34z" class="cls-1"/><path id="path65" d="M681.2 1172.56z" class="cls-1"/><path id="path67" d="M672.03 1160.16z" class="cls-1"/><path id="path69" d="M662.86 1147.11z" class="cls-1"/><path id="path71" d="M698.96 1194.98c-1.02-1.23-2.04-2.48-3.05-3.72 1.01 1.24 2.03 2.48 3.05 3.72z" class="cls-1"/><path id="path73" d="M1802.68 764.03c-3.24-.37-5.89-.67-8.61-.98v-15.47h14.84v-10.1c-2.35-.32-4.23-.58-6.63-.9v-11.05c-2.26-.57-3.91-.99-6.11-1.55v-16.75c-7.91 0-15.18.07-22.44-.06-1.63-.03-4.13-.26-4.71-1.26-1.36-2.37-3.24-1.86-5.08-1.88-5.27-.06-10.55-.02-15.84-.02-.22-2.51-.39-4.45-.6-6.8-7.62-1.48-11.64-6.38-12.05-13.5-.85-.45-1.02-.61-1.19-.61-21.83-.17-43.65-.36-65.48-.4-1.38 0-3.07.8-4.08 1.77-3.81 3.68-7.45 7.55-11.04 11.46-.74.8-1.15 2-1.46 3.08-.82 2.84-1.5 5.72-2.26 8.65-14.22-.86-27.07 2.71-40.16 4.91l-.55 11.81c-2 .4-3.64.72-5.84 1.15v11.17c-2.51.33-4.39.58-6.4.85v10.07h14.88v15.54c-3.06.31-5.7.58-8.78.9V995.5c-.01 19.15.06 38.3-.05 58.14h-15.59c-4.24-4.45-7.89-9.53-11.29-14.65-5.1-7.7-8.85-16.3-13.31-24.44-.6-1.09-1.88-1.79-2.83-2.69-3.82-3.61-7.68-7.19-11.44-10.87-1.19-1.17-2-2.72-3.17-3.91-18.23-18.61-29.16-41.58-39.64-64.98-9.88-22.04-20.56-43.74-31.3-65.38-1.66-3.35-2.09-5.57-.08-8.58 6.07-9.08 2.13-18.88 2.66-28.37-.49-.31-.98-.62-1.47-.94-2.78 2.17-6.32 3.85-8.12 6.65-1.73 2.68-1.65 6.53-2.63 11.14-1.82-1.67-4.08-2.74-4.41-4.22-1.33-5.99-.68-11.77 3.82-16.59-.54-.76-.97-2.04-1.76-2.35-1.92-.73-4.13-1.62-5.99-1.25-1.18.23-2.26 2.48-2.82 4.03-.87 2.42-1.02 5.11-1.96 7.5-.53 1.36-2.02 2.35-3.91 4.42-1.07-4.3-2.09-7.42-2.58-10.63-.79-5.16-4.72-5.43-8.52-5.73-2.35-.18-3.32.86-3.16 3.67.24 4.28-.43 8.61-.72 13.02-4.58-1.82-8.07-3.76-11.81-4.57-4.97-1.08-6.13.13-4.85 4.9 1.6 5.98 3.83 11.78 5.8 17.66.44-.04.87-.09 1.31-.13-.94 1.12-2.29 2.11-2.73 3.4-.61 1.82-1.29 4.2-.61 5.76 1.3 2.95.96 5.07-.82 7.62-2.36 3.37-4.26 7.06-6.38 10.61-2.46 4.13-5.53 8.02-7.27 12.44-2.49 6.31-4.16 12.96-5.78 19.57-.28 1.12 1.1 3.3 2.29 4.02 7.24 4.39 14.63 2.78 19.66-4.14 3.57-4.92 7.62-8.99 13.68-10.96 4.04-1.31 7.85-3.41 11.6-5.45 4.27-2.33 6.35-2.14 8.36 2.44 2.58 5.86 4.98 11.89 6.57 18.07 8.19 31.85 16.39 63.71 23.97 95.71 4.03 17 9.69 33.45 18.84 48.07 6.87 10.98 4.77 20.66.63 30.79-2.94 7.2-7.03 13.92-10.6 20.87h-19.36c-.18-3.75-.34-6.83-.52-10.58h-25.48v-14.14c-30.68-.85-20.08-.4-50.7.91v15.21c-2.98.24-5.27.42-7.9.63-.24 3.66-.45 7.06-.67 10.44h-5.82c3.22-46.11 6.41-91.86 9.57-137.28-.56-.64-.76-1.04-1.08-1.2-7.41-3.6-14.83-7.19-22.27-10.75-4.07-1.95-8.16-5.33-12.26-5.36-4.3-.03-8.62 3.19-12.94 4.96-.52.21-1.13.18-1.71.26-.67-.94-1.29-1.82-1.87-2.64-14.22 3.63-26.96 11.66-42.24 11.35-.31-2.23-.6-4.29-.97-6.94-10.72 3.63-21.03 7.12-31.57 10.7.59 25.47 1.5 50.46 1.25 75.5l-103.71 1.02v-14.64c-2.84-.26-4.94-.45-7.05-.64-.42-1.56-.76-2.82-1.28-4.7l-22.82-.43v-12.25h-17.84v14.9l-40.03.43c-3.44 4.42-5.43 8.52-4.96 13.27h-9.58v-73.95c-2.46-.36-4.33-.63-6.78-.98v-28.55h-48.71v33.82c-18.72 2.27-36.74 4.45-55.26 6.69v74.8h-24.03v35.68h-17.72v-26.77h-84.75c0 2.91.03 5.43 0 7.94-.05 2.66-.16 5.31-.26 8.4-2.47 0-4.22-.04-5.96.01-1.71.05-3.42.2-5.02.3-1.2 7.6-.93 18.9.49 22.98 2.64.21 5.32.42 8.41.66-.1 2.01-.19 3.64-.27 5.19-3.99.51-7.51.96-11.48 1.47.19.16-.13-.07-.41-.34-5.15-5.13-10.2-10.38-15.5-15.35-2.81-2.64-5.04-5.37-4.61-9.34-8.21-1-7.68-2.81-6.28-8.83 1.99-.37 4.04-.74 6.41-1.18-.11-1.77-.21-3.23-.3-4.67-2.43-.47-4.47-.87-6.48-1.26v-7.8c2.45-.33 4.53-.6 6.9-.91-.18-1.79-.32-3.27-.47-4.78-2.4-.37-4.45-.69-6.36-.99v-7.71c2.36-.27 4.25-.49 6.33-.72v-5.1c-2.36-.27-4.27-.48-6.29-.71v-8.17c2.38-.32 4.28-.57 6.69-.9-.15-1.83-.27-3.41-.4-5-2.47-.32-4.36-.56-6.44-.83v-7.79c2.39-.32 4.45-.59 6.57-.87v-4.98c-2.36-.27-4.42-.51-6.53-.75v-7.88c2.27-.25 4.17-.45 6.44-.7v-5.16c-2.27-.26-4.18-.49-6.4-.75v-8.14c2.47-.38 4.53-.71 6.9-1.08l-.58-4.74c-2.4-.4-4.44-.74-6.26-1.04v-7.67c2.4-.27 4.3-.49 6.67-.76-.1-1.91-.19-3.51-.27-5.05-2.5-.24-4.41-.42-6.38-.61v-7.98c2.41-.4 4.31-.71 6.41-1.06v-4.78c-2.34-.43-4.39-.81-6.38-1.17v-8.02c2.46-.23 4.38-.41 6.77-.64-.22-1.96-.4-3.57-.56-5.05-2.49-.28-4.38-.5-6.36-.72v-7.86c2.27-.22 4.17-.4 6.44-.61v-5.22c-2.25-.2-4.16-.38-6.42-.58v-8.12c2.45-.44 4.5-.81 6.88-1.24-.21-1.78-.39-3.23-.57-4.82-2.26-.27-4.15-.5-6.24-.75v-8c2.4-.24 4.3-.43 6.69-.68-.12-1.9-.22-3.51-.32-5.17-2.46-.19-4.36-.33-6.53-.5v-7.82c2.34-.4 4.39-.75 6.59-1.12v-4.75c-2.36-.41-4.41-.76-6.92-1.2.15-2.9.29-5.5.42-7.96 2.64-.32 4.54-.56 6.81-.83-.17-1.77-.3-3.21-.44-4.67-2.42-.44-4.45-.82-6.33-1.16v-7.84c2.35-.21 4.25-.38 6.67-.6-.09-1.92-.16-3.51-.24-5.12-2.49-.22-4.4-.4-6.38-.57v-8.07c2.4-.38 4.3-.68 6.39-1.02v-4.51q-6.27-1.02-6.11-4.48c2.03-.29 4.09-.59 6.2-.9v-5.99c-1.52-.52-2.75-.95-4.35-1.51.95-4.73 4.11-9.08 1.5-14.72-12.1 1.11-24.12-1.16-36.16-5.37v-5.31l54.57-11.04v-11.1h-26.23c-.21-4.05-.4-7.48-.58-10.96-1.48-.35-2.4-.72-3.35-.78-12.54-.82-25.08-2.23-37.63-2.26-22.4-.06-44.81.66-67.21 1.22-3.62.09-7.21 1.09-10.82 1.67-.22 4.02-.39 7.29-.6 11.18h-26.24c-.11 2.35-.28 4.08-.26 5.8.02 1.7.22 3.41.34 5.26 17.2 3.67 34.03 7.25 51.23 10.92-.12 2.53-.21 4.56-.28 6.18-11.15 4.69-22.29 4.92-34.34 4.85 1.09 5.47 1.99 10.02 2.92 14.69-1.52.47-2.76.85-4 1.23v5.4c1.93 2.44 7.4-1.12 6.45 4.93-2.17.32-4.23.63-6.67 1 .14 1.72.26 3.16.38 4.7 2.29.32 4.19.59 6.37.9v7.96c-2.48.37-4.54.67-6.92 1.03.24 1.84.43 3.31.63 4.86 2.28.2 4.18.36 6.23.54v8.01q-6.75.82-6.06 5.68c2.02.31 4.08.63 6.18.96v7.98c-2.39.35-4.45.66-7 1.03.28 1.95.51 3.55.71 4.93 2.53.37 4.4.65 6.23.92v7.84c-2.33.19-4.24.34-6.4.52v5.1l6.37.93v7.73c-2.37.34-4.27.62-6.45.93v4.85c2.27.38 4.33.72 6.4 1.06v8.1c-2.43.26-4.33.46-6.73.71.19 1.92.34 3.53.49 5.07 2.47.29 4.36.51 6.39.75v7.7c-2.41.37-4.46.68-6.52 1v4.81c2.41.32 4.48.6 6.53.88v7.8c-2.41.46-4.46.85-6.84 1.3.15 1.76.27 3.21.4 4.66 2.42.46 4.45.85 6.39 1.23v7.75c-2.49.33-4.56.61-6.92.92.21 1.83.39 3.31.56 4.79 2.41.37 4.46.68 6.31.96v7.68c-2.38.3-4.28.55-6.45.82v4.98c2.25.29 4.31.56 6.41.83v8.18c-2.41.31-4.3.55-6.71.86.17 1.88.32 3.47.46 5.02 2.48.31 4.36.55 6.41.81v7.75c-2.4.34-4.46.63-6.55.92v4.89c2.38.31 4.44.59 6.51.86v7.84c-2.28.27-4.18.49-6.42.75v5.12c2.32.3 4.22.55 6.37.83v8.08c-2.5.38-4.56.69-6.94 1.05.26 1.84.47 3.31.7 4.91 2.24.21 4.13.39 6.18.58v7.95c-2.43.29-4.32.51-6.46.76v5.01c2.32.23 4.4.44 6.68.66v7.93c-2.32.41-4.38.78-6.61 1.18v4.84c2.35.38 4.39.7 6.55 1.05v7.87c-2.4.29-4.47.53-7.01.83.25 1.94.46 3.54.64 4.98 2.51.3 4.4.53 6.31.76v7.83c-2.3.23-4.2.42-6.42.64v5.2c2.31.22 2.51 2.22 4.69 2.43l1.7 6.35c-2 .34-3.74.64-5.61.96 1.12 1.79 2.22 3.61 3.36 5.39.74.11 1.46.23 2.17.34v2.98s.06.09.09.14c2.92 4.5 5.9 8.97 8.93 13.4.82 1.19 1.64 2.38 2.47 3.57 2.21 3.18 4.44 6.34 6.7 9.48 1.09 1.51 2.19 3.02 3.3 4.53 1.94 2.64 3.9 5.27 5.88 7.88 1.42 1.87 2.85 3.74 4.29 5.59 1.45 1.87 2.9 3.73 4.37 5.59 2 2.52 4.01 5.02 6.05 7.51 1.01 1.24 2.03 2.48 3.05 3.72 2.51 3.03 5.06 6.04 7.63 9.02a677.342 677.342 0 0 0 10.94 12.4c.67.74 1.34 1.47 2.01 2.2 3.03 3.32 6.09 6.61 9.19 9.88.41.43.82.85 1.23 1.28 3.37 3.52 6.77 7.01 10.22 10.47 59.78 59.78 129.39 106.71 206.91 139.5 80.25 33.95 165.5 51.16 253.38 51.16s173.12-17.21 253.38-51.16c4.91-2.08 9.78-4.21 14.63-6.4.45-.2.89-.42 1.33-.62 4.42-2.01 8.82-4.05 13.18-6.16.05-.03.11-.05.16-.08 9.53-4.6 18.93-9.42 28.2-14.46a642.875 642.875 0 0 0 34.95-20.48l1.35-.84c3.24-2.05 6.47-4.14 9.67-6.24l1.23-.81c3.35-2.21 6.68-4.45 9.99-6.72a660.427 660.427 0 0 0 35.74-26.38c8.66-6.87 17.15-13.97 25.48-21.3 1.01-.89 2.02-1.79 3.02-2.68 9.53-8.48 18.86-17.23 27.95-26.31 59.78-59.78 106.71-129.39 139.5-206.91.83-1.95 1.63-3.91 2.44-5.86V764.1Z" class="cls-2"/></g><path id="path77" d="M680.356 1301.88c-87.87 0-173.12-17.21-253.38-51.16-77.51-32.79-147.13-79.72-206.91-139.5s-106.71-129.39-139.5-206.91c-33.94-80.25-51.16-165.5-51.16-253.37s17.21-173.12 51.16-253.37c32.78-77.51 79.72-147.13 139.5-206.91s129.39-106.71 206.91-139.5C507.226 17.22 592.476 0 680.356 0s173.12 17.21 253.38 51.16c77.51 32.78 147.13 79.72 206.9 139.5 59.78 59.78 106.71 129.39 139.5 206.91 33.95 80.25 51.16 165.5 51.16 253.37s-17.21 173.12-51.16 253.37c-32.79 77.51-79.72 147.13-139.5 206.91s-129.39 106.71-206.9 139.5c-80.25 33.95-165.5 51.16-253.38 51.16zm0-1292.46c-86.61 0-170.62 16.96-249.71 50.41-76.39 32.31-145 78.57-203.92 137.49-58.92 58.92-105.18 127.53-137.49 203.92-33.45 79.09-50.41 163.1-50.41 249.71 0 86.61 16.96 170.62 50.41 249.71 32.31 76.39 78.57 145 137.49 203.92 58.92 58.92 127.53 105.18 203.92 137.49 79.09 33.45 163.1 50.41 249.71 50.41 86.61 0 170.62-16.96 249.71-50.41 76.39-32.31 145-78.57 203.92-137.49 58.92-58.92 105.17-127.53 137.48-203.92 33.45-79.09 50.41-163.1 50.41-249.71 0-86.61-16.96-170.62-50.41-249.71-32.31-76.39-78.57-145-137.48-203.92-58.92-58.92-127.53-105.18-203.92-137.49-79.09-33.45-163.1-50.41-249.71-50.41z"/><g id="g113" transform="translate(-520.104 -129)"><path id="path79" d="m607.51 1318.41 53.59-52.29-5.56 76.27 39.11-38.16 5.65 5.79-53.59 52.29 5.56-76.27-39.11 38.16z" class="cls-2"/><path id="path81" d="m670.19 1380.25 72.12-38.35-20.86 79.02-6.91-5.48 4.99-18.81-25.51-20.24-17.18 9.14-6.66-5.29zm31-7.71 20.47 16.24 8.84-32.17-29.31 15.92z" class="cls-2"/><path id="path83" d="m744.75 1436.23 39.81-60.33 6.75 4.46-39.81 60.33z" class="cls-2"/><path id="path85" d="m779.69 1458.54 34.96-63.26 21.6 11.94c5.26 2.91 8.71 7.18 10.42 12.87 1.77 5.6 1.07 11.14-1.89 16.49-4.61 8.35-13.19 12.5-22 11.3l.65 34.84-8.08-4.46-.41-32.92-.09-.05-14.25-7.87-13.84 25.05-7.08-3.91zm24.53-27.67 13.79 7.62c3.63 2.01 7.28 2.48 10.99 1.33 3.8-1.1 6.64-3.44 8.7-7.16 3.86-6.99 1.65-15.2-5.34-19.06l-14.25-7.88-13.89 25.14z" class="cls-2"/><path id="path87" d="M858.32 1460.07c4.06-9.88 10.81-16.75 20.25-20.6 9.53-3.82 19.16-3.78 28.84.2 9.69 3.98 16.55 10.73 20.54 20.11 4.09 9.42 4.05 19.05-.01 28.92-4.06 9.88-10.85 16.84-20.38 20.66-9.43 3.86-19.02 3.72-28.71-.26-9.69-3.98-16.59-10.64-20.68-20.05-3.99-9.38-3.92-19.1.15-28.98zm7.38 3.04c-3.27 7.96-3.45 15.74-.44 23.14 3.11 7.44 8.56 12.72 16.43 15.95 7.86 3.23 15.45 3.33 22.8.18 7.35-3.14 12.7-8.79 15.97-16.75 3.27-7.96 3.41-15.64.4-23.05-3.01-7.4-8.43-12.77-16.29-16.01-7.86-3.23-15.49-3.23-22.93-.13-7.35 3.14-12.66 8.7-15.93 16.66z" class="cls-2"/><path id="path89" d="m942.57 1530.99 20.04-69.45 21.22 6.12c5.28 1.52 9.18 4.48 11.79 8.91 2.64 4.32 3.2 9.12 1.73 14.21-1.93 6.68-6.65 10.71-12.89 11.39 8.52 4.51 11.54 12.39 8.98 21.26-1.7 5.88-5.13 10.29-10.33 12.99-5.11 2.74-10.63 3.19-16.71 1.44l-23.81-6.87zm9.84-4.93 15.54 4.48c7.97 2.3 15.49-1.68 17.7-9.36 1.06-3.69.66-7.15-1.31-10.42-1.87-3.24-4.82-5.38-8.9-6.56l-15.44-4.46-7.59 26.3zm9.6-33.28 12.95 3.74c6.48 1.87 12.71-1.41 14.52-7.68 1.81-6.28-1.65-12.24-8.12-14.11l-13.05-3.77-6.29 21.82z" class="cls-2"/><path id="path91" d="m1015.35 1550.16 15.13-70.68 7.91 1.69-15.13 70.68z" class="cls-2"/><path id="path93" d="m1052.5 1545.75 10.12 1.72-17.03 22.25-6.44-1.09 13.35-22.87z" class="cls-2"/><path id="path95" d="m1142.87 1568.44 2.94-72.22 8.08.33-1.36 33.37 33.27-32.07 10.16.41-35.1 33.55 33.2 38.71-10.47-.42-31.22-36.35-1.42 35.02z" class="cls-2"/><path id="path97" d="m1220.46 1570.08-3.02-72.21 40.82-1.71.31 7.46-32.74 1.37.96 22.9 30.77-1.29.31 7.46-30.77 1.29 1.13 26.94 33.46-1.4.31 7.46-41.55 1.74z" class="cls-2"/><path id="path99" d="m1291.86 1566.03-10.17-74.18 58.01 49.82-7.42-54.14 8.01-1.1 10.17 74.18-58.01-49.82 7.42 54.14z" class="cls-2"/><path id="path101" d="m1401.83 1546.86-7.09-28.8-34.85-35.31 8.66-2.13 28.31 28.7 11.56-38.51 8.46-2.08-14.28 47.41 7.09 28.8-7.85 1.93z" class="cls-2"/><path id="path103" d="m1444.48 1536.03 6.28-81.45 55.53 59.97-8.33 2.89-13.2-14.3-30.76 10.69-1.49 19.4-8.03 2.79zm10.11-30.3 24.69-8.58-22.42-24.71z" class="cls-2"/><path id="path105" d="m1568.05 1486.52 9.63-52.85c1.03-5.43.66-9.73-1.1-12.91-1.71-3.08-4.25-5.11-7.72-6.04-3.38-.97-6.62-.61-9.7 1.1-3.08 1.71-5.11 4.25-6.04 7.72-.97 3.38-.61 6.62 1.1 9.7l-6.99 3.87c-2.76-4.99-3.25-10.17-1.67-15.67s4.98-9.63 9.97-12.39 10.3-3.45 15.8-1.87 9.62 4.75 12.38 9.74c.85 1.54 1.46 2.86 1.89 4.05.84 2.38 1.38 7.42.28 13.36l-6.93 37.61 28.49-15.76 3.61 6.53-43.01 23.8z" class="cls-2"/><path id="path107" d="M1609.74 1421.18c-4.52-6.58-7.37-10.92-8.49-12.92-3.07-5.57-3.87-11.31-2.42-17.46 1.44-6.15 4.65-10.99 9.87-14.58 5.22-3.58 10.89-4.84 17.15-3.97 6.25.86 11.33 3.67 15.42 8.53 1.46 1.76 4.48 5.98 9 12.56 4.58 6.67 7.43 11 8.55 13 3.07 5.57 3.92 11.4 2.48 17.54-1.44 6.15-4.71 10.91-9.93 14.49-5.21 3.58-10.83 4.92-17.09 4.06-6.25-.86-11.39-3.76-15.48-8.62-1.46-1.76-4.48-5.98-9.06-12.65zm25.56 13.77c4.24.49 8.13-.43 11.73-2.89 3.59-2.46 5.85-5.78 6.83-9.84 1.07-4.13.46-8.12-1.66-11.94-.94-1.74-3.73-5.99-8.25-12.57s-7.42-10.63-8.71-12.14c-2.81-3.36-6.32-5.35-10.55-5.84-4.15-.55-8.05.37-11.64 2.83s-5.85 5.78-6.91 9.9c-.98 4.07-.38 8.06 1.75 11.88.94 1.74 3.68 5.9 8.2 12.49 4.52 6.58 7.48 10.71 8.77 12.22 2.81 3.36 6.32 5.35 10.47 5.9z" class="cls-2"/><path id="path109" d="m1685.27 1412.27-.73-53.72c-.04-5.52-1.22-9.67-3.56-12.45-2.27-2.7-5.16-4.2-8.74-4.44-3.51-.3-6.61.68-9.31 2.95s-4.2 5.16-4.43 8.74c-.3 3.51.68 6.61 2.95 9.31l-6.11 5.14c-3.67-4.36-5.15-9.35-4.66-15.05.49-5.7 3.03-10.41 7.4-14.08 4.37-3.67 9.44-5.37 15.14-4.88 5.7.49 10.36 2.81 14.03 7.17 1.13 1.35 1.99 2.53 2.63 3.61 1.28 2.17 2.78 7.01 2.85 13.05l.45 38.24 24.92-20.96 4.81 5.71-37.62 31.64z" class="cls-2"/><path id="path111" d="m1727.67 1354.52-21.43-58.54 6.08-6.24 18.83 50.51 18.82-19.31-11.29-11 5.65-5.79 28.15 27.43-5.65 5.79-11.51-11.22z" class="cls-2"/></g><path id="path115" d="m707.366 276.52 604.36-45.4c18.62-1.4 34.62 13.07 35.1 31.74l5.24 205.31c.45 17.64-13.18 32.44-30.8 33.45l-609.47 34.7" class="cls-5"/><path id="path117" d="m651.876 276.71-606.81-45.59c-18.63-1.4-34.63 13.07-35.11 31.75l-5.24 205.29c-.45 17.64 13.19 32.45 30.8 33.45l606.61 34.53" class="cls-5"/><path id="path119" d="m616.506 1293.35 39.21-1043.52c.55-11.49 9.73-17.11 22.7-16.46l21.37 1.8c5.88 1.62 9.82 10.91 9.99 17.01l17.8 1043.1" style="fill:#fff;stroke-miterlimit:10;stroke:#000;stroke-width:7.84px"/><path id="path121" d="M646.456 497.27c3.93-61.25 3.93-120.84 7.17-181.82l57.61-.13c.31 61.1 1.87 120.69 3.03 181.41l-67.81.53z"/><path id="path123" d="M716.036 767.75c1.32 79.15 2.89 156 4.37 234.82l-96.71-.04c4.28-78.78 5.85-157.2 8.97-234.88l83.38.1z"/><path id="path125" d="M616.356 1293.35c.65-27.29 1.4-54.58 2.24-81.87l108.92.21c.54 27.44-.09 57.47-.09 85.15 0 0-64.88.33-90.36-1.1-13.15-.74-20.71-2.4-20.71-2.4z"/><g id="g141" transform="translate(-520.104 -129)"><path id="path127" d="M572.35 569.18c-5.51-6.75-7.97-16.15-7.38-28.23l.42-8.52 22.16 1.08-.5 10.23c-.47 9.66 3.34 14.68 11.44 15.08 3.97.19 7.05-.83 9.22-3.07 2.17-2.24 3.39-5.99 3.64-11.25.3-6.25-.85-11.82-3.46-16.72-2.61-4.89-7.58-10.87-14.93-17.92-9.24-8.99-15.61-17.02-19.11-24.1-3.5-7.07-5.04-14.94-4.61-23.61.58-11.79 4-20.76 10.28-26.94 6.28-6.17 15.1-8.98 26.46-8.43 11.22.55 19.55 4.19 24.98 10.93 5.44 6.74 7.86 16.15 7.27 28.22l-.3 6.18-22.15-1.08.37-7.67c.25-5.11-.56-8.89-2.44-11.33-1.88-2.44-4.73-3.75-8.56-3.94-7.81-.38-11.95 4.19-12.41 13.7-.26 5.4.95 10.51 3.63 15.34 2.68 4.83 7.7 10.77 15.04 17.82 9.38 9 15.75 17.07 19.11 24.21 3.35 7.14 4.8 15.4 4.34 24.77-.6 12.22-4.07 21.44-10.42 27.68-6.36 6.24-15.28 9.08-26.79 8.52-11.36-.55-19.8-4.2-25.3-10.95z"/><path id="path129" d="m671.09 453.45-24.5-1.19 1.04-21.3 72.43 3.53-1.04 21.3-24.5-1.19-6.23 127.81-23.43-1.14 6.23-127.81z"/><path id="path131" d="m739.66 435.44 31.74 1.55 17.01 150.3-23.43-1.14-2.82-29.82-.02.43-26.63-1.3-5.68 28.98-21.73-1.06 31.55-147.93zm20.7 100.94-6.84-74.22-.43-.02-13.82 73.21z"/><path id="path133" d="m814.45 460.44-24.5-1.19 1.04-21.3 72.43 3.53-1.04 21.3-24.5-1.19-6.23 127.81-23.43-1.14 6.23-127.81z"/><path id="path135" d="m874.71 442.03 63.91 3.12-1.04 21.3-40.47-1.97-1.92 39.41 32.17 1.57-1.04 21.3-32.17-1.57-2.23 45.8 40.47 1.97-1.04 21.3-63.91-3.12 7.27-149.12z"/><path id="path137" d="M986.68 589.27c-5.79-6.83-8.39-16.21-7.81-28.14l3.82-78.39c.58-11.93 4.08-21.01 10.51-27.25 6.42-6.23 15.39-9.07 26.89-8.51 11.5.56 20.15 4.26 25.94 11.09 5.79 6.83 8.39 16.21 7.81 28.14l-3.82 78.39c-.58 11.93-4.09 21.01-10.51 27.25-6.43 6.24-15.39 9.07-26.89 8.51-11.5-.56-20.15-4.26-25.94-11.09zm39.83-24.32 3.97-81.38c.48-9.8-3.33-14.9-11.43-15.29-8.1-.39-12.38 4.31-12.86 14.11l-3.97 81.38c-.48 9.8 3.33 14.9 11.42 15.29 8.1.39 12.38-4.31 12.86-14.11z"/><path id="path139" d="m1071.33 451.62 61.99 3.02-1.04 21.3-38.56-1.88-2.03 41.54 30.25 1.47-1.04 21.3-30.25-1.47-3.17 64.97-23.43-1.14 7.27-149.12z"/></g><g id="g155" transform="translate(-520.104 -129)"><path id="path143" d="m1303.76 473.18-24.51.89-.77-21.31 72.47-2.63.77 21.31-24.51.89 4.64 127.88-23.45.85z"/><path id="path145" d="m1362.24 449.71 23.45-.85 2.2 60.74 25.15-.91-2.2-60.74 23.45-.85 5.41 149.2-23.45.85-2.43-67.14-25.15.91 2.43 67.14-23.44.85-5.41-149.2z"/><path id="path147" d="m1451.76 446.47 63.94-2.32.77 21.31-40.5 1.47 1.43 39.43 32.18-1.17.77 21.31-32.18 1.17 1.66 45.83 40.5-1.47.77 21.31-63.94 2.32-5.41-149.2z"/><path id="path149" d="m1563.22 442.42 33.46-1.21 18.79 106.24.43-.02 11.05-107.32 33.46-1.21 5.41 149.2-22.17.8-4.1-112.96-.43.02-12.95 113.58-19.61.71-21.15-112.34-.43.02 4.1 112.96-20.46.74-5.41-149.2z"/><path id="path151" d="m1696.01 437.61 31.76-1.15 29.71 148.32-23.45.85-5.34-29.47.02.43-26.64.97-3.2 29.35-21.74.79 18.89-150.08zm29.2 98.82-13.12-73.37-.43.02-7.55 74.12z"/><path id="path153" d="m1763.36 435.16 34.53-1.25c11.65-.42 20.5 2.39 26.56 8.43 6.05 6.04 9.3 15.1 9.74 27.18l.53 14.71c.44 12.08-2.14 21.35-7.74 27.81-5.6 6.47-14.23 9.91-25.88 10.33l-11.08.4 2.2 60.74-23.45.85zm36.96 65.89c3.84-.14 6.67-1.31 8.52-3.51 1.84-2.2 2.67-5.86 2.48-10.97l-.64-17.69c-.19-5.12-1.28-8.7-3.27-10.77-2-2.06-4.91-3.02-8.75-2.88l-11.08.4 1.66 45.82z"/></g></svg>