<svg xmlns="http://www.w3.org/2000/svg" xmlns:xlink="http://www.w3.org/1999/xlink" xml:space="preserve" width="829.238" height="829.238" viewBox="0 0 530.712 530.712"><defs><linearGradient xlink:href="#a" id="c" x1="31.904" x2="494.322" y1="365.031" y2="365.031" gradientTransform="translate(2.243 -99.675)" gradientUnits="userSpaceOnUse" spreadMethod="pad"/><linearGradient id="a"><stop offset="0" style="stop-color:#000091;stop-opacity:1"/><stop offset="1" style="stop-color:#004bce;stop-opacity:1"/></linearGradient><linearGradient xlink:href="#b" id="d" x1="440.127" x2="940.011" y1="305.191" y2="305.191" gradientTransform="translate(-450.83 388.142)" gradientUnits="userSpaceOnUse"/><linearGradient id="b"><stop offset="0" style="stop-color:#d81e26;stop-opacity:1"/><stop offset="1" style="stop-color:#c7000a;stop-opacity:1"/></linearGradient><linearGradient xlink:href="#b" id="e" x1="658.474" x2="721.664" y1="305.189" y2="305.189" gradientTransform="translate(-450.83 388.142)" gradientUnits="userSpaceOnUse"/></defs><path d="M446.87 262.471a184.928 185.971 0 0 1-184.93 185.972A184.928 185.971 0 0 1 77.014 262.47 184.928 185.971 0 0 1 261.94 76.501a184.928 185.971 0 0 1 184.928 185.97Z" style="display:inline;opacity:.981594;fill:#f6f5f4;stroke-width:1.52116;stroke-linecap:square;stroke-linejoin:round;stroke-miterlimit:3.1;paint-order:markers fill stroke"/><path d="M273.037 61.771c-2.92 2.642-4.14 4.862-4.011 7.38.33 6.468 7.54 11.113 31.186 20.096 9.924 3.77 13.556 5.632 19.508 9.996 5.917 4.338 10.43 6.462 20.501 9.644 8.195 2.589 10.134 3.404 12.644 5.322 2.25 1.72 2.935 2.92 2.596 4.542-.347 1.658-2.08 3.151-6.612 5.697-7.956 4.469-8.606 5.305-10.941 14.105-2.645 9.965-4.21 11.96-15.504 19.756-10.911 7.531-11.83 8.732-14.387 18.83-1.224 4.832-2.157 7.532-3.354 9.709-2.143 3.897-15.55 20.65-19.59 24.473-1.713 1.623-6.388 5.189-10.384 7.924-8.341 5.707-10.839 7.815-13.56 11.446l-1.946 2.594-2.226 10.477c-2.502 11.777-2.386 11.514-8.662 19.68-4.249 5.527-5.15 7.289-5.61 10.98-.613 4.93.752 7.34 8.102 14.304 4.966 4.706 6.54 6.586 7.905 9.45 2.613 5.484 1.295 10.08-4.843 16.902-5.152 5.727-6.133 7.759-5.309 10.997.837 3.287 7.34 7.757 13.239 9.102 3.787.864 7.115.757 13.598-.438 7.996-1.473 12.785-1.688 19.894-.89 3.045.343 7.865 1.12 10.712 1.726 6.595 1.407 14.784 2.335 18.818 2.131 4.544-.229 9.279-1.298 17.614-3.972 8.186-2.626 13.752-3.753 23.248-4.706 8.699-.873 10.635-1.192 15.675-2.59 5.949-1.648 10.819-3.848 23.518-10.623 20.617-11 23.92-13.477 41.436-31.042 1.04-1.042 1.698-1.736 2.601-2.652v-1.207c-.651.654-.928.988-1.67 1.723a1233.83 1233.83 0 0 0-8.632 8.635c-9.581 9.745-16.018 14.243-34.381 24.036-19.003 10.132-23.216 11.554-39.068 13.173-9.989 1.02-15.173 2.075-23.698 4.818-8.252 2.655-13.26 3.716-18.29 3.88-4.516.146-7.593-.232-16.613-2.046-8.6-1.73-16.534-2.553-21.877-2.272-1.718.09-6.25.705-10.07 1.367-6.354 1.1-7.223 1.17-10.212.822-4.106-.48-7.772-2.047-11.38-4.866-5.224-4.08-5.071-7.14.68-13.619 4.52-5.093 6.004-7.558 6.747-11.219 1.091-5.377-1.099-9.768-8.192-16.411-6.88-6.444-8.72-9.17-8.98-13.31-.179-2.854 1.416-6.236 5.276-11.197 6.642-8.533 6.103-7.345 8.632-19.042 2.434-11.253 2.816-12.22 6.47-16.4 2.267-2.595 4.477-4.347 11.144-8.836 10.385-6.992 11.48-8.04 21.808-20.92 9.074-11.316 9.488-12.06 12.027-21.543 2.795-10.44 3.487-11.357 13.883-18.451 11.04-7.534 13.903-11.01 15.587-18.902 1.873-8.78 3.347-10.786 11.18-15.232 5.221-2.965 6.053-3.622 6.848-5.427 1.196-2.716-1.042-5.704-5.95-7.944-1.49-.68-5.712-2.171-9.38-3.312-10.667-3.317-13.5-4.66-20.284-9.612-6.117-4.465-9.866-6.38-19.677-10.035-18.648-6.949-27.69-11.937-30.204-16.664-.877-1.649-.948-2.317-.472-4.588.438-2.108 1.253-3.433 3.552-5.369zm-52.206 21.27-.792.46c5.486.727 12.388 1.41 20.594 1.982 16.167 1.128 24.203 2.185 30.887 4.07 12.155 3.426 19.422 8.556 19.1 13.486-.16 2.452-2.046 4.772-7.128 8.766-7.254 5.701-9.651 8.684-9.792 12.185-.167 4.137 2.013 7.408 9.447 14.176 2.744 2.499 5.342 5.203 5.774 6.01 1.028 1.923.45 3.108-3.291 6.733-8.274 8.018-8.884 11.254-3.58 19.061 4.66 6.864 5.782 9.926 5.375 14.696-.273 3.194-2.38 7.768-6.72 14.593-5.556 8.741-7.684 11.005-18.14 19.3-10.475 8.308-14.335 14.018-16.521 24.446-1.444 6.88-3.748 10.845-10.57 18.183-6.56 7.056-7.428 8.18-12.957 16.796-6.61 10.301-7.9 13.209-8.794 19.826-1.148 8.496-1.658 10.04-4.646 14.063-.727.979-1.987 2.134-9.209 8.44-3.324 2.903-5.17 4.852-6.132 6.48-2.622 4.437-1.999 8.794 1.718 12.025 3.686 3.204 9.41 4.391 20.425 4.234 11.57-.165 16.346.896 20.829 4.627 2.738 2.28 3.681 3.8 5.655 9.11 2.414 6.49 4.68 9.157 9.723 11.438 3.587 1.622 6.889 2.342 13.206 2.877 5.9.5 6.399.473 19.835-1.077 4.604-.532 5.856-.549 9.811-.124 3.99.427 4.829.622 7.008 1.635 3.374 1.567 5.865 3.401 9.06 6.665 7.38 7.538 13.197 11.644 19.6 13.839 2.627.9 4.284 1.227 8.772 1.732 5.17.591 5.77.592 9.103.02 6.332-1.085 10.848-3.477 14.243-7.545 1.516-1.815 1.895-2.674 2.597-5.876.983-4.49.806-5.693-1.849-12.537-2.318-5.975-2.44-7.365-.796-9.222 1.648-1.864 5.12-3.288 14.167-5.814 14.924-4.166 23.252-7.803 28.735-12.548 1.542-1.334 5.005-4.986 7.699-8.118 7.618-8.856 13.092-13.601 26.53-22.998 3.067-2.144 6.338-4.745 9.086-7.096v-.934c-2.559 2.226-5.737 4.665-10.596 8.104-13.067 9.25-18.108 13.645-25.639 22.35-2.488 2.877-5.353 6.04-6.364 7.03-5.294 5.178-14.243 9.27-29.516 13.497-11.995 3.32-15.079 4.963-15.832 8.435-.456 2.097-.276 2.88 1.85 7.993 2.098 5.045 2.592 8.022 1.888 11.39-1.739 8.311-10.816 13.889-22.313 13.709-6.615-.104-14.086-2.493-19.786-6.332-2.484-1.673-6.5-5.124-9.047-7.775-2.998-3.12-7.636-6.86-9.836-7.928-2.972-1.443-7.371-2.374-11.705-2.478-1.881-.045-6.859.316-11.06.806-13.826 1.611-20.39 1.185-27.41-1.781-5.305-2.241-8.156-5.47-10.344-11.72-1.572-4.492-2.75-6.438-5.264-8.682-4.638-4.142-9.815-5.41-21.19-5.195-13.655.259-19.473-1.448-22.602-6.633-1.26-2.09-1.28-2.28-.584-5.605.853-4.067 1.693-5.106 9.174-11.347 2.54-2.119 5.716-5.147 7.057-6.73 2.336-2.756 2.482-3.064 3.414-7.252a246.51 246.51 0 0 0 1.797-9.083c.978-5.582 1.884-7.537 7.79-16.808 5.297-8.316 6.855-10.35 12.932-16.875 7.67-8.234 8.39-9.536 11.844-21.414 2.939-10.102 5.602-13.687 16.771-22.57 9.572-7.613 11.141-9.294 16.662-17.857 4.888-7.581 6.197-10.499 6.909-15.395.826-5.69.064-7.99-5.13-15.475-2.887-4.16-3.567-6.185-2.986-8.887.63-2.929 1.463-4.148 5.702-8.35 2.99-2.963 3.798-4.029 4.292-5.662.759-2.512.37-3.108-5.556-8.49-7.988-7.256-9.988-10.319-9.473-14.5.408-3.309 1.91-5.206 7.91-9.995 6.736-5.378 7.341-6.061 8.29-9.376.72-2.507.714-3.051-.032-4.488-1.286-2.478-4.904-5.191-9.9-7.423-8.984-4.014-18.12-5.8-35.717-6.981-9.835-.66-18.138-1.465-24.462-2.29zM200.985 94.76c-.173 0-.344.033-.517.04l-1.195.69c8.214-.715 15.225 1.554 17.558 6.185 2.824 5.604-.926 11.543-8.701 13.778-4.037 1.16-8.662 1.292-12.657.363-5.977-1.39-10.9-4.378-12.586-7.64a6.3 6.3 0 0 1-.706-2.819l-.748.433c.013 1.007.141 1.974.535 2.67 1.311 2.321 3.949 4.471 7.411 6.04 2.999 1.36 3.466 1.473 8.456 2.037 4.683.529 5.615.538 8.222.081 6.847-1.2 11.262-4.6 12.277-9.454 1.409-6.733-4.452-11.861-14.15-12.384a34.7 34.7 0 0 0-3.2-.02zm-40.272 22.994-.709.41c3.159.947 6.744 2.077 11.257 3.557 14.026 4.6 22.7 6.446 32.047 6.812 7.014.274 12.817-.328 23.642-2.448 11.172-2.189 12.864-2.241 16.761-.522 3.176 1.401 11.2 7.98 14.3 11.724 4.395 5.308 4.768 8.218 2.008 15.722-4.413 11.995-3.893 15.103 3.935 23.498 6.457 6.925 7.609 10.075 5.866 16.027-1.33 4.544-4.824 11.076-8.215 15.356-1.517 1.916-5.463 6.012-8.766 9.102-9.676 9.051-11.93 12.046-16.483 21.89-4.06 8.776-6.18 11.67-14.15 19.329a280.197 280.197 0 0 0-7.179 7.196c-1.844 1.935-5.397 5.523-7.895 7.972-9.984 9.786-11.152 11.603-15.863 24.633-2.732 7.557-5.947 11.22-15.782 17.99-7.708 5.304-8.481 6.107-8.833 9.17-.312 2.712-.3 2.74 7.17 15.548 5.67 9.72 6.798 11.364 9.5 13.83 2.763 2.52 6.085 4.175 14.685 7.318 7.842 2.867 10.396 4.047 17.843 8.24 9.248 5.21 14.714 7.507 27.093 11.38 14.372 4.496 23.245 5.885 36.24 5.676 13.213-.212 16.232.5 26.347 6.21 7.602 4.29 11.522 6.062 17.275 7.81 7.99 2.425 25.145 5.894 34.197 6.913 8.465.954 11.494.549 21.921-2.937 5.137-1.717 8.485-1.656 10.997.201 1.218.902 1.762 1.806 1.635 2.974l1.003-.579c-.417-2.123-2.936-3.995-6.219-4.354-2.796-.305-5.55.215-10.51 1.985-9.69 3.456-13.942 3.466-31.946.085-19.163-3.598-25.858-5.837-37.932-12.685-9.877-5.601-13.31-6.408-26.102-6.142-14.566.303-23.024-1.166-40.728-7.073-9.31-3.107-14.869-5.542-22.37-9.795-6.76-3.831-10.21-5.412-18.784-8.61-8.857-3.306-10.79-4.285-13.718-6.95-2.96-2.694-4.474-4.95-11.416-17.01-3.398-5.905-5.42-9.924-5.556-11.034-.333-2.728 1.066-4.274 8.516-9.41 11.099-7.65 13.618-10.659 16.783-20.046 3.2-9.492 5.912-13.702 13.794-21.412a565.575 565.575 0 0 0 9.102-9.153 431.244 431.244 0 0 1 8.662-8.664c6.927-6.683 8.781-9.336 13.36-19.11 4.224-9.021 6.71-12.249 16.46-21.382 7.136-6.685 9.434-9.448 12.527-15.059 6.846-12.419 6.6-16.936-1.39-25.465-7.967-8.505-8.613-11.235-5.016-21.222 2.401-6.668 2.965-10.47 1.947-13.167-1.145-3.037-4.368-6.832-9.66-11.374-6.058-5.2-8.384-6.377-13.3-6.744-2.87-.214-4.163-.085-9.247.924-17.678 3.51-20.768 3.753-31.94 2.522-9.699-1.068-12.345-1.695-26.003-6.158-4.298-1.405-7.932-2.548-11.16-3.5zm217.038 4.474c-1.96 1.225-3.645 2.337-4.218 2.86-2.361 2.16-3.728 5.414-3.835 9.123-.178 6.197 1.872 11.72 7.814 21.056 6.202 9.743 6.981 13.748 3.562 18.32-2.397 3.206-5.423 5.057-18.025 11.029-5.943 2.816-8.64 4.514-10.777 6.786-2.282 2.425-2.788 5.426-1.357 8.05 3.348 6.143 15.543 10.862 28.573 11.06 5.863.089 10.71-.478 23.788-2.782 14.99-2.64 16.54-2.789 22.334-2.138 3.948.443 4.873.662 7.224 1.712 3.79 1.692 6.306 4.267 9.616 9.843 2.199 3.705 3.958 6.105 6.443 9.146v-1.37c-2.06-2.61-3.84-5.114-5.966-8.7-3.185-5.37-5.31-7.467-9.436-9.313-2.801-1.253-3.48-1.42-7.684-1.876-6.187-.672-10.21-.3-23.985 2.221-14.527 2.66-18.695 3.04-26.239 2.393-4.381-.376-6.6-.715-8.982-1.378-7.613-2.12-13.949-6.261-15.327-10.02-.867-2.36-.71-3.23.986-5.486 1.936-2.574 4.89-4.422 14.862-9.297 12.586-6.152 15.471-8.564 16.544-13.822.39-1.912.347-3.308-.153-4.963-.826-2.734-.829-2.74-5.496-10.33-6.858-11.155-8.336-15.905-6.994-22.491l.831-4.086 2.363-2.119c.83-.745 2.476-1.854 4.287-2.992zm-222.42 7.937c-7.12-.222-13.565.482-19.652 2.04l-2.423 1.4c6.027-1.867 13.402-3.015 20.145-2.997 5.177.018 12.249 1 23.564 3.293 15.515 3.144 26.095 4.51 37.84 4.892 10.902.354 16.442 1.06 19.561 2.492 4.231 1.942 6.466 4.541 7.263 8.442.236 1.155.013 4.586-.574 8.826-1.453 10.471-.567 13.707 5.843 21.313 4.7 5.576 5.497 6.788 6.46 9.852 1.51 4.807-.322 12.407-4.482 18.598-1.029 1.531-4.413 5.452-7.52 8.713-3.107 3.26-8.573 9.58-12.148 14.045-6.822 8.52-9.868 11.545-17.192 17.071-5.568 4.202-8.14 6.51-13.632 12.24-5.107 5.328-10.399 10.134-17.102 15.527-6.186 4.979-8.054 6.997-11.425 12.352-4.21 6.687-6.977 8.778-11.96 9.042-1.755.093-2.612-.035-4.595-.69-3.14-1.036-5.048-2.186-11.798-7.115-3.042-2.221-10.743-7.369-17.114-11.44-6.37-4.07-13.012-8.32-14.76-9.442-11.845-7.602-18.693-14.737-20.471-21.333-1.596-5.915-.994-10.572 2.383-18.464 2.011-4.7 2.53-6.637 5.443-20.362l3.219-15.168 3.884-5.969c5.102-7.837 6.008-9.815 6.654-14.537.606-4.428.11-7.48-2.001-12.317-.768-1.76-1.962-4.489-2.654-6.064h-.002c-.84-1.91-1.085-3.195-.978-4.546l-1.11.639c.168 1.74 1.059 4.024 2.762 7.68 2.49 5.348 3.494 9.107 3.48 13.074-.01 3.971-1.584 7.614-6.44 14.909l-3.873 5.818-3.106 14.7c-2.785 13.185-3.34 15.26-5.375 20.128-2.729 6.529-4.193 12.958-3.835 16.827.226 2.454 1.585 6.821 2.707 8.699 1.598 2.674 5.019 6.466 8.412 9.322 4.203 3.537 5.87 4.663 24.363 16.467 6.496 4.146 14.125 9.222 16.953 11.28 9.899 7.202 11.397 7.957 16.585 8.332 6.146.445 9.075-1.446 13.869-8.954 3.6-5.638 5.313-7.443 12.822-13.509 7.81-6.31 8.383-6.831 15.73-14.376 3.5-3.594 8.025-7.84 10.057-9.435 2.031-1.596 5.281-4.14 7.221-5.654 5.098-3.98 6.77-5.734 13.269-13.929 3.205-4.042 8.532-10.206 11.84-13.697 9.055-9.557 11.104-12.892 12.698-20.687 1.458-7.126.494-9.939-5.987-17.486-6.481-7.548-7.564-10.858-6.464-19.782 1.418-11.51 1.053-13.735-2.79-16.98-4.084-3.448-8.634-4.45-21.973-4.837-12.813-.372-22.62-1.555-36.964-4.458-14.7-2.975-18.786-3.601-24.627-3.785zm268.905 18.904c-.792 1.95-1.598 4.207-2.482 7.092-1.044 3.405-2.018 6.25-2.166 6.32-.148.07-.716 2.747-1.264 5.943-1.223 7.132-.936 8.644 2.121 11.148 2.86 2.343 5.67 3.126 17.176 4.796 4.735.687 9.271 1.504 11.272 1.996v-.514c-2.242-.514-5.118-1.06-10.503-1.892-12.791-1.977-14.729-2.52-17.377-4.875-3.535-3.142-3.539-6.933-.019-18.172 1.782-5.689 2.918-9.047 3.905-11.462zM88.987 159.164l-.426.248c.416.533 1.055 1.242 1.973 2.089 2.74 2.526 5.025 6.271 5.427 8.896.622 4.064-1.378 8.5-5.839 12.95l-5.767 5.756c-1.12 1.118-1.952 2.032-2.536 2.78v1.253c.714-.976 3.026-3.426 5.396-5.693 6.027-5.763 7.995-8.373 9.075-12.046 1.555-5.29-.155-9.966-5.346-14.626a24.717 24.717 0 0 0-1.957-1.607zm115.84 2.302c-4.22-.163-8.22.886-16.115 4.224-7.838 3.315-11.323 4.338-17.018 5.003-3.037.355-4.408.325-9.348-.218-6.051-.664-6.82-.86-15.518-3.928-8.755-3.088-11.773-1.952-18.908 7.113-7.207 9.157-10.433 15.203-11.115 20.833-.486 4.018-.087 6.729 2.022 13.702 2.607 8.618 2.397 9.15-6.885 17.479-6.427 5.766-8.312 7.957-9.92 11.532-1.684 3.744-1.342 8.806.82 12.101 4.956 7.554 21.315 13.831 40.49 15.536 7.275.647 12.31.306 18.007-1.22 7.636-2.046 13.026-5.181 22.674-13.184 7.573-6.28 11.685-9.127 20.073-13.889 3.995-2.268 8.862-5.217 10.814-6.552 6.373-4.36 16.557-14.463 20.444-20.284 1.65-2.472 2.091-3.597 2.92-7.446 1.108-5.145.878-7.252-1.22-11.184-1.36-2.547-3.036-4.465-10.237-11.713-2.507-2.521-6.236-6.709-8.287-9.306-5.305-6.714-7.956-8.378-13.693-8.6zm-2.059.597a16.543 16.543 0 0 1 3.14.056c4.656.524 7.1 2.224 11.632 8.083 3.303 4.271 5.379 6.569 10.538 11.67 9.616 9.51 11.29 13.43 9.135 21.399-1.23 4.548-2.726 6.923-8 12.71-7.624 8.365-13.815 13.246-24.372 19.217-10.334 5.844-12.693 7.487-23.663 16.49-9.448 7.754-15.92 10.939-25.187 12.395-5.106.804-8.424.816-15.04.054-6.649-.765-14.428-2.479-20.32-4.477-11.085-3.759-17.534-9.019-18.799-15.334-.206-1.03-.134-2.935.16-4.23 1.057-4.656 4.066-8.565 10.932-14.208 6.345-5.215 6.81-5.815 7.657-9.809.71-3.365.688-3.562-1.024-8.926-2.253-7.058-2.586-9.83-1.705-14.119 1.028-4.995 4.418-10.97 10.858-19.14 3.46-4.39 5.724-6.52 8.023-7.557 3.15-1.42 4.084-1.276 14.012 2.175 9.55 3.319 18.819 3.79 28.527 1.45 1.67-.403 6.276-2.113 10.235-3.799 6.177-2.63 10-3.849 13.261-4.1zm-4.046 30.964c-1.1.018-2.122.157-3.706.428-3.852.66-8.55 2.421-10.811 4.051-1.4 1.008-3.279 3.395-4.02 5.11-.642 1.48-4.345 18.979-4.181 19.753.238 1.126 1.69 1.268 5.466.54 7.315-1.413 16.26-4.093 21.27-6.374 4.131-1.881 5.392-2.679 7.8-4.931 3.319-3.103 4.45-4.766 4.987-7.335.81-3.867-1.266-7.11-5.961-9.322-2.062-.972-3.023-1.206-6.684-1.621-1.886-.215-3.06-.317-4.16-.3zm-.396.671c3.624-.215 7.208.242 10.089 1.492 8.438 3.66 8.512 10.672.183 17.136-2.723 2.114-10.72 5.714-15.921 7.169-5.735 1.604-14.138 3.59-14.857 3.508-.325-.037-.701-.33-.834-.653-.351-.85.42-4.902 2.545-13.405 1.69-6.756 2.012-7.632 3.365-9.116 3.23-3.543 9.39-5.771 15.43-6.13zm122.536 11.57c-5.644-.218-10.193 1.507-17.98 6.813-5.36 3.652-9.745 6.262-18.13 10.793-7.64 4.128-11.415 7.09-13.92 10.922-1.496 2.29-2.528 6.498-3.515 14.346-.793 6.297-1.493 8.156-5.675 15.04-1.452 2.391-2.821 4.76-3.043 5.262-.799 1.813-1.287 4.443-1.133 6.11.268 2.893 1.926 5.655 6.504 10.828 8.234 9.305 9.986 12.12 12.54 20.177 1.997 6.304 3.635 8.473 7.834 10.376 3.932 1.783 7.361 2.483 20.743 4.23 12.124 1.582 15.59 1.695 22.917.747 6.622-.856 26.34-5.59 38.111-9.15 9.901-2.995 13.737-5.06 22.864-12.306 9.64-7.654 13.361-9.817 24.84-14.442 15.77-6.355 21.825-9.615 27.637-14.876 3.4-3.078 5.854-6.142 7.437-9.204v-1.944c-1.383 3.38-3.882 6.793-7.51 10.18-5.504 5.137-12.55 9.036-26.205 14.503-13.246 5.303-17.13 7.508-26.845 15.23-10.457 8.313-13.378 9.716-29.502 14.197-8.492 2.36-21.642 5.545-27.237 6.592-2.422.454-6.473.98-9 1.172-4.328.326-5.148.282-14.149-.75-10.712-1.23-18.237-2.562-21.829-3.866-5.188-1.884-7.07-4.193-9.451-11.596-2.435-7.569-4.205-10.494-10.789-17.83-5.369-5.982-7.002-8.274-7.682-10.772-.803-2.95.083-6.646 2.56-10.67 5.454-8.862 6.18-10.946 7.783-22.34.827-5.876.995-6.466 2.465-8.688 2.939-4.442 6.493-7.038 18.216-13.306 3.252-1.739 8.657-5.01 12.01-7.27 14.059-9.47 17.292-9.893 32.428-4.25 12.685 4.73 21.213 6.888 32.033 8.107 7.153.806 11.04.937 23.267.787 11.166-.137 18.238.464 22.44 1.913 3.86 1.331 25.375 13.889 29.5 17.218 3.62 2.922 6.115 6.012 7.497 9.21v-1.9c-.055-.108-.082-.214-.139-.32-2.637-4.926-6.937-8.385-19.487-15.676-12.005-6.974-14.29-8.166-17.584-9.185-4.115-1.272-11.069-1.886-20.064-1.77-16.295.21-23.262-.146-31.614-1.614-7.558-1.33-15.115-3.464-24.237-6.848-8.694-3.225-11.663-4.057-14.906-4.18zm-2.506 18.393c-4.207.065-7.358.481-11.476 1.281-11.703 2.274-20.513 6.644-24.389 12.101-.864 1.218-1.76 4.044-3.617 11.428-2.28 9.059-2.658 10.156-4.95 14.334-3.22 5.874-4.249 10.089-3.235 13.264.985 3.086 2.706 5.39 8.264 11.061 2.677 2.733 6.52 6.835 8.537 9.114 4.52 5.108 7.28 7.435 10.78 9.088 5.236 2.472 14.949 4.583 22.33 4.852 10.889.398 24.307-2.397 34.203-7.124 5.182-2.475 7.749-4.292 12.732-9.014 7.03-6.662 9.832-9.013 13.89-11.659 5.033-3.283 18.287-9.297 27.655-12.55 12.66-4.397 16.792-6.513 20.291-10.386 1.54-1.704 1.913-2.482 2.525-5.285.677-3.103.648-3.416-.5-5.565-2.09-3.91-4.824-5.656-18.267-11.662-12.987-5.802-16.551-7.26-20.398-8.342-3.978-1.12-16.537-2.392-26.472-2.685-13.367-.393-20.96-.753-30.086-1.42-8.346-.609-13.61-.895-17.817-.83zm.236.524c3.741-.074 8.156.131 14.431.597 10.824.804 16.234 1.082 31.536 1.62 20.907.733 27.185 1.768 36.53 6.014 2.598 1.18 7.904 3.5 11.792 5.16 8.771 3.743 12.545 5.805 15.302 8.354 2.805 2.594 3.721 5.036 3.064 8.169-.81 3.863-4.232 7.346-10.045 10.228-1.863.923-7.191 3.018-11.84 4.655-4.648 1.636-11.222 4.182-14.609 5.656-11.613 5.053-16.995 8.596-25.761 16.965-3.26 3.112-7.334 6.592-9.054 7.73-7.703 5.103-20.487 9.104-32.543 10.19-3.951.355-5.208.32-11.003-.32-7.374-.814-11.844-1.884-16.806-4.019-3.739-1.609-6.572-3.956-11.439-9.475-2.112-2.395-5.875-6.42-8.36-8.947-5.474-5.561-7.324-7.979-8.19-10.698-.647-2.03-.467-5.916.359-7.717.23-.502 1.359-2.68 2.506-4.84 3.051-5.748 4.242-9.192 5.741-16.597 1.51-7.459 2.466-9.5 5.902-12.627 3.795-3.454 13.513-7.414 22.095-9.003 3.58-.663 6.65-1.02 10.392-1.095zm-150.33 4.108c-.672.06-1.565.276-2.96.677-5.745 1.648-13.56 5.88-14.775 8.002h.002c-1.228 2.146.31 3.24 4.269 3.034 6.012-.312 11.012-3.013 14.39-7.775 1.53-2.16 1.727-3.187.701-3.662-.507-.235-.957-.334-1.628-.276zm-.047.603c.473-.065.822-.054 1.012.048 1.843.996-4.057 7.362-8.391 9.053-4.174 1.628-8.244 1.986-9.598.843-.76-.642-.589-.97 1.51-2.837 2.788-2.48 12.153-6.653 15.467-7.108zm190.977 7.425c-2.928 0-6.313.06-10.339.174-13.05.363-14.752.367-25.242.044-15.896-.49-22.027.75-26.97 5.455-2.529 2.406-3.747 4.767-8.049 15.578-4.02 10.1-4.622 12.142-4.306 14.63.721 5.671 6.28 9.603 19.576 13.845 3.116.995 8.338 2.945 11.603 4.334 7.018 2.985 8.809 3.549 12.637 3.981 4.936.559 8.3-.046 13.532-2.441 3.717-1.7 5.511-2.852 9.742-6.249 6.103-4.9 9.714-7.267 17.303-11.348 13.672-7.354 19.337-11.05 22.862-14.916 1.852-2.031 2.213-2.721 2.781-5.317.621-2.838.583-3.113-.745-5.587-2.33-4.337-8.634-8.511-15.481-10.253-5.456-1.388-10.12-1.933-18.904-1.93zm1.219.51c14.217.1 22.093 2.32 28.598 7.751 4.228 3.53 5.148 5.53 4.322 9.41-.528 2.486-.913 3.266-2.35 4.774-4.031 4.224-9.234 7.619-23.39 15.27-6.596 3.564-11.601 6.895-18.328 12.191-4.122 3.246-9.382 6.115-12.863 7.016-1.087.28-3.331.6-4.984.708-4.07.268-6.631-.39-14.63-3.75-3.471-1.457-9.29-3.627-12.934-4.821-10.793-3.54-15.568-6.34-17.743-10.404-1.154-2.157-1.182-2.47-.519-6.047.396-2.134 1.49-5.629 2.52-8.049 1.001-2.353 2.633-6.359 3.625-8.9 2.987-7.652 5.615-10.757 10.878-12.861 5.187-2.074 9.448-2.437 23.45-1.994 8.491.267 13.06.233 27.851-.211 2.304-.069 4.466-.099 6.497-.084zm-9.999 11.503c-6.919.052-28.753 1.462-32.14 2.075-5.583 1.012-10.034 3.638-11.877 7.011-2.37 4.34-1.24 7.888 3.16 9.913 5.12 2.357 22.857 3.166 33.182 1.514 8.334-1.332 18.374-5.278 22.102-8.687 2.248-2.056 3.436-5.447 2.49-7.11-1.767-3.104-7.796-4.784-16.917-4.716zm-.732.56c4.69-.144 10.068.475 12.618 1.448 2.77 1.057 4.534 2.85 4.59 4.665.174 5.573-14.214 12.39-29.284 13.873-7.251.714-21.273-.019-25.74-1.336-2.413-.714-4.502-2.263-5.306-3.933-.432-.896-.508-2.07-.213-3.4 1.053-4.777 5.801-8.135 13.243-9.366 3.103-.514 20.93-1.669 30.092-1.95zM81.82 256.289v1.813c2.79 4.357 6.71 8.772 13.162 15.138 9.304 9.18 13.31 14.148 19.453 24.126 4.564 7.415 5.96 9.117 10.401 12.662 2.087 1.665 5.301 4.281 7.143 5.813 6.346 5.278 6.265 6.078-1.334 13.174-6.896 6.44-6.696 6.22-8.973 9.81-2.392 3.774-4.148 9.585-4.124 13.652.009 1.586.455 5.127.99 7.87 1.2 6.13 1.191 7.99-.043 9.975-1.486 2.39-4.77 4.403-13.952 8.553a185.815 185.815 0 0 0-8.929 4.322l.77.442c2.57-1.329 5.289-2.665 8.645-4.21 10.102-4.65 10.624-4.936 12.748-6.967 2.39-2.285 2.917-5.427 1.848-11.01-1.665-8.696-1.629-12.215.174-16.963 2.182-5.747 5.17-9.558 12.428-15.856 3.626-3.147 4.265-3.895 4.81-5.623.903-2.866-.278-4.611-6.216-9.19-9.466-7.3-10.407-8.364-17.077-19.254-4.827-7.882-9.266-13.194-18.723-22.403-2.838-2.764-5.777-5.76-6.53-6.659-2.755-3.285-4.97-6.38-6.671-9.215zm0 19.885v1.73C90.587 291 92.131 296.33 91.382 309.02c-.485 8.215.11 10.3 4.73 16.56 3.556 4.82 4.63 7.824 4.933 13.782.136 2.684.401 7.562.588 10.842.432 7.58-.089 11.883-1.765 14.612-1.95 3.173-4.364 5.125-15.253 12.03l.724.416c3.704-2.363 7.944-5.044 9.323-6.033 6.893-4.948 8.717-9.683 7.835-20.34-.152-1.838-.357-5.872-.456-8.965-.284-8.833-1.062-11.292-5.455-17.266-4.248-5.778-4.883-8.267-4.342-16.982.184-2.973.221-6.628.083-8.122-.516-5.562-3.624-13.353-7.571-18.98-1.17-1.667-1.919-2.896-2.937-4.4zm367.074 40.188c-1.955 1.16-5.029 3.378-7.191 5.362-1.71 1.569-3.788 3.93-4.616 5.246-1.861 2.956-3.077 8.098-2.603 11.004.573 3.52 2.969 6.962 6.461 9.282 1.119.743 2.222 1.373 2.453 1.4.976.109.412-.568-1.285-1.54-5.934-3.403-8.522-10.713-5.918-16.702 1.986-4.567 7.213-9.99 12.7-13.183zm-300.365 28.235c-3.645-.41-7.903 1.088-9.646 3.396-3.883 5.142-.144 10.874 7.666 11.751 5.326.598 8.378-1.14 9.693-5.516.955-3.177.405-5.257-1.885-7.136-1.815-1.49-3.573-2.24-5.828-2.495zm-1.741.58c.674 0 1.38.062 2.18.196 4.818.813 7.597 4.215 6.72 8.23-.865 3.962-4.458 6.189-9.139 5.662-3.414-.385-6.077-2.01-7.383-4.512-.537-1.028-.987-2.304-1.003-2.834-.072-2.559 3.226-5.794 6.647-6.522a9.477 9.477 0 0 1 1.978-.218zm288.747 25.759c-2.036-.034-4.56.102-6.438.428-6.003 1.041-11.816 4.347-13.806 7.852-1.944 3.422-.665 7.744 3.205 10.836.701.56 1.421 1.035 2.152 1.487l.704-.405c-2.482-1.564-5.026-4.234-5.742-6.156-2.447-6.57 7.467-13.521 19.298-13.521 1.538 0 3.082.104 3.427.231.346.128.664.056.709-.159.075-.356-1.473-.559-3.509-.593zm-271.05 1.588c-2.275.091-4.196.4-5.867.934-1.129.361-4.746 1.898-8.037 3.411-6.957 3.202-10.395 4.182-22.454 6.409-10.637 1.965-16.163 3.484-21.988 5.994l.808.465c1.44-.598 2.862-1.207 4.41-1.725 5.665-1.896 8.926-2.674 19.316-4.604 10.883-2.022 13.476-2.797 21.384-6.393 4.162-1.892 7.619-3.2 9.29-3.515 7.495-1.413 17-.028 25.036 3.645 1.774.811 5.689 3.003 8.697 4.868 5.726 3.552 10.484 5.823 14.41 6.881 1.282.346 6.411 1.31 11.398 2.14 10.57 1.761 12.993 2.33 24.673 5.804 4.785 1.424 11.893 3.38 15.797 4.348 12.939 3.209 14.628 3.968 22.017 9.922 5.713 4.603 7.465 5.398 12.683 5.748 2.339.158 4.696.04 7.416-.368 14.339-2.153 17.814-2.34 24.422-1.33 8.783 1.344 15.42 4.722 19.34 9.844 1.675 2.19 2.516 4.713 2.624 7.406l.822-.474c-.026-.536-.026-1.085-.123-1.584-.673-3.487-2.07-5.746-5.297-8.568-4.77-4.172-10.475-6.378-18.964-7.325-6.146-.688-9.739-.546-17.912.701-14.957 2.284-16.557 1.97-24.803-4.863-6.326-5.243-8.747-6.336-20.462-9.234-4.004-.99-11.535-3.061-16.736-4.6-11.623-3.44-15.728-4.4-25.284-5.915-12.703-2.014-15.6-3.038-25.171-8.91-9.844-6.04-14.29-7.694-23.469-8.727-3.076-.346-5.702-.475-7.976-.385zm-35.529 22.872c-3.515.065-6.822.55-9.9 1.334l.838.484c3.03-.765 6.234-1.265 9.095-1.309 3.816-.06 10.676.767 15.923 1.918 7.373 1.618 11.283 1.92 17.989 1.39 7.329-.58 9.852-.313 19.146 2.021 6.4 1.608 8.393 1.953 20.372 3.54 13.575 1.797 15.388 2.17 19.277 3.948 2.273 1.04 5.332 3.597 6.267 5.241.92 1.617 1.734 5.014 2.112 8.825.473 4.755.98 6.789 2.284 9.169 2.062 3.762 6.12 6.509 12.548 8.493 1.529.471 6.165 1.345 10.898 2.054 4.53.679 9.904 1.584 11.939 2.01 14.528 3.047 24.944 11.016 23.522 17.999-.387 1.9-2.124 4.173-4.681 6.429l2.964-1.714c1.846-2.44 2.93-6.298 2.263-8.555-.982-3.325-3.703-6.255-8.33-8.97-6.357-3.73-11.751-5.304-24.579-7.178-5.091-.744-10.57-1.723-12.175-2.175-9.963-2.8-14.246-6.956-15.4-14.943-1.189-8.235-1.402-9.288-2.26-11.05-1.128-2.318-3.899-4.864-6.578-6.047-4.178-1.845-6.72-2.36-20.95-4.257-12.434-1.657-14.3-1.982-19.134-3.314-7.761-2.14-13.231-2.718-19.948-2.115-7.068.635-8.562.531-16.516-1.13-8.2-1.713-12.07-2.19-16.986-2.098zm66.86 35.991c-1.461.045-3.195.87-7.45 3.252-.567.317-1.284.655-1.932.991l.748.43c1.346-.694 2.337-1.136 4.106-2.11 5.397-2.968 6.692-2.623 10.427 2.776 2.74 3.96 7.426 8.06 12.493 10.927 1.979 1.119 7.337 3.762 11.905 5.873 11.605 5.365 14.747 7.844 12.675 10.006-.447.467-1.134.837-2.024 1.155l.792.459c1.554-.606 2.478-1.42 2.705-2.497.496-2.345-2.965-4.804-13.671-9.713-13.974-6.408-20.121-10.625-23.858-16.37-2.092-3.217-3.476-4.482-5.461-4.991-.51-.13-.967-.203-1.455-.188z" style="display:inline;mix-blend-mode:normal;fill:#929292;fill-opacity:1;stroke:none;stroke-width:3.2;stroke-dasharray:none;stroke-opacity:.490196"/><path d="M265.355 34.147c-127.692 0-231.208 103.516-231.208 231.208 0 127.694 103.515 231.21 231.208 231.21 127.694 0 231.21-103.516 231.21-231.21 0-127.693-103.516-231.209-231.21-231.208Zm0 51.357c102.864 0 179.853 76.987 179.853 179.851 0 102.865-76.988 179.853-179.853 179.853-102.864 0-179.85-76.989-179.85-179.853 0-102.863 76.987-179.85 179.85-179.85Zm0 12.868zm0 0zm27.838 2.63zm-55.681 0zm77.422 5.218zm-99.167.004zm119.297 7.721zm-139.425.005zm-18.742 10.112zm176.928.007zM159.687 136.4zm211.352.01zm15.46 14.368zm-242.291.005zm-13.504 16.173zm269.308.004zm11.357 17.742zm-292.029.005zm-9.023 19.005zm310.08.004zm6.566 19.992zm-323.215.002zm-4 20.651zm-1.376 20.993zm332.592-20.993zm1.376 20.993zm-.312 9.641zm-.641 7.846zm-.957 7.472zm-329.428 2.878zm328.163 4.42zm-1.588 7.242zm-1.888 7.091zm-319.469 2.989zm317.272 4.02zm-2.507 6.915zm-3.623 8.535zm-303.417.66zm299.878 6.641zm-3.641 6.704zm-286.113 5.416zm282.276.946zm-4.086 6.146zm-4.336 5.94zm-261.511 4.182zm256.921 1.556zm-4.84 5.536zm-5.061 5.3zM150.779 386.5zm225.535 3.598zm-5.915 5.02zm-5.965 4.613zm-197.472.281zm191.383 4.005zm-6.212 3.976zm-167.43 3.377zm161.057.317zm-6.495 3.393zm-6.655 3.113zm-128.893 2.205zm120.352 1.248zm-7.681 2.669zm-7.304 2.162zm-85.375.486zm78.128 1.312zm-7.225 1.455zm-7.3 1.138zm-42.949.097zm20.992 1.376zm14.67-.661z" style="display:inline;fill:url(#c);fill-opacity:1;fill-rule:nonzero;stroke-width:12.845"/><g aria-label="Paris × 2026" style="font-size:40.96px;line-height:1.25;font-family:Courgette;-inkscape-font-specification:&quot;Courgette, Normal&quot;;text-align:center;letter-spacing:3.2px;word-spacing:3.2px;text-anchor:middle;white-space:pre;fill:#f6f5f4;stroke-width:.64;stroke-linecap:round;stroke-linejoin:round;stroke-miterlimit:3.1;stop-color:#000"><path d="m127.586 403.98-7.834 8.392 4.196 3.917q.862.806 1.923 1.194 1.074.373 2.177.335 1.102-.038 2.133-.497 1.06-.461 1.865-1.324.805-.863 1.179-1.937.402-1.075.364-2.177-.038-1.103-.498-2.134-.446-1.046-1.309-1.851zm-15.654 16.77-4.196-3.918 19.571-20.964 8.392 7.834q1.155 1.078 1.936 2.382.794 1.288 1.196 2.704.43 1.414.468 2.899.065 1.483-.268 2.924-.318 1.454-1.022 2.794-.689 1.354-1.767 2.51-1.61 1.724-3.702 2.645-2.077.906-4.282.982-2.205.076-4.354-.7-2.134-.76-3.86-2.371l-4.195-3.917zM146.121 448.236l-1.074-.767-.017-3.624q-1.042.116-2.118.11-1.049-.012-2.097-.195-1.037-.2-2.019-.581-.965-.37-1.811-.974-1.84-1.313-3.025-3.094-1.17-1.769-1.554-3.812-.357-2.048.164-4.257.52-2.209 2.077-4.39 1.453-2.035 3.361-3.228 1.92-1.21 3.997-1.57 2.092-.35 4.18.134 2.116.478 3.955 1.791.846.605 1.526 1.409.679.804 1.193 1.736.514.933.853 1.937.356 1.016.556 2.043l3.202-.835 1.074.767zm1.857-12.067q.651-.911.897-2.013.274-1.107.137-2.188-.126-1.097-.66-2.069-.508-.976-1.42-1.627-.91-.65-1.946-.923-1.018-.26-2.05-.088-1.016.184-1.997.836-.97.634-1.783 1.774-.813 1.14-1.11 2.279-.287 1.123-.13 2.143.172 1.032.749 1.911.593.89 1.504 1.541.912.651 1.988.83 1.105.174 2.172-.047 1.078-.238 2.025-.84.974-.607 1.624-1.519zM157.23 454.666l-4.765-2.665 10.457-18.694 1.152.644.331 3.096q1.738-.403 3.517-.141 1.788.244 3.359 1.123l4.206 2.353-2.655 4.748-4.207-2.354q-.75-.42-1.57-.511-.82-.092-1.582.123-.762.216-1.412.723-.65.507-1.07 1.257zM187.565 439.481q-.32.69-.87 1.162-.531.48-1.195.724-.656.225-1.4.21-.716-.023-1.405-.344-.69-.32-1.188-.86-.473-.55-.724-1.196-.225-.655-.22-1.38.025-.717.345-1.406.311-.671.843-1.152.559-.49 1.196-.724.664-.243 1.38-.219.744.014 1.433.334.69.32 1.162.87.499.54.742 1.205.251.646.219 1.38-.006.725-.318 1.396zm-12.322 24.312-4.988-2.316 9.019-19.428 4.988 2.316zM193.006 470.857l-11.73-4.264 1.86-5.113 11.728 4.265q.527.191 1.04-.048.512-.24.703-.766.199-.545-.116-.85-.314-.306-.84-.498l-5.339-1.94q-1.334-.486-2.315-1.417-.98-.931-1.531-2.11-.544-1.198-.627-2.548-.065-1.343.42-2.678.485-1.334 1.397-2.322.932-.98 2.11-1.53 1.18-.551 2.523-.616 1.35-.084 2.684.401l10.394 3.78-1.858 5.112-10.395-3.78q-.526-.19-1.039.049-.512.239-.704.765-.198.545.035 1.077.239.512.765.704l5.338 1.94q1.316.479 2.317 1.354 1.009.856 1.586 1.96.578 1.103.682 2.397.104 1.293-.374 2.61-.485 1.334-1.417 2.315-.924.962-2.11 1.53-1.179.55-2.529.635-1.343.065-2.658-.414zM261.94 476.195l-3.868-3.831 3.851-3.87-4.029-4.01 3.851-3.849 4.01 3.991 4.17-4.17 3.869 3.872-4.17 4.15 4.028 4.01-3.85 3.849-4.03-3.99zM344.962 446.747q.623 1.667.54 3.385-.09 1.7-.783 3.218-.68 1.493-1.903 2.676-1.223 1.183-2.89 1.807l-2.698 1.008q-.562.21-.972.598-.41.389-.645.903-.223.49-.247 1.053-.024.565.187 1.127l1.001 2.678 12.702-4.748 2.01 5.376-18.078 6.76-3.012-8.056q-.623-1.667-.533-3.367.084-1.718.764-3.21.692-1.52 1.922-2.684 1.223-1.183 2.89-1.806l2.698-1.009q.562-.21.972-.598.41-.388.633-.877.235-.515.259-1.08.017-.582-.193-1.144-.21-.562-.599-.972-.388-.41-.896-.626-.496-.242-1.06-.266-.564-.024-1.126.187l-9.591 3.586-2.01-5.377 9.59-3.586q1.668-.623 3.368-.533 1.699.09 3.199.79 1.511.673 2.694 1.896 1.184 1.223 1.807 2.89zM366.665 442.147q-2.233-4.227-4.731-5.53-2.481-1.314-4.992.013-2.494 1.317-2.799 4.08-.304 2.762 1.947 7.024 2.233 4.226 4.696 5.549 2.463 1.322 4.957.005 1.255-.664 1.984-1.682.72-1.036.85-2.417.147-1.39-.321-3.133-.46-1.77-1.591-3.91zm4.828-2.551q1.906 3.607 2.427 6.521.522 2.914-.045 5.181-.566 2.268-2.059 3.938-1.484 1.644-3.588 2.756-2.104 1.112-4.325 1.403-2.213.264-4.405-.546-2.184-.836-4.288-2.892-2.113-2.072-4-5.645-1.906-3.607-2.419-6.503-.521-2.914.028-5.172.566-2.267 2.04-3.928 1.493-1.671 3.597-2.783 2.105-1.112 4.318-1.376 2.22-.291 4.422.536 2.202.827 4.306 2.883 2.103 2.055 3.99 5.627zM388.667 420.726q1.025 1.455 1.38 3.138.342 1.667.058 3.311-.28 1.616-1.164 3.071-.883 1.455-2.338 2.48l-2.354 1.659q-.49.346-.789.825-.298.48-.395 1.037-.091.53.028 1.081.12.552.466 1.042l1.647 2.338 11.084-7.811 3.307 4.691-15.776 11.119-4.954-7.03q-1.026-1.455-1.368-3.122-.355-1.683-.075-3.3.285-1.644 1.18-3.082.883-1.454 2.338-2.48l2.354-1.659q.49-.346.789-.825.298-.48.39-1.009.097-.557-.023-1.109-.131-.568-.477-1.059-.346-.49-.825-.788-.48-.299-1.025-.379-.541-.108-1.093.012-.552.12-1.042.465l-8.37 5.9-3.307-4.693 8.37-5.899q1.455-1.025 3.122-1.368 1.667-.343 3.295-.046 1.632.268 3.087 1.151 1.454.884 2.48 2.339zM414.553 410.468q1.563 1.715 2.33 3.803.78 2.075.752 4.212-.042 2.121-.929 4.147-.872 2.012-2.601 3.588-1.73 1.577-3.873 2.312-2.13.723-4.305.622-2.189-.116-4.242-1.033-2.038-.93-3.6-2.644-1.86-2.04-3.225-4.34-1.379-2.316-2.186-4.746-.82-2.445-1.046-4.919-.225-2.473.183-4.847l5.72-5.213q-.36 1.384-.557 2.862-.196 1.477-.224 2.99-.013 1.5.159 2.995.17 1.495.557 2.929.245-1.008.715-1.978.471-.997 1.255-1.711 1.788-1.63 3.775-2.33 1.987-.73 3.976-.566 1.975.148 3.869 1.128 1.894.98 3.497 2.739zm-4.243 3.866q-.768-.843-1.722-1.326-.953-.511-1.968-.615-1.028-.118-2.033.203-1.006.321-1.879 1.116-.872.795-1.285 1.767-.413.972-.39 2.006.024 1.006.444 2.003.408.981 1.176 1.824.74.813 1.694 1.325.954.483 1.982.601 1.028.119 2.033-.174 1.02-.307 1.877-1.088.872-.795 1.285-1.767.413-.972.404-1.991-.023-1.035-.444-2.031-.406-1.01-1.174-1.853z" style="font-family:Righteous;-inkscape-font-specification:&quot;Righteous, Normal&quot;;baseline-shift:baseline" transform="translate(.234 .17)"/></g><g aria-label="State Of The Map" style="font-size:36.9517px;line-height:1.25;font-family:Courgette;-inkscape-font-specification:&quot;Courgette, Normal&quot;;text-align:center;letter-spacing:3.2px;word-spacing:5.77371px;text-anchor:middle;white-space:pre;fill:#f6f5f4;stroke-width:.64;stroke-linecap:round;stroke-linejoin:round;stroke-miterlimit:3.1;stop-color:#000"><path d="M93.891 148.231q-1.308-.931-2.098-2.247-.79-1.317-1.035-2.776-.25-1.485.067-2.987t1.248-2.81l6.888-9.67 4.218 3.004-6.888 9.67q-.314.441-.424.938-.111.498-.026 1 .08.479.347.913.267.434.708.748.44.314.952.435.498.11.99.04.49-.095.923-.362.434-.267.748-.708l3.004-4.217q.932-1.308 2.248-2.099 1.312-.815 2.786-1.05 1.47-.26 2.976.082 1.503.317 2.81 1.249 1.308.931 2.099 2.248.8 1.301 1.05 2.786.245 1.46-.082 2.976-.317 1.502-1.249 2.81l-6.668 9.361-4.217-3.004 6.668-9.361q.314-.441.424-.938.11-.497.03-.976-.084-.503-.351-.937-.267-.433-.708-.748-.44-.314-.938-.424-.497-.11-.986-.016-.493.07-.926.337-.434.267-.748.708l-3.004 4.218q-.932 1.308-2.248 2.098-1.316.79-2.786 1.05-1.475.235-2.977-.082-1.517-.327-2.825-1.259zM130.937 130.352q-1.197 1.326-2.745 2.043-1.56.705-3.23.802-1.67.072-3.294-.472-1.612-.557-2.937-1.754l-4.257-3.847-1.61 1.78-3.64-3.29 1.608-1.78-5.73-5.177 3.29-3.641 5.73 5.177 5.008-5.543 3.641 3.29-5.007 5.543 4.257 3.846q.576.52 1.278.766.689.233 1.402.197.714-.036 1.401-.34.674-.314 1.194-.89l2.504-2.771 3.641 3.29zM151.69 110.974l-.897.784-3.186-.737q-.114.939-.343 1.883-.228.918-.606 1.8-.39.87-.929 1.652-.525.77-1.23 1.388-1.535 1.342-3.345 2.014-1.796.66-3.67.573-1.872-.112-3.703-1.027-1.831-.915-3.423-2.735-1.485-1.697-2.136-3.62-.664-1.937-.55-3.835.128-1.91.985-3.642.86-1.758 2.394-3.1.706-.619 1.553-1.048.847-.43 1.772-.687.925-.258 1.877-.348.966-.101 1.91-.064l-.07-2.984.897-.784zm-10.21-4.134q-.665-.76-1.582-1.205-.914-.47-1.892-.574-.99-.118-1.954.15-.962.243-1.723.908-.76.666-1.213 1.518-.44.84-.503 1.782-.05.93.319 1.926.356.983 1.188 1.934.831.95 1.77 1.448.927.484 1.855.558.942.063 1.833-.26.905-.337 1.665-1.002t1.141-1.573q.382-.934.41-1.917.015-.996-.318-1.951-.33-.982-.996-1.742zM165.31 101.387q-1.475 1.008-3.148 1.342-1.683.32-3.328.023-1.64-.322-3.091-1.232-1.437-.92-2.444-2.394l-3.237-4.738-1.981 1.353-2.768-4.052 1.981-1.354-4.355-6.376 4.052-2.769 4.356 6.377 6.168-4.213 2.768 4.052-6.168 4.214 3.236 4.737q.438.641 1.063 1.044.615.389 1.317.521t1.441-.001q.73-.148 1.37-.586l3.084-2.107 2.768 4.053zM178.076 88.392q.298-.055.57-.158.263-.12.519-.254.638-.337 1.135-.825.498-.487.84-1.076.349-.613.503-1.286.162-.698.114-1.407l4.885 1.52q-.151 1.182-.586 2.29-.42 1.098-1.092 2.066-.656.959-1.55 1.738-.87.786-1.94 1.35-1.802.953-3.752 1.126-1.933.165-3.762-.4-1.812-.572-3.367-1.852-1.562-1.297-2.608-3.275-1.07-2.026-1.27-4.063-.199-2.038.358-3.842.573-1.813 1.806-3.302 1.25-1.497 3.053-2.45 1.068-.564 2.224-.848 1.156-.285 2.318-.287 1.178-.01 2.347.27 1.16.265 2.221.806zm-2.513-10.162q-.362.049-.682.177-.304.12-.623.289-.893.472-1.514 1.228-.613.732-.883 1.65-.254.91-.133 1.949.111 1.022.676 2.09.127.24.303.535.192.286.408.58.224.27.456.514.231.245.477.401zM246.58 72.074l-4.889.596-1.743-14.31-2.382.29-.593-4.872 2.382-.29-.111-.914q-.216-1.773.257-3.412.49-1.64 1.515-2.929 1.04-1.308 2.518-2.16 1.475-.871 3.248-1.087l3.672-.447.593 4.872-3.671.447q-.788.096-1.434.465-.63.35-1.07.912-.425.543-.629 1.258-.206.698-.11 1.486l.112.913 6-.73.593 4.871-6 .73zM309.194 76.745l-4.756-1.283 7.033-26.078 4.756 1.282-2.222 8.24q1.027-.414 2.003-.431.981-.034 1.922.22 1.725.464 3.062 1.535 1.342 1.053 2.146 2.504.827 1.437 1.059 3.144.253 1.694-.212 3.419l-2.876 10.661-4.79-1.292 2.875-10.66.035.008q.197-.731.092-1.45-.1-.738-.456-1.357-.356-.62-.926-1.072-.57-.453-1.3-.65-.75-.202-1.487-.102-.737.1-1.357.457-.619.356-1.076.943-.453.569-.65 1.3zM336.36 80.746q.232.194.485.338.26.127.526.237.667.275 1.36.347.693.071 1.364-.042.695-.122 1.312-.434.64-.32 1.155-.81l1.95 4.729q-1.005.639-2.136 1.011-1.113.38-2.287.48-1.157.108-2.328-.083-1.16-.167-2.278-.63-1.884-.778-3.262-2.167-1.362-1.383-2.095-3.15-.718-1.76-.725-3.774 0-2.031.854-4.099.875-2.117 2.316-3.572 1.44-1.455 3.184-2.179 1.76-.717 3.694-.719 1.95.006 3.834.784 1.117.462 2.074 1.17.957.708 1.701 1.6.76.9 1.291 1.979.538 1.061.8 2.224zm6.213-8.423q-.269-.248-.572-.412-.286-.157-.62-.295-.933-.386-1.912-.38-.955-.005-1.834.374-.862.386-1.584 1.142-.715.739-1.177 1.856-.103.25-.218.574-.097.33-.185.685-.064.344-.105.679-.04.334-.004.623zM385.964 116.452l-4.116-3.112 11.142-14.738q.326-.432.437-.936.124-.494.043-.985-.056-.495-.31-.936-.255-.441-.687-.768-.431-.326-.925-.45-.494-.125-1-.055-.48.067-.921.321-.441.255-.768.686l-11.142 14.738-4.13-3.122 11.142-14.738q.326-.432.45-.926.125-.494.044-.985-.056-.495-.31-.936-.255-.441-.687-.768-.431-.326-.925-.45-.494-.125-1-.055-.48.067-.921.321-.441.255-.768.687l-11.142 14.738-4.13-3.123 11.142-14.738q.968-1.281 2.292-2.045 1.349-.767 2.815-.97 1.49-.208 2.972.166 1.507.37 2.788 1.339 1.152.87 1.901 2.093.76 1.208 1.022 2.627 1.437-.135 2.792.256 1.38.388 2.532 1.259 1.281.968 2.034 2.306.778 1.335.97 2.815.219 1.477-.166 2.973-.36 1.492-1.328 2.773zM404.105 134.84l-.828-.857.578-3.218q-.943-.067-1.897-.25-.928-.181-1.829-.515-.887-.347-1.695-.846-.796-.486-1.448-1.16-1.417-1.466-2.178-3.24-.748-1.76-.754-3.637.019-1.875.842-3.75.823-1.874 2.561-3.554 1.622-1.568 3.51-2.314 1.902-.759 3.803-.74 1.913.033 3.686.804 1.8.77 3.216 2.236.652.675 1.123 1.5.47.824.774 1.735.304.911.44 1.858.15.96.16 1.904l2.977-.217.827.856zm3.622-10.402q.726-.702 1.125-1.64.424-.937.48-1.918.067-.995-.248-1.944-.29-.95-.993-1.676-.702-.726-1.575-1.137-.861-.397-1.805-.413-.932-.003-1.908.414-.964.404-1.872 1.282-.909.878-1.359 1.84-.437.95-.466 1.88-.016.945.352 1.819.38.886 1.083 1.613.702.727 1.628 1.061.951.335 1.934.314.996-.034 1.934-.414.963-.379 1.69-1.081zM405.631 148.528l-2.946-3.992 21.474-15.843.707.958-.706 2.964q.905.163 1.826.47.922.306 1.745.753.848.45 1.583 1.052.735.6 1.292 1.356 1.21 1.64 1.676 3.517.49 1.88.208 3.747-.27 1.882-1.335 3.631-1.049 1.738-2.893 3.099-1.916 1.414-3.916 1.925-1.985.5-3.863.204-1.852-.292-3.49-1.326-1.627-1.02-2.837-2.66-.386-.523-.655-1.132-.259-.593-.445-1.24-.161-.645-.278-1.32-.107-.661-.178-1.304zm19.696-2.266q.987-.729 1.536-1.627.559-.883.7-1.816.155-.945-.09-1.885-.245-.94-.845-1.753t-1.426-1.325q-.815-.497-1.763-.627-.934-.141-1.954.118-1.009.273-1.996 1.002-.944.696-1.503 1.58-.548.897-.703 1.842-.156.944.064 1.88.23.951.83 1.764.6.813 1.441 1.314.84.501 1.789.631.948.13 1.957-.143 1.02-.26 1.963-.955z" style="font-family:Righteous;-inkscape-font-specification:&quot;Righteous, Normal&quot;" transform="matrix(1.10826 -.0215 .0215 1.10826 -30.631 2.552)"/><path d="M294.441 73.198q-1.755-.33-3.174-1.277-1.416-.965-2.37-2.337-.932-1.388-1.315-3.057-.365-1.666-.035-3.422l1.062-5.638-2.358-.444.908-4.823 2.358.444 1.43-7.59 4.822.91-1.429 7.588 7.34 1.382-.907 4.823-7.341-1.382-1.062 5.638q-.144.763.013 1.49.16.71.563 1.3.403.59 1.02 1.018.62.41 1.383.554l3.67.691-.908 4.823z" style="font-family:Righteous;-inkscape-font-specification:&quot;Righteous, Normal&quot;;fill:#fff" transform="matrix(1.10826 -.0215 .0215 1.10826 -30.631 2.552)"/><path d="M234.45 63.823q.281 2.158-.248 4.13-.532 1.953-1.685 3.494-1.155 1.522-2.85 2.548-1.68 1.005-3.731 1.273-2.032.265-3.932-.274-1.884-.56-3.409-1.733-1.509-1.193-2.524-2.945-1.017-1.77-1.298-3.928-.286-2.195.243-4.166.53-1.971 1.685-3.494 1.17-1.543 2.85-2.548 1.698-1.008 3.731-1.273 2.05-.267 3.927.238 1.893.485 3.4 1.66 1.504 1.158 2.524 2.946 1.017 1.77 1.317 4.072zm-4.946.645q-.155-1.188-.675-2.09-.504-.921-1.259-1.518-.757-.615-1.703-.857-.93-.263-1.938-.132-1.007.132-1.857.627-.835.474-1.409 1.262-.558.768-.81 1.789-.253 1.002-.098 2.19.145 1.115.647 2.019.502.904 1.241 1.52.757.615 1.692.914.951.279 1.959.147 1.007-.13 1.839-.623.85-.495 1.426-1.266.577-.77.828-1.79.27-1.023.117-2.192z" style="font-size:53.3333px;font-family:Righteous;-inkscape-font-specification:&quot;Righteous, Normal&quot;;fill:#fff;stroke-width:13.1626" transform="matrix(1.10826 -.0215 .0215 1.10826 -30.631 2.552)"/></g><path d="M340.87 774.563a229.567 229.567 0 0 0-20.176 20.564l70.382 50.044zM137.607 774.558 87.4 845.17l70.386-50.047a229.526 229.526 0 0 0-20.179-20.566zM391.076 541.495l-70.382 50.042a229.524 229.524 0 0 0 20.18 20.564zM87.4 541.495l50.207 70.613a229.45 229.45 0 0 0 20.181-20.567z" style="display:inline;fill:#ce0c15;fill-opacity:1;stroke:#520509;stroke-width:3.27646;stroke-linecap:square;stroke-linejoin:round;stroke-miterlimit:3.1;stroke-dasharray:none;stroke-opacity:1;paint-order:markers fill stroke" transform="matrix(.67408 0 0 .67408 104.09 -202.006)"/><path d="m238.923 443.392-48.865 48.927 12.214 12.23 3.034 3.037-.314 8.016c-1.037 26.576-13.277 53.063-37.986 82.206-32.345 38.149-73.596 62.201-107.653 62.774l-4.95.084-4.023-4.03-12.214-12.23-48.869 48.927 48.869 48.927 12.214-12.23 4.023-4.03 4.95.083c34.057.573 75.308 24.626 107.653 62.775 24.709 29.143 36.949 55.63 37.986 82.206l.314 8.016-3.034 3.038-12.214 12.23 48.865 48.926 49.498-48.927-12.214-12.23-3.033-3.037.313-8.016c1.038-26.577 13.277-53.063 37.986-82.206 32.346-38.149 73.594-62.202 107.652-62.775l4.95-.083 4.025 4.03 12.214 12.23 48.866-48.927-48.866-48.927-12.214 12.23-4.025 4.03-4.95-.084c-34.058-.573-75.306-24.625-107.652-62.774-24.709-29.143-36.948-55.63-37.986-82.206l-.313-8.016 3.033-3.038 12.214-12.23z" style="color:#000;display:inline;fill:url(#d);fill-opacity:1;stroke-width:5.55733;stroke-linecap:square;stroke-linejoin:round;stroke-miterlimit:3.1;-inkscape-stroke:none;paint-order:markers fill stroke" transform="matrix(.67408 0 0 .67408 104.09 -202.006)"/><path d="m238.923 443.391-48.866 48.927 12.216 12.23 3.033 3.037-.313 8.015c-1.038 26.577-13.278 53.064-37.986 82.207-32.346 38.149-73.597 62.201-107.654 62.774l-4.95.083-4.024-4.03-12.213-12.23-48.87 48.928h249.627zM489.18 693.332H238.923v249.942l49.498-48.928-12.213-12.228-3.034-3.038.313-8.015c1.038-26.576 13.278-53.064 37.986-82.207 32.346-38.149 73.595-62.201 107.652-62.774l4.95-.085 4.024 4.03 12.215 12.23z" style="color:#000;display:inline;fill:#000;fill-opacity:.350018;stroke:none;stroke-width:1.02249;stroke-linecap:square;stroke-linejoin:round;stroke-miterlimit:3.1;stroke-dasharray:none;stroke-opacity:1;paint-order:markers fill stroke" transform="matrix(.67408 0 0 .67408 104.09 -202.006)"/><path d="M232.588 722.963c-3.384-3.017-7.62-7.07-11.766-11.215-4.145-4.145-8.198-8.382-11.215-11.766v-13.3c3.017-3.385 7.07-7.622 11.215-11.767s8.382-8.198 11.766-11.215h13.301c3.384 3.017 7.621 7.07 11.766 11.215s8.198 8.382 11.215 11.766v13.301c-3.017 3.384-7.07 7.621-11.215 11.766s-8.382 8.198-11.766 11.215z" style="display:inline;fill:url(#e);fill-opacity:1;stroke:#520509;stroke-width:3.92636;stroke-linecap:square;stroke-linejoin:round;stroke-miterlimit:3.1;stroke-opacity:1;paint-order:markers fill stroke" transform="matrix(.67408 0 0 .67408 104.09 -202.006)"/><path d="M1298.319 107.57c-.512 0-36.2-35.689-36.2-36.2 0-.513 35.688-36.201 36.2-36.201.512 0 36.2 35.688 36.2 36.2 0 .512-35.688 36.2-36.2 36.2z" style="display:inline;fill:none;stroke:#520509;stroke-width:2.55999;stroke-linecap:square;stroke-linejoin:round;stroke-miterlimit:3.1;paint-order:markers fill stroke" transform="matrix(2.0609 0 0 2.0609 -2410.348 118.27)"/><path d="M653.06 314.075h13.157v13.156H653.06Z" style="display:inline;opacity:.981594;fill:#520509;stroke-width:5.74411;stroke-linecap:square;stroke-linejoin:round;stroke-miterlimit:3.1;paint-order:markers fill stroke" transform="rotate(45 295.888 24.645) scale(.67408)"/><path d="M240.876 441.415a2.779 2.779 0 0 0-3.918.015l-48.865 48.924a2.779 2.779 0 0 0 0 3.928l12.215 12.228 2.174 2.181-.267 6.803c-1.008 25.797-12.863 51.661-37.327 80.516-31.965 37.7-72.796 61.243-105.584 61.794l-3.768.063-3.19-3.194-12.215-12.231a2.779 2.779 0 0 0-3.931 0l-48.87 48.927a2.779 2.779 0 0 0 0 3.928l48.87 48.928a2.779 2.779 0 0 0 3.931 0l12.215-12.232 3.19-3.193 3.768.062c32.788.552 73.62 24.095 105.584 61.795 24.464 28.854 36.32 54.718 37.327 80.516l.267 6.802-2.174 2.181-12.215 12.229a2.779 2.779 0 0 0 0 3.928l48.865 48.924a2.779 2.779 0 0 0 3.918.014l49.5-48.927a2.779 2.779 0 0 0 .01-3.939l-12.214-12.228-2.174-2.181.267-6.803c1.007-25.797 12.862-51.662 37.327-80.516 31.964-37.7 72.792-61.243 105.58-61.794l3.772-.063 3.19 3.193 12.214 12.232a2.779 2.779 0 0 0 3.932 0l48.865-48.927a2.779 2.779 0 0 0 0-3.928l-48.865-48.928a2.779 2.779 0 0 0-3.932 0l-12.214 12.232-3.19 3.193-3.772-.063c-32.788-.551-73.616-24.095-105.58-61.794-24.465-28.855-36.32-54.719-37.327-80.516l-.267-6.803 2.174-2.18 12.214-12.229a2.779 2.779 0 0 0-.01-3.939zm-1.941 5.898 45.547 45.017-10.242 10.255-3.034 3.038a2.779 2.779 0 0 0-.807 2.073l.312 8.016c1.068 27.355 13.692 54.463 38.644 83.893 32.726 38.598 74.395 63.162 109.723 63.757l4.951.083a2.779 2.779 0 0 0 2.011-.815l4.025-4.032 10.249-10.26 44.94 44.997-44.94 44.992-10.249-10.259-4.025-4.032a2.779 2.779 0 0 0-2.01-.815l-4.952.083c-35.328.595-76.997 25.159-109.723 63.757-24.953 29.43-37.577 56.54-38.644 83.897l-.312 8.016a2.779 2.779 0 0 0 .807 2.07l3.034 3.037 10.242 10.255-45.547 45.017-44.948-45.006 10.252-10.266 3.034-3.038a2.779 2.779 0 0 0 .808-2.07l-.312-8.015c-1.068-27.357-13.692-54.466-38.644-83.897-32.727-38.598-74.4-63.162-109.727-63.757l-4.948-.083a2.779 2.779 0 0 0-2.014.815l-4.022 4.032-10.249 10.26-44.94-44.993 44.94-44.996 10.25 10.259 4.021 4.032a2.779 2.779 0 0 0 2.014.815l4.948-.083c35.328-.595 77-25.159 109.727-63.757 24.951-29.43 37.575-56.538 38.644-83.893v-.004l.312-8.013a2.779 2.779 0 0 0-.808-2.073l-3.034-3.037-10.252-10.266z" style="color:#000;display:inline;fill:#520509;stroke-width:1.77515;stroke-linecap:square;stroke-linejoin:round;stroke-miterlimit:3.1;-inkscape-stroke:none;paint-order:markers fill stroke" transform="matrix(.67408 0 0 .67408 104.09 -202.006)"/></svg>