<svg width="509" height="320" viewBox="0 0 509 320" fill="none" xmlns="http://www.w3.org/2000/svg">
<path d="M20.9104 94.6005C24.8111 76.2066 26.7614 67.0097 33.2016 61.1076C39.6418 55.2056 48.9736 54.0631 67.6372 51.7782L474.567 1.95937C493.905 -0.408111 503.574 -1.59185 507.284 4.13262C510.993 9.85709 505.962 18.1986 495.9 34.8815L412.909 172.483C400.477 193.095 394.261 203.401 384.275 209.04C374.289 214.679 362.253 214.679 338.182 214.679H35.8382C17.1728 214.679 7.8401 214.679 2.92868 208.617C-1.98274 202.555 -0.0466689 193.425 3.82548 175.166L20.9104 94.6005Z" fill="url(#paint0_linear_207_4)"/>
<path d="M293.442 187.329C292.373 187.329 291.547 186.967 290.964 186.243C290.381 185.415 290.187 184.433 290.381 183.295L293.442 168.245C293.636 167.108 293.977 166.177 294.462 165.453C295.045 164.625 295.677 163.901 296.357 163.281L333.668 130.078H305.831C304.762 130.078 303.936 129.664 303.353 128.837C302.867 128.009 302.721 127.079 302.916 126.044L305.831 110.684C306.025 109.546 306.608 108.616 307.58 107.891C308.551 107.064 309.523 106.65 310.495 106.65H372.146C373.117 106.65 373.895 107.064 374.478 107.891C375.061 108.616 375.255 109.546 375.061 110.684L371.854 127.13C371.563 128.682 370.64 130.078 369.085 131.319L333.085 163.901H363.692C364.761 163.901 365.587 164.315 366.17 165.142C366.753 165.97 366.899 166.901 366.607 167.935L363.547 183.295C363.352 184.433 362.818 185.415 361.943 186.243C361.069 186.967 360.097 187.329 359.029 187.329H293.442ZM334.834 95.0139C333.28 95.0139 332.648 94.1864 332.94 92.5315C333.134 91.704 333.523 91.0317 334.106 90.5145L351.45 72.6721C352.713 71.4309 353.733 70.6552 354.51 70.3449C355.288 69.9311 356.259 69.7242 357.425 69.7242H380.599C382.251 69.7242 382.98 70.7586 382.785 72.8273C382.688 73.5513 382.3 74.1719 381.619 74.6891L357.717 92.5315C356.745 93.2555 355.774 93.8761 354.802 94.3933C353.927 94.8071 352.761 95.0139 351.304 95.0139H334.834Z" fill="black"/>
<path d="M235.727 188.881C231.257 188.881 227.225 188.157 223.63 186.709C220.132 185.261 217.265 183.037 215.031 180.037C212.796 177.038 211.241 173.262 210.367 168.711C209.589 164.16 209.687 158.833 210.658 152.73C211.047 150.455 211.387 148.49 211.678 146.835C212.067 145.18 212.504 143.266 212.99 141.094C214.351 135.302 216.148 130.182 218.383 125.734C220.715 121.183 223.484 117.408 226.69 114.408C229.897 111.408 233.443 109.133 237.33 107.581C241.217 105.926 245.395 105.099 249.864 105.099C254.334 105.099 258.318 105.875 261.816 107.426C265.411 108.874 268.131 110.84 269.977 113.322L276.245 81.2057C276.439 80.0679 276.973 79.137 277.848 78.4129C278.722 77.5855 279.694 77.1717 280.763 77.1717H303.208C304.18 77.1717 304.957 77.5855 305.54 78.4129C306.22 79.137 306.463 80.0679 306.269 81.2057L285.864 183.295C285.67 184.433 285.087 185.416 284.115 186.243C283.241 186.967 282.317 187.329 281.346 187.329H260.65C259.581 187.329 258.755 186.967 258.172 186.243C257.589 185.416 257.395 184.433 257.589 183.295L258.463 178.951C255.548 181.951 252.342 184.381 248.844 186.243C245.443 188.002 241.071 188.881 235.727 188.881ZM248.99 164.677C251.516 164.677 253.605 164.108 255.257 162.97C257.006 161.833 258.415 160.333 259.484 158.471C260.65 156.609 261.524 154.541 262.107 152.265C262.593 149.989 262.982 148.024 263.273 146.369C263.662 144.714 264.002 142.801 264.293 140.629C264.682 138.457 264.682 136.543 264.293 134.888C263.905 133.233 263.079 131.888 261.816 130.854C260.552 129.82 258.755 129.303 256.423 129.303C253.994 129.303 251.905 129.871 250.156 131.009C248.504 132.044 247.144 133.543 246.075 135.509C245.103 137.37 244.277 139.543 243.597 142.025C243.209 143.577 242.82 145.231 242.431 146.99C242.043 148.748 241.751 150.403 241.557 151.955C241.265 154.437 241.217 156.661 241.411 158.626C241.605 160.488 242.285 161.988 243.451 163.126C244.715 164.16 246.561 164.677 248.99 164.677Z" fill="black"/>
<path d="M159.322 188.881C151.257 188.881 144.456 187.536 138.917 184.847C133.379 182.157 129.347 178.227 126.82 173.055C124.294 167.78 123.565 161.47 124.634 154.127C124.926 151.954 125.314 149.575 125.8 146.99C126.286 144.404 126.82 142.025 127.403 139.853C129.444 132.405 132.407 126.096 136.294 120.924C140.18 115.752 145.184 111.822 151.306 109.133C157.524 106.443 164.909 105.099 173.46 105.099C181.233 105.099 187.889 106.443 193.427 109.133C198.965 111.822 203.095 115.752 205.815 120.924C208.536 126.096 209.362 132.405 208.293 139.853C207.904 142.025 207.467 144.404 206.981 146.99C206.496 149.575 205.961 151.954 205.378 154.127C203.532 161.47 200.714 167.78 196.925 173.055C193.135 178.227 188.18 182.157 182.059 184.847C175.937 187.536 168.358 188.881 159.322 188.881ZM162.237 167.004C165.832 167.004 168.553 165.866 170.399 163.591C172.245 161.315 173.751 157.902 174.917 153.351C175.306 151.799 175.743 149.679 176.229 146.99C176.812 144.3 177.2 142.18 177.395 140.628C178.075 136.181 177.978 132.819 177.103 130.544C176.326 128.165 174.14 126.975 170.545 126.975C167.047 126.975 164.326 128.165 162.383 130.544C160.537 132.819 159.079 136.181 158.01 140.628C157.622 142.18 157.136 144.3 156.553 146.99C155.97 149.679 155.581 151.799 155.387 153.351C154.804 157.902 154.901 161.315 155.678 163.591C156.456 165.866 158.642 167.004 162.237 167.004ZM165.881 95.0139C164.326 95.0139 163.694 94.1864 163.986 92.5315C164.18 91.704 164.569 91.0317 165.152 90.5145L182.496 72.6721C183.759 71.4309 184.779 70.6552 185.557 70.3449C186.334 69.9311 187.306 69.7242 188.472 69.7242H211.645C213.297 69.7242 214.026 70.7586 213.832 72.8273C213.734 73.5513 213.346 74.1719 212.666 74.6891L188.763 92.5315C187.791 93.2555 186.82 93.8761 185.848 94.3933C184.974 94.8071 183.808 95.0139 182.35 95.0139H165.881Z" fill="black"/>
<path d="M42.4744 187.329C41.4056 187.329 40.5311 186.967 39.851 186.243C39.268 185.415 39.0737 184.433 39.268 183.295L45.8266 150.403L41.8914 151.954C41.017 152.265 40.434 152.42 40.1425 152.42C39.268 152.42 38.5878 152.161 38.102 151.644C37.7133 151.024 37.6162 150.248 37.8105 149.317L40.5797 135.043C40.774 133.698 41.2113 132.664 41.8914 131.94C42.5716 131.216 43.5432 130.647 44.8064 130.233L50.3448 128.061L59.5269 82.7569C59.7212 81.6191 60.2556 80.6882 61.1301 79.9642C62.0046 79.1367 62.9763 78.723 64.0451 78.723H88.2392C89.2108 78.723 89.9881 79.1367 90.5711 79.9642C91.2513 80.6882 91.4942 81.6191 91.2999 82.7569L84.7412 114.718L107.624 105.874C108.498 105.564 109.13 105.409 109.518 105.409C110.393 105.409 111.024 105.719 111.413 106.34C111.899 106.961 112.045 107.736 111.85 108.667L109.081 122.786C108.79 124.131 108.304 125.165 107.624 125.889C107.041 126.613 106.118 127.234 104.854 127.751L80.3688 137.06L75.8506 159.712H118.117C119.186 159.712 120.012 160.126 120.595 160.953C121.178 161.677 121.324 162.608 121.032 163.746L117.243 183.295C117.049 184.433 116.466 185.415 115.494 186.243C114.619 186.967 113.696 187.329 112.725 187.329H42.4744Z" fill="black"/>
<path d="M142.592 267.532C139.32 267.532 136.604 267.073 134.444 266.157C132.284 265.208 130.648 263.981 129.535 262.476C128.423 260.97 127.834 259.367 127.768 257.665C127.768 257.403 127.866 257.174 128.063 256.978C128.292 256.749 128.553 256.634 128.848 256.634H135.033C135.491 256.634 135.835 256.716 136.064 256.88C136.326 257.043 136.555 257.256 136.751 257.518C137.013 258.009 137.373 258.483 137.831 258.941C138.322 259.399 138.944 259.776 139.696 260.07C140.482 260.332 141.447 260.463 142.592 260.463C144.49 260.463 145.914 260.168 146.863 259.579C147.845 258.99 148.335 258.189 148.335 257.174C148.335 256.454 148.074 255.865 147.55 255.407C147.027 254.916 146.176 254.491 144.998 254.131C143.852 253.738 142.314 253.345 140.383 252.953C137.896 252.429 135.769 251.758 134.002 250.94C132.268 250.089 130.942 248.993 130.026 247.651C129.11 246.277 128.652 244.575 128.652 242.546C128.652 240.55 129.208 238.767 130.321 237.196C131.466 235.625 133.053 234.398 135.082 233.514C137.111 232.631 139.516 232.189 142.298 232.189C144.556 232.189 146.536 232.483 148.237 233.072C149.972 233.662 151.428 234.447 152.606 235.429C153.784 236.41 154.668 237.458 155.257 238.57C155.879 239.65 156.206 240.714 156.238 241.761C156.238 242.023 156.14 242.268 155.944 242.497C155.748 242.694 155.502 242.792 155.208 242.792H148.728C148.368 242.792 148.057 242.726 147.796 242.595C147.534 242.464 147.305 242.252 147.108 241.957C146.912 241.237 146.388 240.615 145.538 240.092C144.719 239.536 143.64 239.257 142.298 239.257C140.858 239.257 139.729 239.519 138.911 240.043C138.125 240.534 137.733 241.303 137.733 242.35C137.733 243.004 137.945 243.577 138.371 244.068C138.829 244.559 139.565 244.984 140.58 245.344C141.627 245.704 143.05 246.081 144.85 246.473C147.828 247.03 150.234 247.733 152.066 248.584C153.899 249.402 155.24 250.482 156.091 251.824C156.942 253.133 157.367 254.785 157.367 256.781C157.367 259.007 156.729 260.938 155.453 262.574C154.21 264.177 152.475 265.404 150.25 266.255C148.025 267.106 145.472 267.532 142.592 267.532Z" fill="black"/>
<path d="M173.326 267.041C171.232 267.041 169.416 266.713 167.877 266.059C166.372 265.372 165.21 264.325 164.392 262.917C163.574 261.477 163.165 259.629 163.165 257.371V247.946H159.336C158.976 247.946 158.665 247.831 158.404 247.602C158.175 247.373 158.06 247.079 158.06 246.719V242.743C158.06 242.383 158.175 242.088 158.404 241.859C158.665 241.63 158.976 241.515 159.336 241.515H163.165V233.416C163.165 233.056 163.28 232.762 163.509 232.533C163.771 232.303 164.065 232.189 164.392 232.189H170.086C170.446 232.189 170.741 232.303 170.97 232.533C171.199 232.762 171.314 233.056 171.314 233.416V241.515H177.449C177.809 241.515 178.104 241.63 178.333 241.859C178.562 242.088 178.677 242.383 178.677 242.743V246.719C178.677 247.079 178.562 247.373 178.333 247.602C178.104 247.831 177.809 247.946 177.449 247.946H171.314V256.683C171.314 257.796 171.526 258.68 171.952 259.334C172.377 259.989 173.097 260.316 174.112 260.316H177.891C178.251 260.316 178.546 260.43 178.775 260.659C179.004 260.888 179.118 261.183 179.118 261.543V265.813C179.118 266.173 179.004 266.468 178.775 266.697C178.546 266.926 178.251 267.041 177.891 267.041H173.326Z" fill="black"/>
<path d="M189.368 267.532C187.6 267.532 186.013 267.204 184.606 266.55C183.232 265.863 182.135 264.946 181.317 263.801C180.499 262.656 180.09 261.363 180.09 259.923C180.09 257.6 181.039 255.767 182.937 254.425C184.835 253.051 187.355 252.118 190.497 251.627L196.632 250.695V250.007C196.632 248.829 196.387 247.929 195.896 247.308C195.405 246.686 194.505 246.375 193.196 246.375C192.28 246.375 191.527 246.555 190.938 246.915C190.382 247.275 189.94 247.766 189.613 248.388C189.318 248.813 188.909 249.026 188.386 249.026H182.888C182.528 249.026 182.25 248.928 182.054 248.731C181.857 248.502 181.775 248.24 181.808 247.946C181.808 247.357 182.021 246.686 182.446 245.933C182.904 245.148 183.592 244.379 184.508 243.626C185.424 242.874 186.602 242.252 188.042 241.761C189.482 241.27 191.217 241.025 193.245 241.025C195.373 241.025 197.189 241.27 198.694 241.761C200.199 242.252 201.41 242.939 202.327 243.823C203.276 244.706 203.979 245.753 204.437 246.964C204.895 248.142 205.124 249.451 205.124 250.891V265.813C205.124 266.173 204.994 266.468 204.732 266.697C204.503 266.926 204.225 267.041 203.897 267.041H198.203C197.843 267.041 197.549 266.926 197.32 266.697C197.091 266.468 196.976 266.173 196.976 265.813V264.095C196.551 264.717 195.978 265.29 195.258 265.813C194.538 266.337 193.687 266.746 192.705 267.041C191.756 267.368 190.644 267.532 189.368 267.532ZM191.675 261.936C192.624 261.936 193.475 261.739 194.227 261.347C195.013 260.921 195.618 260.283 196.043 259.432C196.502 258.549 196.731 257.452 196.731 256.143V255.456L192.558 256.192C191.02 256.454 189.891 256.863 189.171 257.42C188.484 257.943 188.14 258.565 188.14 259.285C188.14 259.841 188.304 260.316 188.631 260.708C188.959 261.101 189.384 261.412 189.908 261.641C190.431 261.837 191.02 261.936 191.675 261.936Z" fill="black"/>
<path d="M222.056 267.041C219.962 267.041 218.146 266.713 216.608 266.059C215.102 265.372 213.941 264.325 213.123 262.917C212.304 261.477 211.895 259.629 211.895 257.371V247.946H208.067C207.707 247.946 207.396 247.831 207.134 247.602C206.905 247.373 206.79 247.079 206.79 246.719V242.743C206.79 242.383 206.905 242.088 207.134 241.859C207.396 241.63 207.707 241.515 208.067 241.515H211.895V233.416C211.895 233.056 212.01 232.762 212.239 232.533C212.501 232.303 212.795 232.189 213.123 232.189H218.817C219.177 232.189 219.471 232.303 219.7 232.533C219.929 232.762 220.044 233.056 220.044 233.416V241.515H226.18C226.54 241.515 226.834 241.63 227.063 241.859C227.292 242.088 227.407 242.383 227.407 242.743V246.719C227.407 247.079 227.292 247.373 227.063 247.602C226.834 247.831 226.54 247.946 226.18 247.946H220.044V256.683C220.044 257.796 220.257 258.68 220.682 259.334C221.107 259.989 221.827 260.316 222.842 260.316H226.621C226.981 260.316 227.276 260.43 227.505 260.659C227.734 260.888 227.849 261.183 227.849 261.543V265.813C227.849 266.173 227.734 266.468 227.505 266.697C227.276 266.926 226.981 267.041 226.621 267.041H222.056Z" fill="black"/>
<path d="M242.221 267.532C238.36 267.532 235.284 266.484 232.993 264.39C230.702 262.296 229.508 259.187 229.409 255.063C229.409 254.834 229.409 254.54 229.409 254.18C229.409 253.82 229.409 253.542 229.409 253.345C229.508 250.76 230.08 248.551 231.128 246.719C232.207 244.853 233.68 243.446 235.545 242.497C237.443 241.515 239.652 241.025 242.172 241.025C245.052 241.025 247.424 241.597 249.29 242.743C251.188 243.888 252.611 245.442 253.56 247.406C254.509 249.369 254.984 251.611 254.984 254.131V255.309C254.984 255.669 254.853 255.963 254.591 256.192C254.362 256.422 254.084 256.536 253.757 256.536H238.049C238.049 256.569 238.049 256.618 238.049 256.683C238.049 256.749 238.049 256.814 238.049 256.88C238.082 257.829 238.245 258.696 238.54 259.481C238.834 260.267 239.292 260.888 239.914 261.347C240.536 261.805 241.289 262.034 242.172 262.034C242.827 262.034 243.367 261.936 243.792 261.739C244.25 261.51 244.626 261.265 244.921 261.003C245.215 260.708 245.445 260.463 245.608 260.267C245.903 259.939 246.132 259.743 246.295 259.678C246.492 259.579 246.786 259.53 247.179 259.53H253.266C253.593 259.53 253.855 259.629 254.051 259.825C254.28 259.988 254.378 260.234 254.346 260.561C254.313 261.117 254.035 261.788 253.511 262.574C252.988 263.359 252.219 264.145 251.204 264.93C250.222 265.683 248.979 266.304 247.473 266.795C245.968 267.286 244.217 267.532 242.221 267.532ZM238.049 251.676H246.344V251.578C246.344 250.531 246.181 249.615 245.854 248.829C245.559 248.044 245.085 247.439 244.43 247.013C243.808 246.588 243.056 246.375 242.172 246.375C241.289 246.375 240.536 246.588 239.914 247.013C239.325 247.439 238.867 248.044 238.54 248.829C238.212 249.615 238.049 250.531 238.049 251.578V251.676Z" fill="black"/>
<path d="M279.166 267.532C276.417 267.532 274.094 267.09 272.196 266.206C270.33 265.323 268.89 264.063 267.876 262.426C266.894 260.758 266.338 258.778 266.207 256.487C266.174 255.832 266.158 255.096 266.158 254.278C266.158 253.427 266.174 252.691 266.207 252.069C266.338 249.746 266.927 247.766 267.974 246.13C269.021 244.493 270.478 243.233 272.343 242.35C274.241 241.466 276.515 241.025 279.166 241.025C281.849 241.025 284.124 241.466 285.989 242.35C287.887 243.233 289.36 244.493 290.407 246.13C291.454 247.766 292.043 249.746 292.174 252.069C292.207 252.691 292.223 253.427 292.223 254.278C292.223 255.096 292.207 255.832 292.174 256.487C292.043 258.778 291.47 260.758 290.456 262.426C289.474 264.063 288.034 265.323 286.136 266.206C284.271 267.09 281.948 267.532 279.166 267.532ZM279.166 261.543C280.639 261.543 281.702 261.101 282.357 260.218C283.044 259.334 283.437 258.009 283.535 256.242C283.567 255.751 283.584 255.096 283.584 254.278C283.584 253.46 283.567 252.805 283.535 252.315C283.437 250.58 283.044 249.271 282.357 248.388C281.702 247.471 280.639 247.013 279.166 247.013C277.726 247.013 276.663 247.471 275.975 248.388C275.288 249.271 274.912 250.58 274.846 252.315C274.814 252.805 274.797 253.46 274.797 254.278C274.797 255.096 274.814 255.751 274.846 256.242C274.912 258.009 275.288 259.334 275.975 260.218C276.663 261.101 277.726 261.543 279.166 261.543Z" fill="black"/>
<path d="M299.462 267.041C299.135 267.041 298.84 266.926 298.578 266.697C298.349 266.468 298.235 266.173 298.235 265.813V247.946H294.504C294.144 247.946 293.85 247.831 293.621 247.602C293.391 247.373 293.277 247.079 293.277 246.719V242.743C293.277 242.383 293.391 242.088 293.621 241.859C293.85 241.63 294.144 241.515 294.504 241.515H298.235V239.945C298.235 237.719 298.66 235.936 299.511 234.594C300.395 233.22 301.638 232.238 303.242 231.649C304.845 231.027 306.76 230.716 308.985 230.716H312.814C313.141 230.716 313.419 230.831 313.648 231.06C313.91 231.289 314.041 231.584 314.041 231.943V235.92C314.041 236.279 313.91 236.574 313.648 236.803C313.419 237.032 313.141 237.147 312.814 237.147H309.377C308.265 237.147 307.479 237.408 307.021 237.932C306.596 238.456 306.383 239.208 306.383 240.19V241.515H312.323C312.65 241.515 312.928 241.63 313.157 241.859C313.419 242.088 313.55 242.383 313.55 242.743V246.719C313.55 247.079 313.419 247.373 313.157 247.602C312.928 247.831 312.65 247.946 312.323 247.946H306.383V265.813C306.383 266.173 306.269 266.468 306.04 266.697C305.81 266.926 305.516 267.041 305.156 267.041H299.462Z" fill="black"/>
<path d="M335.651 267.041C333.556 267.041 331.74 266.713 330.202 266.059C328.697 265.372 327.535 264.325 326.717 262.917C325.899 261.477 325.489 259.629 325.489 257.371V247.946H321.661C321.301 247.946 320.99 247.831 320.728 247.602C320.499 247.373 320.384 247.079 320.384 246.719V242.743C320.384 242.383 320.499 242.088 320.728 241.859C320.99 241.63 321.301 241.515 321.661 241.515H325.489V233.416C325.489 233.056 325.604 232.762 325.833 232.533C326.095 232.303 326.389 232.189 326.717 232.189H332.411C332.771 232.189 333.065 232.303 333.294 232.533C333.523 232.762 333.638 233.056 333.638 233.416V241.515H339.774C340.134 241.515 340.428 241.63 340.657 241.859C340.886 242.088 341.001 242.383 341.001 242.743V246.719C341.001 247.079 340.886 247.373 340.657 247.602C340.428 247.831 340.134 247.946 339.774 247.946H333.638V256.683C333.638 257.796 333.851 258.68 334.276 259.334C334.701 259.989 335.421 260.316 336.436 260.316H340.216C340.576 260.316 340.87 260.43 341.099 260.659C341.328 260.888 341.443 261.183 341.443 261.543V265.813C341.443 266.173 341.328 266.468 341.099 266.697C340.87 266.926 340.576 267.041 340.216 267.041H335.651Z" fill="black"/>
<path d="M345.262 267.041C344.902 267.041 344.607 266.926 344.378 266.697C344.149 266.468 344.034 266.173 344.034 265.813V233.416C344.034 233.056 344.149 232.762 344.378 232.533C344.607 232.303 344.902 232.189 345.262 232.189H351.545C351.905 232.189 352.199 232.303 352.428 232.533C352.657 232.762 352.772 233.056 352.772 233.416V244.362C353.655 243.348 354.735 242.546 356.012 241.957C357.321 241.335 358.826 241.025 360.528 241.025C362.426 241.025 364.111 241.45 365.584 242.301C367.089 243.152 368.267 244.412 369.118 246.081C369.969 247.717 370.394 249.729 370.394 252.118V265.813C370.394 266.173 370.28 266.468 370.05 266.697C369.821 266.926 369.527 267.041 369.167 267.041H362.835C362.507 267.041 362.213 266.926 361.951 266.697C361.722 266.468 361.608 266.173 361.608 265.813V252.413C361.608 250.875 361.231 249.697 360.479 248.878C359.759 248.028 358.679 247.602 357.239 247.602C355.897 247.602 354.817 248.028 353.999 248.878C353.181 249.697 352.772 250.875 352.772 252.413V265.813C352.772 266.173 352.657 266.468 352.428 266.697C352.199 266.926 351.905 267.041 351.545 267.041H345.262Z" fill="black"/>
<path d="M386.268 267.532C382.407 267.532 379.331 266.484 377.04 264.39C374.749 262.296 373.555 259.187 373.457 255.063C373.457 254.834 373.457 254.54 373.457 254.18C373.457 253.82 373.457 253.542 373.457 253.345C373.555 250.76 374.127 248.551 375.175 246.719C376.255 244.853 377.727 243.446 379.593 242.497C381.491 241.515 383.699 241.025 386.219 241.025C389.099 241.025 391.472 241.597 393.337 242.743C395.235 243.888 396.658 245.442 397.607 247.406C398.556 249.369 399.031 251.611 399.031 254.131V255.309C399.031 255.669 398.9 255.963 398.638 256.192C398.409 256.422 398.131 256.536 397.804 256.536H382.096C382.096 256.569 382.096 256.618 382.096 256.683C382.096 256.749 382.096 256.814 382.096 256.88C382.129 257.829 382.292 258.696 382.587 259.481C382.881 260.267 383.339 260.888 383.961 261.347C384.583 261.805 385.336 262.034 386.219 262.034C386.874 262.034 387.414 261.936 387.839 261.739C388.297 261.51 388.674 261.265 388.968 261.003C389.263 260.708 389.492 260.463 389.655 260.267C389.95 259.939 390.179 259.743 390.343 259.678C390.539 259.579 390.833 259.53 391.226 259.53H397.313C397.64 259.53 397.902 259.629 398.098 259.825C398.327 259.988 398.426 260.234 398.393 260.561C398.36 261.117 398.082 261.788 397.558 262.574C397.035 263.359 396.266 264.145 395.251 264.93C394.269 265.683 393.026 266.304 391.521 266.795C390.015 267.286 388.265 267.532 386.268 267.532ZM382.096 251.676H390.392V251.578C390.392 250.531 390.228 249.615 389.901 248.829C389.606 248.044 389.132 247.439 388.477 247.013C387.855 246.588 387.103 246.375 386.219 246.375C385.336 246.375 384.583 246.588 383.961 247.013C383.372 247.439 382.914 248.044 382.587 248.829C382.26 249.615 382.096 250.531 382.096 251.578V251.676Z" fill="black"/>
<path d="M412.905 267.041C412.578 267.041 412.283 266.926 412.021 266.697C411.792 266.468 411.678 266.173 411.678 265.813V233.907C411.678 233.547 411.792 233.252 412.021 233.023C412.283 232.794 412.578 232.68 412.905 232.68H418.206C418.73 232.68 419.123 232.827 419.384 233.122C419.679 233.383 419.859 233.596 419.924 233.76L428.564 249.271L437.203 233.76C437.301 233.596 437.465 233.383 437.694 233.122C437.956 232.827 438.365 232.68 438.921 232.68H444.173C444.533 232.68 444.828 232.794 445.057 233.023C445.319 233.252 445.45 233.547 445.45 233.907V265.813C445.45 266.173 445.319 266.468 445.057 266.697C444.828 266.926 444.533 267.041 444.173 267.041H438.332C437.972 267.041 437.661 266.926 437.399 266.697C437.17 266.468 437.056 266.173 437.056 265.813V247.406L431.509 257.665C431.378 257.96 431.182 258.221 430.92 258.45C430.658 258.68 430.298 258.794 429.84 258.794H427.287C426.829 258.794 426.469 258.68 426.207 258.45C425.946 258.221 425.733 257.96 425.569 257.665L420.023 247.406V265.813C420.023 266.173 419.908 266.468 419.679 266.697C419.45 266.926 419.155 267.041 418.795 267.041H412.905Z" fill="black"/>
<path d="M457.925 267.532C456.158 267.532 454.571 267.204 453.163 266.55C451.789 265.863 450.693 264.946 449.875 263.801C449.057 262.656 448.647 261.363 448.647 259.923C448.647 257.6 449.596 255.767 451.495 254.425C453.393 253.051 455.912 252.118 459.054 251.627L465.19 250.695V250.007C465.19 248.829 464.944 247.929 464.453 247.308C463.963 246.686 463.063 246.375 461.754 246.375C460.837 246.375 460.085 246.555 459.496 246.915C458.939 247.275 458.498 247.766 458.17 248.388C457.876 248.813 457.467 249.026 456.943 249.026H451.445C451.085 249.026 450.807 248.928 450.611 248.731C450.415 248.502 450.333 248.24 450.365 247.946C450.365 247.357 450.578 246.686 451.004 245.933C451.462 245.148 452.149 244.379 453.065 243.626C453.982 242.874 455.16 242.252 456.6 241.761C458.039 241.27 459.774 241.025 461.803 241.025C463.93 241.025 465.746 241.27 467.251 241.761C468.757 242.252 469.968 242.939 470.884 243.823C471.833 244.706 472.536 245.753 472.995 246.964C473.453 248.142 473.682 249.451 473.682 250.891V265.813C473.682 266.173 473.551 266.468 473.289 266.697C473.06 266.926 472.782 267.041 472.455 267.041H466.761C466.401 267.041 466.106 266.926 465.877 266.697C465.648 266.468 465.533 266.173 465.533 265.813V264.095C465.108 264.717 464.535 265.29 463.815 265.813C463.095 266.337 462.245 266.746 461.263 267.041C460.314 267.368 459.201 267.532 457.925 267.532ZM460.232 261.936C461.181 261.936 462.032 261.739 462.784 261.347C463.57 260.921 464.175 260.283 464.601 259.432C465.059 258.549 465.288 257.452 465.288 256.143V255.456L461.116 256.192C459.577 256.454 458.449 256.863 457.729 257.42C457.041 257.943 456.698 258.565 456.698 259.285C456.698 259.841 456.861 260.316 457.189 260.708C457.516 261.101 457.941 261.412 458.465 261.641C458.988 261.837 459.578 261.936 460.232 261.936Z" fill="black"/>
<path d="M478.976 276.367C478.616 276.367 478.321 276.253 478.092 276.024C477.863 275.794 477.748 275.5 477.748 275.14V242.743C477.748 242.383 477.863 242.088 478.092 241.859C478.321 241.63 478.616 241.515 478.976 241.515H484.522C484.85 241.515 485.128 241.63 485.357 241.859C485.619 242.088 485.75 242.383 485.75 242.743V244.559C486.502 243.544 487.5 242.71 488.744 242.055C489.987 241.368 491.525 241.025 493.358 241.025C494.994 241.025 496.434 241.286 497.678 241.81C498.921 242.301 499.985 243.037 500.868 244.019C501.752 245.001 502.439 246.195 502.93 247.602C503.454 249.009 503.748 250.629 503.814 252.462C503.846 253.116 503.863 253.722 503.863 254.278C503.863 254.834 503.846 255.44 503.814 256.094C503.748 257.861 503.47 259.449 502.979 260.856C502.488 262.263 501.801 263.457 500.917 264.439C500.034 265.421 498.954 266.19 497.678 266.746C496.434 267.27 494.994 267.532 493.358 267.532C491.755 267.532 490.347 267.253 489.137 266.697C487.958 266.108 486.977 265.29 486.191 264.243V275.14C486.191 275.5 486.077 275.794 485.848 276.024C485.619 276.253 485.324 276.367 484.964 276.367H478.976ZM490.707 260.954C491.82 260.954 492.687 260.725 493.309 260.267C493.931 259.809 494.372 259.187 494.634 258.401C494.929 257.616 495.109 256.749 495.174 255.8C495.24 254.785 495.24 253.771 495.174 252.756C495.109 251.807 494.929 250.94 494.634 250.155C494.372 249.369 493.931 248.748 493.309 248.289C492.687 247.831 491.82 247.602 490.707 247.602C489.627 247.602 488.76 247.848 488.106 248.339C487.451 248.797 486.977 249.402 486.682 250.155C486.388 250.907 486.224 251.726 486.191 252.609C486.159 253.231 486.142 253.836 486.142 254.425C486.142 255.014 486.159 255.636 486.191 256.291C486.224 257.109 486.404 257.878 486.731 258.598C487.059 259.285 487.549 259.858 488.204 260.316C488.858 260.741 489.693 260.954 490.707 260.954Z" fill="black"/>
<path d="M131.008 310.673C130.648 310.673 130.353 310.559 130.124 310.33C129.895 310.101 129.781 309.806 129.781 309.446V277.54C129.781 277.18 129.895 276.885 130.124 276.656C130.353 276.427 130.648 276.313 131.008 276.313H153.931C154.291 276.313 154.586 276.427 154.815 276.656C155.044 276.885 155.159 277.18 155.159 277.54V282.154C155.159 282.514 155.044 282.808 154.815 283.038C154.586 283.267 154.291 283.381 153.931 283.381H138.273V290.008H152.851C153.211 290.008 153.506 290.139 153.735 290.401C153.964 290.63 154.079 290.924 154.079 291.284V295.555C154.079 295.882 153.964 296.176 153.735 296.438C153.506 296.667 153.211 296.782 152.851 296.782H138.273V303.605H154.324C154.684 303.605 154.979 303.719 155.208 303.949C155.437 304.178 155.551 304.472 155.551 304.832V309.446C155.551 309.806 155.437 310.101 155.208 310.33C154.979 310.559 154.684 310.673 154.324 310.673H131.008Z" fill="black"/>
<path d="M168.35 311.164C166.485 311.164 164.816 310.739 163.343 309.888C161.904 309.037 160.775 307.794 159.956 306.157C159.138 304.489 158.729 302.46 158.729 300.071V286.375C158.729 286.015 158.844 285.721 159.073 285.492C159.302 285.263 159.596 285.148 159.956 285.148H166.092C166.452 285.148 166.747 285.263 166.976 285.492C167.205 285.721 167.319 286.015 167.319 286.375V299.776C167.319 302.983 168.759 304.587 171.639 304.587C172.981 304.587 174.044 304.178 174.83 303.36C175.648 302.509 176.057 301.314 176.057 299.776V286.375C176.057 286.015 176.171 285.721 176.401 285.492C176.63 285.263 176.924 285.148 177.284 285.148H183.42C183.78 285.148 184.074 285.263 184.304 285.492C184.533 285.721 184.647 286.015 184.647 286.375V309.446C184.647 309.806 184.533 310.101 184.304 310.33C184.074 310.559 183.78 310.673 183.42 310.673H177.726C177.399 310.673 177.104 310.559 176.842 310.33C176.613 310.101 176.499 309.806 176.499 309.446V307.581C175.648 308.759 174.535 309.659 173.161 310.281C171.819 310.87 170.216 311.164 168.35 311.164Z" fill="black"/>
<path d="M190.176 310.673C189.816 310.673 189.521 310.559 189.292 310.33C189.063 310.101 188.948 309.806 188.948 309.446V286.375C188.948 286.048 189.063 285.77 189.292 285.541C189.521 285.279 189.816 285.148 190.176 285.148H195.821C196.181 285.148 196.475 285.279 196.704 285.541C196.933 285.77 197.048 286.048 197.048 286.375V288.339C197.931 287.324 198.979 286.539 200.189 285.983C201.433 285.426 202.824 285.148 204.362 285.148H206.522C206.849 285.148 207.127 285.263 207.356 285.492C207.618 285.721 207.749 286.015 207.749 286.375V291.431C207.749 291.759 207.618 292.053 207.356 292.315C207.127 292.544 206.849 292.659 206.522 292.659H201.76C200.418 292.659 199.371 293.035 198.619 293.788C197.899 294.508 197.539 295.538 197.539 296.88V309.446C197.539 309.806 197.408 310.101 197.146 310.33C196.917 310.559 196.622 310.673 196.262 310.673H190.176Z" fill="black"/>
<path d="M221.65 311.164C218.901 311.164 216.578 310.723 214.68 309.839C212.814 308.955 211.374 307.696 210.36 306.059C209.378 304.39 208.822 302.411 208.691 300.12C208.658 299.465 208.642 298.729 208.642 297.911C208.642 297.06 208.658 296.324 208.691 295.702C208.822 293.379 209.411 291.399 210.458 289.762C211.505 288.126 212.962 286.866 214.827 285.983C216.725 285.099 218.999 284.657 221.65 284.657C224.333 284.657 226.608 285.099 228.473 285.983C230.371 286.866 231.844 288.126 232.891 289.762C233.938 291.399 234.527 293.379 234.658 295.702C234.691 296.324 234.707 297.06 234.707 297.911C234.707 298.729 234.691 299.465 234.658 300.12C234.527 302.411 233.954 304.39 232.94 306.059C231.958 307.696 230.518 308.955 228.62 309.839C226.755 310.723 224.432 311.164 221.65 311.164ZM221.65 305.176C223.123 305.176 224.186 304.734 224.841 303.85C225.528 302.967 225.92 301.641 226.019 299.874C226.051 299.383 226.068 298.729 226.068 297.911C226.068 297.093 226.051 296.438 226.019 295.947C225.92 294.213 225.528 292.904 224.841 292.02C224.186 291.104 223.123 290.646 221.65 290.646C220.21 290.646 219.146 291.104 218.459 292.02C217.772 292.904 217.396 294.213 217.33 295.947C217.298 296.438 217.281 297.093 217.281 297.911C217.281 298.729 217.298 299.383 217.33 299.874C217.396 301.641 217.772 302.967 218.459 303.85C219.146 304.734 220.21 305.176 221.65 305.176Z" fill="black"/>
<path d="M239.289 320C238.929 320 238.635 319.885 238.406 319.656C238.177 319.427 238.062 319.133 238.062 318.773V286.375C238.062 286.015 238.177 285.721 238.406 285.492C238.635 285.263 238.929 285.148 239.289 285.148H244.836C245.163 285.148 245.442 285.263 245.671 285.492C245.932 285.721 246.063 286.015 246.063 286.375V288.192C246.816 287.177 247.814 286.343 249.058 285.688C250.301 285.001 251.839 284.657 253.672 284.657C255.308 284.657 256.748 284.919 257.991 285.443C259.235 285.934 260.299 286.67 261.182 287.652C262.066 288.633 262.753 289.828 263.244 291.235C263.767 292.642 264.062 294.262 264.127 296.095C264.16 296.749 264.176 297.355 264.176 297.911C264.176 298.467 264.16 299.073 264.127 299.727C264.062 301.494 263.784 303.081 263.293 304.489C262.802 305.896 262.115 307.09 261.231 308.072C260.348 309.054 259.268 309.823 257.991 310.379C256.748 310.903 255.308 311.164 253.672 311.164C252.068 311.164 250.661 310.886 249.45 310.33C248.272 309.741 247.291 308.923 246.505 307.876V318.773C246.505 319.133 246.391 319.427 246.162 319.656C245.932 319.885 245.638 320 245.278 320H239.289ZM251.021 304.587C252.134 304.587 253.001 304.358 253.623 303.899C254.245 303.441 254.686 302.82 254.948 302.034C255.243 301.249 255.423 300.382 255.488 299.433C255.554 298.418 255.554 297.404 255.488 296.389C255.423 295.44 255.243 294.573 254.948 293.788C254.686 293.002 254.245 292.38 253.623 291.922C253.001 291.464 252.134 291.235 251.021 291.235C249.941 291.235 249.074 291.48 248.42 291.971C247.765 292.43 247.291 293.035 246.996 293.788C246.702 294.54 246.538 295.358 246.505 296.242C246.472 296.864 246.456 297.469 246.456 298.058C246.456 298.647 246.472 299.269 246.505 299.923C246.538 300.742 246.718 301.511 247.045 302.231C247.372 302.918 247.863 303.49 248.518 303.949C249.172 304.374 250.007 304.587 251.021 304.587Z" fill="black"/>
<path d="M279.337 311.164C275.476 311.164 272.4 310.117 270.109 308.023C267.818 305.928 266.624 302.82 266.526 298.696C266.526 298.467 266.526 298.173 266.526 297.813C266.526 297.453 266.526 297.175 266.526 296.978C266.624 294.393 267.197 292.184 268.244 290.351C269.324 288.486 270.796 287.079 272.662 286.13C274.56 285.148 276.769 284.657 279.288 284.657C282.168 284.657 284.541 285.23 286.406 286.375C288.304 287.521 289.727 289.075 290.677 291.039C291.626 293.002 292.1 295.244 292.1 297.764V298.942C292.1 299.302 291.969 299.596 291.707 299.825C291.478 300.054 291.2 300.169 290.873 300.169H275.165C275.165 300.202 275.165 300.251 275.165 300.316C275.165 300.382 275.165 300.447 275.165 300.512C275.198 301.462 275.361 302.329 275.656 303.114C275.95 303.899 276.409 304.521 277.03 304.979C277.652 305.438 278.405 305.667 279.288 305.667C279.943 305.667 280.483 305.568 280.908 305.372C281.366 305.143 281.743 304.898 282.037 304.636C282.332 304.341 282.561 304.096 282.724 303.899C283.019 303.572 283.248 303.376 283.412 303.31C283.608 303.212 283.902 303.163 284.295 303.163H290.382C290.709 303.163 290.971 303.261 291.167 303.458C291.396 303.621 291.495 303.867 291.462 304.194C291.429 304.75 291.151 305.421 290.627 306.207C290.104 306.992 289.335 307.777 288.32 308.563C287.339 309.315 286.095 309.937 284.59 310.428C283.084 310.919 281.334 311.164 279.337 311.164ZM275.165 295.309H283.461V295.211C283.461 294.164 283.297 293.248 282.97 292.462C282.675 291.677 282.201 291.071 281.546 290.646C280.925 290.221 280.172 290.008 279.288 290.008C278.405 290.008 277.652 290.221 277.03 290.646C276.441 291.071 275.983 291.677 275.656 292.462C275.329 293.248 275.165 294.164 275.165 295.211V295.309Z" fill="black"/>
<path d="M304.6 310.673C304.24 310.673 303.929 310.559 303.667 310.33C303.438 310.101 303.323 309.806 303.323 309.446V305.961C303.323 305.732 303.389 305.388 303.52 304.93C303.651 304.439 303.994 303.981 304.55 303.556L309.656 298.549C312.273 296.553 314.417 294.867 316.086 293.493C317.788 292.086 319.047 290.842 319.866 289.762C320.684 288.683 321.093 287.668 321.093 286.719C321.093 285.606 320.798 284.69 320.209 283.97C319.653 283.218 318.671 282.841 317.264 282.841C316.315 282.841 315.513 283.054 314.859 283.479C314.237 283.872 313.762 284.396 313.435 285.05C313.108 285.705 312.879 286.375 312.748 287.063C312.617 287.488 312.388 287.783 312.061 287.946C311.766 288.11 311.439 288.192 311.079 288.192H304.943C304.649 288.192 304.403 288.093 304.207 287.897C304.011 287.701 303.912 287.455 303.912 287.161C303.945 285.59 304.272 284.117 304.894 282.743C305.549 281.369 306.448 280.158 307.594 279.111C308.772 278.031 310.163 277.196 311.766 276.607C313.402 276.018 315.235 275.724 317.264 275.724C320.046 275.724 322.402 276.165 324.333 277.049C326.296 277.932 327.785 279.176 328.799 280.78C329.814 282.35 330.321 284.199 330.321 286.326C330.321 287.93 329.961 289.435 329.241 290.842C328.554 292.217 327.556 293.542 326.247 294.818C324.971 296.062 323.449 297.355 321.682 298.696L317.166 303.261H329.781C330.141 303.261 330.436 303.376 330.665 303.605C330.927 303.834 331.057 304.129 331.057 304.489V309.446C331.057 309.806 330.927 310.101 330.665 310.33C330.436 310.559 330.141 310.673 329.781 310.673H304.6Z" fill="black"/>
<path d="M348.404 311.164C346.048 311.164 344.003 310.837 342.268 310.183C340.534 309.495 339.094 308.563 337.949 307.385C336.836 306.207 335.985 304.832 335.396 303.261C334.807 301.691 334.464 300.005 334.365 298.205C334.333 297.322 334.3 296.324 334.267 295.211C334.267 294.066 334.267 292.92 334.267 291.775C334.3 290.597 334.333 289.55 334.365 288.633C334.464 286.834 334.807 285.165 335.396 283.627C336.018 282.056 336.902 280.698 338.047 279.552C339.225 278.374 340.665 277.458 342.367 276.804C344.101 276.149 346.114 275.822 348.404 275.822C350.728 275.822 352.74 276.149 354.442 276.804C356.144 277.458 357.567 278.374 358.713 279.552C359.891 280.698 360.791 282.056 361.412 283.627C362.034 285.165 362.378 286.834 362.443 288.633C362.509 289.55 362.541 290.597 362.541 291.775C362.574 292.92 362.574 294.066 362.541 295.211C362.541 296.324 362.509 297.322 362.443 298.205C362.378 300.005 362.034 301.691 361.412 303.261C360.823 304.832 359.956 306.207 358.811 307.385C357.698 308.563 356.275 309.495 354.54 310.183C352.838 310.837 350.793 311.164 348.404 311.164ZM348.404 304.047C350.106 304.047 351.333 303.507 352.086 302.427C352.871 301.314 353.28 299.825 353.313 297.96C353.378 297.011 353.411 296.013 353.411 294.966C353.444 293.918 353.444 292.871 353.411 291.824C353.411 290.777 353.378 289.812 353.313 288.928C353.28 287.128 352.871 285.672 352.086 284.559C351.333 283.447 350.106 282.874 348.404 282.841C346.703 282.874 345.475 283.447 344.723 284.559C343.97 285.672 343.561 287.128 343.496 288.928C343.463 289.812 343.43 290.777 343.397 291.824C343.397 292.871 343.397 293.918 343.397 294.966C343.43 296.013 343.463 297.011 343.496 297.96C343.561 299.825 343.986 301.314 344.772 302.427C345.557 303.507 346.768 304.047 348.404 304.047Z" fill="black"/>
<path d="M366.944 310.673C366.584 310.673 366.273 310.559 366.011 310.33C365.782 310.101 365.668 309.806 365.668 309.446V305.961C365.668 305.732 365.733 305.388 365.864 304.93C365.995 304.439 366.338 303.981 366.895 303.556L372 298.549C374.618 296.553 376.761 294.867 378.43 293.493C380.132 292.086 381.392 290.842 382.21 289.762C383.028 288.683 383.437 287.668 383.437 286.719C383.437 285.606 383.142 284.69 382.553 283.97C381.997 283.218 381.015 282.841 379.608 282.841C378.659 282.841 377.857 283.054 377.203 283.479C376.581 283.872 376.107 284.396 375.779 285.05C375.452 285.705 375.223 286.375 375.092 287.063C374.961 287.488 374.732 287.783 374.405 287.946C374.11 288.11 373.783 288.192 373.423 288.192H367.287C366.993 288.192 366.747 288.093 366.551 287.897C366.355 287.701 366.257 287.455 366.257 287.161C366.289 285.59 366.617 284.117 367.238 282.743C367.893 281.369 368.793 280.158 369.938 279.111C371.116 278.031 372.507 277.196 374.11 276.607C375.747 276.018 377.579 275.724 379.608 275.724C382.39 275.724 384.746 276.165 386.677 277.049C388.64 277.932 390.129 279.176 391.144 280.78C392.158 282.35 392.665 284.199 392.665 286.326C392.665 287.93 392.305 289.435 391.585 290.842C390.898 292.217 389.9 293.542 388.591 294.818C387.315 296.062 385.793 297.355 384.026 298.696L379.51 303.261H392.125C392.485 303.261 392.78 303.376 393.009 303.605C393.271 303.834 393.402 304.129 393.402 304.489V309.446C393.402 309.806 393.271 310.101 393.009 310.33C392.78 310.559 392.485 310.673 392.125 310.673H366.944Z" fill="black"/>
<path d="M413.011 310.673C412.684 310.673 412.389 310.559 412.128 310.33C411.898 310.101 411.784 309.806 411.784 309.446V303.899H396.518C396.191 303.899 395.896 303.785 395.634 303.556C395.405 303.327 395.291 303.032 395.291 302.672V298.009C395.291 297.715 395.34 297.453 395.438 297.224C395.569 296.962 395.7 296.716 395.831 296.487L410.115 277.147C410.54 276.591 411.146 276.313 411.931 276.313H419.049C419.409 276.313 419.703 276.427 419.932 276.656C420.194 276.885 420.325 277.18 420.325 277.54V296.586H424.645C425.037 296.586 425.348 296.716 425.577 296.978C425.806 297.207 425.921 297.485 425.921 297.813V302.672C425.921 303.032 425.79 303.327 425.528 303.556C425.299 303.785 425.021 303.899 424.694 303.899H420.325V309.446C420.325 309.806 420.194 310.101 419.932 310.33C419.703 310.559 419.409 310.673 419.049 310.673H413.011ZM403.734 296.929H411.98V285.345L403.734 296.929Z" fill="black"/>
<defs>
<linearGradient id="paint0_linear_207_4" x1="-4.55396" y1="320" x2="565.407" y2="160.679" gradientUnits="userSpaceOnUse">
<stop stop-color="#FF5B26"/>
<stop offset="1" stop-color="#FFC000"/>
</linearGradient>
</defs>
</svg>
