<?xml version="1.0" encoding="UTF-8" standalone="no"?>
<svg
   width="913.25665"
   height="269.9079"
   version="1.1"
   id="svg427"
   sodipodi:docname="osm_logo.svg"
   inkscape:version="1.2.2 (b0a8486541, 2022-12-01)"
   xmlns:inkscape="http://www.inkscape.org/namespaces/inkscape"
   xmlns:sodipodi="http://sodipodi.sourceforge.net/DTD/sodipodi-0.dtd"
   xmlns:xlink="http://www.w3.org/1999/xlink"
   xmlns="http://www.w3.org/2000/svg"
   xmlns:svg="http://www.w3.org/2000/svg">
  <sodipodi:namedview
     id="namedview429"
     pagecolor="#ffffff"
     bordercolor="#666666"
     borderopacity="1.0"
     inkscape:showpageshadow="2"
     inkscape:pageopacity="0.0"
     inkscape:pagecheckerboard="0"
     inkscape:deskcolor="#d1d1d1"
     showgrid="false"
     inkscape:zoom="0.921875"
     inkscape:cx="125.28814"
     inkscape:cy="128"
     inkscape:window-width="3840"
     inkscape:window-height="2074"
     inkscape:window-x="0"
     inkscape:window-y="49"
     inkscape:window-maximized="1"
     inkscape:current-layer="svg427" />
  <style
     id="style2"><![CDATA[.B{opacity:.387}.C{fill:#ceeeab}.D{fill-opacity:1}.E{stroke:none}.F{fill:none}.G{stroke-linejoin:round}.H{stroke-linecap:round}.I{stroke:#6d7f42}.J{opacity:.039}.K{fill:#2d3335}]]></style>
  <defs
     id="defs225">
    <linearGradient
       id="A"
       xlink:href="#As">
      <stop
         offset="0"
         id="stop4" />
      <stop
         offset="1"
         stop-opacity="0"
         id="stop6" />
    </linearGradient>
    <linearGradient
       xlink:href="#C"
       id="B"
       x1="6065.8838"
       y1="-6282.2114"
       x2="586.65698"
       y2="-11764.459"
       gradientTransform="scale(1.0969085,0.91165308)"
       gradientUnits="userSpaceOnUse" />
    <linearGradient
       id="C"
       xlink:href="#As">
      <stop
         offset="0"
         id="stop10" />
      <stop
         offset="1"
         stop-opacity="0"
         id="stop12" />
    </linearGradient>
    <linearGradient
       xlink:href="#C"
       id="D"
       x1="3232.4058"
       y1="-7337.0718"
       x2="2280.8992"
       y2="-2008.6349"
       gradientTransform="scale(0.98922066,1.0108968)"
       gradientUnits="userSpaceOnUse" />
    <linearGradient
       xlink:href="#C"
       id="E"
       x1="5053.5576"
       y1="-10616.752"
       x2="7472.8115"
       y2="-4926.2812"
       gradientTransform="scale(1.0206207,0.9797959)"
       gradientUnits="userSpaceOnUse" />
    <linearGradient
       xlink:href="#C"
       id="F"
       x1="3256.6172"
       y1="-2856.4048"
       x2="7147.0146"
       y2="375.33554"
       gradientTransform="scale(0.91575039,1.0920006)"
       gradientUnits="userSpaceOnUse" />
    <linearGradient
       xlink:href="#C"
       id="G"
       x1="2441.3525"
       y1="-11030.432"
       x2="12126.726"
       y2="-9933.9746"
       gradientTransform="scale(0.99321375,1.0068326)"
       gradientUnits="userSpaceOnUse" />
    <linearGradient
       xlink:href="#C"
       id="H"
       x1="3948.0359"
       y1="-9528.4512"
       x2="12124.16"
       y2="-2860.2195"
       gradientTransform="scale(0.91765705,1.0897317)"
       gradientUnits="userSpaceOnUse" />
    <linearGradient
       xlink:href="#C"
       id="I"
       x1="10443.533"
       y1="-1772.0088"
       x2="13885.446"
       y2="2592.1392"
       gradientTransform="scale(0.99432351,1.0057089)"
       gradientUnits="userSpaceOnUse" />
    <linearGradient
       xlink:href="#C"
       id="J"
       x1="9549.083"
       y1="-11249.377"
       x2="15610.156"
       y2="-5204.73"
       gradientTransform="scale(0.9969151,1.0030944)"
       gradientUnits="userSpaceOnUse" />
    <linearGradient
       xlink:href="#L"
       id="K"
       x1="14818.985"
       y1="-11217.782"
       x2="11553.319"
       y2="-7959.6392"
       gradientTransform="scale(1.0016097,0.99839289)"
       gradientUnits="userSpaceOnUse" />
    <linearGradient
       id="L"
       xlink:href="#As">
      <stop
         offset="0"
         stop-color="#fff"
         id="stop23" />
      <stop
         offset="1"
         stop-color="#fff"
         stop-opacity="0"
         id="stop25" />
    </linearGradient>
    <linearGradient
       xlink:href="#L"
       id="M"
       x1="3485.0747"
       y1="-8377.5977"
       x2="3772.3799"
       y2="-4202.2837"
       gradientTransform="scale(1.0183769,0.98195476)"
       gradientUnits="userSpaceOnUse" />
    <linearGradient
       xlink:href="#L"
       id="N"
       x1="2471.7856"
       y1="387.81277"
       x2="4725.875"
       y2="-1090.2684"
       gradientTransform="scale(0.99975901,1.0002411)"
       gradientUnits="userSpaceOnUse" />
    <linearGradient
       xlink:href="#L"
       id="O"
       x1="6287.0361"
       y1="-10093.418"
       x2="5268.7783"
       y2="-7597.2305"
       gradientTransform="scale(1.0375436,0.96381493)"
       gradientUnits="userSpaceOnUse" />
    <linearGradient
       xlink:href="#L"
       id="P"
       x1="7458.1216"
       y1="-4981.2998"
       x2="4051.5139"
       y2="-1003.6373"
       gradientTransform="scale(0.991327,1.0087489)"
       gradientUnits="userSpaceOnUse" />
    <linearGradient
       xlink:href="#L"
       id="Q"
       x1="11634.106"
       y1="-8098.186"
       x2="8654.6924"
       y2="-3995.5176"
       gradientTransform="scale(0.98999264,1.0101085)"
       gradientUnits="userSpaceOnUse" />
    <linearGradient
       xlink:href="#L"
       id="R"
       x1="11016.925"
       y1="-1524.3553"
       x2="8428.7529"
       y2="2107.4883"
       gradientTransform="scale(1.0095904,0.99050073)"
       gradientUnits="userSpaceOnUse" />
    <linearGradient
       y2="-445.77057"
       x2="12207.193"
       y1="-5100.6694"
       x1="14308.197"
       id="S"
       xlink:href="#L"
       gradientTransform="scale(0.94071084,1.0630259)"
       gradientUnits="userSpaceOnUse" />
    <linearGradient
       xlink:href="#A"
       id="T"
       x1="47059.051"
       y1="13700.121"
       x2="2023.6992"
       y2="-50172.348"
       gradientTransform="matrix(1.0095374,0,0,0.99055272,1.6992008,192)"
       gradientUnits="userSpaceOnUse" />
    <clipPath
       id="U">
      <path
         d="m 9,12.25 c 0,0 7.5,13 11.75,27.75 C 25,54.75 27,65.5 27,65.5 c 0,0 -5.5,12.75 -8.25,24.75 -2.75,12 -5.75,23 -5.75,23 0,0 5.75,16 9.25,30 3.5,14 3.75,24.25 3.75,24.25 0,0 -4,10.25 -7.5,24.25 -3.5,14 -5,30.75 -5,30.75 0,0 9.25,-2 28.5,1.25 19.25,3.25 32.25,6 32.25,6 0,0 12.75,-2.75 24,-6.25 11.25,-3.5 16.25,-6.5 16.25,-6.5 0,0 5.5,0.5 22.5,6.25 17,5.75 29.25,8.5 29.25,8.5 l 26,-5.75 c 13,-3 26.5,-8 26.5,-8 0,0 -0.75,-5 4.25,-24.5 5,-19.5 8.75,-28 8.75,-28 0,0 -0.5,-4.5 -3.75,-19.75 C 224.75,130.5 218,116 218,116 c 0,0 1.75,-10.5 6.75,-23.75 L 235,65.5 c 0,0 -4.75,-15.25 -7.5,-29.75 C 224.75,21.25 219.25,10 219.25,10 c 0,0 -24.25,9 -31.75,10.5 -7.5,1.5 -21,5.25 -21,5.25 0,0 -9.75,-4.25 -22,-8.5 -12.25,-4.25 -29.75,-5.5 -29.75,-5.5 0,0 -3.25,3.5 -22,8 -18.75,4.5 -27.5,5.75 -27.5,5.75 0,0 -18.5,-9 -31.5,-11.5 -13,-2.5 -24,-2 -24.75,-1.75 z"
         class="C D E"
         id="path36" />
    </clipPath>
    <clipPath
       id="V">
      <path
         d="m 9,12.25 c 0,0 7.5,13 11.75,27.75 C 25,54.75 27,65.5 27,65.5 c 0,0 -5.5,12.75 -8.25,24.75 -2.75,12 -5.75,23 -5.75,23 0,0 5.75,16 9.25,30 3.5,14 3.75,24.25 3.75,24.25 0,0 -4,10.25 -7.5,24.25 -3.5,14 -5,30.75 -5,30.75 0,0 9.25,-2 28.5,1.25 19.25,3.25 32.25,6 32.25,6 0,0 12.75,-2.75 24,-6.25 11.25,-3.5 16.25,-6.5 16.25,-6.5 0,0 5.5,0.5 22.5,6.25 17,5.75 29.25,8.5 29.25,8.5 l 26,-5.75 c 13,-3 26.5,-8 26.5,-8 0,0 -0.75,-5 4.25,-24.5 5,-19.5 8.75,-28 8.75,-28 0,0 -0.5,-4.5 -3.75,-19.75 C 224.75,130.5 218,116 218,116 c 0,0 1.75,-10.5 6.75,-23.75 L 235,65.5 c 0,0 -4.75,-15.25 -7.5,-29.75 C 224.75,21.25 219.25,10 219.25,10 c 0,0 -24.25,9 -31.75,10.5 -7.5,1.5 -21,5.25 -21,5.25 0,0 -9.75,-4.25 -22,-8.5 -12.25,-4.25 -29.75,-5.5 -29.75,-5.5 0,0 -3.25,3.5 -22,8 -18.75,4.5 -27.5,5.75 -27.5,5.75 0,0 -18.5,-9 -31.5,-11.5 -13,-2.5 -24,-2 -24.75,-1.75 z"
         class="C D E"
         id="path39" />
    </clipPath>
    <clipPath
       id="W">
      <path
         d="m 9,12.25 c 0,0 7.5,13 11.75,27.75 C 25,54.75 27,65.5 27,65.5 c 0,0 -5.5,12.75 -8.25,24.75 -2.75,12 -5.75,23 -5.75,23 0,0 5.75,16 9.25,30 3.5,14 3.75,24.25 3.75,24.25 0,0 -4,10.25 -7.5,24.25 -3.5,14 -5,30.75 -5,30.75 0,0 9.25,-2 28.5,1.25 19.25,3.25 32.25,6 32.25,6 0,0 12.75,-2.75 24,-6.25 11.25,-3.5 16.25,-6.5 16.25,-6.5 0,0 5.5,0.5 22.5,6.25 17,5.75 29.25,8.5 29.25,8.5 l 26,-5.75 c 13,-3 26.5,-8 26.5,-8 0,0 -0.75,-5 4.25,-24.5 5,-19.5 8.75,-28 8.75,-28 0,0 -0.5,-4.5 -3.75,-19.75 C 224.75,130.5 218,116 218,116 c 0,0 1.75,-10.5 6.75,-23.75 L 235,65.5 c 0,0 -4.75,-15.25 -7.5,-29.75 C 224.75,21.25 219.25,10 219.25,10 c 0,0 -24.25,9 -31.75,10.5 -7.5,1.5 -21,5.25 -21,5.25 0,0 -9.75,-4.25 -22,-8.5 -12.25,-4.25 -29.75,-5.5 -29.75,-5.5 0,0 -3.25,3.5 -22,8 -18.75,4.5 -27.5,5.75 -27.5,5.75 0,0 -18.5,-9 -31.5,-11.5 -13,-2.5 -24,-2 -24.75,-1.75 z"
         class="C D E"
         id="path42" />
    </clipPath>
    <linearGradient
       id="X"
       xlink:href="#As">
      <stop
         offset="0"
         stop-color="#2d3335"
         id="stop45" />
      <stop
         offset=".5"
         stop-color="#4c464a"
         id="stop47" />
      <stop
         offset="1"
         stop-color="#384042"
         id="stop49" />
    </linearGradient>
    <linearGradient
       id="Y"
       x1="1.538"
       y1="242.464"
       x2="17.285999"
       y2="258.21201"
       xlink:href="#As"
       gradientTransform="translate(1.6992008)">
      <stop
         offset="0"
         stop-color="#f9e295"
         id="stop52" />
      <stop
         offset=".125"
         stop-color="#f7dd84"
         id="stop54" />
      <stop
         offset=".206"
         stop-color="#fff"
         id="stop56" />
      <stop
         offset=".301"
         stop-color="#f4ce51"
         id="stop58" />
      <stop
         offset=".341"
         stop-color="#f9e7aa"
         id="stop60" />
      <stop
         offset="1"
         stop-color="#efbb0e"
         id="stop62" />
    </linearGradient>
    <linearGradient
       id="Z"
       gradientTransform="matrix(-1.9685436,-1.9685436,-1.742074,1.742074,597.88552,167.51089)"
       x1="123"
       y1="150.375"
       x2="133"
       y2="150.375"
       xlink:href="#As">
      <stop
         offset="0"
         stop-color="#2d3335"
         id="stop65" />
      <stop
         offset=".5"
         stop-color="#4c464a"
         id="stop67" />
      <stop
         offset="1"
         stop-color="#384042"
         id="stop69" />
    </linearGradient>
    <linearGradient
       id="a"
       x1="67.484001"
       y1="176.517"
       x2="83.233002"
       y2="192.26601"
       xlink:href="#As"
       gradientTransform="translate(1.6992008)">
      <stop
         offset="0"
         stop-color="#f9e295"
         id="stop72" />
      <stop
         offset=".125"
         stop-color="#f7dd84"
         id="stop74" />
      <stop
         offset=".206"
         stop-color="#fff"
         id="stop76" />
      <stop
         offset=".301"
         stop-color="#f4ce51"
         id="stop78" />
      <stop
         offset=".341"
         stop-color="#f9e7aa"
         id="stop80" />
      <stop
         offset="1"
         stop-color="#efbb0e"
         id="stop82" />
    </linearGradient>
    <linearGradient
       xlink:href="#X"
       id="b"
       x1="4526.918"
       y1="5551.6782"
       x2="4887.4082"
       y2="5551.6782"
       gradientUnits="userSpaceOnUse"
       gradientTransform="translate(1.6992008)" />
    <linearGradient
       xlink:href="#X"
       id="c"
       x1="4439.3013"
       y1="4662.7124"
       x2="4233.2725"
       y2="5062.1265"
       gradientUnits="userSpaceOnUse"
       gradientTransform="translate(1.6992008)" />
    <radialGradient
       id="d"
       gradientTransform="matrix(1.005214,1.0052137,1.0052137,-1.005214,-40.83796,43.253296)"
       cx="128"
       cy="86"
       fx="128"
       fy="86"
       r="47"
       xlink:href="#As">
      <stop
         offset="0"
         stop-color="#d0e9f2"
         stop-opacity="0"
         id="stop87" />
      <stop
         offset=".839"
         stop-color="#d0e9f2"
         stop-opacity="0"
         id="stop89" />
      <stop
         offset=".943"
         stop-color="#d0e9f2"
         stop-opacity=".282"
         id="stop91" />
      <stop
         offset="1"
         stop-color="#d0e9f2"
         id="stop93" />
    </radialGradient>
    <linearGradient
       y2="12744.622"
       x2="11173.918"
       y1="14198.46"
       x1="9079.5439"
       id="e"
       xlink:href="#A"
       gradientUnits="userSpaceOnUse"
       gradientTransform="translate(1.6992008)" />
    <radialGradient
       id="f"
       cx="159.61301"
       cy="72.587997"
       fx="159.61301"
       fy="72.587997"
       r="38.417"
       gradientTransform="matrix(1.2124778,0,0,0.83914635,-46.348455,24.528408)"
       xlink:href="#As">
      <stop
         offset="0"
         stop-color="#fff"
         id="stop97" />
      <stop
         offset=".5"
         stop-color="#fff"
         stop-opacity=".931"
         id="stop99" />
      <stop
         offset="1"
         stop-color="#fff"
         stop-opacity="0"
         id="stop101" />
    </radialGradient>
    <radialGradient
       r="38.417"
       fy="72.587997"
       fx="159.61301"
       cy="72.587997"
       cx="159.61301"
       gradientTransform="matrix(1.2124778,0,0,0.83914635,-45.919787,25.814437)"
       id="g"
       xlink:href="#As">
      <stop
         offset="0"
         stop-color="#fff"
         id="stop104" />
      <stop
         offset="1"
         stop-color="#fff"
         stop-opacity="0"
         id="stop106" />
    </radialGradient>
    <linearGradient
       id="h"
       x1="126.643"
       y1="19.815001"
       x2="179.961"
       y2="127.196"
       xlink:href="#As"
       gradientTransform="translate(1.6992008)">
      <stop
         offset="0"
         stop-color="#fff"
         id="stop109" />
      <stop
         offset="1"
         stop-color="#fff"
         stop-opacity="0"
         id="stop111" />
    </linearGradient>
    <linearGradient
       gradientTransform="matrix(-0.50295302,0.19839946,0.19720153,-0.43253662,277.85555,123.41729)"
       y2="137.196"
       x2="179.961"
       y1="29.815001"
       x1="126.643"
       id="i"
       xlink:href="#As">
      <stop
         offset="0"
         stop-color="#fff"
         id="stop114" />
      <stop
         offset="1"
         stop-color="#fff"
         stop-opacity="0"
         id="stop116" />
    </linearGradient>
    <filter
       id="j"
       x="-0.048000638"
       y="-0.048001346"
       width="1.0960013"
       height="1.0960027">
      <feGaussianBlur
         stdDeviation="4.287"
         id="feGaussianBlur119" />
    </filter>
    <clipPath
       id="k">
      <path
         d="m 9,12.25 c 0,0 7.5,13 11.75,27.75 C 25,54.75 27,65.5 27,65.5 c 0,0 -5.5,12.75 -8.25,24.75 -2.75,12 -5.75,23 -5.75,23 0,0 5.75,16 9.25,30 3.5,14 3.75,24.25 3.75,24.25 0,0 -4,10.25 -7.5,24.25 -3.5,14 -5,30.75 -5,30.75 0,0 9.25,-2 28.5,1.25 19.25,3.25 32.25,6 32.25,6 0,0 12.75,-2.75 24,-6.25 11.25,-3.5 16.25,-6.5 16.25,-6.5 0,0 5.5,0.5 22.5,6.25 17,5.75 29.25,8.5 29.25,8.5 l 26,-5.75 c 13,-3 26.5,-8 26.5,-8 0,0 -0.75,-5 4.25,-24.5 5,-19.5 8.75,-28 8.75,-28 0,0 -0.5,-4.5 -3.75,-19.75 C 224.75,130.5 218,116 218,116 c 0,0 1.75,-10.5 6.75,-23.75 L 235,65.5 c 0,0 -4.75,-15.25 -7.5,-29.75 C 224.75,21.25 219.25,10 219.25,10 c 0,0 -24.25,9 -31.75,10.5 -7.5,1.5 -21,5.25 -21,5.25 0,0 -9.75,-4.25 -22,-8.5 -12.25,-4.25 -29.75,-5.5 -29.75,-5.5 0,0 -3.25,3.5 -22,8 -18.75,4.5 -27.5,5.75 -27.5,5.75 0,0 -18.5,-9 -31.5,-11.5 -13,-2.5 -24,-2 -24.75,-1.75 z"
         class="C D E"
         id="path122" />
    </clipPath>
    <clipPath
       id="l">
      <path
         d="m 9,12.25 c 0,0 7.5,13 11.75,27.75 C 25,54.75 27,65.5 27,65.5 c 0,0 -5.5,12.75 -8.25,24.75 -2.75,12 -5.75,23 -5.75,23 0,0 5.75,16 9.25,30 3.5,14 3.75,24.25 3.75,24.25 0,0 -4,10.25 -7.5,24.25 -3.5,14 -5,30.75 -5,30.75 0,0 9.25,-2 28.5,1.25 19.25,3.25 32.25,6 32.25,6 0,0 12.75,-2.75 24,-6.25 11.25,-3.5 16.25,-6.5 16.25,-6.5 0,0 5.5,0.5 22.5,6.25 17,5.75 29.25,8.5 29.25,8.5 l 26,-5.75 c 13,-3 26.5,-8 26.5,-8 0,0 -0.75,-5 4.25,-24.5 5,-19.5 8.75,-28 8.75,-28 0,0 -0.5,-4.5 -3.75,-19.75 C 224.75,130.5 218,116 218,116 c 0,0 1.75,-10.5 6.75,-23.75 L 235,65.5 c 0,0 -4.75,-15.25 -7.5,-29.75 C 224.75,21.25 219.25,10 219.25,10 c 0,0 -24.25,9 -31.75,10.5 -7.5,1.5 -21,5.25 -21,5.25 0,0 -9.75,-4.25 -22,-8.5 -12.25,-4.25 -29.75,-5.5 -29.75,-5.5 0,0 -3.25,3.5 -22,8 -18.75,4.5 -27.5,5.75 -27.5,5.75 0,0 -18.5,-9 -31.5,-11.5 -13,-2.5 -24,-2 -24.75,-1.75 z"
         class="C D E"
         id="path125" />
    </clipPath>
    <clipPath
       id="m">
      <path
         d="m 9,12.25 c 0,0 7.5,13 11.75,27.75 C 25,54.75 27,65.5 27,65.5 c 0,0 -5.5,12.75 -8.25,24.75 -2.75,12 -5.75,23 -5.75,23 0,0 5.75,16 9.25,30 3.5,14 3.75,24.25 3.75,24.25 0,0 -4,10.25 -7.5,24.25 -3.5,14 -5,30.75 -5,30.75 0,0 9.25,-2 28.5,1.25 19.25,3.25 32.25,6 32.25,6 0,0 12.75,-2.75 24,-6.25 11.25,-3.5 16.25,-6.5 16.25,-6.5 0,0 5.5,0.5 22.5,6.25 17,5.75 29.25,8.5 29.25,8.5 l 26,-5.75 c 13,-3 26.5,-8 26.5,-8 0,0 -0.75,-5 4.25,-24.5 5,-19.5 8.75,-28 8.75,-28 0,0 -0.5,-4.5 -3.75,-19.75 C 224.75,130.5 218,116 218,116 c 0,0 1.75,-10.5 6.75,-23.75 L 235,65.5 c 0,0 -4.75,-15.25 -7.5,-29.75 C 224.75,21.25 219.25,10 219.25,10 c 0,0 -24.25,9 -31.75,10.5 -7.5,1.5 -21,5.25 -21,5.25 0,0 -9.75,-4.25 -22,-8.5 -12.25,-4.25 -29.75,-5.5 -29.75,-5.5 0,0 -3.25,3.5 -22,8 -18.75,4.5 -27.5,5.75 -27.5,5.75 0,0 -18.5,-9 -31.5,-11.5 -13,-2.5 -24,-2 -24.75,-1.75 z"
         class="C D E"
         id="path128" />
    </clipPath>
    <linearGradient
       id="n"
       x1="210.172"
       y1="264.064"
       x2="9"
       y2="-21.253"
       xlink:href="#As">
      <stop
         offset="0"
         id="stop131" />
      <stop
         offset="1"
         stop-opacity="0"
         id="stop133" />
    </linearGradient>
    <linearGradient
       xlink:href="#p"
       id="o"
       x1="14818.985"
       y1="-11217.782"
       x2="11553.319"
       y2="-7959.6392"
       gradientTransform="scale(1.0016097,0.99839289)"
       gradientUnits="userSpaceOnUse" />
    <linearGradient
       id="p"
       xlink:href="#As">
      <stop
         offset="0"
         stop-color="#fff"
         id="stop137" />
      <stop
         offset="1"
         stop-color="#fff"
         stop-opacity="0"
         id="stop139" />
    </linearGradient>
    <linearGradient
       xlink:href="#p"
       id="q"
       x1="3485.0747"
       y1="-8377.5977"
       x2="3772.3799"
       y2="-4202.2837"
       gradientTransform="scale(1.0183769,0.98195476)"
       gradientUnits="userSpaceOnUse" />
    <linearGradient
       xlink:href="#p"
       id="r"
       x1="2471.7856"
       y1="387.81277"
       x2="4725.875"
       y2="-1090.2684"
       gradientTransform="scale(0.99975901,1.0002411)"
       gradientUnits="userSpaceOnUse" />
    <linearGradient
       xlink:href="#p"
       id="s"
       x1="6287.0361"
       y1="-10093.418"
       x2="5268.7783"
       y2="-7597.2305"
       gradientTransform="scale(1.0375436,0.96381493)"
       gradientUnits="userSpaceOnUse" />
    <linearGradient
       xlink:href="#p"
       id="t"
       x1="7458.1216"
       y1="-4981.2998"
       x2="4051.5139"
       y2="-1003.6373"
       gradientTransform="scale(0.991327,1.0087489)"
       gradientUnits="userSpaceOnUse" />
    <linearGradient
       xlink:href="#p"
       id="u"
       x1="11634.106"
       y1="-8098.186"
       x2="8654.6924"
       y2="-3995.5176"
       gradientTransform="scale(0.98999264,1.0101085)"
       gradientUnits="userSpaceOnUse" />
    <linearGradient
       xlink:href="#p"
       id="v"
       x1="11016.925"
       y1="-1524.3553"
       x2="8428.7529"
       y2="2107.4883"
       gradientTransform="scale(1.0095904,0.99050073)"
       gradientUnits="userSpaceOnUse" />
    <linearGradient
       y2="-445.77057"
       x2="12207.193"
       y1="-5100.6694"
       x1="14308.197"
       id="w"
       xlink:href="#p"
       gradientTransform="scale(0.94071084,1.0630259)"
       gradientUnits="userSpaceOnUse" />
    <linearGradient
       xlink:href="#y"
       id="x"
       x1="6065.8838"
       y1="-6282.2114"
       x2="586.65698"
       y2="-11764.459"
       gradientTransform="scale(1.0969085,0.91165308)"
       gradientUnits="userSpaceOnUse" />
    <linearGradient
       id="y"
       xlink:href="#As">
      <stop
         offset="0"
         id="stop150" />
      <stop
         offset="1"
         stop-opacity="0"
         id="stop152" />
    </linearGradient>
    <linearGradient
       xlink:href="#y"
       id="z"
       x1="3232.4058"
       y1="-7337.0718"
       x2="2280.8992"
       y2="-2008.6349"
       gradientTransform="scale(0.98922066,1.0108968)"
       gradientUnits="userSpaceOnUse" />
    <linearGradient
       xlink:href="#y"
       id="AA"
       x1="5053.5576"
       y1="-10616.752"
       x2="7472.8115"
       y2="-4926.2812"
       gradientTransform="scale(1.0206207,0.9797959)"
       gradientUnits="userSpaceOnUse" />
    <linearGradient
       xlink:href="#y"
       id="AB"
       x1="3256.6172"
       y1="-2856.4048"
       x2="7147.0146"
       y2="375.33554"
       gradientTransform="scale(0.91575039,1.0920006)"
       gradientUnits="userSpaceOnUse" />
    <linearGradient
       xlink:href="#y"
       id="AC"
       x1="2441.3525"
       y1="-11030.432"
       x2="12126.726"
       y2="-9933.9746"
       gradientTransform="scale(0.99321375,1.0068326)"
       gradientUnits="userSpaceOnUse" />
    <linearGradient
       xlink:href="#y"
       id="AD"
       x1="3948.0359"
       y1="-9528.4512"
       x2="12124.16"
       y2="-2860.2195"
       gradientTransform="scale(0.91765705,1.0897317)"
       gradientUnits="userSpaceOnUse" />
    <linearGradient
       xlink:href="#y"
       id="AE"
       x1="10443.533"
       y1="-1772.0088"
       x2="13885.446"
       y2="2592.1392"
       gradientTransform="scale(0.99432351,1.0057089)"
       gradientUnits="userSpaceOnUse" />
    <linearGradient
       xlink:href="#y"
       id="AF"
       x1="9549.083"
       y1="-11249.377"
       x2="15610.156"
       y2="-5204.73"
       gradientTransform="scale(0.9969151,1.0030944)"
       gradientUnits="userSpaceOnUse" />
    <clipPath
       id="AG">
      <path
         d="m 123.623,141.062 c 20.832,20.243 54.607,19.289 75.439,-2.132 20.832,-21.421 20.832,-55.196 0,-75.439 -20.832,-20.243 -54.607,-19.289 -75.439,2.132 -20.832,21.421 -20.832,55.196 0,75.439 z"
         fill="url(#AH)"
         class="D E"
         id="path162" />
    </clipPath>
    <radialGradient
       id="AH"
       gradientTransform="matrix(0.80254238,0.77986154,0.80254238,-0.82522321,-10.401684,73.423363)"
       cx="128"
       cy="86"
       fx="128"
       fy="86"
       r="47"
       xlink:href="#As">
      <stop
         offset="0"
         stop-color="#d0e9f2"
         stop-opacity="0"
         id="stop165" />
      <stop
         offset=".839"
         stop-color="#d0e9f2"
         stop-opacity="0"
         id="stop167" />
      <stop
         offset=".943"
         stop-color="#d0e9f2"
         stop-opacity=".282"
         id="stop169" />
      <stop
         offset="1"
         stop-color="#d0e9f2"
         id="stop171" />
    </radialGradient>
    <filter
       id="AI"
       x="-0.070662937"
       y="-0.070663978"
       width="1.1413259"
       height="1.141328">
      <feGaussianBlur
         stdDeviation="6.311"
         id="feGaussianBlur174" />
    </filter>
    <filter
       id="AJ"
       x="-0.047341595"
       y="-0.048688057"
       width="1.0946832"
       height="1.0973761">
      <feGaussianBlur
         stdDeviation="4.458"
         id="feGaussianBlur177" />
    </filter>
    <linearGradient
       id="AK"
       x1="122"
       y1="245.448"
       x2="122"
       y2="4.302"
       xlink:href="#As">
      <stop
         offset="0"
         id="stop180" />
      <stop
         offset="1"
         stop-opacity="0"
         id="stop182" />
    </linearGradient>
    <clipPath
       id="AL">
      <path
         d="m 9,22.578 c 0,0 7.5,12.393 11.75,26.8 C 25,63.785 27,74.373 27,74.373 c 0,0 -5.5,13.195 -8.25,25.417 C 16,112.012 13,123.255 13,123.255 c 0,0 5.75,15.535 9.25,29.252 3.5,13.717 3.75,23.946 3.75,23.946 0,0 -4,10.574 -7.5,24.857 -3.5,14.283 -5,31.154 -5,31.154 0,0 9.25,-2.748 28.5,-1.055 19.25,1.693 32.25,3.392 32.25,3.392 0,0 12.75,-3.781 24,-8.191 11.25,-4.41 16.25,-7.814 16.25,-7.814 0,0 5.5,0.055 22.5,4.43 17,4.375 29.25,6.134 29.25,6.134 l 26,-7.853 c 13,-4.051 26.5,-10.143 26.5,-10.143 0,0 -0.75,-4.939 4.25,-24.844 5,-19.905 8.75,-28.708 8.75,-28.708 0,0 -0.514,-4.455 -3.75,-19.447 -1.75,-8.108 -2.25,-4.068 -2.25,-4.068 0,0 16.264,-26.155 16.5,-40.334 C 242.5,78.943 235,57.55 235,57.55 c 0,0 -4.75,-14.866 -7.5,-29.143 -2.75,-14.277 -8.25,-25.083 -8.25,-25.083 0,0 -24.25,10.961 -31.75,13.068 -7.5,2.107 -21,6.948 -21,6.948 0,0 -9.75,-3.461 -22,-6.721 -12.25,-3.26 -29.75,-3.094 -29.75,-3.094 0,0 -3.25,3.763 -22,9.779 -18.75,6.016 -27.5,7.974 -27.5,7.974 0,0 -18.5,-7.504 -31.5,-8.952 -13,-1.448 -24,-0.059 -24.75,0.252 z"
         fill="url(#AM)"
         class="D E J"
         id="path185" />
    </clipPath>
    <linearGradient
       id="AM"
       x1="210.172"
       y1="258.12201"
       x2="9"
       y2="-10.925"
       xlink:href="#As">
      <stop
         offset="0"
         id="stop188" />
      <stop
         offset="1"
         stop-opacity="0"
         id="stop190" />
    </linearGradient>
    <path
       id="AN"
       d="m 174.281,35.875 c -17.599,0 -35.192,6.639 -48.719,19.906 -0.167,0.163 -0.334,0.303 -0.5,0.469 -22.056,22.056 -26.209,55.251 -12.469,81.5 l -2.281,1.625 a 72.07,72.07 0 0 0 8.094,12.125 l -13.312,13.344 c -1.341,-0.586 -2.789,-1.033 -4.562,-1.375 l -2.844,2.844 c -1.109,-0.484 -2.138,-0.816 -3.062,-0.875 L 30.5,229.563 c -0.037,1.101 0.226,2.187 0.656,3.281 l -0.531,0.531 -1.094,1.094 c 0.715,3.738 2.01,6.823 5.469,10.281 3.459,3.458 6.42,4.63 10.281,5.469 l 1.094,-1.094 0.719,-0.719 c 1.088,0.462 2.13,0.786 3.094,0.844 l 64.125,-64.125 c -0.243,-0.975 -0.62,-1.935 -1.031,-2.906 l 3,-3 c -0.25,-1.732 -0.677,-3.198 -1.312,-4.594 l 13.281,-13.281 a 72.07,72.07 0 0 0 12.125,8.094 l 1.625,-2.281 c 26.249,13.74 59.444,9.587 81.5,-12.469 0.166,-0.166 0.305,-0.333 0.469,-0.5 26.694,-27.217 26.549,-70.92 -0.469,-97.937 -13.59,-13.59 -31.407,-20.375 -49.219,-20.375 z m -0.5,3.281 h 0.313 c 0.949,0.018 1.895,0.065 2.844,0.125 a 65.85,65.85 0 0 1 2.875,0.25 l 0.281,0.031 0.281,0.031 c 0.146,0.017 0.292,0.045 0.438,0.063 0.896,0.11 1.795,0.228 2.688,0.375 0.619,0.102 1.227,0.224 1.844,0.344 l 1.031,0.188 c 0.724,0.152 1.436,0.323 2.156,0.5 l 0.938,0.219 c 0.073,0.019 0.146,0.043 0.219,0.063 0.956,0.253 1.897,0.516 2.844,0.813 0.072,0.023 0.146,0.04 0.219,0.063 a 67.71,67.71 0 0 1 2.844,0.969 c 0.053,0.019 0.103,0.043 0.156,0.063 0.955,0.352 1.902,0.728 2.844,1.125 0.052,0.022 0.105,0.041 0.156,0.063 0.942,0.4 1.885,0.836 2.813,1.281 0.042,0.02 0.083,0.042 0.125,0.063 0.935,0.451 1.862,0.91 2.781,1.406 0.033,0.018 0.061,0.045 0.094,0.063 0.927,0.503 1.841,1.013 2.75,1.563 0.032,0.019 0.062,0.043 0.094,0.063 a 68.23,68.23 0 0 1 2.688,1.719 c 0.549,0.369 1.084,0.77 1.625,1.156 l 1.094,0.781 c 0.019,0.014 0.044,0.017 0.063,0.031 0.878,0.655 1.74,1.36 2.594,2.063 a 70.63,70.63 0 0 1 5.063,4.594 70.62,70.62 0 0 1 4.563,5.031 c 0.009,0.011 0.022,0.02 0.031,0.031 0.703,0.854 1.407,1.715 2.063,2.594 0.283,0.379 0.539,0.773 0.813,1.156 l 1.094,1.563 c 0.016,0.024 0.046,0.038 0.063,0.063 0.598,0.89 1.167,1.778 1.719,2.688 0.019,0.032 0.043,0.062 0.063,0.094 0.546,0.903 1.063,1.829 1.563,2.75 0.018,0.033 0.045,0.061 0.063,0.094 0.498,0.921 0.954,1.844 1.406,2.781 0.02,0.042 0.042,0.083 0.063,0.125 0.446,0.93 0.88,1.868 1.281,2.813 0.022,0.051 0.041,0.105 0.063,0.156 A 67.98,67.98 0 0 1 236.5,84 c 0.019,0.053 0.043,0.104 0.063,0.156 0.348,0.948 0.666,1.885 0.969,2.844 0.023,0.072 0.04,0.147 0.063,0.219 0.294,0.941 0.561,1.894 0.813,2.844 0.019,0.074 0.043,0.145 0.063,0.219 0.081,0.31 0.143,0.627 0.219,0.938 l 0.5,2.156 c 0.072,0.342 0.121,0.688 0.188,1.031 l 0.344,1.844 c 0.147,0.893 0.265,1.791 0.375,2.688 0.018,0.146 0.046,0.291 0.063,0.438 l 0.031,0.281 0.031,0.281 c 0.102,0.956 0.19,1.917 0.25,2.875 0.059,0.942 0.107,1.9 0.125,2.844 0.002,0.104 -0.002,0.208 0,0.313 0.015,1.053 0.004,2.104 -0.031,3.156 -0.032,0.931 -0.085,1.853 -0.156,2.781 l -0.031,0.375 c -0.076,0.918 -0.166,1.835 -0.281,2.75 a 65.2,65.2 0 0 1 -0.437,2.875 c -0.014,0.082 -0.017,0.168 -0.031,0.25 l -0.062,0.375 c -0.165,0.908 -0.358,1.817 -0.562,2.719 l -0.094,0.406 c -0.208,0.889 -0.441,1.775 -0.687,2.656 -0.164,0.587 -0.35,1.167 -0.531,1.75 l -0.531,1.688 a 63.25,63.25 0 0 1 -0.937,2.563 l -0.187,0.469 c -0.045,0.112 -0.08,0.231 -0.125,0.344 a 62.9,62.9 0 0 1 -1.125,2.594 63.45,63.45 0 0 1 -1.187,2.438 c -0.081,0.158 -0.168,0.311 -0.25,0.469 l -1.29,2.371 -0.281,0.5 c -0.199,0.339 -0.419,0.664 -0.625,1 -0.362,0.591 -0.742,1.168 -1.125,1.75 -0.005,0.007 0.005,0.024 0,0.031 -0.491,0.746 -1.006,1.488 -1.531,2.219 -0.457,0.636 -0.954,1.251 -1.437,1.875 -0.197,0.254 -0.361,0.529 -0.562,0.781 l -0.406,0.5 c -0.164,0.201 -0.334,0.395 -0.5,0.594 -0.557,0.667 -1.131,1.318 -1.719,1.969 -0.606,0.671 -1.235,1.347 -1.875,2 -0.161,0.164 -0.306,0.337 -0.469,0.5 -21.13,21.13 -52.259,24.495 -77.187,11.156 l 0.125,-0.187 c -3.704,-1.897 -7.262,-4.14 -10.625,-6.781 -0.539,-0.423 -1.065,-0.87 -1.594,-1.312 l -1.531,-1.312 -0.281,-0.25 c -0.822,-0.748 -1.612,-1.518 -2.406,-2.312 -0.794,-0.794 -1.565,-1.585 -2.313,-2.406 l -0.25,-0.281 c -0.45,-0.504 -0.882,-1.017 -1.312,-1.531 l -1.312,-1.594 c -2.641,-3.363 -4.885,-6.921 -6.781,-10.625 l -0.187,0.125 c -13.339,-24.929 -9.974,-56.057 11.156,-77.188 0.163,-0.163 0.336,-0.308 0.5,-0.469 a 68.23,68.23 0 0 1 2,-1.875 c 0.651,-0.588 1.302,-1.162 1.969,-1.719 l 0.813,-0.687 c 0.343,-0.277 0.715,-0.512 1.063,-0.781 0.624,-0.483 1.239,-0.98 1.875,-1.437 a 65.36,65.36 0 0 1 2.25,-1.531 l 1.75,-1.125 1.344,-0.812 c 0.681,-0.395 1.371,-0.757 2.063,-1.125 l 0.531,-0.281 c 0.945,-0.491 1.881,-0.966 2.844,-1.406 a 62.89,62.89 0 0 1 2.594,-1.125 c 0.153,-0.062 0.316,-0.096 0.469,-0.156 0.968,-0.384 1.925,-0.759 2.906,-1.094 0.56,-0.191 1.123,-0.356 1.688,-0.531 l 1.75,-0.531 c 0.881,-0.246 1.768,-0.48 2.656,-0.687 0.071,-0.017 0.148,-0.015 0.219,-0.031 l 1.25,-0.281 2.031,-0.406 c 0.082,-0.014 0.168,-0.017 0.25,-0.031 0.951,-0.164 1.919,-0.317 2.875,-0.437 a 64.69,64.69 0 0 1 5.906,-0.469 65.09,65.09 0 0 1 3.156,-0.031 v 0 z" />
    <path
       id="AO"
       d="m 110.75,5.5 -4.25,7 c -0.75,9 -2.25,13.75 -8.5,16.5 -6.25,2.75 -12.25,3.5 -11,7.5 1.25,4 13,9.25 14.25,13 1.25,3.75 8.25,1.75 11,7 2.75,5.25 2,15.25 -3.75,17.25 -5.75,2 -17.5,0.5 -20.25,9.5 -2.75,9 -4.75,10.5 -9,12.75 -4.25,2.25 -7.25,10.5 -3.5,16.5 3.75,6 12.25,-1.25 15,-6.5 C 93.5,100.75 98,97.25 98,97.25 h 23.75 l 59,-1.75 3.25,-3.75 c 0,0 3.25,4 2.75,8.75 -0.5,4.75 -3.75,14.75 0.25,17.25 4,2.5 19.5,-2 24,-7 4.5,-5 -4.75,-28.25 -10.5,-29.5 -5.75,-1.25 -18.5,-1.75 -17,-7 1.5,-5.25 11.75,4.5 17.25,3.25 5.5,-1.25 16.75,-21 12,-25.25 C 208,48 188.5,47 187,44.25 c -1.5,-2.75 21,-8 22.25,-11 1.25,-3 -2.5,-7.25 -6.25,-8.5 C 199.25,23.5 189,41 182,40.5 175,40 162,46.25 164.75,52 c 2.75,5.75 -6,11 -14.5,6.5 -8.5,-4.5 -24.75,-13 -21.75,-24 3,-11 21.5,-18.75 21.5,-18.75 z M 97.188,112.719 c -1.595,0.146 -4.469,4.688 -4.937,7.031 -0.5,2.5 -3.25,6.75 -3.5,12.25 -0.25,5.5 4.75,6.75 8.75,6.5 4,-0.25 2.75,-6.75 2,-15 -0.25,0 -0.5,-10.25 -2,-10.75 -0.094,-0.031 -0.206,-0.041 -0.312,-0.031 v 0 z m 92.719,51.656 c -6.335,0.295 -6.625,7.469 -7.406,8.875 -1.25,2.25 2.25,13.75 2,18 -0.25,4.25 -4.75,5.25 -9.5,9.75 -4.75,4.5 0.5,16 11.25,31 l 44.75,1.25 -1,-35 c 0,0 4.75,-4.25 -20.75,-24.25 -9.562,-7.5 -15.542,-9.802 -19.344,-9.625 z M 39.938,180.906 c -4.029,-0.103 -8.281,5.719 -9.687,7.594 -1.5,2 -6.25,5 -17,9.5 l -14.5,34.25 53,4.25 c 0,0 1.75,-11 -4.25,-15.75 C 41.501,216 30.25,215 29.25,207.5 28.25,200 38.5,197.5 43,193.25 47.5,189 45,182 40.75,181 c -0.266,-0.062 -0.544,-0.087 -0.812,-0.094 z" />
    <path
       id="AP"
       d="M 122.75,62.25 C 129,62.75 135,60 133.5,55.75 132,51.5 121,48.5 120.25,52.75 c -0.75,4.25 2,10.5 2.5,9.5 z" />
    <path
       id="AQ"
       d="m 108.75,46.75 c -8.5,-5.5 -8.5,-7.25 -7,-8 1.5,-0.75 10.25,5 12.75,8 2.5,3 -2.25,2 -5.75,0 z" />
    <path
       id="AR"
       d="M 15.75,151.25 C 48.75,148.75 54,147.75 52,141 50,134.25 43.25,117.5 29,118.5 14.75,119.5 6.25,111.75 6.25,111.75" />
    <path
       id="AS"
       d="m 17.5,177.25 c 18.25,-10 28.75,-8.5 35,-11.5 6.25,-3 13.25,-5.75 15.75,-9.5 2.5,-3.75 5.75,-11.5 5.75,-18 0,-6.5 -3.5,-36 3.25,-43.5 6.75,-7.5 17.25,-26 26,-23.25 8.75,2.75 12.25,9.75 22,9.5 9.75,-0.25 21.75,-4 24.25,-12.25 2.5,-8.25 -15.75,-16 -16,-23 -0.25,-7 5.5,-14.25 20.25,-17 14.75,-2.75 23.5,-11.5 23.5,-11.5" />
    <path
       id="AT"
       d="m 14.5,161 c 15.25,-1.5 22.25,3.5 31.5,1.75 9.25,-1.75 13.25,-3 17.75,-5.75 4.5,-2.75 6,-3.75 6.25,-6.5 0.25,-2.75 1,-12.5 -3,-22 C 63,119 54.5,97 58.75,89.75 63,82.5 64,68.25 74.5,65.25 85,62.25 95.5,59 102.25,64 c 6.75,5 12.75,14.25 20,14.5 7.25,0.25 11.75,-1.5 14.5,-4.5 2.75,-3 4.5,-10.25 1.75,-13.75 -2.75,-3.5 -15.5,-5.5 -17.25,-9.5 -1.75,-4 -10.75,-17 -0.25,-26.75 10.5,-9.75 36.25,-8.25 36.25,-8.25" />
    <path
       id="AU"
       d="m 21.25,159 c 13.75,1 21.5,4.25 33.5,-0.5 12,-4.75 13.5,-5.25 13.75,-8.75 0.25,-3.5 -0.25,-15.75 -3,-20 C 62.75,125.5 52.5,116 49.75,105.5 47,95 50,64.5 58.25,57.25 66.5,50 90.25,50 95.75,46.75 101.25,43.5 101,30 108.75,22.25 116.5,14.5 135.75,10 135.75,10" />
    <path
       id="AV"
       d="m 9.75,214 c 19,-12.5 36,-1.25 49,-4 13,-2.75 38.25,-37.25 46,-37 7.75,0.25 5.5,-11.75 8.5,-13.25 3,-1.5 5.5,6 11.75,8 6.25,2 24.5,-2.75 23.5,-5.75 -1,-3 -7,-7.75 -5.5,-8.5 1.5,-0.75 8.5,5 12.75,3.5 4.25,-1.5 43.75,-1 48.5,-13.5 C 209,131 225.75,130 225.75,130" />
    <path
       id="AW"
       d="m 77.5,233.5 c 13.5,-11.5 23.25,-25 28.5,-27 5.25,-2 12.75,-3.75 15.75,-8 3,-4.25 2.5,-10.75 5.25,-12 2.75,-1.25 3.75,5.75 8.75,6 5,0.25 36.75,-5 42.75,-11.75 6,-6.75 32.25,-12.5 32.5,-14.5 0.25,-2 -1,-4.75 0.25,-5.5 1.25,-0.75 24.75,-6 24.75,-6" />
    <path
       id="AX"
       d="m 168.75,236 c 9,-13.75 20.5,-41 29.5,-42 9,-1 10.25,-2.5 12.5,-4.25 2.25,-1.75 17,2.25 17,2.25" />
    <path
       id="AY"
       d="m 57.75,20 -8.5,28.25 18,6.25 L 75,90.75 54,113 l 9,10.5 -12,11.5 0.5,4.5 20.25,24.5 14,-6.75 20.5,18.5 -10.5,28.25 10.25,8.5 -2.75,13" />
    <path
       id="AZ"
       d="m 105.75,212.25 12.5,-27.75 11,-7 27.5,15.75 20.5,-3.75 -0.25,-15.75 -10.25,-6 12.75,-26.25 5.75,-3.75 38.75,-10" />
    <path
       id="Aa"
       d="m 219.25,-182 c 0,0 -24.25,9 -31.75,10.5 -7.5,1.5 -21,5.25 -21,5.25 4.924,-1.358 11.437,45.392 14.25,52.25 l -0.062,0.281 c 11.808,-4.074 51.21,-4.768 54.313,-12.781 0,0 -4.75,-15.25 -7.5,-29.75 -2.75,-14.5 -8.251,-25.75 -8.251,-25.75 z" />
    <path
       id="Ab"
       d="m 27,-126.5 c 0,0 -5.5,12.75 -8.25,24.75 -2.75,12 -5.75,23 -5.75,23 l 50.625,16.281 15.781,-58.906 z" />
    <path
       id="Ac"
       d="m 26,-24.5 c 0,0 -4,10.25 -7.5,24.25 -3.5,14 -5,30.75 -5,30.75 0,0 0.147,-0.045 0.438,-0.094 2.034,-0.338 11.219,-1.5 28.063,1.344 19.25,3.25 32.25,6 32.25,6 l 1.469,-52.5 -0.75,0.125 z" />
    <path
       id="Ad"
       d="m 114.75,-180.25 c 0,0 -3.25,3.5 -22,8 -18.75,4.5 -27.5,5.75 -27.5,5.75 5.182,14.704 12.03,29.27 14.25,44.75 l -0.094,0.313 48.031,-3.937 1.125,0.25 c -3.362,-13.323 -7.796,-54.592 -13.812,-55.125 z" />
    <path
       id="Ae"
       d="M 117.594,-78.094 63.969,-62.375 63.625,-62.469 63.5,-62 l 12.25,46.5 -0.031,0.75 49.469,-8.875 0.531,0.188 0.031,-0.062 -8.25,-54.25 0.094,-0.344 v 0 z" />
    <path
       id="Af"
       d="m 128.563,-125.125 0.688,2.375 -11.656,44.656 0.094,-0.031 51.811,17.375 11.188,-52.969 -1,0.375 z" />
    <path
       id="Ag"
       d="M 125.531,-23.5 114.5,25 c 0,0 5.5,0.5 22.5,6.25 l 6.125,2.031 5.625,1.719 c 10.617,3.199 17.5,4.75 17.5,4.75 l 12.719,-45.406 -1.531,0.563 z" />
    <path
       id="Ah"
       d="m 218,-76 c -15.666,6.288 -31.698,11.15 -48.062,15.406 l -0.437,-0.156 9.5,55 -0.031,0.094 c 17.839,-6.36 35.381,-13.387 52.781,-20.844 0,0 -0.5,-4.5 -3.75,-19.75 C 224.751,-61.5 218,-76 218,-76 Z" />
    <path
       id="Ai"
       d="m 13.719,-179.969 c -1.106,-0.003 -1.972,0.032 -2.719,0.063 l -1.156,0.063 c -0.029,0.002 -0.066,-0.002 -0.094,0 L 9,-179.749 c 0,0 7.5,13 11.75,27.75 C 25,-137.249 27,-126.5 27,-126.5 l 51.469,5.125 0.938,-0.062 0.094,-0.312 c -2.22,-15.48 -9.068,-30.046 -14.25,-44.75 0,0 -18.5,-9 -31.5,-11.5 l -3,-0.531 -1.75,-0.281 -0.687,-0.094 c -1.306,-0.182 -2.588,-0.34 -3.812,-0.469 -0.735,-0.077 -1.395,-0.128 -2.094,-0.187 l -2,-0.156 -2.781,-0.156 c -1.456,-0.063 -2.769,-0.091 -3.906,-0.094 v 0 z" />
    <path
       id="Aj"
       d="m 13,-78.75 c 0,0 5.75,16 9.25,30 3.5,14 3.75,24.25 3.75,24.25 l 48.969,9.875 0.75,-0.125 0.031,-0.75 -12.25,-46.5 0.125,-0.469 z" />
    <path
       id="Ak"
       d="m 127.438,-125.375 -47.969,4 h -0.062 l -15.782,58.906 0.344,0.094 53.625,-15.719 11.656,-44.656 c -0.224,-0.633 -0.453,-1.447 -0.687,-2.375 z" />
    <path
       id="Al"
       d="m 125.188,-23.625 -49.469,8.875 -1.469,52.5 c 0,0 12.75,-2.75 24,-6.25 C 109.5,28 114.5,25 114.5,25 l 11.219,-48.437 -0.531,-0.187 z" />
    <path
       id="Am"
       d="m 114.75,-180.25 c 6.016,0.533 10.45,41.802 13.813,55.125 l 51.125,11.781 c 0.305,-0.13 0.643,-0.252 1,-0.375 l 0.063,-0.281 c -2.813,-6.858 -9.326,-53.608 -14.25,-52.25 l -1.719,-0.719 c -3.316,-1.395 -11.094,-4.594 -20.281,-7.781 -12.25,-4.25 -29.75,-5.5 -29.75,-5.5 z" />
    <path
       id="An"
       d="m 117.688,-78.125 -0.094,0.031 -0.094,0.344 8.25,53.25 -0.219,1 51.906,18.406 1.531,-0.562 0.031,-0.094 -9.5,-55 -51.812,-17.375 v 0 z" />
    <path
       id="Ao"
       d="m 231.75,-26.5 c -17.4,7.457 -34.942,14.484 -52.781,20.844 L 166.25,39.75 192.25,34 c 13,-3 26.5,-8 26.5,-8 0,0 -0.75,-5 4.25,-24.5 5,-19.5 8.75,-28 8.75,-28 z" />
    <path
       id="Ap"
       d="m 235,-126.5 c -3.102,8.014 -42.505,8.707 -54.312,12.781 l -11.188,52.969 0.438,0.156 C 186.302,-64.85 202.334,-69.712 218,-76 c 0,0 1.75,-10.5 6.75,-23.75 z" />
    <path
       id="Aq"
       d="m 9,12.25 c 0,0 7.5,13 11.75,27.75 C 25,54.75 27,65.5 27,65.5 c 0,0 -5.5,12.75 -8.25,24.75 -2.75,12 -5.75,23 -5.75,23 0,0 5.75,16 9.25,30 3.5,14 3.75,24.25 3.75,24.25 0,0 -4,10.25 -7.5,24.25 -3.5,14 -5,30.75 -5,30.75 0,0 9.25,-2 28.5,1.25 19.25,3.25 32.25,6 32.25,6 0,0 12.75,-2.75 24,-6.25 11.25,-3.5 16.25,-6.5 16.25,-6.5 0,0 5.5,0.5 22.5,6.25 17,5.75 29.25,8.5 29.25,8.5 l 26,-5.75 c 13,-3 26.5,-8 26.5,-8 0,0 -0.75,-5 4.25,-24.5 5,-19.5 8.75,-28 8.75,-28 0,0 -0.5,-4.5 -3.75,-19.75 C 224.75,130.5 218,116 218,116 c 0,0 1.75,-10.5 6.75,-23.75 L 235,65.5 c 0,0 -4.75,-15.25 -7.5,-29.75 C 224.75,21.25 219.25,10 219.25,10 c 0,0 -24.25,9 -31.75,10.5 -7.5,1.5 -21,5.25 -21,5.25 0,0 -9.75,-4.25 -22,-8.5 -12.25,-4.25 -29.75,-5.5 -29.75,-5.5 0,0 -3.25,3.5 -22,8 -18.75,4.5 -27.5,5.75 -27.5,5.75 0,0 -18.5,-9 -31.5,-11.5 -13,-2.5 -24,-2 -24.75,-1.75 z" />
    <path
       id="Ar"
       d="m 127.033,132.717 c 26.093,26.093 68.397,26.093 94.49,0 26.093,-26.093 26.093,-68.397 0,-94.49 -26.093,-26.093 -68.397,-26.093 -94.49,0 -26.093,26.093 -26.093,68.397 0,94.49 z" />
    <linearGradient
       id="As"
       gradientUnits="userSpaceOnUse" />
  </defs>
  <g
     transform="translate(1.6992008,-9.999996)"
     id="g231">
    <use
       xlink:href="#AN"
       clip-path="none"
       transform="matrix(1,0.068641,0,0.848698,0,36.913089)"
       opacity="0.7"
       filter="url(#AI)"
       class="K"
       id="use227" />
    <path
       transform="matrix(1,0,0,0.846566,0,37.660073)"
       d="m 9,17.25 c 0,0 7.5,11 11.75,25.75 C 25,57.75 27,68.5 27,68.5 c 0,0 -5.5,12.75 -8.25,24.75 l -5.75,25 c 0,0 5.75,16 9.25,30 3.5,14 3.75,22.25 3.75,22.25 0,0 -4,10.25 -7.5,24.25 -3.5,14 -5,30.75 -5,30.75 0,0 9.25,-2 28.5,1.25 19.25,3.25 32.25,6 32.25,6 0,0 12.75,-2.75 24,-6.25 11.25,-3.5 16.25,-6.5 16.25,-6.5 0,0 5.5,0.5 22.5,6.25 17,5.75 29.25,8.5 29.25,8.5 l 26,-5.75 c 13,-3 26.5,-8 26.5,-8 0,0 -0.75,-5 4.25,-24.5 5,-19.5 8.75,-28 8.75,-28 L 228,150.75 C 224.75,135.5 218,121 218,121 c 0,0 1.75,-12.5 6.75,-25.75 L 235,68.5 c 0,0 -4.75,-15.25 -7.5,-29.75 C 224.75,24.25 219.25,15 219.25,15 c 0,0 -24.25,9 -31.75,10.5 -7.5,1.5 -21,5.25 -21,5.25 0,0 -9.75,-4.25 -22,-8.5 -12.25,-4.25 -29.75,-5.5 -29.75,-5.5 0,0 -3.25,3.5 -22,8 -18.75,4.5 -27.5,5.75 -27.5,5.75 0,0 -18.5,-9 -31.5,-11.5 -13,-2.5 -24,-2 -24.75,-1.75 z"
       opacity="0.5"
       fill="url(#AK)"
       filter="url(#AJ)"
       id="path229"
       style="fill:url(#AK)" />
  </g>
  <path
     d="m 10.699201,2.250004 c 0,0 7.5,13 11.75,27.75 4.25,14.75 6.25,25.5 6.25,25.5 0,0 -5.5,12.75 -8.25,24.75 -2.75,12 -5.75,22.999996 -5.75,22.999996 0,0 5.75,16 9.25,30 3.5,14 3.75,24.25 3.75,24.25 0,0 -4,10.25 -7.5,24.25 -3.5,14 -5,30.75 -5,30.75 0,0 9.25,-2 28.5,1.25 19.25,3.25 32.25,6 32.25,6 0,0 12.75,-2.75 24,-6.25 C 111.1992,210 116.1992,207 116.1992,207 c 0,0 5.5,0.5 22.5,6.25 17,5.75 29.25,8.5 29.25,8.5 l 26,-5.75 c 13,-3 26.5,-8 26.5,-8 0,0 -0.75,-5 4.25,-24.5 5,-19.5 8.75,-28 8.75,-28 0,0 -0.5,-4.5 -3.75,-19.75 -3.25,-15.25 -10,-29.75 -10,-29.75 0,0 1.75,-10.499996 6.75,-23.749996 l 10.25,-26.75 c 0,0 -4.75,-15.25 -7.5,-29.75 -2.75,-14.5 -8.25,-25.75 -8.25,-25.75 0,0 -24.25,9 -31.75,10.5 -7.5,1.5 -21,5.25 -21,5.25 0,0 -9.75,-4.25 -22,-8.5 -12.25,-4.25 -29.75,-5.5 -29.75,-5.5 0,0 -3.25,3.5 -21.999999,8 -18.75,4.5 -27.5,5.75 -27.5,5.75 0,0 -18.5,-9 -31.5,-11.5 -13,-2.5 -24,-2 -24.75,-1.75 z"
     class="C"
     id="path233" />
  <g
     clip-path="url(#W)"
     transform="translate(1.6992008,-9.999996)"
     id="g237">
    <use
       xlink:href="#AO"
       fill="#a6dd8b"
       id="use235" />
  </g>
  <path
     d="m 160.2302,75.344004 c -4.76,-0.014 -9.031,0.969 -11.531,3.156 -8,7 -35,0.75 -48.5,7 C 86.699201,91.750004 86.949201,123.5 85.449201,130 c -1.5,6.5 -17.5,20.75 -20,23.5 -2.5,2.75 -13.25,7.25 -19.5,8.5 -6.25,1.25 -12.75,7.25 -15.5,11 -2.021,2.756 -7.406,6.45 -10.125,8.219 -0.046,0.181 -0.079,0.349 -0.125,0.531 -0.134,0.535 -0.247,1.083 -0.375,1.625 4.98,-1.605 11.18,-8.18 16.625,-13.625 6.25,-6.25 20,-7.75 27.75,-11.5 7.75,-3.75 14.25,-19.75 26.5,-23.75 12.249999,-4 21.249999,11.75 24.249999,18.5 3,6.75 1.75,12.75 3.75,17 2,4.25 11,11.75 11.5,13.5 0.5,1.75 -5,6.5 -6.25,8.5 -1.25,2 -10.5,7 -11.75,8.75 -0.966,1.352 -1.923,6.773 -2.312,9.219 l 1.125,-0.469 c 0.484,-2.529 1.515,-7.078 2.938,-8.5 2,-2 11.25,-4.5 12.5,-8.5 1.25,-4 7,-6.5 7,-6.5 0,0 2.75,4 16,14 8.833,6.667 12.758,15.534 14.406,20.719 l 2.031,0.531 c -1.221,-4.319 -4.836,-16.239 -8.937,-20.75 -5,-5.5 -18.5,-10.75 -22.75,-22 -4.25,-11.25 -24.501,-34.25 -17.501,-40.25 7,-6 16.5,-4 28.5,7.5 12,11.5 46.25,5.75 57.75,3.75 9.955,-1.731 20.834,14.883 23.906,26.031 l 1.656,-5.75 c -1.738,-1.926 -3.697,-4.62 -5.312,-8.281 -3.75,-8.5 -12,-13.25 -12,-13.25 0,0 8.75,-5 14.75,-7.75 1.617,-0.741 3.006,-1.677 4.188,-2.656 l -0.438,-2.094 -0.094,-0.437 c -4.766,5.562 -19.232,9.615 -21.656,10.938 -2.75,1.5 -18.25,3 -35.75,4.5 -17.5,1.5 -26.75,-7.5 -34.25,-14.75 -7.5,-7.25 -13,-36 -3,-37.999996 10,-2 20,13.749996 30,16.999996 10,3.25 21.5,-15.749996 19.75,-26.999996 -1.203,-7.734 -13.997,-12.625 -24.469,-12.656 v 0 z m -53.344,13.281 c 1.275,10e-4 5.859,1.594 6.563,2.375 2.25,2.5 2,7.25 0,8 -2,0.75 -12.75,7.999996 -10.5,14.249996 2.25,6.25 1.75,18 -3.499999,18 -5.25,0 -8,0 -10,-2.5 -2,-2.5 -2,-12 0,-19.75 2,-7.75 3.5,-14.999996 8,-18.249996 3.093999,-2.234 6.631999,-2.128 9.437999,-2.125 v 0 z m 13.594,73.093996 c 0.203,0.014 1.906,3.516 4.719,7.031 3,3.75 3.25,8.25 3.25,8.25 0,0 -4.25,-4.75 -6,-8 -1.75,-3.25 -2,-7.25 -2,-7.25 0,-0.031 0.018,-0.032 0.031,-0.031 z"
     fill="#aac3e7"
     id="path239" />
  <g
     class="F G I"
     id="g245"
     transform="translate(1.6992008)">
    <use
       xlink:href="#AP"
       class="B"
       id="use241" />
    <use
       xlink:href="#AQ"
       class="B"
       id="use243" />
  </g>
  <g
     transform="translate(1.6992008,-9.999996)"
     class="F"
     id="g273">
    <g
       clip-path="url(#U)"
       class="I"
       id="g265">
      <use
         xlink:href="#AR"
         class="B G H"
         id="use247" />
      <use
         xlink:href="#AS"
         class="B"
         id="use249" />
      <g
         class="G H"
         id="g263">
        <use
           xlink:href="#AT"
           class="B"
           id="use251" />
        <use
           xlink:href="#AU"
           class="B"
           id="use253" />
        <path
           d="m 190,18.5 c 11.75,5 39,9.75 47.25,40.25"
           class="B"
           id="path255" />
        <use
           xlink:href="#AV"
           class="B"
           id="use257" />
        <use
           xlink:href="#AW"
           class="B"
           id="use259" />
        <use
           xlink:href="#AX"
           class="B"
           id="use261" />
      </g>
    </g>
    <g
       clip-path="url(#V)"
       stroke="#d38484"
       stroke-width="2"
       class="H"
       id="g271">
      <use
         xlink:href="#AY"
         id="use267" />
      <use
         xlink:href="#AZ"
         id="use269" />
    </g>
  </g>
  <path
     d="m 10.699201,2.250004 c 0,0 7.5,13 11.75,27.75 4.25,14.75 6.25,25.5 6.25,25.5 0,0 -5.5,12.75 -8.25,24.75 -2.75,12 -5.75,22.999996 -5.75,22.999996 0,0 5.75,16 9.25,30 3.5,14 3.75,24.25 3.75,24.25 0,0 -4,10.25 -7.5,24.25 -3.5,14 -5,30.75 -5,30.75 0,0 9.25,-2 28.5,1.25 19.25,3.25 32.25,6 32.25,6 0,0 12.75,-2.75 24,-6.25 C 111.1992,210 116.1992,207 116.1992,207 c 0,0 5.5,0.5 22.5,6.25 17,5.75 29.25,8.5 29.25,8.5 l 26,-5.75 c 13,-3 26.5,-8 26.5,-8 0,0 -0.75,-5 4.25,-24.5 5,-19.5 8.75,-28 8.75,-28 0,0 -0.5,-4.5 -3.75,-19.75 -3.25,-15.25 -10,-29.75 -10,-29.75 0,0 1.75,-10.499996 6.75,-23.749996 l 10.25,-26.75 c 0,0 -4.75,-15.25 -7.5,-29.75 -2.75,-14.5 -8.25,-25.75 -8.25,-25.75 0,0 -24.25,9 -31.75,10.5 -7.5,1.5 -21,5.25 -21,5.25 0,0 -9.75,-4.25 -22,-8.5 -12.25,-4.25 -29.75,-5.5 -29.75,-5.5 0,0 -3.25,3.5 -21.999999,8 -18.75,4.5 -27.5,5.75 -27.5,5.75 0,0 -18.5,-9 -31.5,-11.5 -13,-2.5 -24,-2 -24.75,-1.75 z"
     fill="url(#T)"
     class="J"
     id="path275"
     style="fill:url(#T)" />
  <g
     transform="translate(1.6992008,182)"
     id="g313">
    <g
       opacity="0.27"
       id="g293">
      <use
         xlink:href="#Aa"
         fill="url(#K)"
         id="use277"
         style="fill:url(#K)" />
      <use
         xlink:href="#Ab"
         fill="url(#M)"
         id="use279"
         style="fill:url(#M)" />
      <use
         xlink:href="#Ac"
         fill="url(#N)"
         id="use281"
         style="fill:url(#N)" />
      <use
         xlink:href="#Ad"
         fill="url(#O)"
         id="use283"
         style="fill:url(#O)" />
      <use
         xlink:href="#Ae"
         fill="url(#P)"
         id="use285"
         style="fill:url(#P)" />
      <use
         xlink:href="#Af"
         fill="url(#Q)"
         id="use287"
         style="fill:url(#Q)" />
      <use
         xlink:href="#Ag"
         fill="url(#R)"
         id="use289"
         style="fill:url(#R)" />
      <use
         xlink:href="#Ah"
         fill="url(#S)"
         id="use291"
         style="fill:url(#S)" />
    </g>
    <g
       opacity="0.043"
       id="g311">
      <use
         xlink:href="#Ai"
         fill="url(#B)"
         id="use295"
         style="fill:url(#B)" />
      <use
         xlink:href="#Aj"
         fill="url(#D)"
         id="use297"
         style="fill:url(#D)" />
      <use
         xlink:href="#Ak"
         fill="url(#E)"
         id="use299"
         style="fill:url(#E)" />
      <use
         xlink:href="#Al"
         fill="url(#F)"
         id="use301"
         style="fill:url(#F)" />
      <use
         xlink:href="#Am"
         fill="url(#G)"
         id="use303"
         style="fill:url(#G)" />
      <use
         xlink:href="#An"
         fill="url(#H)"
         id="use305"
         style="fill:url(#H)" />
      <use
         xlink:href="#Ao"
         fill="url(#I)"
         id="use307"
         style="fill:url(#I)" />
      <use
         xlink:href="#Ap"
         fill="url(#J)"
         id="use309"
         style="fill:url(#J)" />
    </g>
  </g>
  <g
     transform="matrix(1.252537,0.035398,0,1.252537,-26.110269,-48.343946)"
     clip-path="url(#AG)"
     id="g393">
    <use
       xlink:href="#Aq"
       class="C"
       id="use315" />
    <g
       clip-path="url(#k)"
       id="g319">
      <use
         xlink:href="#AO"
         fill="#a6dd8b"
         id="use317" />
    </g>
    <path
       d="M 158.531,85.344 C 153.771,85.33 149.5,86.313 147,88.5 c -8,7 -35,0.75 -48.5,7 -13.5,6.25 -13.25,38 -14.75,44.5 -1.5,6.5 -17.5,20.75 -20,23.5 -2.5,2.75 -13.25,7.25 -19.5,8.5 -6.25,1.25 -12.75,7.25 -15.5,11 -2.021,2.756 -7.406,6.45 -10.125,8.219 -0.046,0.181 -0.079,0.349 -0.125,0.531 -0.134,0.535 -0.247,1.083 -0.375,1.625 4.98,-1.605 11.18,-8.18 16.625,-13.625 6.25,-6.25 20,-7.75 27.75,-11.5 7.75,-3.75 14.25,-19.75 26.5,-23.75 12.25,-4 21.25,11.75 24.25,18.5 3,6.75 1.75,12.75 3.75,17 2,4.25 11,11.75 11.5,13.5 0.5,1.75 -5,6.5 -6.25,8.5 -1.25,2 -10.5,7 -11.75,8.75 -0.966,1.352 -1.923,6.773 -2.312,9.219 l 1.125,-0.469 c 0.484,-2.529 1.515,-7.078 2.938,-8.5 2,-2 11.25,-4.5 12.5,-8.5 1.25,-4 7,-6.5 7,-6.5 0,0 2.75,4 16,14 8.833,6.667 12.758,15.534 14.406,20.719 l 2.031,0.531 c -1.221,-4.319 -4.836,-16.239 -8.937,-20.75 -5,-5.5 -18.5,-10.75 -22.75,-22 C 128.251,177.25 108,154.25 115,148.25 c 7,-6 16.5,-4 28.5,7.5 12,11.5 46.25,5.75 57.75,3.75 9.955,-1.731 20.834,14.883 23.906,26.031 l 1.656,-5.75 c -1.738,-1.926 -3.697,-4.62 -5.312,-8.281 -3.75,-8.5 -12,-13.25 -12,-13.25 0,0 8.75,-5 14.75,-7.75 1.617,-0.741 3.006,-1.677 4.188,-2.656 L 228,145.75 l -0.094,-0.437 c -4.766,5.562 -19.232,9.615 -21.656,10.938 -2.75,1.5 -18.25,3 -35.75,4.5 -17.5,1.5 -26.75,-7.5 -34.25,-14.75 -7.5,-7.25 -13,-36 -3,-38 10,-2 20,13.75 30,17 10,3.25 21.5,-15.75 19.75,-27 -1.203,-7.734 -13.997,-12.625 -24.469,-12.656 v 0 z m -53.344,13.281 c 1.275,0.001 5.859,1.594 6.563,2.375 2.25,2.5 2,7.25 0,8 -2,0.75 -12.75,8 -10.5,14.25 2.25,6.25 1.75,18 -3.5,18 -5.25,0 -8,0 -10,-2.5 -2,-2.5 -2,-12 0,-19.75 2,-7.75 3.5,-15 8,-18.25 3.094,-2.234 6.632,-2.128 9.438,-2.125 v 0 z m 13.594,73.094 c 0.203,0.014 1.906,3.516 4.719,7.031 3,3.75 3.25,8.25 3.25,8.25 0,0 -4.25,-4.75 -6,-8 -1.75,-3.25 -2,-7.25 -2,-7.25 0,-0.031 0.018,-0.032 0.031,-0.031 z"
       fill="#aac3e7"
       id="path321" />
    <g
       class="F G I"
       id="g325">
      <path
         d="M 122.75,72.25 C 129,72.75 135,70 133.5,65.75 132,61.5 121,58.5 120.25,62.75 c -0.75,4.25 2,10.5 2.5,9.5 z m -14,-15.5 c -8.5,-5.5 -8.5,-7.25 -7,-8 1.5,-0.75 10.25,5 12.75,8 2.5,3 -2.25,2 -5.75,0 z"
         class="B"
         id="path323" />
    </g>
    <g
       clip-path="url(#l)"
       class="F I"
       id="g345">
      <use
         xlink:href="#AR"
         class="B G H"
         id="use327" />
      <use
         xlink:href="#AS"
         class="B"
         id="use329" />
      <g
         class="G H"
         id="g343">
        <use
           xlink:href="#AT"
           class="B"
           id="use331" />
        <use
           xlink:href="#AU"
           class="B"
           id="use333" />
        <path
           d="m 190,18.5 c 11.75,5 39,9.75 47.25,40.25"
           class="B"
           id="path335" />
        <use
           xlink:href="#AV"
           class="B"
           id="use337" />
        <use
           xlink:href="#AW"
           class="B"
           id="use339" />
        <use
           xlink:href="#AX"
           class="B"
           id="use341" />
      </g>
    </g>
    <g
       clip-path="url(#m)"
       stroke="#d38484"
       stroke-width="2"
       class="F H"
       id="g351">
      <use
         xlink:href="#AY"
         id="use347" />
      <use
         xlink:href="#AZ"
         id="use349" />
    </g>
    <use
       xlink:href="#Aq"
       fill="url(#n)"
       class="J"
       id="use353"
       style="fill:url(#n)" />
    <g
       transform="translate(0,192)"
       id="g391">
      <g
         opacity="0.27"
         id="g371">
        <use
           xlink:href="#Aa"
           fill="url(#o)"
           id="use355"
           style="fill:url(#o)" />
        <use
           xlink:href="#Ab"
           fill="url(#q)"
           id="use357"
           style="fill:url(#q)" />
        <use
           xlink:href="#Ac"
           fill="url(#r)"
           id="use359"
           style="fill:url(#r)" />
        <use
           xlink:href="#Ad"
           fill="url(#s)"
           id="use361"
           style="fill:url(#s)" />
        <use
           xlink:href="#Ae"
           fill="url(#t)"
           id="use363"
           style="fill:url(#t)" />
        <use
           xlink:href="#Af"
           fill="url(#u)"
           id="use365"
           style="fill:url(#u)" />
        <use
           xlink:href="#Ag"
           fill="url(#v)"
           id="use367"
           style="fill:url(#v)" />
        <use
           xlink:href="#Ah"
           fill="url(#w)"
           id="use369"
           style="fill:url(#w)" />
      </g>
      <g
         opacity="0.043"
         id="g389">
        <use
           xlink:href="#Ai"
           fill="url(#x)"
           id="use373"
           style="fill:url(#x)" />
        <use
           xlink:href="#Aj"
           fill="url(#z)"
           id="use375"
           style="fill:url(#z)" />
        <use
           xlink:href="#Ak"
           fill="url(#AA)"
           id="use377"
           style="fill:url(#AA)" />
        <use
           xlink:href="#Al"
           fill="url(#AB)"
           id="use379"
           style="fill:url(#AB)" />
        <use
           xlink:href="#Am"
           fill="url(#AC)"
           id="use381"
           style="fill:url(#AC)" />
        <use
           xlink:href="#An"
           fill="url(#AD)"
           id="use383"
           style="fill:url(#AD)" />
        <use
           xlink:href="#Ao"
           fill="url(#AE)"
           id="use385"
           style="fill:url(#AE)" />
        <use
           xlink:href="#Ap"
           fill="url(#AF)"
           id="use387"
           style="fill:url(#AF)" />
      </g>
    </g>
  </g>
  <use
     xlink:href="#AN"
     transform="matrix(1,0.080878,0,1,1.6992008,-21.056301)"
     clip-path="url(#AL)"
     filter="url(#j)"
     class="K"
     id="use395" />
  <path
     d="m 49.709201,227.457 -4.808,4.558 -15.079,-16.133 4.49,-4.073 c 6.829,6.534 8.873,8.53 15.397,15.648 z"
     fill="url(#Y)"
     id="path397"
     style="fill:url(#Y)" />
  <path
     d="m 126.7632,134.686 c -27.179999,-27.18 -27.179999,-71.246996 0,-98.426996 27.18,-27.18 71.247,-27.18 98.427,0 27.18,27.18 27.18,71.246996 0,98.426996 -27.18,27.18 -71.247,27.18 -98.427,0 z m 2.953,-2.953 c 26.093,26.093 67.413,27.077 93.506,0.984 26.093,-26.093 25.108,-67.412996 -0.984,-93.505996 -26.092,-26.093 -67.413,-27.077 -93.506,-0.984 -26.093,26.093 -25.108,67.412996 0.984,93.505996 z"
     class="K"
     id="path399" />
  <path
     d="m 126.7632,134.686 c -27.179999,-27.18 -27.179999,-71.246996 0,-98.426996 l 0.492,-0.492 c -26.685,27.218 -26.522,70.920996 0.492,97.934996 27.014,27.014 70.717,27.177 97.935,0.492 l -0.492,0.492 c -27.18,27.18 -71.247,27.18 -98.427,0 z m 2.461,-96.950996 0.492,-0.492 c 26.093,-26.093 67.413,-25.108 93.506,0.984 26.093,26.092 27.077,67.412996 0.984,93.505996 l -0.492,0.492 c 25.587,-26.118 24.451,-67.085996 -1.476,-93.013996 -25.927,-25.928 -66.896,-27.064 -93.014,-1.476 z"
     fill="#9eaaac"
     id="path401" />
  <use
     xlink:href="#Ar"
     fill="#d0e9f2"
     fill-opacity="0.476"
     id="use403"
     transform="translate(1.6992008)" />
  <use
     xlink:href="#Ar"
     fill="url(#d)"
     id="use405"
     style="fill:url(#d)"
     transform="translate(1.6992008)" />
  <path
     d="m 117.7512,115.277 -5.752,4.091 c 3.295,6.213 7.563,12.054 12.796,17.286 5.233,5.232 11.073,9.5 17.286,12.796 l 4.091,-5.752 c -5.927,-3.035 -11.494,-7.003 -16.456,-11.965 -4.962,-4.962 -8.93,-10.529 -11.965,-16.456 z"
     fill="url(#c)"
     id="path407"
     style="fill:url(#c)" />
  <path
     d="m 126.5172,134.932 c 1.729,1.729 3.084,3.671 4.122,5.721 l -26.206,26.206 c -2.05,-1.038 -3.992,-2.392 -5.720999,-4.122 -1.729,-1.73 -3.084,-3.671 -4.122,-5.721 L 120.7962,130.81 a 22.27,22.27 0 0 1 5.721,4.122 z"
     fill="url(#b)"
     id="path409"
     style="fill:url(#b)" />
  <path
     d="M 117.9662,159.232 51.898201,225.3 c -3.984,-2.192 -5.831,-3 -9.29,-6.459 -3.459,-3.459 -4.267,-5.306 -6.459,-9.29 L 102.2172,143.483 c 5.063,3.748 12.117,10.398 15.748,15.748 z"
     fill="url(#a)"
     id="path411"
     style="fill:url(#a)" />
  <path
     d="m 107.4782,154.118 c 3.458,3.458 7.435,6.666 8.519,11.019 l -64.099999,64.1 c -6.516,-5.155 -14.555,-12.791 -19.685,-19.685 l 64.1,-64.1 c 3.492,0.223 7.658999,5.159 11.116999,8.617 z"
     fill="url(#Z)"
     id="path413"
     style="fill:url(#Z)" />
  <path
     d="m 107.2332,154.363 c 3.458,3.458 7.679,6.422 8.764,10.775 l -64.099999,64.1 c -7.877,-6.907 -11.797,-10.624 -19.685,-19.685 l 64.1,-64.1 c 3.492,0.223 7.413999,5.452 10.872999,8.911 h 0.049 z"
     opacity="0.596"
     fill="url(#e)"
     id="path415"
     style="fill:url(#e)" />
  <path
     d="m 132.8672,37.050004 c 40.659,-32.173 78.135,-12.728 77.782,5.303 -0.353,18.031 -56.569,70.356996 -76.368,66.113996 -19.799,-4.243 -25.456,-53.386996 -1.414,-71.417996 z"
     opacity="0.604"
     fill="url(#h)"
     id="path417"
     style="fill:url(#h)" />
  <g
     transform="rotate(-8.9,0.84962355,-10.916963)"
     id="g423">
    <path
       d="m 191.064,54.751 -2.756,-10e-4 -2.987,0.717 -0.001,2.57 2.969,-0.733 v 9.367 l -3.191,10e-4 v 2.515 l 9.155,-0.002 v -2.513 l -3.191,0.001 V 54.751 Z m -12.891,-0.196 c -0.271,-0.044 -0.558,-0.065 -0.858,-0.065 -1.592,0 -2.785,0.625 -3.577,1.875 -0.793,1.244 -1.188,3.116 -1.188,5.616 0,2.494 0.396,4.366 1.188,5.617 0.793,1.244 1.985,1.867 3.577,1.867 1.598,0 2.795,-0.622 3.588,-1.866 0.793,-1.244 1.19,-3.117 1.19,-5.618 0,-2.507 -0.398,-4.383 -1.191,-5.627 a 3.82,3.82 0 0 0 -2.729,-1.799 z m -11.921,0 c -0.271,-0.044 -0.558,-0.065 -0.858,-0.065 -1.592,0 -2.783,0.625 -3.575,1.876 -0.793,1.244 -1.19,3.115 -1.19,5.616 0,2.494 0.396,4.366 1.188,5.617 0.793,1.244 1.986,1.867 3.578,1.867 1.598,0 2.793,-0.622 3.586,-1.866 0.793,-1.244 1.19,-3.115 1.19,-5.616 0,-2.507 -0.396,-4.383 -1.189,-5.627 -0.644,-1.011 -1.555,-1.612 -2.731,-1.802 z m 11.304,2.371 c 0.541,0.088 0.944,0.485 1.209,1.19 0.303,0.806 0.454,2.094 0.454,3.867 0,1.766 -0.151,3.051 -0.454,3.857 -0.303,0.806 -0.787,1.208 -1.45,1.208 -0.657,0 -1.137,-0.402 -1.44,-1.208 -0.303,-0.806 -0.456,-2.091 -0.456,-3.857 0,-1.772 0.152,-3.061 0.455,-3.867 0.303,-0.806 0.783,-1.21 1.441,-1.21 a 1.49,1.49 0 0 1 0.24,0.02 z m -22.254,-2.176 -2.756,10e-4 -2.988,0.714 v 2.572 l 2.968,-0.735 v 9.369 h -3.191 l 0.002,2.513 h 9.155 V 66.67 l -3.191,0.001 V 54.75 Z m 10.333,2.175 c 0.541,0.088 0.944,0.485 1.209,1.19 0.303,0.806 0.454,2.094 0.454,3.867 0,1.766 -0.151,3.051 -0.454,3.857 -0.303,0.806 -0.787,1.208 -1.45,1.208 -0.657,0 -1.137,-0.402 -1.44,-1.208 -0.303,-0.806 -0.456,-2.091 -0.456,-3.857 0,-1.772 0.152,-3.061 0.455,-3.867 0.303,-0.806 0.783,-1.21 1.441,-1.21 a 1.49,1.49 0 0 1 0.24,0.02 z m -22.254,-2.174 h -2.756 l -2.986,0.715 -0.001,2.572 2.968,-0.735 v 9.369 l -3.189,0.001 v 2.513 h 9.155 v -2.513 l -3.191,-0.001 z m 34.18,6.044 a 1.35,1.35 0 0 0 -0.246,-0.023 1.16,1.16 0 0 0 -0.851,0.349 1.17,1.17 0 0 0 -0.348,0.861 c 0,0.342 0.116,0.627 0.348,0.859 0.232,0.226 0.517,0.339 0.852,0.339 0.342,0 0.627,-0.116 0.859,-0.348 0.232,-0.232 0.349,-0.516 0.349,-0.851 a 1.17,1.17 0 0 0 -0.348,-0.861 c -0.174,-0.174 -0.38,-0.282 -0.615,-0.326 z m -47.07,-6.24 a 5.39,5.39 0 0 0 -0.857,-0.067 c -1.592,0 -2.785,0.627 -3.578,1.877 -0.793,1.244 -1.188,3.116 -1.188,5.616 0,2.494 0.396,4.366 1.188,5.617 0.793,1.244 1.985,1.867 3.577,1.867 1.598,0 2.795,-0.622 3.588,-1.866 0.793,-1.244 1.188,-3.117 1.188,-5.618 0,-2.507 -0.396,-4.383 -1.189,-5.627 a 3.82,3.82 0 0 0 -2.729,-1.799 z m 35.149,6.239 c -0.079,-0.015 -0.16,-0.021 -0.246,-0.021 -0.335,0 -0.619,0.115 -0.851,0.347 -0.232,0.232 -0.346,0.519 -0.346,0.861 0,0.342 0.116,0.627 0.348,0.859 0.232,0.226 0.515,0.339 0.85,0.339 a 1.17,1.17 0 0 0 0.861,-0.348 c 0.232,-0.232 0.347,-0.516 0.347,-0.851 a 1.17,1.17 0 0 0 -0.348,-0.861 c -0.174,-0.174 -0.38,-0.282 -0.615,-0.326 z m -46.1,-6.045 h -2.754 l -2.989,0.716 v 2.572 l 2.968,-0.735 v 9.369 l -3.191,-0.001 v 2.515 h 9.155 V 66.67 h -3.191 V 54.75 Z m 10.335,2.176 c 0.541,0.088 0.945,0.483 1.21,1.188 0.303,0.806 0.454,2.096 0.454,3.869 0,1.766 -0.151,3.051 -0.454,3.857 -0.303,0.806 -0.787,1.208 -1.45,1.208 -0.657,0 -1.139,-0.403 -1.442,-1.208 -0.303,-0.805 -0.454,-2.091 -0.454,-3.857 0,-1.772 0.153,-3.063 0.456,-3.869 0.303,-0.806 0.783,-1.208 1.441,-1.208 a 1.49,1.49 0 0 1 0.24,0.02 z M 106.65,54.553 c -0.271,-0.044 -0.556,-0.065 -0.856,-0.065 -1.592,0 -2.785,0.625 -3.577,1.875 -0.793,1.244 -1.19,3.115 -1.19,5.616 0,2.494 0.398,4.367 1.19,5.617 0.793,1.244 1.985,1.867 3.577,1.867 1.598,0 2.793,-0.622 3.586,-1.866 0.793,-1.244 1.19,-3.115 1.19,-5.616 0,-2.507 -0.396,-4.383 -1.189,-5.627 -0.644,-1.011 -1.555,-1.612 -2.731,-1.802 z m -0.616,2.371 c 0.541,0.088 0.944,0.485 1.209,1.19 0.303,0.806 0.454,2.094 0.454,3.867 0,1.766 -0.151,3.051 -0.454,3.857 -0.303,0.806 -0.787,1.208 -1.45,1.208 -0.657,0 -1.137,-0.402 -1.44,-1.208 -0.303,-0.806 -0.454,-2.091 -0.454,-3.857 0,-1.772 0.15,-3.061 0.453,-3.867 0.303,-0.806 0.783,-1.21 1.441,-1.21 a 1.49,1.49 0 0 1 0.24,0.02 z m 23.847,3.871 c -0.079,-0.015 -0.16,-0.023 -0.246,-0.023 a 1.16,1.16 0 0 0 -0.851,0.349 c -0.232,0.232 -0.348,0.517 -0.348,0.859 a 1.17,1.17 0 0 0 0.348,0.861 c 0.232,0.226 0.517,0.339 0.852,0.339 0.342,0 0.627,-0.116 0.859,-0.348 0.232,-0.232 0.349,-0.516 0.349,-0.851 a 1.17,1.17 0 0 0 -0.348,-0.861 c -0.174,-0.174 -0.38,-0.282 -0.615,-0.326 z m -23.842,-0.001 c -0.079,-0.015 -0.16,-0.021 -0.246,-0.021 -0.335,0 -0.617,0.115 -0.849,0.347 a 1.17,1.17 0 0 0 -0.348,0.861 c 0,0.342 0.116,0.627 0.348,0.859 0.232,0.226 0.515,0.339 0.85,0.339 a 1.17,1.17 0 0 0 0.861,-0.348 c 0.232,-0.232 0.347,-0.516 0.347,-0.851 a 1.17,1.17 0 0 0 -0.348,-0.861 c -0.174,-0.174 -0.38,-0.282 -0.615,-0.326 z M 191.064,79.5 h -2.754 l -2.989,0.716 0.001,2.572 2.968,-0.735 v 9.369 l -3.191,-10e-4 v 2.515 h 9.155 V 91.42 l -3.189,0.001 z m -12.891,-0.196 c -0.271,-0.044 -0.556,-0.065 -0.856,-0.065 -1.592,0 -2.785,0.625 -3.577,1.875 -0.793,1.244 -1.19,3.115 -1.19,5.616 0,2.494 0.397,4.369 1.19,5.619 0.793,1.244 1.985,1.865 3.577,1.865 1.598,0 2.793,-0.622 3.586,-1.866 0.793,-1.244 1.19,-3.115 1.19,-5.616 0,-2.507 -0.396,-4.383 -1.189,-5.627 -0.644,-1.011 -1.555,-1.612 -2.731,-1.802 z m -10.949,0.195 -2.756,0.001 -2.986,0.715 -0.001,2.572 2.968,-0.735 v 9.369 l -3.189,10e-4 v 2.513 h 9.155 V 91.42 l -3.191,0.001 z m 10.333,2.175 c 0.541,0.088 0.944,0.485 1.209,1.19 0.303,0.806 0.454,2.094 0.454,3.867 0,1.766 -0.151,3.051 -0.454,3.857 -0.303,0.806 -0.787,1.208 -1.45,1.208 -0.657,0 -1.137,-0.402 -1.44,-1.208 -0.303,-0.806 -0.454,-2.091 -0.454,-3.857 0,-1.772 0.15,-3.061 0.453,-3.867 0.303,-0.806 0.783,-1.21 1.441,-1.21 a 1.49,1.49 0 0 1 0.24,0.02 z m -23.224,-2.369 a 5.39,5.39 0 0 0 -0.857,-0.067 c -1.592,0 -2.785,0.625 -3.577,1.875 -0.793,1.244 -1.188,3.117 -1.188,5.618 0,2.494 0.396,4.366 1.188,5.617 0.793,1.244 1.985,1.865 3.577,1.865 1.598,0 2.795,-0.622 3.588,-1.866 0.793,-1.244 1.188,-3.116 1.188,-5.616 0,-2.507 -0.396,-4.383 -1.189,-5.627 a 3.82,3.82 0 0 0 -2.729,-1.799 z M 143.382,79.5 h -2.756 l -2.987,0.717 10e-4,2.57 2.968,-0.733 v 9.367 h -3.191 v 2.515 l 9.155,-0.002 v -2.513 h -3.191 V 79.5 Z m 10.335,2.174 c 0.541,0.088 0.944,0.485 1.209,1.19 0.303,0.806 0.454,2.094 0.454,3.867 0,1.766 -0.151,3.053 -0.454,3.859 -0.303,0.806 -0.787,1.208 -1.45,1.208 -0.657,0 -1.139,-0.403 -1.442,-1.208 -0.303,-0.805 -0.453,-2.093 -0.453,-3.859 0,-1.772 0.152,-3.061 0.455,-3.867 0.303,-0.806 0.781,-1.208 1.439,-1.208 a 1.52,1.52 0 0 1 0.242,0.018 z m 23.845,3.87 c -0.079,-0.015 -0.16,-0.021 -0.246,-0.021 -0.335,0 -0.617,0.115 -0.849,0.347 a 1.17,1.17 0 0 0 -0.348,0.861 1.17,1.17 0 0 0 0.348,0.861 c 0.232,0.226 0.516,0.337 0.851,0.337 a 1.17,1.17 0 0 0 0.861,-0.348 c 0.232,-0.232 0.347,-0.516 0.347,-0.851 0,-0.342 -0.116,-0.627 -0.348,-0.859 a 1.15,1.15 0 0 0 -0.615,-0.328 z m -46.1,-6.045 h -2.754 l -2.989,0.716 0.001,2.572 2.968,-0.735 v 9.369 l -3.191,-0.001 v 2.515 l 9.157,0.001 -0.002,-2.515 -3.189,10e-4 -0.001,-11.921 z m -12.891,-0.196 c -0.271,-0.044 -0.556,-0.065 -0.856,-0.065 -1.592,0 -2.785,0.625 -3.577,1.875 -0.793,1.244 -1.19,3.115 -1.19,5.616 0,2.494 0.397,4.369 1.19,5.619 0.793,1.244 1.985,1.865 3.577,1.865 1.598,0 2.793,-0.622 3.586,-1.866 0.793,-1.244 1.19,-3.115 1.19,-5.616 0,-2.507 -0.396,-4.383 -1.189,-5.627 -0.644,-1.011 -1.555,-1.612 -2.731,-1.802 z m 35.151,6.242 a 1.35,1.35 0 0 0 -0.246,-0.023 c -0.335,0 -0.619,0.115 -0.851,0.347 a 1.17,1.17 0 0 0 -0.348,0.861 1.17,1.17 0 0 0 0.348,0.861 c 0.232,0.226 0.515,0.339 0.85,0.339 a 1.17,1.17 0 0 0 0.861,-0.349 c 0.232,-0.232 0.348,-0.514 0.348,-0.849 a 1.17,1.17 0 0 0 -0.348,-0.861 c -0.174,-0.174 -0.38,-0.282 -0.615,-0.326 z M 106.65,79.303 c -0.271,-0.044 -0.556,-0.065 -0.856,-0.065 -1.592,0 -2.785,0.625 -3.577,1.875 -0.793,1.244 -1.19,3.117 -1.19,5.618 0,2.494 0.398,4.367 1.19,5.617 0.793,1.244 1.985,1.865 3.577,1.865 1.598,0 2.795,-0.622 3.588,-1.866 0.793,-1.244 1.188,-3.116 1.188,-5.616 0,-2.507 -0.396,-4.383 -1.189,-5.627 -0.644,-1.011 -1.555,-1.612 -2.731,-1.802 z m 11.304,2.371 c 0.541,0.088 0.944,0.485 1.209,1.19 0.303,0.806 0.456,2.095 0.456,3.867 0,1.766 -0.153,3.051 -0.456,3.857 -0.303,0.806 -0.787,1.208 -1.45,1.208 -0.657,0 -1.137,-0.402 -1.44,-1.208 -0.303,-0.806 -0.454,-2.091 -0.454,-3.857 0,-1.772 0.15,-3.061 0.453,-3.867 0.303,-0.806 0.783,-1.21 1.441,-1.21 a 1.49,1.49 0 0 1 0.24,0.02 z m -11.919,0 c 0.541,0.088 0.944,0.485 1.209,1.19 0.303,0.806 0.454,2.094 0.454,3.867 0,1.766 -0.153,3.051 -0.456,3.857 -0.303,0.806 -0.785,1.21 -1.449,1.21 -0.657,0 -1.139,-0.405 -1.441,-1.21 -0.302,-0.805 -0.454,-2.091 -0.454,-3.857 0,-1.772 0.15,-3.061 0.453,-3.867 0.303,-0.806 0.783,-1.208 1.441,-1.208 a 1.52,1.52 0 0 1 0.242,0.018 z m 11.926,3.87 c -0.079,-0.015 -0.162,-0.021 -0.248,-0.021 -0.335,0 -0.617,0.115 -0.849,0.347 a 1.17,1.17 0 0 0 -0.348,0.861 1.17,1.17 0 0 0 0.348,0.861 c 0.232,0.226 0.516,0.337 0.851,0.337 a 1.17,1.17 0 0 0 0.861,-0.348 c 0.232,-0.232 0.347,-0.516 0.347,-0.851 0,-0.342 -0.116,-0.627 -0.348,-0.859 -0.174,-0.174 -0.377,-0.284 -0.613,-0.327 z m -11.921,0 c -0.079,-0.015 -0.16,-0.021 -0.246,-0.021 -0.335,0 -0.619,0.115 -0.851,0.347 a 1.17,1.17 0 0 0 -0.348,0.861 1.17,1.17 0 0 0 0.348,0.861 c 0.232,0.226 0.516,0.337 0.851,0.337 a 1.17,1.17 0 0 0 0.861,-0.348 c 0.232,-0.232 0.349,-0.516 0.349,-0.851 0,-0.342 -0.118,-0.627 -0.35,-0.859 -0.174,-0.174 -0.377,-0.284 -0.613,-0.327 z m 85.024,18.705 -2.756,0.001 -2.986,0.715 -0.001,2.572 2.968,-0.735 v 9.369 l -3.189,10e-4 v 2.513 h 9.155 v -2.515 l -3.191,0.001 V 104.25 Z m -11.921,0 -2.756,0.001 -2.986,0.715 -0.001,2.572 2.97,-0.735 v 9.369 l -3.191,10e-4 v 2.513 h 9.155 v -2.513 l -3.191,-10e-4 V 104.25 Z m -12.891,-0.194 a 5.39,5.39 0 0 0 -0.857,-0.067 c -1.592,0 -2.785,0.625 -3.577,1.875 -0.793,1.244 -1.188,3.117 -1.188,5.618 0,2.494 0.396,4.366 1.188,5.617 0.793,1.244 1.985,1.865 3.577,1.865 1.598,0 2.795,-0.62 3.587,-1.864 0.792,-1.244 1.188,-3.117 1.188,-5.618 0,-2.507 -0.396,-4.383 -1.189,-5.627 a 3.82,3.82 0 0 0 -2.729,-1.799 z m -11.921,0 c -0.271,-0.044 -0.558,-0.065 -0.858,-0.065 -1.592,0 -2.783,0.625 -3.575,1.876 -0.793,1.244 -1.19,3.115 -1.19,5.616 0,2.494 0.396,4.366 1.188,5.617 0.793,1.244 1.986,1.867 3.578,1.867 1.598,0 2.793,-0.622 3.586,-1.866 0.793,-1.244 1.19,-3.117 1.19,-5.618 0,-2.507 -0.396,-4.383 -1.189,-5.627 -0.644,-1.011 -1.555,-1.61 -2.731,-1.8 z m 11.305,2.369 c 0.541,0.088 0.944,0.485 1.209,1.19 0.303,0.806 0.454,2.094 0.454,3.867 0,1.766 -0.151,3.053 -0.454,3.859 -0.303,0.806 -0.787,1.208 -1.45,1.208 -0.657,0 -1.137,-0.402 -1.44,-1.208 -0.303,-0.806 -0.455,-2.093 -0.455,-3.859 0,-1.772 0.152,-3.061 0.455,-3.867 0.303,-0.806 0.783,-1.208 1.441,-1.208 0.083,0 0.163,0.005 0.24,0.018 z m -22.254,-2.174 -2.756,-0.001 -2.989,0.716 0.001,2.572 2.968,-0.735 v 9.369 l -3.191,-0.001 0.002,2.515 h 9.155 v -2.515 h -3.191 v -11.92 z m 10.333,2.175 c 0.541,0.088 0.944,0.485 1.209,1.19 0.303,0.806 0.454,2.094 0.454,3.867 0,1.766 -0.151,3.051 -0.454,3.857 -0.303,0.806 -0.787,1.208 -1.45,1.208 -0.657,0 -1.137,-0.402 -1.44,-1.208 -0.303,-0.806 -0.456,-2.091 -0.456,-3.857 0,-1.772 0.152,-3.061 0.455,-3.867 0.303,-0.806 0.783,-1.21 1.441,-1.21 a 1.49,1.49 0 0 1 0.24,0.02 z m -23.225,-2.372 c -0.271,-0.044 -0.556,-0.065 -0.856,-0.065 -1.592,0 -2.785,0.625 -3.577,1.875 -0.793,1.244 -1.19,3.115 -1.19,5.616 0,2.494 0.397,4.369 1.19,5.619 0.793,1.244 1.985,1.865 3.577,1.865 1.598,0 2.795,-0.622 3.588,-1.866 0.793,-1.244 1.188,-3.116 1.188,-5.616 0,-2.507 -0.396,-4.383 -1.189,-5.627 -0.644,-1.011 -1.555,-1.612 -2.731,-1.802 z m 35.151,6.242 a 1.35,1.35 0 0 0 -0.246,-0.023 1.16,1.16 0 0 0 -0.851,0.349 c -0.232,0.232 -0.348,0.517 -0.348,0.859 a 1.17,1.17 0 0 0 0.348,0.861 c 0.232,0.226 0.517,0.339 0.852,0.339 0.342,0 0.627,-0.116 0.859,-0.348 0.232,-0.232 0.349,-0.516 0.349,-0.851 a 1.17,1.17 0 0 0 -0.348,-0.861 c -0.174,-0.174 -0.38,-0.282 -0.615,-0.326 z m -47.07,-6.242 c -0.271,-0.044 -0.558,-0.065 -0.858,-0.065 -1.592,0 -2.785,0.625 -3.577,1.875 -0.793,1.244 -1.188,3.117 -1.188,5.618 0,2.494 0.396,4.366 1.188,5.617 0.793,1.244 1.985,1.865 3.577,1.865 1.598,0 2.795,-0.622 3.588,-1.866 0.793,-1.244 1.188,-3.116 1.188,-5.616 0,-2.507 -0.396,-4.383 -1.189,-5.627 -0.644,-1.011 -1.553,-1.612 -2.729,-1.801 z m 11.303,2.371 c 0.541,0.088 0.946,0.485 1.211,1.19 0.303,0.806 0.454,2.094 0.454,3.867 0,1.766 -0.153,3.051 -0.456,3.857 -0.303,0.806 -0.785,1.208 -1.449,1.208 -0.657,0 -1.139,-0.403 -1.442,-1.208 -0.303,-0.805 -0.454,-2.091 -0.454,-3.857 0,-1.772 0.15,-3.061 0.453,-3.867 0.303,-0.806 0.783,-1.208 1.441,-1.208 0.083,0 0.163,0.005 0.24,0.018 z m 23.847,3.871 a 1.35,1.35 0 0 0 -0.246,-0.023 1.16,1.16 0 0 0 -0.851,0.349 1.17,1.17 0 0 0 -0.348,0.861 c 0,0.342 0.118,0.627 0.35,0.859 0.232,0.226 0.515,0.339 0.85,0.339 a 1.17,1.17 0 0 0 0.861,-0.348 c 0.232,-0.232 0.347,-0.516 0.347,-0.851 a 1.17,1.17 0 0 0 -0.348,-0.861 c -0.174,-0.174 -0.38,-0.282 -0.615,-0.326 z m -46.1,-6.045 h -2.756 l -2.986,0.715 v 2.572 l 2.968,-0.735 v 9.369 h -3.191 v 2.513 h 9.155 v -2.513 l -3.191,-0.001 v -11.92 z m 10.335,2.174 c 0.541,0.088 0.944,0.485 1.209,1.19 0.303,0.806 0.454,2.094 0.454,3.867 0,1.766 -0.151,3.053 -0.454,3.859 -0.303,0.806 -0.787,1.208 -1.45,1.208 -0.657,0 -1.139,-0.405 -1.441,-1.21 -0.302,-0.805 -0.454,-2.091 -0.454,-3.857 0,-1.772 0.152,-3.061 0.455,-3.867 0.303,-0.806 0.783,-1.208 1.441,-1.208 0.083,0 0.163,0.005 0.24,0.018 z m 11.926,3.87 c -0.079,-0.014 -0.16,-0.021 -0.246,-0.021 -0.335,0 -0.619,0.115 -0.851,0.347 a 1.17,1.17 0 0 0 -0.348,0.861 1.17,1.17 0 0 0 0.348,0.861 c 0.232,0.226 0.516,0.337 0.851,0.337 a 1.17,1.17 0 0 0 0.861,-0.348 c 0.232,-0.232 0.349,-0.516 0.349,-0.851 0,-0.342 -0.118,-0.627 -0.35,-0.859 -0.174,-0.174 -0.377,-0.284 -0.613,-0.327 z m -11.921,0 c -0.079,-0.014 -0.16,-0.021 -0.246,-0.021 -0.335,0 -0.619,0.115 -0.851,0.347 a 1.17,1.17 0 0 0 -0.348,0.861 1.17,1.17 0 0 0 0.348,0.861 c 0.232,0.226 0.517,0.339 0.852,0.339 0.342,0 0.627,-0.118 0.859,-0.35 0.232,-0.232 0.349,-0.516 0.349,-0.851 0,-0.342 -0.116,-0.627 -0.348,-0.859 a 1.15,1.15 0 0 0 -0.615,-0.328 z"
       opacity="0.461"
       fill="url(#g)"
       id="path419"
       style="fill:url(#g)" />
    <path
       d="m 190.635,53.464 -2.756,-10e-4 -2.987,0.717 v 2.572 l 2.968,-0.735 v 9.369 l -3.191,-10e-4 V 67.9 h 9.155 v -2.515 l -3.191,10e-4 V 53.464 Z m -12.891,-0.196 c -0.271,-0.044 -0.556,-0.065 -0.856,-0.065 -1.592,0 -2.785,0.625 -3.577,1.875 -0.793,1.244 -1.19,3.117 -1.19,5.618 0,2.494 0.396,4.366 1.188,5.617 0.793,1.244 1.987,1.865 3.579,1.865 1.598,0 2.793,-0.622 3.586,-1.866 0.793,-1.244 1.19,-3.115 1.19,-5.616 0,-2.507 -0.396,-4.383 -1.189,-5.627 -0.644,-1.011 -1.555,-1.612 -2.731,-1.802 z m -11.921,10e-4 c -0.271,-0.044 -0.556,-0.067 -0.855,-0.067 -1.592,0 -2.785,0.625 -3.577,1.875 -0.793,1.244 -1.19,3.117 -1.19,5.618 0,2.494 0.398,4.367 1.19,5.617 0.793,1.244 1.985,1.865 3.577,1.865 1.598,0 2.793,-0.622 3.586,-1.866 0.793,-1.244 1.19,-3.115 1.19,-5.616 0,-2.507 -0.396,-4.383 -1.189,-5.627 -0.644,-1.011 -1.555,-1.61 -2.731,-1.8 z m 11.305,2.369 c 0.541,0.088 0.944,0.485 1.209,1.19 0.303,0.806 0.454,2.094 0.454,3.867 0,1.766 -0.151,3.051 -0.454,3.857 -0.303,0.806 -0.787,1.21 -1.451,1.21 -0.657,0 -1.137,-0.404 -1.44,-1.21 -0.303,-0.806 -0.456,-2.091 -0.456,-3.857 0,-1.772 0.152,-3.061 0.455,-3.867 0.303,-0.806 0.783,-1.208 1.441,-1.208 0.083,0 0.163,0.005 0.24,0.018 z m -22.254,-2.174 -2.756,-10e-4 -2.987,0.717 -0.001,2.57 2.969,-0.733 v 9.367 l -3.191,0.001 V 67.9 l 9.155,-0.002 v -2.513 h -3.191 v -11.92 z m 10.333,2.174 c 0.541,0.088 0.944,0.485 1.209,1.19 0.303,0.806 0.456,2.095 0.456,3.867 0,1.766 -0.153,3.053 -0.456,3.859 -0.303,0.806 -0.787,1.208 -1.45,1.208 -0.657,0 -1.137,-0.402 -1.44,-1.208 -0.303,-0.806 -0.453,-2.093 -0.453,-3.859 0,-1.772 0.15,-3.061 0.453,-3.867 0.303,-0.806 0.783,-1.208 1.441,-1.208 0.083,0 0.163,0.005 0.24,0.018 z m -22.254,-2.174 h -2.756 l -2.987,0.717 0.001,2.572 2.968,-0.735 v 9.369 l -3.191,-0.001 v 2.515 h 9.155 v -2.515 h -3.191 V 53.464 Z m 34.18,6.044 c -0.079,-0.015 -0.16,-0.021 -0.246,-0.021 -0.335,0 -0.619,0.115 -0.851,0.347 -0.232,0.232 -0.346,0.519 -0.346,0.861 a 1.17,1.17 0 0 0 0.348,0.861 c 0.232,0.226 0.516,0.337 0.851,0.337 a 1.17,1.17 0 0 0 0.861,-0.348 c 0.232,-0.232 0.347,-0.516 0.347,-0.851 0,-0.342 -0.116,-0.627 -0.348,-0.859 a 1.15,1.15 0 0 0 -0.615,-0.328 z m -47.07,-6.24 c -0.271,-0.044 -0.558,-0.065 -0.858,-0.065 -1.592,0 -2.783,0.625 -3.575,1.876 -0.793,1.244 -1.19,3.115 -1.19,5.616 0,2.494 0.395,4.368 1.188,5.619 0.793,1.244 1.987,1.865 3.579,1.865 1.598,0 2.793,-0.622 3.586,-1.866 0.793,-1.244 1.19,-3.115 1.19,-5.616 0,-2.507 -0.398,-4.383 -1.191,-5.627 -0.644,-1.011 -1.553,-1.612 -2.729,-1.801 z m 35.151,6.242 a 1.37,1.37 0 0 0 -0.247,-0.023 c -0.335,0 -0.617,0.115 -0.849,0.347 a 1.17,1.17 0 0 0 -0.348,0.861 1.17,1.17 0 0 0 0.348,0.861 c 0.232,0.226 0.515,0.339 0.85,0.339 a 1.17,1.17 0 0 0 0.861,-0.349 1.15,1.15 0 0 0 0.346,-0.849 1.17,1.17 0 0 0 -0.348,-0.861 1.14,1.14 0 0 0 -0.613,-0.325 z m -46.1,-6.046 -2.756,0.001 -2.988,0.714 v 2.572 l 2.968,-0.735 v 9.369 h -3.191 l 0.002,2.513 h 9.155 v -2.515 h -3.191 V 53.464 Z m 10.333,2.175 c 0.541,0.088 0.944,0.485 1.209,1.19 0.303,0.806 0.454,2.094 0.454,3.867 0,1.766 -0.151,3.051 -0.454,3.857 -0.303,0.806 -0.787,1.208 -1.45,1.208 -0.657,0 -1.137,-0.402 -1.44,-1.208 -0.303,-0.806 -0.456,-2.091 -0.456,-3.857 0,-1.772 0.152,-3.061 0.455,-3.867 0.303,-0.806 0.783,-1.21 1.441,-1.21 a 1.49,1.49 0 0 1 0.24,0.02 z m -23.226,-2.37 c -0.271,-0.044 -0.556,-0.067 -0.855,-0.067 -1.592,0 -2.785,0.625 -3.577,1.875 -0.793,1.244 -1.19,3.117 -1.19,5.618 0,2.494 0.398,4.367 1.19,5.617 0.793,1.244 1.985,1.865 3.577,1.865 1.598,0 2.795,-0.622 3.588,-1.866 0.793,-1.244 1.188,-3.116 1.188,-5.616 0,-2.507 -0.396,-4.383 -1.189,-5.627 -0.644,-1.011 -1.555,-1.61 -2.731,-1.8 z m -0.616,2.369 c 0.541,0.088 0.946,0.485 1.211,1.19 0.303,0.806 0.454,2.094 0.454,3.867 0,1.766 -0.153,3.053 -0.456,3.859 -0.303,0.806 -0.785,1.208 -1.449,1.208 -0.657,0 -1.139,-0.403 -1.442,-1.208 -0.303,-0.805 -0.453,-2.093 -0.453,-3.859 0,-1.772 0.15,-3.061 0.453,-3.867 0.303,-0.806 0.783,-1.208 1.441,-1.208 0.083,0 0.163,0.005 0.24,0.018 z m 23.847,3.871 c -0.079,-0.015 -0.16,-0.021 -0.246,-0.021 -0.335,0 -0.619,0.115 -0.851,0.347 a 1.17,1.17 0 0 0 -0.348,0.861 1.17,1.17 0 0 0 0.349,0.861 c 0.232,0.226 0.516,0.337 0.851,0.337 0.342,0 0.627,-0.116 0.859,-0.348 0.232,-0.232 0.349,-0.516 0.349,-0.851 a 1.17,1.17 0 0 0 -0.348,-0.861 c -0.174,-0.174 -0.38,-0.282 -0.615,-0.326 z m -23.84,10e-4 c -0.079,-0.015 -0.16,-0.023 -0.246,-0.023 -0.335,0 -0.619,0.115 -0.851,0.347 a 1.17,1.17 0 0 0 -0.348,0.861 1.17,1.17 0 0 0 0.348,0.861 c 0.232,0.226 0.515,0.339 0.85,0.339 a 1.17,1.17 0 0 0 0.861,-0.349 c 0.232,-0.232 0.348,-0.514 0.348,-0.849 a 1.17,1.17 0 0 0 -0.349,-0.861 1.14,1.14 0 0 0 -0.613,-0.325 z m 85.025,18.703 -2.756,0.001 -2.988,0.714 0.001,2.572 2.968,-0.735 v 9.369 l -3.191,0.001 0.002,2.513 h 9.155 v -2.513 l -3.191,-0.001 z m -12.893,-0.194 c -0.271,-0.044 -0.556,-0.067 -0.855,-0.067 -1.592,0 -2.785,0.625 -3.577,1.875 -0.793,1.244 -1.19,3.117 -1.19,5.618 0,2.494 0.398,4.367 1.19,5.617 0.793,1.244 1.985,1.865 3.577,1.865 1.598,0 2.795,-0.62 3.587,-1.864 0.792,-1.244 1.188,-3.117 1.188,-5.618 0,-2.507 -0.396,-4.383 -1.189,-5.627 -0.644,-1.011 -1.555,-1.61 -2.731,-1.8 z m -10.949,0.195 h -2.756 l -2.987,0.717 0.001,2.57 2.968,-0.733 v 9.367 h -3.191 v 2.515 l 9.155,-0.002 v -2.513 l -3.191,10e-4 V 78.214 Z m 10.333,2.174 c 0.541,0.088 0.946,0.485 1.211,1.19 0.303,0.806 0.454,2.094 0.454,3.867 0,1.766 -0.153,3.053 -0.456,3.859 -0.303,0.806 -0.785,1.208 -1.449,1.208 -0.657,0 -1.139,-0.403 -1.442,-1.208 -0.303,-0.805 -0.453,-2.093 -0.453,-3.859 0,-1.772 0.15,-3.061 0.453,-3.867 0.303,-0.806 0.783,-1.208 1.44,-1.208 0.083,0 0.163,0.005 0.24,0.018 z m -23.224,-2.369 c -0.271,-0.044 -0.558,-0.065 -0.858,-0.065 -1.592,0 -2.785,0.625 -3.577,1.875 -0.793,1.244 -1.188,3.116 -1.188,5.616 0,2.494 0.396,4.366 1.188,5.617 0.793,1.244 1.986,1.867 3.578,1.867 1.598,0 2.793,-0.622 3.586,-1.866 0.793,-1.244 1.19,-3.117 1.19,-5.618 0,-2.507 -0.398,-4.383 -1.191,-5.627 a 3.82,3.82 0 0 0 -2.729,-1.799 z m -10.951,0.195 h -2.754 l -2.989,0.716 v 2.572 l 2.968,-0.735 v 9.369 h -3.191 v 2.513 h 9.157 l -0.002,-2.515 h -3.189 l -0.001,-11.921 z m 10.335,2.176 c 0.541,0.088 0.944,0.485 1.209,1.19 0.303,0.806 0.454,2.094 0.454,3.867 0,1.766 -0.151,3.051 -0.454,3.857 -0.303,0.806 -0.787,1.208 -1.45,1.208 -0.657,0 -1.137,-0.402 -1.44,-1.208 -0.303,-0.806 -0.456,-2.091 -0.456,-3.857 0,-1.772 0.152,-3.061 0.455,-3.867 0.303,-0.806 0.783,-1.21 1.441,-1.21 a 1.49,1.49 0 0 1 0.24,0.02 z m 23.847,3.871 c -0.079,-0.015 -0.16,-0.023 -0.246,-0.023 -0.335,0 -0.619,0.115 -0.851,0.347 a 1.17,1.17 0 0 0 -0.348,0.861 1.17,1.17 0 0 0 0.348,0.861 c 0.232,0.226 0.515,0.339 0.85,0.339 a 1.17,1.17 0 0 0 0.861,-0.348 c 0.232,-0.232 0.349,-0.516 0.349,-0.851 a 1.17,1.17 0 0 0 -0.349,-0.861 1.14,1.14 0 0 0 -0.613,-0.325 z m -46.1,-6.046 -2.756,10e-4 -2.986,0.715 -0.001,2.572 2.968,-0.735 v 9.369 l -3.189,0.001 v 2.513 h 9.155 v -2.513 l -3.191,-0.001 V 78.213 Z m -12.893,-0.194 c -0.271,-0.044 -0.556,-0.067 -0.855,-0.067 -1.592,0 -2.785,0.625 -3.577,1.875 -0.793,1.244 -1.188,3.117 -1.188,5.618 0,2.494 0.396,4.366 1.188,5.617 0.793,1.244 1.985,1.865 3.577,1.865 1.598,0 2.795,-0.62 3.587,-1.864 0.792,-1.244 1.188,-3.117 1.188,-5.618 0,-2.507 -0.396,-4.383 -1.189,-5.627 -0.644,-1.011 -1.555,-1.61 -2.731,-1.8 z m 35.151,6.24 a 1.35,1.35 0 0 0 -0.246,-0.023 1.16,1.16 0 0 0 -0.851,0.349 1.17,1.17 0 0 0 -0.348,0.861 c 0,0.342 0.118,0.627 0.35,0.859 0.232,0.226 0.515,0.339 0.85,0.339 0.342,0 0.627,-0.116 0.859,-0.348 0.232,-0.232 0.349,-0.516 0.349,-0.851 a 1.17,1.17 0 0 0 -0.348,-0.861 c -0.174,-0.174 -0.38,-0.282 -0.615,-0.326 z m -47.07,-6.24 c -0.271,-0.044 -0.558,-0.065 -0.858,-0.065 -1.592,0 -2.785,0.625 -3.577,1.875 -0.793,1.244 -1.188,3.116 -1.188,5.616 0,2.494 0.396,4.366 1.188,5.617 0.793,1.244 1.985,1.867 3.577,1.867 1.598,0 2.795,-0.622 3.588,-1.866 0.793,-1.244 1.19,-3.117 1.19,-5.618 0,-2.507 -0.398,-4.383 -1.191,-5.627 a 3.82,3.82 0 0 0 -2.729,-1.799 z m 11.305,2.369 c 0.541,0.088 0.944,0.485 1.209,1.19 0.303,0.806 0.454,2.094 0.454,3.867 0,1.766 -0.151,3.053 -0.454,3.859 -0.303,0.806 -0.787,1.208 -1.45,1.208 -0.657,0 -1.139,-0.403 -1.442,-1.208 -0.303,-0.805 -0.453,-2.093 -0.453,-3.859 0,-1.772 0.15,-3.061 0.453,-3.867 0.303,-0.806 0.783,-1.208 1.441,-1.208 a 1.52,1.52 0 0 1 0.242,0.018 z m -11.921,0.001 c 0.541,0.088 0.944,0.485 1.209,1.19 0.303,0.806 0.454,2.094 0.454,3.867 0,1.766 -0.151,3.051 -0.454,3.857 -0.303,0.806 -0.787,1.208 -1.45,1.208 -0.657,0 -1.137,-0.402 -1.44,-1.208 -0.303,-0.806 -0.456,-2.091 -0.456,-3.857 0,-1.772 0.153,-3.063 0.456,-3.869 0.303,-0.806 0.783,-1.208 1.441,-1.208 a 1.49,1.49 0 0 1 0.24,0.02 z m 11.926,3.87 c -0.079,-0.015 -0.16,-0.023 -0.246,-0.023 -0.335,0 -0.619,0.115 -0.851,0.347 a 1.17,1.17 0 0 0 -0.348,0.861 1.17,1.17 0 0 0 0.348,0.861 c 0.232,0.226 0.515,0.339 0.85,0.339 a 1.17,1.17 0 0 0 0.861,-0.348 c 0.232,-0.232 0.349,-0.516 0.349,-0.851 a 1.17,1.17 0 0 0 -0.348,-0.861 c -0.174,-0.174 -0.38,-0.282 -0.615,-0.326 z m -11.921,0 c -0.079,-0.015 -0.16,-0.023 -0.246,-0.023 a 1.16,1.16 0 0 0 -0.851,0.349 c -0.232,0.232 -0.348,0.517 -0.348,0.859 a 1.17,1.17 0 0 0 0.348,0.861 c 0.232,0.226 0.517,0.339 0.852,0.339 0.342,0 0.627,-0.116 0.859,-0.348 0.232,-0.232 0.349,-0.516 0.349,-0.851 a 1.17,1.17 0 0 0 -0.348,-0.861 c -0.174,-0.174 -0.38,-0.282 -0.615,-0.326 z m 85.024,18.705 h -2.756 l -2.986,0.715 -0.001,2.572 2.969,-0.733 v 9.367 h -3.191 v 2.513 h 9.155 v -2.513 l -3.191,-0.001 v -11.919 z m -11.921,0 -2.756,-10e-4 -2.987,0.716 0.001,2.57 2.968,-0.733 v 9.367 l -3.191,10e-4 v 2.515 l 9.155,-0.002 v -2.513 h -3.191 v -11.921 z m -12.891,-0.196 c -0.271,-0.044 -0.558,-0.065 -0.858,-0.065 -1.592,0 -2.783,0.625 -3.575,1.876 -0.793,1.244 -1.19,3.115 -1.19,5.616 0,2.494 0.396,4.366 1.188,5.617 0.793,1.244 1.986,1.867 3.578,1.867 1.598,0 2.793,-0.622 3.586,-1.866 0.793,-1.244 1.19,-3.115 1.19,-5.616 0,-2.507 -0.396,-4.383 -1.189,-5.627 -0.644,-1.011 -1.555,-1.612 -2.731,-1.802 z m -11.921,0 c -0.271,-0.044 -0.556,-0.065 -0.856,-0.065 -1.592,0 -2.785,0.625 -3.577,1.875 -0.793,1.244 -1.19,3.117 -1.19,5.618 0,2.494 0.398,4.367 1.19,5.617 0.793,1.244 1.985,1.865 3.577,1.865 1.598,0 2.793,-0.622 3.586,-1.866 0.793,-1.244 1.19,-3.115 1.19,-5.616 0,-2.507 -0.396,-4.383 -1.189,-5.627 -0.644,-1.011 -1.555,-1.612 -2.731,-1.802 z m 11.304,2.371 c 0.541,0.088 0.944,0.485 1.209,1.19 0.303,0.806 0.454,2.094 0.454,3.867 0,1.766 -0.151,3.051 -0.454,3.857 -0.303,0.806 -0.787,1.208 -1.45,1.208 -0.657,0 -1.137,-0.402 -1.44,-1.208 -0.303,-0.806 -0.456,-2.091 -0.456,-3.857 0,-1.772 0.152,-3.061 0.455,-3.867 0.303,-0.806 0.783,-1.21 1.441,-1.21 a 1.49,1.49 0 0 1 0.24,0.02 z m -22.254,-2.176 -2.756,10e-4 -2.986,0.715 -0.001,2.572 2.97,-0.735 v 9.369 l -3.191,0.001 v 2.513 h 9.155 v -2.513 l -3.191,-0.001 v -11.921 z m 10.333,2.175 c 0.541,0.088 0.944,0.485 1.209,1.19 0.303,0.806 0.456,2.095 0.456,3.867 0,1.766 -0.153,3.051 -0.456,3.857 -0.303,0.806 -0.787,1.21 -1.451,1.21 -0.657,0 -1.137,-0.404 -1.44,-1.21 -0.303,-0.806 -0.454,-2.091 -0.454,-3.857 0,-1.772 0.15,-3.061 0.453,-3.867 0.303,-0.806 0.783,-1.208 1.441,-1.208 0.083,0 0.163,0.005 0.24,0.018 z m -23.224,-2.369 a 5.39,5.39 0 0 0 -0.857,-0.067 c -1.592,0 -2.785,0.625 -3.577,1.875 -0.793,1.244 -1.188,3.117 -1.188,5.618 0,2.494 0.396,4.366 1.188,5.617 0.793,1.244 1.985,1.867 3.577,1.867 1.598,0 2.795,-0.622 3.588,-1.866 0.793,-1.244 1.188,-3.117 1.188,-5.618 0,-2.507 -0.396,-4.383 -1.189,-5.627 a 3.82,3.82 0 0 0 -2.729,-1.799 z m 35.149,6.239 c -0.079,-0.014 -0.16,-0.021 -0.246,-0.021 -0.335,0 -0.619,0.115 -0.851,0.347 -0.232,0.232 -0.346,0.519 -0.346,0.861 0,0.342 0.116,0.627 0.348,0.859 0.232,0.226 0.515,0.339 0.85,0.339 a 1.17,1.17 0 0 0 0.861,-0.348 c 0.232,-0.232 0.347,-0.516 0.347,-0.851 a 1.17,1.17 0 0 0 -0.348,-0.861 c -0.174,-0.174 -0.38,-0.282 -0.615,-0.326 z m -47.07,-6.24 c -0.271,-0.044 -0.558,-0.065 -0.858,-0.065 -1.592,0 -2.783,0.625 -3.575,1.876 -0.793,1.244 -1.19,3.115 -1.19,5.616 0,2.494 0.396,4.366 1.188,5.617 0.793,1.244 1.986,1.867 3.578,1.867 1.598,0 2.793,-0.622 3.586,-1.866 0.793,-1.244 1.19,-3.117 1.19,-5.618 0,-2.507 -0.398,-4.383 -1.191,-5.627 a 3.82,3.82 0 0 0 -2.729,-1.799 z m 11.305,2.369 c 0.541,0.088 0.944,0.485 1.209,1.19 0.303,0.806 0.454,2.096 0.454,3.869 0,1.766 -0.151,3.051 -0.454,3.857 -0.303,0.806 -0.787,1.208 -1.45,1.208 -0.657,0 -1.139,-0.403 -1.442,-1.208 -0.303,-0.805 -0.453,-2.093 -0.453,-3.859 0,-1.772 0.152,-3.061 0.455,-3.867 0.303,-0.806 0.783,-1.208 1.441,-1.208 0.083,0 0.163,0.005 0.24,0.018 z m 23.847,3.871 c -0.079,-0.014 -0.162,-0.021 -0.248,-0.021 -0.335,0 -0.617,0.115 -0.849,0.347 a 1.17,1.17 0 0 0 -0.348,0.861 1.17,1.17 0 0 0 0.348,0.861 c 0.232,0.226 0.516,0.337 0.851,0.337 a 1.17,1.17 0 0 0 0.861,-0.348 c 0.232,-0.232 0.347,-0.516 0.347,-0.851 0,-0.342 -0.116,-0.627 -0.348,-0.859 -0.174,-0.174 -0.377,-0.284 -0.613,-0.327 z m -46.1,-6.045 -2.756,-0.001 -2.989,0.716 0.001,2.572 2.968,-0.735 v 9.369 l -3.191,-10e-4 v 2.515 h 9.157 v -2.515 h -3.191 v -11.921 z m 10.333,2.175 c 0.541,0.088 0.944,0.485 1.209,1.19 0.303,0.806 0.454,2.094 0.454,3.867 0,1.766 -0.151,3.051 -0.454,3.857 -0.303,0.806 -0.787,1.208 -1.45,1.208 -0.657,0 -1.137,-0.402 -1.44,-1.208 -0.303,-0.806 -0.456,-2.091 -0.456,-3.857 0,-1.772 0.152,-3.061 0.455,-3.867 0.303,-0.806 0.783,-1.21 1.441,-1.21 a 1.49,1.49 0 0 1 0.24,0.02 z m 11.926,3.87 a 1.35,1.35 0 0 0 -0.246,-0.023 1.16,1.16 0 0 0 -0.851,0.349 c -0.232,0.232 -0.348,0.517 -0.348,0.859 a 1.17,1.17 0 0 0 0.348,0.861 c 0.232,0.226 0.517,0.339 0.852,0.339 0.342,0 0.627,-0.116 0.859,-0.348 0.232,-0.232 0.349,-0.516 0.349,-0.851 a 1.17,1.17 0 0 0 -0.348,-0.861 c -0.174,-0.174 -0.38,-0.282 -0.615,-0.326 z m -11.921,0 a 1.35,1.35 0 0 0 -0.246,-0.023 1.16,1.16 0 0 0 -0.851,0.349 1.17,1.17 0 0 0 -0.348,0.861 c 0,0.342 0.118,0.627 0.35,0.859 0.232,0.226 0.515,0.339 0.85,0.339 0.342,0 0.627,-0.116 0.859,-0.348 0.232,-0.232 0.349,-0.516 0.349,-0.851 a 1.17,1.17 0 0 0 -0.348,-0.861 c -0.174,-0.174 -0.38,-0.282 -0.615,-0.326 z"
       fill="url(#f)"
       id="path421"
       style="fill:url(#f)" />
  </g>
  <path
     d="m 221.1622,129.09 c -26.794,21.983 -41.808,21.007 -38.075,13.138 3.733,-7.869 42.326,-41.655 51.447,-43.747996 9.121,-2.093 2.275,18.040996 -13.372,30.609996 z"
     opacity="0.765"
     fill="url(#i)"
     id="path425"
     style="fill:url(#i)" />
  <g
     aria-label="OpenStreetMap"
     id="text658"
     style="font-weight:bold;font-size:85.3333px;line-height:1.25;font-family:Sarabun;-inkscape-font-specification:'Sarabun Bold';letter-spacing:0px;word-spacing:0px">
    <path
       d="m 313.94661,108.3168 q -8.27733,0 -14.33599,-3.66934 -6.05867,-3.66933 -9.30133,-10.581325 -3.15734,-6.911997 -3.15734,-16.469326 0,-9.55733 3.15734,-16.469327 3.24266,-6.911997 9.30133,-10.581329 6.05866,-3.669332 14.33599,-3.669332 8.36266,0 14.33599,3.669332 6.05867,3.669332 9.216,10.581329 3.24267,6.911997 3.24267,16.469327 0,9.557329 -3.24267,16.469326 -3.15733,6.911995 -9.216,10.581325 -5.97333,3.66934 -14.33599,3.66934 z m 0,-9.728 q 6.82666,0 10.66666,-5.546664 3.92533,-5.631998 3.92533,-15.445327 0,-9.81333 -3.92533,-15.359994 -3.84,-5.631998 -10.66666,-5.631998 -6.74133,0 -10.66666,5.631998 -3.84,5.546664 -3.84,15.359994 0,9.813329 3.84,15.445327 3.92533,5.546664 10.66666,5.546664 z"
       id="path496" />
    <path
       d="m 347.90931,76.146143 q 0,-6.911998 -0.34134,-11.349329 h 10.24 q 0.256,2.559999 0.256,5.631998 h 0.17067 q 2.13333,-3.071999 5.54666,-4.778665 3.41333,-1.706666 7.59466,-1.706666 8.10667,0 12.8,5.973331 4.69333,5.973331 4.69333,16.29866 0,10.325329 -4.77866,16.213328 -4.69334,5.888 -13.056,5.888 -4.096,0 -7.25333,-1.36534 -3.15733,-1.36533 -4.69333,-3.84 h -0.256 v 25.00266 h -10.92266 z m 20.73599,24.063987 q 4.52266,0 6.912,-3.669329 2.38933,-3.754665 2.38933,-10.666662 0,-13.567995 -9.13066,-13.567995 -4.43734,0 -7.25334,2.645332 -2.73066,2.559999 -2.73066,6.826664 v 8.78933 q 0,4.095998 2.816,6.911997 2.816,2.730663 6.99733,2.730663 z"
       id="path498" />
    <path
       d="m 435.20532,90.140803 h -29.69599 q 1.36534,9.04533 10.496,9.04533 3.75466,0 6.48533,-1.28 2.816,-1.279999 5.46133,-4.266664 l 5.888,5.631997 q -2.47467,4.095994 -7.50933,6.570664 -4.94933,2.47467 -10.92266,2.47467 -9.984,0 -15.53066,-5.80267 -5.54667,-5.887996 -5.54667,-16.213325 0,-10.410662 5.54667,-16.383993 5.63199,-5.973331 15.44532,-5.973331 9.38667,0 14.592,5.887998 5.29066,5.887997 5.29066,16.383993 z m -10.66666,-7.935996 q 0,-4.351998 -2.56,-6.826664 -2.47467,-2.559999 -6.912,-2.559999 -4.01066,0 -6.48533,2.645332 -2.47466,2.559999 -3.15733,7.25333 h 19.11466 z"
       id="path500" />
    <path
       d="m 441.8613,76.060809 q 0,-7.76533 -0.34134,-11.263995 h 10.24 q 0.42667,3.583998 0.42667,7.423997 h 0.256 q 1.53599,-3.754665 5.37599,-5.973331 3.92534,-2.303999 8.704,-2.303999 7.33866,0 11.09333,4.949331 3.75466,4.949332 3.75466,14.591994 V 107.46346 H 470.53328 V 83.399473 q 0,-5.546664 -1.79199,-8.106663 -1.792,-2.559999 -5.71734,-2.559999 -4.52266,0 -7.42399,3.242665 -2.816,3.157332 -2.816,8.191997 V 107.46346 H 441.8613 Z"
       id="path502" />
    <path
       d="m 509.27457,108.3168 q -6.74133,0 -12.20266,-2.73067 -5.376,-2.73067 -8.78933,-7.850663 l 7.08267,-6.826664 q 2.81599,3.327999 6.82666,5.461331 4.01066,2.133333 7.50933,2.133333 3.92533,0 6.31466,-1.792 2.38934,-1.791999 2.38934,-4.693331 0,-2.133333 -0.768,-3.498665 -0.768,-1.365333 -2.90134,-2.730666 -2.13333,-1.450666 -6.99733,-3.839998 -6.39999,-3.157332 -10.06933,-5.887998 -3.66933,-2.730665 -5.46133,-5.887997 -1.70666,-3.242666 -1.70666,-7.50933 0,-4.693332 2.47466,-8.27733 2.47467,-3.583999 6.99733,-5.546665 4.52267,-1.962666 10.41067,-1.962666 6.48533,0 11.43466,2.474666 5.03466,2.474666 7.33866,6.826664 l -7.76533,5.802664 q -4.26666,-5.290664 -10.49599,-5.290664 -3.92534,0 -6.05867,1.535999 -2.13333,1.535999 -2.13333,4.351998 0,1.706666 1.024,3.071999 1.10933,1.365333 3.92533,2.986665 2.816,1.621333 8.448,4.266665 5.46133,2.559999 8.53333,5.119998 3.15733,2.559999 4.52266,5.717331 1.36533,3.157332 1.36533,7.50933 0,5.119998 -2.64533,9.045334 -2.56,3.83999 -7.42399,5.97333 -4.77867,2.048 -11.17867,2.048 z"
       id="path504" />
    <path
       d="m 555.61061,108.3168 q -6.57066,0 -10.23999,-3.584 -3.66933,-3.584 -3.66933,-10.069332 V 72.903477 h -7.76533 v -8.106663 h 7.76533 V 53.788819 l 10.58133,-3.071999 h 0.34133 v 14.079994 h 12.37333 v 8.106663 h -12.37333 v 20.138659 q 0,3.669331 1.70666,5.375997 1.70667,1.706667 5.20534,1.706667 3.32799,0 6.22933,-1.024 l 0.512,7.424 q -3.84,1.792 -10.66667,1.792 z"
       id="path506" />
    <path
       d="m 573.35995,75.207476 q 0,-7.25333 -0.256,-10.410662 h 10.32533 q 0.34133,3.327999 0.34133,7.50933 v 0.853333 h 0.34134 q 1.62133,-4.181331 5.71733,-6.655997 4.096,-2.559999 9.38666,-2.559999 1.024,0 2.56,0.256 v 8.618663 q -0.34133,-0.170667 -2.048,-0.170667 -4.096,0 -7.68,2.218666 -3.49866,2.218666 -5.63199,5.973331 -2.13334,3.669332 -2.13334,7.935997 v 18.687989 h -10.92266 z"
       id="path508" />
    <path
       d="m 646.23453,90.140803 h -29.69599 q 1.36533,9.04533 10.49599,9.04533 3.75467,0 6.48534,-1.28 2.81599,-1.279999 5.46133,-4.266664 l 5.88799,5.631997 q -2.47466,4.095994 -7.50933,6.570664 -4.94933,2.47467 -10.92266,2.47467 -9.98399,0 -15.53066,-5.80267 -5.54666,-5.887996 -5.54666,-16.213325 0,-10.410662 5.54666,-16.383993 5.632,-5.973331 15.44533,-5.973331 9.38666,0 14.59199,5.887998 5.29067,5.887997 5.29067,16.383993 z m -10.66667,-7.935996 q 0,-4.351998 -2.55999,-6.826664 -2.47467,-2.559999 -6.912,-2.559999 -4.01067,0 -6.48533,2.645332 -2.47467,2.559999 -3.15733,7.25333 h 19.11465 z"
       id="path510" />
    <path
       d="m 692.48517,90.140803 h -29.69599 q 1.36533,9.04533 10.496,9.04533 3.75466,0 6.48533,-1.28 2.81599,-1.279999 5.46133,-4.266664 l 5.88799,5.631997 q -2.47466,4.095994 -7.50933,6.570664 -4.94933,2.47467 -10.92266,2.47467 -9.98399,0 -15.53066,-5.80267 -5.54666,-5.887996 -5.54666,-16.213325 0,-10.410662 5.54666,-16.383993 5.632,-5.973331 15.44533,-5.973331 9.38666,0 14.59199,5.887998 5.29067,5.887997 5.29067,16.383993 z m -10.66666,-7.935996 q 0,-4.351998 -2.56,-6.826664 -2.47467,-2.559999 -6.912,-2.559999 -4.01067,0 -6.48533,2.645332 -2.47467,2.559999 -3.15733,7.25333 h 19.11466 z"
       id="path512" />
    <path
       d="m 717.82915,108.3168 q -6.57066,0 -10.24,-3.584 -3.66933,-3.584 -3.66933,-10.069332 V 72.903477 h -7.76533 v -8.106663 h 7.76533 V 53.788819 l 10.58133,-3.071999 h 0.34133 v 14.079994 h 12.37333 v 8.106663 h -12.37333 v 20.138659 q 0,3.669331 1.70667,5.375997 1.70667,1.706667 5.20533,1.706667 3.328,0 6.22933,-1.024 l 0.512,7.424 q -3.84,1.792 -10.66666,1.792 z"
       id="path514" />
    <path
       d="M 794.7998,47.730154 V 107.46346 H 782.68247 V 72.306144 l -12.544,35.157316 h -8.70399 l -12.544,-35.157316 V 107.46346 H 736.77315 V 47.730154 h 12.88533 l 16.12799,46.165314 16.128,-46.165314 z"
       id="path516" />
    <path
       d="m 817.75444,108.3168 q -4.18133,0 -7.50933,-1.70667 -3.328,-1.792 -5.20533,-4.864 -1.87733,-3.15733 -1.87733,-6.997329 0,-6.570663 5.20533,-10.069329 5.20533,-3.498665 14.84799,-3.498665 h 6.656 v -1.791999 q 0,-3.413332 -2.048,-5.205331 -1.96267,-1.877333 -5.632,-1.877333 -3.84,0 -7.33866,1.365333 -3.49867,1.365333 -5.71733,3.754665 l -4.77867,-6.314664 q 3.49867,-3.327999 8.27733,-5.205331 4.77867,-1.962666 9.89867,-1.962666 8.53332,0 13.39732,4.010665 4.864,4.010665 4.864,11.093329 v 19.455992 q 0,1.962663 0.256,4.607993 0.34133,2.64534 0.768,4.352 h -9.64266 q -0.512,-1.10933 -0.768,-2.13333 -0.256,-1.10933 -0.42667,-2.98667 h -0.17067 q -4.86399,5.97334 -13.05599,5.97334 z m 2.64533,-8.192 q 4.096,0 6.74133,-2.048 2.73067,-2.133332 2.73067,-5.375998 v -4.266665 h -6.99733 q -4.352,0 -6.74133,1.621333 -2.304,1.621333 -2.304,4.693331 0,2.559999 1.70666,4.010665 1.792,1.365334 4.864,1.365334 z"
       id="path518" />
    <path
       d="m 850.26635,76.146143 q 0,-6.911998 -0.34134,-11.349329 h 10.24 q 0.256,2.559999 0.256,5.631998 h 0.17067 q 2.13333,-3.071999 5.54666,-4.778665 3.41333,-1.706666 7.59466,-1.706666 8.10667,0 12.8,5.973331 4.69333,5.973331 4.69333,16.29866 0,10.325329 -4.77866,16.213328 -4.69334,5.888 -13.056,5.888 -4.096,0 -7.25333,-1.36534 -3.15733,-1.36533 -4.69333,-3.84 h -0.256 v 25.00266 h -10.92266 z m 20.73599,24.063987 q 4.52266,0 6.912,-3.669329 2.38933,-3.754665 2.38933,-10.666662 0,-13.567995 -9.13066,-13.567995 -4.43734,0 -7.25333,2.645332 -2.73067,2.559999 -2.73067,6.826664 v 8.78933 q 0,4.095998 2.816,6.911997 2.816,2.730663 6.99733,2.730663 z"
       id="path520" />
  </g>
  <g
     aria-label="Deutschland"
     id="text658-3"
     style="font-size:64px;line-height:1.25;font-family:Sarabun;-inkscape-font-specification:Sarabun;letter-spacing:0px;word-spacing:0px">
    <path
       d="m 497.36091,132.5781 h 14.208 q 8.768,0 13.184,5.44 4.48,5.44 4.48,16.064 0,8.32 -1.984,13.44 -1.984,5.056 -6.272,7.488 -4.224,2.368 -11.2,2.368 h -12.416 z m 13.44,39.936 q 6.528,0 9.536,-4.416 3.008,-4.416 3.008,-14.016 0,-8.512 -2.944,-12.544 -2.944,-4.096 -9.088,-4.096 h -8.064 v 35.072 z"
       id="path523" />
    <path
       d="m 562.89686,163.4901 h -23.04 q 0.448,4.864 2.88,7.424 2.432,2.496 6.72,2.496 5.76,0 9.152,-4.544 l 3.072,2.944 q -1.856,2.944 -5.184,4.608 -3.264,1.6 -7.232,1.6 -7.104,0 -11.008,-4.352 -3.904,-4.352 -3.904,-12.224 0,-7.808 3.904,-12.224 3.968,-4.48 10.88,-4.48 6.464,0 10.112,4.416 3.648,4.352 3.648,12.224 z m -4.992,-4.48 q 0,-4.608 -2.432,-7.232 -2.368,-2.624 -6.592,-2.624 -3.968,0 -6.336,2.688 -2.304,2.688 -2.688,7.616 h 18.048 z"
       id="path525" />
    <path
       d="m 580.30484,178.0181 q -5.504,0 -8.384,-3.584 -2.816,-3.584 -2.816,-10.56 v -18.496 h 5.44 v 18.56 q 0,9.728 6.912,9.728 2.688,0 4.864,-1.344 2.176,-1.408 3.392,-3.84 1.216,-2.496 1.216,-5.568 v -17.536 h 5.44 v 25.216 q 0,3.2 0.576,6.784 h -4.992 q -0.576,-2.816 -0.64,-5.696 h -0.192 q -1.408,2.944 -4.352,4.672 -2.88,1.664 -6.464,1.664 z"
       id="path527" />
    <path
       d="m 616.01684,178.0181 q -4.224,0 -6.656,-2.688 -2.432,-2.752 -2.432,-7.552 v -18.176 h -5.76 v -4.224 h 5.76 v -8.512 l 5.184,-1.6 h 0.256 v 10.112 h 9.088 v 4.224 h -9.088 v 17.664 q 0,3.264 1.216,4.864 1.216,1.536 3.776,1.536 2.752,0 4.48,-0.704 l 0.384,4.032 q -2.112,1.024 -6.208,1.024 z"
       id="path529" />
    <path
       d="m 637.45689,178.0181 q -3.584,0 -6.528,-1.472 -2.88,-1.472 -4.096,-3.904 l 3.52,-2.432 q 1.088,1.728 3.008,2.688 1.92,0.96 4.16,0.96 2.688,0 4.416,-1.536 1.792,-1.6 1.792,-3.968 0,-1.92 -1.408,-3.2 -1.408,-1.28 -4.992,-2.624 -5.44,-1.984 -7.68,-4.16 -2.176,-2.176 -2.176,-5.376 0,-3.712 2.944,-5.952 2.944,-2.304 7.808,-2.304 3.136,0 5.696,1.344 2.624,1.344 4.032,3.712 l -3.328,2.432 q -2.24,-3.328 -6.4,-3.328 -2.368,0 -3.904,1.088 -1.472,1.088 -1.472,2.816 0,1.728 1.536,2.944 1.536,1.152 5.696,2.752 4.928,1.856 6.976,4.096 2.048,2.176 2.048,5.568 0,4.48 -3.2,7.168 -3.2,2.688 -8.448,2.688 z"
       id="path531" />
    <path
       d="m 668.43291,178.0181 q -7.104,0 -11.072,-4.352 -3.904,-4.416 -3.904,-12.288 0,-7.872 3.904,-12.224 3.968,-4.416 11.072,-4.416 4.032,0 7.104,1.6 3.136,1.536 4.928,4.48 l -3.264,2.944 q -1.408,-2.176 -3.712,-3.392 -2.24,-1.28 -4.864,-1.28 -4.544,0 -7.168,3.264 -2.56,3.2 -2.56,9.024 0,5.76 2.56,9.024 2.624,3.264 7.168,3.264 2.624,0 4.864,-1.216 2.304,-1.28 3.712,-3.456 l 3.264,2.944 q -1.792,2.944 -4.928,4.544 -3.072,1.536 -7.104,1.536 z"
       id="path533" />
    <path
       d="m 685.45689,129.8901 h 5.44 v 20.48 q 1.472,-2.624 4.288,-4.096 2.88,-1.536 6.4,-1.536 5.632,0 8.704,3.776 3.072,3.712 3.072,10.56 v 18.304 h -5.44 v -18.368 q 0,-4.928 -1.92,-7.488 -1.856,-2.624 -5.376,-2.624 -2.752,0 -4.992,1.408 -2.24,1.408 -3.52,3.968 -1.216,2.496 -1.216,5.632 v 17.472 h -5.44 z"
       id="path535" />
    <path
       d="m 728.65692,178.0181 q -6.912,0 -6.912,-8.128 v -40 h 5.44 v 39.936 q 0,2.24 0.704,3.2 0.768,0.896 2.56,0.896 1.408,0 3.2,-0.768 l 0.832,3.264 q -2.432,1.6 -5.824,1.6 z"
       id="path537" />
    <path
       d="m 749.20095,178.0181 q -4.736,0 -7.744,-2.752 -3.008,-2.752 -3.008,-7.104 0,-4.8 3.584,-7.424 3.648,-2.624 10.304,-2.624 h 6.592 v -1.664 q 0,-3.584 -1.92,-5.44 -1.856,-1.92 -5.44,-1.92 -2.88,0 -5.312,1.216 -2.368,1.152 -3.968,3.392 l -2.752,-3.328 q 2.176,-2.752 5.312,-4.16 3.136,-1.472 6.976,-1.472 6.016,0 9.28,2.944 3.264,2.944 3.264,8.448 v 15.04 q 0,2.496 0.768,6.208 h -4.736 q -0.576,-1.472 -0.832,-4.48 h -0.128 q -1.792,2.496 -4.416,3.84 -2.624,1.28 -5.824,1.28 z m 0.832,-4.288 q 2.432,0 4.48,-0.896 2.048,-0.96 3.2,-2.56 1.216,-1.6 1.216,-3.52 v -4.736 h -6.784 q -4.032,0 -6.208,1.6 -2.176,1.6 -2.176,4.544 0,2.56 1.664,4.096 1.728,1.472 4.608,1.472 z"
       id="path539" />
    <path
       d="m 772.62494,153.4421 q 0,-6.08 -0.256,-8.064 h 5.056 q 0.256,2.112 0.256,5.696 h 0.192 q 1.408,-2.944 4.288,-4.608 2.944,-1.728 6.528,-1.728 5.632,0 8.448,3.648 2.816,3.648 2.816,10.88 v 18.112 h -5.44 v -18.176 q 0,-5.12 -1.728,-7.616 -1.728,-2.496 -5.248,-2.496 -2.688,0 -4.864,1.408 -2.176,1.344 -3.392,3.84 -1.216,2.432 -1.216,5.504 v 17.536 h -5.44 z"
       id="path541" />
    <path
       d="m 819.53693,178.0181 q -6.208,0 -9.856,-4.608 -3.584,-4.608 -3.584,-12.608 0,-4.864 1.664,-8.448 1.664,-3.648 4.736,-5.632 3.072,-1.984 7.168,-1.984 5.888,0 9.472,4.928 h 0.128 v -19.776 h 5.376 v 39.424 q 0,5.952 0.192,8.064 h -4.992 q -0.128,-1.536 -0.128,-5.056 h -0.128 q -1.472,2.56 -4.224,4.16 -2.752,1.536 -5.824,1.536 z m 0.768,-4.352 q 4.096,0 6.464,-2.432 2.432,-2.496 2.432,-6.656 v -5.824 q 0,-4.48 -2.432,-7.168 -2.432,-2.688 -6.464,-2.688 -4.096,0 -6.464,3.2 -2.304,3.136 -2.304,8.832 0,5.952 2.304,9.344 2.368,3.392 6.464,3.392 z"
       id="path543" />
  </g>
</svg>
