<?xml version="1.0" encoding="UTF-8" standalone="no"?>
<svg
   xmlns="http://www.w3.org/2000/svg"
   version="1.1"
   x="0"
   y="0"
   width="23.684996"
   height="23.334642"
   viewBox="0 0 23.684996 23.334642">
  <rect
     style="fill:#000000;fill-opacity:0.76807233;stroke:none;stroke-width:1.77165353;stroke-linecap:round;stroke-linejoin:round;stroke-miterlimit:4;stroke-dasharray:none;stroke-dashoffset:0;stroke-opacity:0.68072288"
     width="23.684996"
     height="23.334642"
     x="0"
     y="0"
     rx="0"
     ry="0"
     />
  <g
     style="fill:#ffffff;fill-opacity:1"
     transform="translate(-237.42027,1.6386468)">
    <path
       style="fill:#ffffff;fill-opacity:1"
       d="m 257,12 0,2 2,0 0,2 -2,0 0,2 -2,0 0,-2 -2,0 0,-2 2,0 0,-2 2,0 z"/>
    <path
       style="fill:#ffffff;fill-opacity:1"
       d="m 242,11 0,-7 c 0,-0.7607412 0.34261,-1 1,-1 l 10,0 c 0.80491,0 1,0.4005286 1,1 l 0,7 c 0,0.622778 -0.4528,1 -1,1 l -3,0 -2,3 -2,-3 -3,0 c -0.57872,0 -1,-0.259387 -1,-1 z"/>
  </g>
</svg>
